<?xml version="1.0" encoding="utf-8"?>
<!-- Generator: Adobe Illustrator 17.1.0, SVG Export Plug-In . SVG Version: 6.00 Build 0)  -->
<!DOCTYPE svg PUBLIC "-//W3C//DTD SVG 1.1//EN" "http://www.w3.org/Graphics/SVG/1.1/DTD/svg11.dtd" []>
<svg xmlns="http://www.w3.org/2000/svg" xmlns:xlink="http://www.w3.org/1999/xlink" x="0px" y="0px" viewBox="0 0 22.8 7.3"
	 enable-background="new 0 0 22.8 7.3" xml:space="preserve">
<metadata>
	<sfw >
		<slices></slices>
		<sliceSourceBounds  width="22.8" height="7.3" y="-283.5" x="468.9" bottomLeftOrigin="true"></sliceSourceBounds>
	</sfw>
</metadata>
<g>
	<path fill="#FFFFFF" d="M2.7,1.1c0.1,0.1,0.2,0.2,0.2,0.4c0,0.2,0,0.3-0.2,0.4C2.7,2.1,2.5,2.2,2.4,2.2c-0.2,0-0.3,0-0.4-0.2
		C1.8,1.9,1.8,1.8,1.7,1.7c0-0.1,0-0.3,0-0.4c0-0.1,0.1-0.2,0.2-0.3c0.2-0.3,0.5-0.6,0.9-0.7C3.2,0.1,3.6,0,4,0C4.4,0,4.7,0,5,0.1
		c0.3,0.1,0.6,0.2,0.8,0.4C6,0.7,6.1,0.9,6.3,1.2C6.4,1.4,6.5,1.7,6.5,2c0,0.2,0,0.5-0.1,0.7C6.3,2.9,6.2,3.1,6.1,3.3
		C5.9,3.5,5.8,3.7,5.6,3.8C5.4,4,5.2,4.1,5,4.2c0.2,0,0.4,0.1,0.5,0.3c0.1,0.1,0.2,0.3,0.3,0.5c0.1,0.2,0.1,0.4,0.1,0.6
		c0,0.2-0.1,0.4-0.1,0.6C5.6,6.4,5.5,6.6,5.3,6.7C5.1,6.9,4.9,7,4.7,7.1C4.5,7.2,4.3,7.3,4,7.3c-0.3,0-0.5,0-0.8-0.1
		C3.1,7.1,2.9,7,2.7,6.9C2.6,6.8,2.5,6.7,2.4,6.5C2.2,6.7,2.1,6.8,1.9,6.8C1.8,6.9,1.6,7,1.4,7c-0.3,0-0.5,0-0.7-0.1
		C0.5,6.7,0.4,6.6,0.3,6.5C0.2,6.4,0.1,6.3,0.1,6.2C0,6,0,5.9,0,5.9c0-0.1,0-0.2,0-0.2c0-0.1,0.1-0.1,0.1-0.2
		c0.1-0.1,0.2-0.2,0.4-0.2c0.2,0,0.3,0,0.4,0.1c0.1,0.1,0.2,0.2,0.2,0.4c0,0.2,0,0.3-0.1,0.4c0,0-0.1,0.1-0.1,0.1c0,0,0.1,0,0.1,0
		c0,0,0.1,0,0.1,0c0.1,0,0.2,0,0.4-0.1c0.1-0.1,0.2-0.2,0.3-0.4C2,5.7,2.1,5.5,2.2,5.2C2.3,4.9,2.4,4.5,2.5,4
		c0.2-0.8,0.4-1.4,0.8-1.8C3.6,1.8,4,1.5,4.6,1.4c0.1,0,0.1,0,0.2,0c0,0,0.1,0.1,0.1,0.1c0,0,0,0.1,0,0.1c0,0-0.1,0.1-0.2,0.1
		C4.4,1.9,4.1,2.1,3.9,2.5C3.8,2.8,3.6,3.2,3.5,3.7c0,0,0.1,0,0.2,0c0.1,0,0.1,0,0.1,0c0.4,0,0.7-0.1,0.9-0.3C4.9,3.3,5.1,3,5.3,2.7
		C5.4,2.4,5.4,2.2,5.4,2c0-0.2,0-0.4-0.1-0.6S5.2,1.1,5,0.9C4.9,0.8,4.7,0.7,4.5,0.6c-0.4-0.1-0.7-0.1-1.1,0C3.1,0.7,2.8,0.8,2.6,1
		C2.6,1,2.6,1.1,2.7,1.1C2.7,1.1,2.7,1.1,2.7,1.1z M4.3,4.3c-0.1,0-0.3,0-0.4-0.1c-0.1,0-0.3-0.1-0.4-0.2v0c-0.1,0.3-0.2,0.7-0.3,1
		C3,5.4,2.9,5.7,2.7,6c0,0.2,0.1,0.3,0.2,0.4C3,6.6,3.1,6.6,3.2,6.7c0.2,0.1,0.5,0,0.8-0.1s0.5-0.4,0.6-0.8c0.1-0.2,0.1-0.4,0.1-0.5
		s0-0.3,0-0.4c0-0.1-0.1-0.2-0.2-0.3C4.5,4.4,4.4,4.3,4.3,4.3z"/>
	<path fill="#FFFFFF" d="M8.5,4C8.6,4,8.6,4,8.7,3.9c0.1,0,0.1,0,0.1,0c0,0,0.1,0,0.1,0.1c0,0,0,0.1-0.1,0.2
		C8.7,4.2,8.7,4.3,8.5,4.5S8.3,4.7,8.1,4.8C8,5,7.8,5.1,7.7,5.2C7.5,5.2,7.3,5.3,7.1,5.3C7,5.2,6.8,5.2,6.7,5
		C6.6,4.9,6.5,4.8,6.5,4.6c0-0.2,0-0.4,0-0.6c0-0.2,0.1-0.4,0.2-0.6C6.8,3.3,6.9,3.1,7.1,3c0.2-0.1,0.4-0.2,0.6-0.2
		c0.2,0,0.4,0.1,0.5,0.2c0.1,0.1,0.1,0.3,0.1,0.5C8.2,3.7,8.2,3.9,8,4C7.9,4.2,7.7,4.3,7.4,4.3c0,0-0.1,0-0.1,0c0,0-0.1,0-0.1,0
		c0,0-0.1,0-0.1,0c0,0.1,0,0.1,0,0.2c0,0.1,0,0.1,0.1,0.2c0,0.1,0.1,0.1,0.1,0.1c0.1,0,0.1,0.1,0.2,0.1c0.1,0,0.2,0,0.3-0.1
		c0.1,0,0.2-0.1,0.3-0.2c0.1-0.1,0.2-0.1,0.3-0.2C8.4,4.2,8.5,4.1,8.5,4z M7.8,3.2c-0.1-0.1-0.2-0.1-0.2,0c-0.1,0-0.2,0.1-0.2,0.2
		C7.3,3.5,7.2,3.6,7.2,3.7c0,0.1-0.1,0.2-0.1,0.2c0.1,0,0.2,0,0.3,0c0.1-0.1,0.2-0.1,0.3-0.2c0.1-0.1,0.1-0.2,0.2-0.3
		C7.9,3.3,7.9,3.3,7.8,3.2z"/>
	<path fill="#FFFFFF" d="M8.5,4c0.1-0.1,0.2-0.3,0.3-0.4C8.9,3.5,8.9,3.4,9,3.3C8.9,3.3,8.8,3.2,8.8,3.1c0-0.1,0-0.2,0.1-0.4
		C9,2.6,9,2.5,9.1,2.5c0.1-0.1,0.2-0.1,0.2-0.1c0.1,0,0.1,0.1,0.1,0.2c0,0.1,0,0.2,0,0.4c0.1,0,0.2,0,0.3,0c0.1,0,0.1,0,0.2-0.1
		c0,0,0.1,0,0.1,0c0,0,0.1,0,0.1,0.1c0,0,0.1,0.1,0.1,0.1c0,0,0,0.1,0,0.1c-0.1,0.1-0.1,0.2-0.2,0.4C9.9,3.8,9.9,4,9.8,4.1
		c0,0.2-0.1,0.3-0.1,0.4c0,0.1,0,0.2,0.1,0.2c0.1,0,0.1,0,0.2-0.1c0.1,0,0.1-0.1,0.2-0.2c0.1-0.1,0.2-0.2,0.2-0.2
		c0.1-0.1,0.2-0.2,0.2-0.2c0.1-0.1,0.1-0.1,0.2-0.1c0.1,0,0.1,0,0.1,0c0,0,0,0,0,0.1s0,0.1-0.1,0.1c-0.1,0.2-0.3,0.3-0.4,0.5
		c-0.1,0.1-0.3,0.2-0.4,0.4C10,5.1,9.9,5.2,9.7,5.2c-0.1,0-0.2,0-0.3,0S9.3,5.2,9.2,5.2C9.1,5.1,9.1,5,9.1,4.9c0-0.1,0-0.2,0-0.4
		c0-0.1,0.1-0.3,0.2-0.4C9.3,4,9.4,3.9,9.4,3.8c0.1-0.1,0.1-0.2,0.1-0.3c0-0.1,0-0.1,0-0.1c-0.1,0-0.2,0-0.3,0
		C9.2,3.5,9.1,3.6,9.1,3.8C9,3.9,8.9,4.1,8.8,4.2C8.7,4.2,8.7,4.3,8.6,4.3c-0.1,0-0.1,0-0.1,0c0,0,0-0.1,0-0.1
		C8.5,4.2,8.5,4.1,8.5,4z"/>
	<path fill="#FFFFFF" d="M12.1,2.8c0.2,0,0.4,0.1,0.5,0.3c0,0,0-0.1,0-0.1c0,0,0-0.1,0-0.1l0-0.1h0.7c-0.1,0.2-0.1,0.4-0.2,0.5
		c0,0.1-0.1,0.3-0.1,0.4c0,0.1-0.1,0.2-0.1,0.3c0,0.1-0.1,0.3-0.1,0.4c0,0.1,0,0.2,0,0.2c0.1,0,0.1,0,0.2-0.1c0.1,0,0.1-0.1,0.2-0.1
		c0.1-0.1,0.1-0.1,0.2-0.2c0.1-0.1,0.1-0.1,0.2-0.2c0.1-0.1,0.1-0.1,0.2-0.1c0.1,0,0.1,0,0.1,0c0,0,0,0,0,0.1c0,0,0,0.1-0.1,0.1
		c-0.2,0.2-0.3,0.4-0.5,0.6c-0.1,0.1-0.3,0.3-0.5,0.4c-0.2,0.1-0.4,0.2-0.6,0.2c-0.2,0-0.3,0-0.3-0.1c0-0.1-0.1-0.2,0-0.4
		c-0.2,0.2-0.3,0.3-0.5,0.4c-0.2,0.1-0.3,0.1-0.5,0.1c-0.1,0-0.2-0.1-0.2-0.2c-0.1-0.1-0.1-0.2-0.1-0.3c0-0.1,0-0.3,0-0.4
		c0-0.2,0.1-0.3,0.2-0.5c0.1-0.1,0.2-0.3,0.3-0.4c0.1-0.1,0.2-0.2,0.3-0.3c0.1-0.1,0.2-0.2,0.3-0.2C11.9,2.8,12,2.8,12.1,2.8z
		 M12.2,3.8c0.1-0.2,0.1-0.4,0.1-0.5c0-0.1-0.1-0.2-0.3-0.2c-0.1,0-0.2,0.1-0.3,0.2c-0.1,0.1-0.2,0.3-0.3,0.5c0,0.1-0.1,0.2-0.1,0.3
		c0,0.1-0.1,0.2-0.1,0.3c0,0.1,0,0.2,0,0.2c0,0.1,0,0.1,0.1,0.1c0.1,0,0.1,0,0.2,0c0.1-0.1,0.2-0.1,0.3-0.2c0.1-0.1,0.2-0.2,0.2-0.3
		C12.1,4.1,12.2,3.9,12.2,3.8z"/>
	<path fill="#FFFFFF" d="M13.6,4c0.1-0.1,0.2-0.3,0.3-0.4C14,3.5,14,3.4,14.1,3.2c0.1-0.1,0.2-0.3,0.2-0.4H15c0,0.1-0.1,0.3-0.2,0.5
		s-0.2,0.5-0.3,0.8c0.1-0.2,0.3-0.4,0.4-0.5c0.1-0.2,0.3-0.3,0.4-0.5c0.1-0.1,0.3-0.2,0.4-0.3c0.1-0.1,0.3-0.1,0.4-0.1
		c0.1,0,0.1,0.1,0.1,0.2c0,0.1,0,0.2-0.1,0.4c0,0.1-0.1,0.3-0.1,0.5C16.1,3.9,16,4.1,16,4.2c0,0.1-0.1,0.2-0.1,0.3
		c0,0.1,0,0.1,0,0.1c0.1,0,0.1,0,0.2-0.1c0.1,0,0.1-0.1,0.2-0.1c0.1-0.1,0.1-0.1,0.2-0.2c0.1-0.1,0.1-0.1,0.2-0.2
		c0.1-0.1,0.1-0.1,0.2-0.1c0.1,0,0.1,0,0.1,0c0,0,0,0,0,0.1c0,0,0,0.1-0.1,0.1c-0.2,0.2-0.3,0.4-0.5,0.6C16.4,4.9,16.2,5,16,5.1
		c-0.2,0.1-0.4,0.2-0.6,0.2c-0.1,0-0.2,0-0.3-0.1c-0.1-0.1-0.1-0.2-0.1-0.3c0-0.1,0-0.2,0.1-0.4c0-0.1,0.1-0.3,0.1-0.4
		c0-0.1,0.1-0.2,0.1-0.3c0-0.1,0-0.1,0-0.1c0,0-0.1,0-0.2,0.1C15.2,3.8,15.1,3.9,15,4c-0.1,0.1-0.2,0.2-0.3,0.4
		c-0.1,0.1-0.2,0.3-0.3,0.4c-0.1,0.1-0.2,0.2-0.2,0.3c-0.1,0.1-0.1,0.1-0.1,0.2v0h-0.6c0.1-0.2,0.1-0.4,0.2-0.6
		C13.9,4.4,14,4.1,14,3.9l-0.2,0.3c-0.1,0.1-0.1,0.1-0.2,0.2c-0.1,0-0.1,0-0.1,0c0,0,0-0.1,0-0.1C13.5,4.2,13.5,4.1,13.6,4z"/>
	<path fill="#FFFFFF" d="M18.1,2.8c0.2,0,0.3,0.1,0.5,0.3c0.1-0.2,0.1-0.4,0.2-0.6C18.9,2.2,18.9,2,19,1.9c0.1-0.2,0.1-0.4,0.2-0.5
		h0.7c-0.2,0.5-0.3,0.9-0.4,1.3c-0.1,0.2-0.1,0.3-0.2,0.5c-0.1,0.2-0.1,0.3-0.2,0.4C19,3.7,19,3.8,19,3.9c0,0.1-0.1,0.2-0.1,0.2
		c0,0.1-0.1,0.3-0.1,0.4c0,0.1,0,0.2,0,0.2c0.1,0,0.1,0,0.2-0.1c0.1,0,0.1-0.1,0.2-0.1c0.1-0.1,0.1-0.1,0.2-0.2
		c0.1-0.1,0.1-0.1,0.2-0.2c0.1-0.1,0.1-0.1,0.2-0.1c0.1,0,0.1,0,0.1,0c0,0,0,0,0,0.1c0,0,0,0.1-0.1,0.1c-0.2,0.2-0.3,0.4-0.5,0.6
		c-0.1,0.1-0.3,0.3-0.5,0.4c-0.2,0.1-0.4,0.2-0.6,0.2c-0.2,0-0.3,0-0.3-0.1C18,5,18,4.9,18,4.8c-0.2,0.2-0.3,0.3-0.5,0.4
		c-0.2,0.1-0.3,0.1-0.5,0.1c-0.1,0-0.2-0.1-0.2-0.2c-0.1-0.1-0.1-0.2-0.1-0.3c0-0.1,0-0.3,0-0.4c0-0.2,0.1-0.3,0.2-0.5
		c0.1-0.1,0.2-0.3,0.3-0.4c0.1-0.1,0.2-0.2,0.3-0.3c0.1-0.1,0.2-0.2,0.3-0.2C17.9,2.8,18,2.8,18.1,2.8z M18.3,3.8
		C18.3,3.8,18.3,3.8,18.3,3.8c0-0.1,0.1-0.2,0.1-0.2c0-0.2,0-0.3,0-0.4c0-0.1-0.1-0.1-0.2-0.1c-0.1,0-0.2,0.1-0.3,0.2
		c-0.1,0.1-0.2,0.3-0.3,0.5c0,0.1-0.1,0.2-0.1,0.3c0,0.1-0.1,0.2-0.1,0.3c0,0.1,0,0.2,0,0.2c0,0.1,0,0.1,0.1,0.1c0.1,0,0.1,0,0.2,0
		c0.1-0.1,0.2-0.1,0.3-0.2c0.1-0.1,0.2-0.2,0.2-0.3C18.2,4.1,18.2,3.9,18.3,3.8L18.3,3.8z"/>
	<path fill="#FFFFFF" d="M21,2.8c0.2,0,0.4,0.1,0.5,0.3c0,0,0-0.1,0-0.1c0,0,0-0.1,0-0.1l0-0.1h0.7c-0.1,0.2-0.1,0.4-0.2,0.5
		c0,0.1-0.1,0.3-0.1,0.4c0,0.1-0.1,0.2-0.1,0.3c0,0.1-0.1,0.3-0.1,0.4c0,0.1,0,0.2,0,0.2c0.1,0,0.1,0,0.2-0.1c0.1,0,0.1-0.1,0.2-0.1
		c0.1-0.1,0.1-0.1,0.2-0.2c0.1-0.1,0.1-0.1,0.2-0.2c0.1-0.1,0.1-0.1,0.2-0.1c0.1,0,0.1,0,0.1,0c0,0,0,0,0,0.1c0,0,0,0.1-0.1,0.1
		c-0.2,0.2-0.3,0.4-0.5,0.6C22.1,4.9,22,5,21.8,5.1c-0.2,0.1-0.4,0.2-0.6,0.2c-0.2,0-0.3,0-0.3-0.1c0-0.1-0.1-0.2,0-0.4
		c-0.2,0.2-0.3,0.3-0.5,0.4c-0.2,0.1-0.3,0.1-0.5,0.1c-0.1,0-0.2-0.1-0.2-0.2c-0.1-0.1-0.1-0.2-0.1-0.3c0-0.1,0-0.3,0-0.4
		c0-0.2,0.1-0.3,0.2-0.5c0.1-0.1,0.2-0.3,0.3-0.4c0.1-0.1,0.2-0.2,0.3-0.3c0.1-0.1,0.2-0.2,0.3-0.2C20.8,2.8,20.9,2.8,21,2.8z
		 M21.2,3.8c0.1-0.2,0.1-0.4,0.1-0.5c0-0.1-0.1-0.2-0.3-0.2c-0.1,0-0.2,0.1-0.3,0.2c-0.1,0.1-0.2,0.3-0.3,0.5c0,0.1-0.1,0.2-0.1,0.3
		c0,0.1-0.1,0.2-0.1,0.3c0,0.1,0,0.2,0,0.2c0,0.1,0,0.1,0.1,0.1c0.1,0,0.1,0,0.2,0c0.1-0.1,0.2-0.1,0.3-0.2c0.1-0.1,0.2-0.2,0.2-0.3
		C21,4.1,21.1,3.9,21.2,3.8z"/>
</g>
</svg>
