<?xml version="1.0" encoding="utf-8"?>
<!-- Generator: Adobe Illustrator 17.1.0, SVG Export Plug-In . SVG Version: 6.00 Build 0)  -->
<!DOCTYPE svg PUBLIC "-//W3C//DTD SVG 1.1//EN" "http://www.w3.org/Graphics/SVG/1.1/DTD/svg11.dtd" []>
<svg xmlns="http://www.w3.org/2000/svg" xmlns:xlink="http://www.w3.org/1999/xlink" x="0px" y="0px" viewBox="0 0 36.8 7.1"
	 enable-background="new 0 0 36.8 7.1" xml:space="preserve">
<metadata>
	<sfw>
		<slices></slices>
		<sliceSourceBounds  width="36.8" height="7.1" y="-283.4" x="462.1" bottomLeftOrigin="true"></sliceSourceBounds>
	</sfw>
</metadata>
<g>
	<path fill="#FFFFFF" d="M3.3,3.7c-0.4-0.1-0.7,0-0.9,0.1S1.8,4,1.7,4.2C1.5,4.4,1.4,4.6,1.3,4.8C1.2,5.1,1.1,5.3,1.1,5.5
		c0,0.2,0,0.4,0.1,0.6c0.1,0.2,0.2,0.3,0.4,0.4c0.1,0,0.3,0.1,0.5,0c0.2,0,0.3-0.1,0.5-0.1C2.8,6.3,3,6.2,3.1,6.1
		C3.3,6,3.4,5.9,3.5,5.7c0,0,0,0-0.1,0c0,0-0.1,0-0.1,0C3.2,5.5,3.1,5.4,3.1,5.2c0-0.2,0-0.3,0.2-0.4c0.1-0.1,0.2-0.2,0.4-0.2
		c0.2,0,0.3,0,0.4,0.2C4.2,4.8,4.3,4.9,4.3,5c0,0.1,0,0.2,0,0.3c0,0.1-0.1,0.3-0.2,0.4C4,5.9,3.8,6,3.7,6.2C3.6,6.3,3.4,6.5,3.2,6.6
		C3,6.7,2.8,6.8,2.6,6.9S2.1,7,1.9,7.1c-0.2,0-0.4,0-0.6,0C1,7,0.7,6.8,0.5,6.7C0.3,6.5,0.2,6.2,0.1,6S0,5.5,0,5.2
		c0-0.3,0.1-0.5,0.3-0.8c0.1-0.3,0.3-0.5,0.6-0.7c0.2-0.2,0.5-0.4,0.9-0.5C1.6,3.1,1.5,3,1.4,2.8C1.3,2.6,1.3,2.4,1.3,2.2
		c0-0.2,0.1-0.4,0.1-0.6c0.1-0.2,0.2-0.4,0.4-0.6C2,0.7,2.2,0.5,2.4,0.4c0.2-0.1,0.4-0.2,0.7-0.3C3.3,0,3.6,0,3.8,0
		C4,0,4.3,0.1,4.5,0.2c0.2,0.1,0.4,0.3,0.6,0.4C5.3,0.8,5.4,1,5.5,1.2c0.1,0.2,0.1,0.4,0.1,0.5c0,0.2-0.1,0.3-0.2,0.5
		C5.3,2.3,5.2,2.4,5,2.4c-0.2,0-0.3-0.1-0.4-0.2C4.4,2.1,4.4,2,4.4,1.8c0-0.2,0-0.3,0.1-0.4c0-0.1,0.1-0.1,0.2-0.1
		c0.1,0,0.1,0,0.2-0.1C4.8,1,4.6,0.8,4.5,0.7C4.3,0.6,4.1,0.6,3.9,0.6c-0.2,0-0.3,0.1-0.5,0.1C3.3,0.8,3.1,0.9,3,1.1
		C2.9,1.2,2.7,1.4,2.6,1.5C2.5,1.7,2.4,1.9,2.4,2c0,0.2-0.1,0.3-0.1,0.5c0,0.1,0,0.3,0.1,0.4C2.5,3,2.6,3.1,2.8,3.2
		c0.2,0,0.4,0,0.6,0.1c0.1,0,0.2,0.1,0.2,0.1c0,0.1,0.1,0.1,0.1,0.2c0,0.1,0,0.1-0.1,0.1C3.5,3.7,3.4,3.7,3.3,3.7z"/>
	<path fill="#FFFFFF" d="M4.9,3.7C4.9,3.6,5,3.5,5,3.4c0-0.1,0.1-0.2,0.1-0.3c0-0.1,0.1-0.2,0.1-0.2h0.7c0,0.1,0,0.2-0.1,0.2
		c0,0.1-0.1,0.1-0.1,0.2c0,0.1-0.1,0.2-0.1,0.2c-0.2,0.5-0.2,0.8-0.3,1c0,0.2,0,0.3,0.2,0.3c0.1,0,0.2-0.1,0.3-0.2
		C5.9,4.6,6,4.5,6.1,4.4c0,0,0,0,0-0.1c0,0,0,0,0-0.1C5.9,4.2,5.9,4,5.9,3.9c0-0.2,0-0.3,0.1-0.5S6.2,3.1,6.3,3
		c0.1-0.1,0.2-0.1,0.3-0.1C6.7,3,6.7,3,6.8,3.1c0,0.1,0,0.2,0,0.3c0,0.1-0.1,0.3-0.1,0.4C6.6,4,6.5,4.2,6.5,4.2c0,0,0.1,0,0.2,0
		c0.1,0,0.1-0.1,0.2-0.1C7,4.1,7,4,7.1,4c0.1,0,0.1,0,0.1,0c0,0,0,0.1,0,0.1c0,0,0,0.1-0.1,0.2C7.1,4.4,7,4.5,6.8,4.5
		c-0.2,0.1-0.3,0.1-0.5,0c0,0.1-0.1,0.2-0.2,0.3C6.1,4.9,6,5,6,5.1C5.9,5.2,5.8,5.2,5.7,5.3C5.6,5.3,5.5,5.4,5.3,5.4
		c-0.2,0-0.3,0-0.4-0.1C4.8,5.2,4.8,5,4.7,4.9c0-0.1,0-0.3,0-0.5C4.8,4.2,4.8,4,4.9,3.7z"/>
	<path fill="#FFFFFF" d="M9,4.1C9,4.1,9.1,4.1,9.1,4c0.1,0,0.1,0,0.1,0c0,0,0.1,0,0.1,0.1c0,0,0,0.1-0.1,0.2C9.2,4.3,9.1,4.4,9,4.6
		C8.9,4.7,8.7,4.8,8.6,4.9C8.4,5.1,8.3,5.2,8.1,5.3C7.9,5.3,7.8,5.4,7.6,5.4c-0.2,0-0.3-0.1-0.5-0.2C7,5,6.9,4.9,6.9,4.7
		c0-0.2,0-0.4,0-0.6c0-0.2,0.1-0.4,0.2-0.6c0.1-0.2,0.2-0.3,0.4-0.4C7.7,3,7.9,3,8.1,3C8.4,3,8.5,3,8.6,3.2c0.1,0.1,0.1,0.3,0.1,0.5
		c0,0.2-0.1,0.3-0.3,0.5C8.3,4.3,8.1,4.4,7.8,4.4c0,0-0.1,0-0.1,0c0,0-0.1,0-0.1,0c0,0-0.1,0-0.1,0c0,0.1,0,0.1,0,0.2
		c0,0.1,0,0.1,0.1,0.2c0,0.1,0.1,0.1,0.1,0.1c0.1,0,0.1,0.1,0.2,0.1c0.1,0,0.2,0,0.3-0.1c0.1,0,0.2-0.1,0.3-0.2
		c0.1-0.1,0.2-0.1,0.3-0.2C8.8,4.3,8.9,4.2,9,4.1z M8.3,3.3C8.2,3.3,8.1,3.3,8,3.3c-0.1,0-0.2,0.1-0.2,0.2C7.7,3.6,7.7,3.7,7.6,3.8
		C7.6,3.9,7.6,4,7.6,4c0.1,0,0.2,0,0.3,0C8,3.9,8.1,3.9,8.2,3.8c0.1-0.1,0.1-0.2,0.2-0.3S8.3,3.4,8.3,3.3z"/>
	<path fill="#FFFFFF" d="M9,4.1C9.1,4,9.2,3.9,9.3,3.7c0.1-0.1,0.2-0.3,0.2-0.4c0.1-0.1,0.2-0.3,0.2-0.4h0.7c0,0.1-0.1,0.3-0.2,0.5
		S10.1,3.9,10,4.2c0.1-0.2,0.3-0.4,0.4-0.5c0.1-0.2,0.3-0.3,0.4-0.5C11,3.1,11.1,3,11.2,2.9c0.1-0.1,0.3-0.1,0.4-0.1
		c0.1,0,0.1,0.1,0.1,0.2c0,0.1,0,0.2-0.1,0.4c0,0.1-0.1,0.3-0.1,0.5c-0.1,0.2-0.1,0.3-0.2,0.4c0,0.1-0.1,0.2-0.1,0.3
		c0,0.1,0,0.1,0,0.1c0.1,0,0.1,0,0.2-0.1c0.1,0,0.1-0.1,0.2-0.1c0.1-0.1,0.1-0.1,0.2-0.2C12,4.3,12,4.2,12.1,4.1
		C12.2,4.1,12.2,4,12.3,4c0.1,0,0.1,0,0.1,0c0,0,0,0,0,0.1c0,0,0,0.1-0.1,0.1c-0.2,0.2-0.3,0.4-0.5,0.6c-0.1,0.1-0.3,0.3-0.5,0.4
		c-0.2,0.1-0.4,0.2-0.6,0.2c-0.1,0-0.2,0-0.3-0.1c-0.1-0.1-0.1-0.2-0.1-0.3c0-0.1,0-0.2,0.1-0.4c0-0.1,0.1-0.3,0.1-0.4
		c0-0.1,0.1-0.2,0.1-0.3c0-0.1,0-0.1,0-0.1c0,0-0.1,0-0.2,0.1c-0.1,0.1-0.2,0.2-0.2,0.3c-0.1,0.1-0.2,0.2-0.3,0.4
		C10,4.6,9.9,4.8,9.9,4.9C9.8,5,9.7,5.1,9.6,5.2C9.6,5.3,9.5,5.3,9.5,5.4v0H9C9,5.2,9.1,5,9.2,4.8C9.3,4.5,9.4,4.2,9.4,4L9.2,4.3
		C9.2,4.3,9.1,4.4,9.1,4.4c-0.1,0-0.1,0-0.1,0c0,0,0-0.1,0-0.1C8.9,4.3,8.9,4.2,9,4.1z"/>
	<path fill="#FFFFFF" d="M17.5,4.7c-0.1,0.1-0.2,0.2-0.2,0.2S17.1,5.1,17,5.1c-0.1,0.1-0.2,0.1-0.3,0.2c-0.1,0-0.2,0.1-0.3,0.1
		c-0.2,0-0.3,0-0.3-0.1c-0.2,0.3-0.4,0.5-0.6,0.6c-0.2,0.1-0.5,0.1-0.8,0c-0.3-0.1-0.5-0.2-0.6-0.3c-0.2-0.1-0.3-0.3-0.4-0.5
		c-0.1-0.2-0.1-0.4-0.1-0.6c0-0.2,0.1-0.4,0.2-0.6c0.1-0.2,0.2-0.4,0.4-0.5c0.2-0.1,0.4-0.2,0.7-0.3c-0.1-0.1-0.2-0.2-0.3-0.4
		c-0.1-0.1-0.1-0.3-0.1-0.5c0-0.2,0-0.3,0.1-0.5c0.1-0.2,0.1-0.3,0.3-0.5c0.1-0.1,0.3-0.3,0.4-0.4c0.2-0.1,0.3-0.2,0.5-0.2
		s0.3-0.1,0.5-0.1c0.2,0,0.4,0.1,0.5,0.1c0.2,0.1,0.3,0.2,0.5,0.3c0.1,0.1,0.2,0.3,0.3,0.4c0.1,0.1,0.1,0.3,0.1,0.4
		c0,0.1,0,0.2-0.1,0.3c-0.1,0.1-0.2,0.2-0.3,0.2c-0.1,0-0.2,0-0.3-0.1c-0.1-0.1-0.2-0.2-0.2-0.3c0-0.1,0-0.2,0.1-0.3
		c0.1-0.1,0.2-0.1,0.3-0.1c0-0.1-0.1-0.1-0.1-0.2c-0.1,0-0.1-0.1-0.2-0.1C16.6,1,16.5,1,16.3,1c-0.1,0-0.3,0-0.4,0.1
		c-0.1,0.1-0.2,0.1-0.3,0.3c-0.1,0.1-0.2,0.2-0.3,0.3c-0.1,0.1-0.1,0.3-0.2,0.4c0,0.2,0,0.3,0,0.4c0,0.1,0.1,0.2,0.2,0.3
		C15.5,2.9,15.6,3,15.8,3h2.5l-0.1,0.3h-0.9l-0.3,0.9c0,0.1-0.1,0.3-0.1,0.4c0,0.1,0,0.2,0,0.2c0.1,0,0.2-0.1,0.3-0.2
		c0.1-0.1,0.3-0.2,0.4-0.3V4.7z M14.9,5.4c0.1,0,0.3,0.1,0.4,0c0.1,0,0.2-0.1,0.3-0.1c0.1-0.1,0.2-0.2,0.3-0.3
		c0.1-0.1,0.2-0.3,0.3-0.5c0-0.1,0.1-0.2,0.1-0.3c0.1-0.2,0.2-0.4,0.2-0.6c0.1-0.2,0.1-0.3,0.2-0.4H16c-0.3,0-0.5,0-0.7,0.1
		c-0.2,0.1-0.4,0.2-0.5,0.4c-0.1,0.1-0.2,0.3-0.3,0.5c-0.1,0.2-0.1,0.3-0.1,0.5c0,0.2,0,0.3,0.1,0.4C14.6,5.3,14.7,5.4,14.9,5.4z"/>
	<path fill="#FFFFFF" d="M23.2,0.1c0.3,0,0.7,0,1,0.1c0.3,0.1,0.6,0.2,0.8,0.4c0.2,0.2,0.4,0.4,0.5,0.6c0.1,0.3,0.2,0.5,0.2,0.8
		c0,0.3-0.1,0.6-0.2,0.9c-0.1,0.3-0.3,0.5-0.5,0.7c-0.2,0.2-0.4,0.4-0.7,0.5c-0.3,0.1-0.6,0.2-0.9,0.1c-0.1,0-0.3,0-0.4-0.1
		c-0.1,0-0.2-0.1-0.4-0.2v0c-0.1,0.3-0.2,0.6-0.3,1c-0.1,0.3-0.2,0.6-0.4,0.9c-0.2,0.3-0.4,0.5-0.6,0.7c-0.2,0.2-0.5,0.3-0.8,0.3
		c-0.3,0-0.5,0-0.7-0.1c-0.2-0.1-0.3-0.2-0.4-0.3c-0.1-0.1-0.2-0.2-0.2-0.4c0-0.1-0.1-0.2-0.1-0.3v0c0-0.1,0.1-0.3,0.2-0.4
		c0.1-0.1,0.2-0.2,0.4-0.2c0.2,0,0.3,0,0.4,0.1c0.1,0.1,0.2,0.2,0.2,0.4c0,0.2,0,0.3-0.2,0.4c0,0-0.1,0.1-0.1,0.1c0,0,0.1,0,0.1,0
		c0,0,0.1,0,0.1,0c0.1,0,0.2,0,0.4-0.1C20.9,6.3,21,6.2,21.1,6c0.1-0.2,0.2-0.4,0.3-0.7c0.1-0.3,0.2-0.7,0.3-1.1
		c0.2-0.8,0.4-1.4,0.8-1.8c0.3-0.4,0.8-0.7,1.4-0.9c0.1,0,0.1,0,0.2,0c0,0,0.1,0.1,0.1,0.1c0,0,0,0.1,0,0.1c0,0-0.1,0.1-0.1,0.1
		c-0.3,0.2-0.6,0.4-0.7,0.7c-0.2,0.3-0.3,0.8-0.4,1.3c0.1,0,0.2,0,0.3,0c0.4,0,0.7-0.1,0.9-0.3c0.2-0.2,0.4-0.5,0.6-0.8
		c0.1-0.2,0.1-0.4,0.2-0.7c0-0.2,0-0.4-0.1-0.6c-0.1-0.2-0.2-0.3-0.3-0.5c-0.1-0.1-0.3-0.2-0.5-0.3c-0.4-0.1-0.7-0.1-1.1,0
		c-0.3,0.1-0.6,0.2-0.8,0.4c0,0,0.1,0,0.1,0.1c0.1,0.1,0.2,0.2,0.2,0.4c0,0.2,0,0.3-0.1,0.4c-0.1,0.1-0.2,0.2-0.4,0.2
		c-0.2,0-0.3,0-0.4-0.2C21.1,2,21,2,21,1.8c0-0.1,0-0.2,0-0.3c0-0.1,0-0.1,0.1-0.2c0-0.1,0.1-0.1,0.1-0.2c0.2-0.3,0.5-0.6,0.9-0.7
		S22.8,0.1,23.2,0.1z"/>
	<path fill="#FFFFFF" d="M25.5,4.1c0.1-0.1,0.2-0.3,0.3-0.4C25.9,3.6,26,3.5,26,3.4c-0.1-0.1-0.2-0.1-0.2-0.2c0-0.1,0-0.2,0.1-0.4
		c0.1-0.1,0.1-0.2,0.2-0.3c0.1-0.1,0.2-0.1,0.2-0.1c0.1,0,0.1,0.1,0.1,0.2c0,0.1,0,0.2,0,0.4c0.1,0,0.2,0,0.3,0c0.1,0,0.1,0,0.2-0.1
		C27,3,27,3,27,3c0,0,0.1,0,0.1,0.1c0,0,0.1,0.1,0.1,0.1c0,0,0,0.1,0,0.1c-0.1,0.1-0.1,0.2-0.2,0.4c-0.1,0.2-0.1,0.4-0.2,0.5
		c0,0.2-0.1,0.3-0.1,0.4c0,0.1,0,0.2,0.1,0.2c0.1,0,0.1,0,0.2-0.1c0.1,0,0.2-0.1,0.2-0.2c0.1-0.1,0.2-0.2,0.2-0.2
		c0.1-0.1,0.2-0.2,0.2-0.2C27.8,4.1,27.8,4,27.9,4C27.9,4,28,4,28,4c0,0,0,0,0,0.1c0,0,0,0.1-0.1,0.1c-0.1,0.2-0.3,0.3-0.4,0.5
		c-0.1,0.1-0.3,0.2-0.4,0.4c-0.2,0.1-0.3,0.2-0.5,0.3c-0.1,0-0.2,0-0.3,0c-0.1,0-0.2-0.1-0.2-0.1c-0.1-0.1-0.1-0.1-0.1-0.2
		c0-0.1,0-0.2,0-0.4c0-0.1,0.1-0.3,0.2-0.4c0.1-0.1,0.1-0.3,0.2-0.4c0.1-0.1,0.1-0.2,0.1-0.3c0-0.1,0-0.1,0-0.1c-0.1,0-0.2,0-0.3,0
		c-0.1,0.1-0.1,0.2-0.2,0.4C26,4,25.9,4.2,25.8,4.3c-0.1,0.1-0.1,0.1-0.2,0.2c-0.1,0-0.1,0-0.1,0c0,0,0-0.1,0-0.1
		C25.5,4.3,25.5,4.2,25.5,4.1z"/>
	<path fill="#FFFFFF" d="M29.1,2.9c0.1,0,0.3,0,0.3,0.1c0.1,0.1,0.2,0.2,0.2,0.3c0,0.1,0.1,0.2,0.1,0.4c0,0.1,0,0.3-0.1,0.5
		l-0.1,0.1c0.1,0,0.3,0,0.4-0.1C30.1,4.1,30.1,4,30.2,4c0.1,0,0.1,0,0.1,0c0,0,0,0,0,0.1s0,0.1-0.1,0.1c-0.1,0.1-0.2,0.2-0.3,0.3
		c-0.1,0.1-0.3,0.1-0.5,0C29.3,4.8,29.2,5,29,5.1c-0.2,0.1-0.4,0.2-0.6,0.2c-0.1,0-0.3,0-0.4-0.1c-0.1-0.1-0.2-0.2-0.3-0.3
		c-0.1-0.1-0.1-0.2-0.1-0.4c0-0.1,0-0.3,0.1-0.5c0-0.2,0.1-0.3,0.2-0.5c0.1-0.1,0.2-0.3,0.3-0.4c0.1-0.1,0.3-0.2,0.4-0.3
		C28.8,3,29,2.9,29.1,2.9z M29.1,4.4C29,4.3,29,4.2,29,4.1c0-0.1,0-0.2,0-0.3c0-0.1,0.1-0.1,0.2-0.2c0.1-0.1,0.1-0.1,0.2-0.1
		c0-0.2-0.1-0.3-0.2-0.3c-0.1,0-0.2,0-0.4,0.2c-0.1,0.2-0.3,0.4-0.4,0.7c-0.1,0.2-0.1,0.4-0.1,0.6c0,0.2,0,0.3,0.1,0.3
		c0.1,0,0.2,0,0.4-0.1C28.9,4.8,29,4.6,29.1,4.4L29.1,4.4z"/>
	<path fill="#FFFFFF" d="M31.6,4.1c0-0.1,0.1-0.2,0.1-0.3c0-0.1,0-0.1,0-0.1c0,0-0.1,0-0.1,0.1c-0.1,0.1-0.1,0.2-0.2,0.3
		c-0.1,0.1-0.2,0.2-0.3,0.4c-0.1,0.1-0.2,0.3-0.3,0.4s-0.1,0.2-0.2,0.3c-0.1,0.1-0.1,0.1-0.1,0.2v0H30c0.1-0.2,0.2-0.4,0.2-0.6
		c0.1-0.3,0.2-0.5,0.2-0.8c0,0.1-0.1,0.1-0.1,0.2c0,0-0.1,0.1-0.1,0.1c-0.1,0.1-0.1,0.1-0.2,0.2c-0.1,0-0.1,0-0.1,0c0,0,0-0.1,0-0.1
		c0-0.1,0-0.1,0.1-0.2c0.1-0.1,0.2-0.3,0.3-0.4c0.1-0.1,0.2-0.3,0.2-0.4c0.1-0.1,0.2-0.3,0.2-0.4h0.7c0,0,0,0.1-0.1,0.2
		c0,0.1-0.1,0.2-0.1,0.3c0,0.1-0.1,0.2-0.1,0.3c0,0.1-0.1,0.2-0.1,0.4c0.1-0.2,0.2-0.3,0.4-0.5c0.1-0.2,0.3-0.3,0.4-0.4
		c0.1-0.1,0.3-0.2,0.4-0.3c0.1-0.1,0.2-0.1,0.3,0c0.1,0,0.1,0.1,0.1,0.3c0,0.1,0,0.3-0.1,0.5c0.1-0.1,0.2-0.2,0.3-0.3
		C32.9,3.2,33,3.1,33.1,3c0.1-0.1,0.2-0.1,0.3-0.2c0.1,0,0.2,0,0.3,0c0.1,0,0.1,0.1,0.1,0.2c0,0.1,0,0.2,0,0.4
		c0,0.1-0.1,0.3-0.1,0.5c-0.1,0.2-0.1,0.3-0.2,0.4c0,0.1-0.1,0.2-0.1,0.3c0,0.1,0,0.1,0,0.1c0.1,0,0.1,0,0.2-0.1
		c0.1,0,0.1-0.1,0.2-0.1c0.1-0.1,0.1-0.1,0.2-0.2c0.1-0.1,0.1-0.1,0.2-0.2C34.2,4.1,34.3,4,34.3,4c0.1,0,0.1,0,0.1,0c0,0,0,0,0,0.1
		s0,0.1-0.1,0.1c-0.2,0.2-0.3,0.4-0.5,0.6c-0.1,0.1-0.3,0.3-0.5,0.4c-0.2,0.1-0.4,0.2-0.6,0.2c-0.1,0-0.2,0-0.3-0.1
		c0-0.1-0.1-0.2-0.1-0.3c0-0.1,0-0.2,0.1-0.4c0-0.1,0.1-0.3,0.1-0.4c0-0.1,0.1-0.2,0.1-0.3c0-0.1,0-0.1,0-0.1c0,0,0,0-0.1,0.1
		c0,0-0.1,0.1-0.1,0.2c-0.1,0.1-0.1,0.2-0.2,0.3c-0.1,0.1-0.1,0.2-0.2,0.3c-0.2,0.2-0.3,0.5-0.5,0.8h-0.6c0.1-0.2,0.1-0.4,0.2-0.5
		c0-0.1,0.1-0.3,0.1-0.4S31.6,4.2,31.6,4.1z"/>
	<path fill="#FFFFFF" d="M35.6,2.9c0.1,0,0.3,0,0.3,0.1c0.1,0.1,0.2,0.2,0.2,0.3c0,0.1,0.1,0.2,0.1,0.4c0,0.1,0,0.3-0.1,0.5L36,4.3
		c0.1,0,0.3,0,0.4-0.1C36.5,4.1,36.6,4,36.6,4c0.1,0,0.1,0,0.1,0c0,0,0,0,0,0.1s0,0.1-0.1,0.1c-0.1,0.1-0.2,0.2-0.3,0.3
		c-0.1,0.1-0.3,0.1-0.5,0c-0.1,0.2-0.3,0.4-0.5,0.6c-0.2,0.1-0.4,0.2-0.6,0.2c-0.1,0-0.3,0-0.4-0.1c-0.1-0.1-0.2-0.2-0.3-0.3
		c-0.1-0.1-0.1-0.2-0.1-0.4c0-0.1,0-0.3,0.1-0.5c0-0.2,0.1-0.3,0.2-0.5c0.1-0.1,0.2-0.3,0.3-0.4C34.8,3.2,35,3.1,35.1,3
		C35.3,3,35.4,2.9,35.6,2.9z M35.5,4.4c-0.1-0.1-0.1-0.1-0.1-0.2c0-0.1,0-0.2,0-0.3c0-0.1,0.1-0.1,0.2-0.2c0.1-0.1,0.1-0.1,0.2-0.1
		c0-0.2-0.1-0.3-0.2-0.3c-0.1,0-0.2,0-0.4,0.2c-0.1,0.2-0.3,0.4-0.4,0.7c-0.1,0.2-0.1,0.4-0.1,0.6c0,0.2,0,0.3,0.1,0.3
		c0.1,0,0.2,0,0.4-0.1C35.4,4.8,35.5,4.6,35.5,4.4L35.5,4.4z"/>
</g>
</svg>
