<?xml version="1.0" encoding="utf-8"?>
<!-- Generator: Adobe Illustrator 17.1.0, SVG Export Plug-In . SVG Version: 6.00 Build 0)  -->
<!DOCTYPE svg PUBLIC "-//W3C//DTD SVG 1.1//EN" "http://www.w3.org/Graphics/SVG/1.1/DTD/svg11.dtd" []>
<svg xmlns="http://www.w3.org/2000/svg" xmlns:xlink="http://www.w3.org/1999/xlink" x="0px" y="0px" viewBox="0 0 16.3 7.1"
	 enable-background="new 0 0 16.3 7.1" xml:space="preserve">
<metadata>
	<sfw>
		<slices></slices>
		<sliceSourceBounds  width="16.3" height="7.1" y="-283.3" x="472" bottomLeftOrigin="true"></sliceSourceBounds>
	</sfw>
</metadata>
<g>
	<path fill="#FFFFFF" d="M5,0.1c0.1,0,0.3,0.1,0.4,0.2c0.2,0.1,0.3,0.2,0.4,0.3C5.9,0.8,6,0.9,6,1.1c0,0.2,0,0.3-0.2,0.5
		C5.8,1.7,5.6,1.7,5.5,1.7c-0.2,0-0.3,0-0.4-0.1C4.9,1.5,4.8,1.4,4.8,1.2c0-0.2,0-0.3,0.1-0.4c0,0,0.1-0.1,0.2-0.1L5,0.5
		C4.7,0.4,4.5,0.4,4.2,0.5C4,0.5,3.7,0.6,3.5,0.8S3,1.2,2.8,1.4C2.6,1.6,2.5,1.8,2.3,2C2.2,2.3,2,2.5,1.9,2.8S1.7,3.3,1.7,3.6
		c0,0.2,0,0.5,0.1,0.6C1.8,4.4,2,4.5,2.2,4.6c0.1,0,0.3,0.1,0.6,0C2.8,4.4,2.9,4.1,3,3.9c0.1-0.2,0.2-0.4,0.4-0.6
		C3.6,3.1,3.7,3,3.9,2.8c0.2-0.1,0.4-0.2,0.6-0.2c0.1,0,0.1,0,0.2,0c0,0,0.1,0.1,0.1,0.1c0,0,0,0.1,0,0.1c0,0-0.1,0.1-0.2,0.1
		C4.4,3,4.3,3.2,4.1,3.4C4,3.6,3.9,3.9,3.8,4.2c-0.1,0.3-0.2,0.6-0.3,1C3.4,5.5,3.3,5.8,3.1,6.1C2.9,6.4,2.7,6.6,2.4,6.8
		C2.2,7,1.8,7.1,1.4,7.1c-0.3,0-0.5,0-0.7-0.1C0.5,6.8,0.4,6.7,0.3,6.6C0.2,6.5,0.1,6.4,0.1,6.2C0,6.1,0,6,0,5.9
		c0-0.1,0.1-0.3,0.2-0.4c0.1-0.1,0.2-0.2,0.4-0.2c0.2,0,0.3,0,0.4,0.1c0.1,0.1,0.2,0.2,0.2,0.4c0,0.2,0,0.3-0.2,0.4
		c0,0-0.1,0.1-0.1,0.1c0.1,0,0.2,0.1,0.3,0.1c0.2,0,0.3-0.1,0.4-0.2C1.8,6.3,1.9,6.1,2,6c0.1-0.1,0.2-0.3,0.3-0.5
		C2.4,5.3,2.5,5.2,2.6,5C2.4,5,2.3,5,2.2,5C2.1,5,2,5,1.9,5c-0.4-0.1-0.8-0.3-1-0.5C0.7,4.2,0.6,4,0.6,3.6c0-0.3,0-0.6,0.2-1
		C0.9,2.3,1,2,1.2,1.8C1.4,1.5,1.6,1.2,1.9,1s0.6-0.5,0.9-0.6C3.1,0.2,3.5,0.1,3.9,0C4.2,0,4.6,0,5,0.1z"/>
	<path fill="#FFFFFF" d="M6,2.9c0.2,0,0.4,0.1,0.5,0.3c0,0,0-0.1,0-0.1c0,0,0-0.1,0-0.1l0-0.1h0.7C7.2,3.1,7.1,3.3,7,3.4
		C7,3.6,7,3.7,6.9,3.9c0,0.1-0.1,0.2-0.1,0.3c0,0.1-0.1,0.3-0.1,0.4c0,0.1,0,0.2,0,0.2c0.1,0,0.1,0,0.2-0.1c0.1,0,0.1-0.1,0.2-0.1
		c0.1-0.1,0.1-0.1,0.2-0.2c0.1-0.1,0.1-0.1,0.2-0.2C7.6,4.1,7.6,4,7.7,4c0.1,0,0.1,0,0.1,0c0,0,0,0,0,0.1c0,0,0,0.1-0.1,0.1
		C7.6,4.5,7.4,4.7,7.3,4.8C7.1,5,7,5.1,6.8,5.2C6.6,5.3,6.4,5.4,6.2,5.4c-0.2,0-0.3,0-0.3-0.1c0-0.1-0.1-0.2,0-0.4
		C5.7,5,5.5,5.2,5.3,5.3C5.2,5.4,5,5.4,4.9,5.3c-0.1,0-0.2-0.1-0.2-0.2S4.5,4.9,4.5,4.8c0-0.1,0-0.3,0-0.4c0-0.2,0.1-0.3,0.2-0.5
		C4.8,3.7,4.9,3.5,5,3.4c0.1-0.1,0.2-0.2,0.3-0.3C5.4,3,5.6,3,5.7,2.9C5.8,2.9,5.9,2.9,6,2.9z M6.2,3.9c0.1-0.2,0.1-0.4,0.1-0.5
		c0-0.1-0.1-0.2-0.3-0.2c-0.1,0-0.2,0.1-0.3,0.2C5.6,3.6,5.5,3.7,5.4,3.9c0,0.1-0.1,0.2-0.1,0.3c0,0.1-0.1,0.2-0.1,0.3
		c0,0.1,0,0.2,0,0.2c0,0.1,0,0.1,0.1,0.1c0.1,0,0.1,0,0.2,0c0.1-0.1,0.2-0.1,0.3-0.2C5.8,4.5,5.9,4.4,6,4.3C6,4.2,6.1,4,6.2,3.9z"/>
	<path fill="#FFFFFF" d="M8.2,4.2c0,0.1-0.1,0.3-0.1,0.4s0,0.2,0,0.2c0.1,0,0.1,0,0.2-0.1c0.1,0,0.1-0.1,0.2-0.1
		c0.1-0.1,0.1-0.1,0.2-0.2c0.1-0.1,0.1-0.1,0.2-0.2C9,4.1,9,4,9.1,4c0.1,0,0.1,0,0.1,0c0,0,0,0,0,0.1c0,0,0,0.1-0.1,0.1
		C9,4.5,8.8,4.7,8.7,4.8C8.5,5,8.4,5.1,8.2,5.2C8,5.3,7.8,5.4,7.6,5.4c-0.1,0-0.2,0-0.3-0.1C7.3,5.2,7.3,5.1,7.3,5
		c0-0.1,0-0.2,0.1-0.4c0-0.1,0.1-0.3,0.1-0.4c0-0.1,0.1-0.3,0.2-0.5c0.1-0.2,0.1-0.3,0.2-0.5C7.9,3,7.9,2.9,8,2.7
		c0.1-0.2,0.1-0.3,0.2-0.5c0.1-0.3,0.3-0.6,0.5-0.7c0.2-0.1,0.4-0.1,0.6,0c0.1,0.1,0.2,0.2,0.2,0.3c0,0.1,0,0.3-0.1,0.5
		C9.3,2.4,9.2,2.7,9,2.9C8.8,3.2,8.6,3.4,8.3,3.7c0,0.1-0.1,0.2-0.1,0.2C8.2,4.1,8.2,4.1,8.2,4.2z M9.2,1.8c0,0-0.1,0-0.1,0
		C9,1.9,9,2,8.9,2.1c0,0.1-0.1,0.2-0.2,0.4C8.7,2.6,8.7,2.8,8.6,3c0.1-0.1,0.2-0.3,0.3-0.4C9,2.4,9,2.3,9.1,2.2C9.2,2.1,9.2,2,9.2,2
		C9.3,1.9,9.2,1.8,9.2,1.8z"/>
	<path fill="#FFFFFF" d="M9.6,4.2c0,0.1-0.1,0.3-0.1,0.4c0,0.1,0,0.2,0,0.2c0.1,0,0.1,0,0.2-0.1c0.1,0,0.1-0.1,0.2-0.1
		c0.1-0.1,0.1-0.1,0.2-0.2c0.1-0.1,0.1-0.1,0.2-0.2C10.4,4.1,10.4,4,10.5,4c0.1,0,0.1,0,0.1,0c0,0,0,0,0,0.1c0,0,0,0.1-0.1,0.1
		c-0.2,0.2-0.3,0.4-0.5,0.6C9.9,5,9.8,5.1,9.6,5.2C9.4,5.3,9.2,5.4,9,5.4c-0.1,0-0.2,0-0.3-0.1C8.7,5.2,8.7,5.1,8.7,5
		c0-0.1,0-0.2,0.1-0.4c0-0.1,0.1-0.3,0.1-0.4C8.9,4.1,9,3.9,9,3.7c0.1-0.2,0.1-0.3,0.2-0.5C9.3,3,9.3,2.9,9.4,2.7
		c0.1-0.2,0.1-0.3,0.2-0.5c0.1-0.3,0.3-0.6,0.5-0.7c0.2-0.1,0.4-0.1,0.6,0c0.1,0.1,0.2,0.2,0.2,0.3c0,0.1,0,0.3-0.1,0.5
		c-0.1,0.2-0.2,0.4-0.4,0.7C10.2,3.2,10,3.4,9.7,3.7c0,0.1-0.1,0.2-0.1,0.2C9.6,4.1,9.6,4.1,9.6,4.2z M10.6,1.8c0,0-0.1,0-0.1,0
		c0,0-0.1,0.1-0.1,0.2c0,0.1-0.1,0.2-0.2,0.4C10.1,2.6,10.1,2.8,10,3c0.1-0.1,0.2-0.3,0.3-0.4c0.1-0.1,0.2-0.2,0.2-0.3
		C10.6,2.1,10.6,2,10.6,2C10.7,1.9,10.6,1.8,10.6,1.8z"/>
	<path fill="#FFFFFF" d="M12.4,4.1c0-0.1,0.1-0.1,0.2-0.1c0.1,0,0.1,0,0.1,0c0,0,0.1,0,0.1,0.1c0,0,0,0.1-0.1,0.2
		c-0.1,0.1-0.1,0.2-0.3,0.3c-0.1,0.1-0.2,0.3-0.4,0.4c-0.2,0.1-0.3,0.2-0.5,0.3S11.2,5.4,11,5.4c-0.2,0-0.3-0.1-0.5-0.2
		c-0.1-0.1-0.2-0.3-0.2-0.5c0-0.2,0-0.4,0-0.6c0-0.2,0.1-0.4,0.2-0.6c0.1-0.2,0.2-0.3,0.4-0.4C11.1,3,11.3,3,11.5,3
		C11.8,3,11.9,3,12,3.2c0.1,0.1,0.1,0.3,0.1,0.5S12,4,11.8,4.1c-0.1,0.1-0.4,0.2-0.6,0.2c0,0-0.1,0-0.1,0c0,0-0.1,0-0.1,0
		c0,0-0.1,0-0.1,0c0,0.1,0,0.1,0,0.2c0,0.1,0,0.1,0.1,0.2c0,0.1,0.1,0.1,0.1,0.1c0.1,0,0.1,0.1,0.2,0.1c0.1,0,0.2,0,0.3-0.1
		c0.1,0,0.2-0.1,0.3-0.2c0.1-0.1,0.2-0.1,0.3-0.2C12.2,4.3,12.3,4.2,12.4,4.1z M11.7,3.3c-0.1-0.1-0.2-0.1-0.2,0
		c-0.1,0-0.2,0.1-0.2,0.2c-0.1,0.1-0.1,0.2-0.2,0.3C11,3.9,11,4,11,4c0.1,0,0.2,0,0.3,0c0.1-0.1,0.2-0.1,0.3-0.2
		c0.1-0.1,0.1-0.2,0.2-0.3C11.7,3.4,11.7,3.4,11.7,3.3z"/>
	<path fill="#FFFFFF" d="M12.4,4.1c0.1-0.1,0.2-0.3,0.3-0.4c0.1-0.1,0.1-0.2,0.2-0.3c-0.1-0.1-0.2-0.1-0.2-0.2c0-0.1,0-0.2,0.1-0.4
		c0.1-0.1,0.1-0.2,0.2-0.3c0.1-0.1,0.2-0.1,0.2-0.1c0.1,0,0.1,0.1,0.1,0.2c0,0.1,0,0.2,0,0.4c0.1,0,0.2,0,0.3,0c0.1,0,0.1,0,0.2-0.1
		c0,0,0.1,0,0.1,0c0,0,0.1,0,0.1,0.1c0,0,0.1,0.1,0.1,0.1c0,0,0,0.1,0,0.1c-0.1,0.1-0.1,0.2-0.2,0.4c-0.1,0.2-0.1,0.4-0.2,0.5
		c0,0.2-0.1,0.3-0.1,0.4c0,0.1,0,0.2,0.1,0.2c0.1,0,0.1,0,0.2-0.1c0.1,0,0.1-0.1,0.2-0.2c0.1-0.1,0.2-0.2,0.2-0.2
		c0.1-0.1,0.2-0.2,0.2-0.2C14.6,4.1,14.7,4,14.7,4c0.1,0,0.1,0,0.1,0c0,0,0,0,0,0.1c0,0,0,0.1-0.1,0.1c-0.1,0.2-0.3,0.3-0.4,0.5
		C14.3,4.8,14.1,5,14,5.1c-0.2,0.1-0.3,0.2-0.5,0.3c-0.1,0-0.2,0-0.3,0c-0.1,0-0.2-0.1-0.2-0.1C13,5.2,12.9,5.1,12.9,5
		c0-0.1,0-0.2,0-0.4c0-0.1,0.1-0.3,0.2-0.4c0.1-0.1,0.1-0.3,0.2-0.4c0.1-0.1,0.1-0.2,0.1-0.3c0-0.1,0-0.1,0-0.1c-0.1,0-0.2,0-0.3,0
		C13,3.6,13,3.7,12.9,3.9s-0.2,0.3-0.3,0.4c-0.1,0.1-0.1,0.1-0.2,0.2c-0.1,0-0.1,0-0.1,0c0,0,0-0.1,0-0.1
		C12.3,4.3,12.3,4.2,12.4,4.1z"/>
	<path fill="#FFFFFF" d="M15.9,4.1C16,4.1,16.1,4,16.1,4c0.1,0,0.1,0,0.1,0c0,0,0,0,0,0.1c0,0,0,0.1-0.1,0.1
		c-0.2,0.2-0.3,0.4-0.5,0.6c-0.1,0.1-0.3,0.3-0.5,0.4c-0.2,0.1-0.4,0.2-0.6,0.2c-0.1,0-0.2,0-0.3-0.1c-0.1-0.1-0.1-0.2-0.1-0.3
		c0-0.1,0-0.2,0.1-0.4c0-0.1,0.1-0.3,0.1-0.4c0.1-0.3,0.2-0.6,0.3-0.8C14.9,3.2,14.9,3.1,15,3c0.1,0.1,0.3,0.2,0.5,0.2
		c0.1,0,0.1,0,0.1,0l-0.3,1c0,0.1-0.1,0.3-0.1,0.4c0,0.1,0,0.2,0,0.2c0.1,0,0.1,0,0.2-0.1c0.1,0,0.1-0.1,0.2-0.1
		c0.1-0.1,0.1-0.1,0.2-0.2C15.8,4.3,15.9,4.2,15.9,4.1z M15.9,2.6c0,0.1,0,0.2-0.1,0.3C15.7,3,15.6,3,15.4,3c-0.1,0-0.2,0-0.3-0.1
		C15,2.8,15,2.7,15,2.6c0-0.1,0-0.2,0.1-0.3c0.1-0.1,0.2-0.1,0.3-0.1c0.1,0,0.2,0,0.3,0.1C15.8,2.4,15.9,2.5,15.9,2.6z"/>
</g>
</svg>
