<?xml version="1.0" encoding="utf-8"?>
<!-- Generator: Adobe Illustrator 17.1.0, SVG Export Plug-In . SVG Version: 6.00 Build 0)  -->
<!DOCTYPE svg PUBLIC "-//W3C//DTD SVG 1.1//EN" "http://www.w3.org/Graphics/SVG/1.1/DTD/svg11.dtd" []>
<svg xmlns="http://www.w3.org/2000/svg" xmlns:xlink="http://www.w3.org/1999/xlink" x="0px" y="0px" viewBox="0 0 19 7.4"
	 enable-background="new 0 0 19 7.4" xml:space="preserve">
<metadata>
	<sfw>
		<slices></slices>
		<sliceSourceBounds  width="19" height="7.4" y="-283.5" x="470.9" bottomLeftOrigin="true"></sliceSourceBounds>
	</sfw>
</metadata>
<g>
	<path fill="#FFFFFF" d="M8.5,0.5c-0.1,0-0.3,0-0.5,0.1C7.9,0.7,7.7,0.9,7.5,1.1C7.3,1.3,7.1,1.5,6.9,1.7C6.7,2,6.4,2.2,6.2,2.4
		C5.9,2.6,5.7,2.8,5.4,3C5.1,3.2,4.8,3.3,4.5,3.3c0.2,0.2,0.4,0.4,0.6,0.6c0.1,0.2,0.3,0.5,0.3,0.7c0.1,0.2,0.1,0.5,0.2,0.7
		c0,0.2,0.1,0.5,0.1,0.7c0,0.2,0.1,0.4,0.1,0.5C5.9,6.7,6,6.8,6.1,6.8c0.1,0,0.2,0,0.3,0c-0.1,0-0.1-0.1-0.2-0.1
		C6.2,6.5,6.1,6.4,6.1,6.2c0-0.2,0.1-0.3,0.2-0.4c0.1-0.1,0.3-0.2,0.4-0.1c0.2,0,0.3,0.1,0.4,0.2C7.3,6,7.4,6.2,7.3,6.3
		c0,0.2-0.1,0.4-0.3,0.5C6.9,7,6.8,7.2,6.6,7.2C6.3,7.3,6.1,7.4,5.9,7.3C5.6,7.3,5.3,7.2,5.1,7C5,6.8,4.8,6.6,4.7,6.3
		C4.6,6,4.6,5.8,4.5,5.5S4.4,4.9,4.4,4.6c0-0.3-0.1-0.5-0.2-0.7C4.1,3.6,4,3.5,3.8,3.4C3.7,3.8,3.5,4.3,3.4,4.7
		C3.3,5.1,3.1,5.5,2.9,5.9C2.7,6.2,2.5,6.5,2.3,6.7C2,6.9,1.7,7,1.4,7C1.1,7,0.9,7,0.7,6.9C0.5,6.8,0.4,6.7,0.3,6.6
		C0.2,6.5,0.1,6.4,0.1,6.3C0,6.1,0,6,0,6c0-0.2,0-0.3,0.2-0.5c0.1-0.1,0.2-0.2,0.4-0.2c0.2,0,0.3,0,0.4,0.1c0.1,0.1,0.2,0.2,0.2,0.4
		c0,0.2,0,0.3-0.1,0.4c0,0,0,0.1-0.1,0.1c0,0-0.1,0-0.1,0.1c0.1,0,0.2,0.1,0.3,0.1c0.1,0,0.2-0.1,0.3-0.1C1.6,6.2,1.7,6.1,1.8,6
		S1.9,5.7,2,5.5c0.1-0.2,0.2-0.4,0.2-0.6c-0.2,0-0.4-0.1-0.6-0.2C1.4,4.6,1.3,4.4,1.1,4.1C1,3.9,0.9,3.6,1,3.2
		c0.1-0.3,0.2-0.7,0.4-1c0.2-0.3,0.5-0.6,0.8-0.9C2.5,1,2.9,0.8,3.3,0.6C4.1,0.1,4.8,0,5.5,0c0,0,0.1,0,0.1,0.1c0,0,0,0.1,0.1,0.1
		c0,0,0,0.1,0,0.1c0,0-0.1,0.1-0.1,0.1C5.3,0.5,5.1,0.6,5,0.7C4.9,0.9,4.7,1.1,4.6,1.3C4.5,1.5,4.4,1.8,4.3,2.1
		C4.2,2.3,4.1,2.6,4,2.9c0.3,0,0.5-0.1,0.7-0.2c0.2-0.2,0.4-0.4,0.6-0.6c0.2-0.2,0.4-0.5,0.6-0.8C6.1,1,6.4,0.8,6.6,0.6
		c0.2-0.2,0.5-0.4,0.8-0.5c0.3-0.1,0.6-0.1,1,0c0.1,0,0.2,0.1,0.2,0.1c0.1,0.1,0.1,0.1,0.1,0.2c0,0.1,0,0.1-0.1,0.1
		C8.6,0.5,8.6,0.5,8.5,0.5z M2.4,4.4c0.1-0.4,0.3-0.7,0.4-1.1c0.1-0.4,0.3-0.8,0.5-1.1c0.2-0.4,0.4-0.7,0.6-1
		c0.2-0.3,0.5-0.6,0.7-0.8C4.3,0.5,4,0.6,3.8,0.7C3.5,0.9,3.3,1.1,3,1.3C2.8,1.5,2.5,1.8,2.4,2.1C2.2,2.4,2.1,2.7,2.1,2.9
		C2,3.2,2,3.5,2.1,3.7C2.1,4,2.2,4.2,2.4,4.4C2.4,4.4,2.4,4.4,2.4,4.4C2.4,4.4,2.4,4.4,2.4,4.4z"/>
	<path fill="#FFFFFF" d="M7.7,2.9c0.1,0,0.3,0,0.3,0.1C8.1,3,8.2,3.1,8.2,3.2c0,0.1,0.1,0.2,0.1,0.4c0,0.1,0,0.3-0.1,0.5L8.1,4.2
		c0.1,0,0.3,0,0.4-0.1C8.6,4,8.6,4,8.7,4c0.1,0,0.1,0,0.1,0c0,0,0,0,0,0.1s0,0.1-0.1,0.1C8.7,4.3,8.6,4.4,8.4,4.5
		C8.3,4.5,8.1,4.5,8,4.5C7.9,4.7,7.7,4.9,7.5,5.1C7.3,5.2,7.1,5.3,6.9,5.3c-0.1,0-0.3,0-0.4-0.1C6.4,5.1,6.4,5.1,6.3,4.9
		C6.2,4.8,6.2,4.7,6.2,4.6c0-0.1,0-0.3,0.1-0.5c0-0.2,0.1-0.3,0.2-0.5c0.1-0.1,0.2-0.3,0.3-0.4C6.9,3.1,7,3,7.2,3
		C7.3,2.9,7.5,2.9,7.7,2.9z M7.6,4.3C7.5,4.2,7.5,4.1,7.5,4.1c0-0.1,0-0.2,0-0.3c0-0.1,0.1-0.1,0.2-0.2c0.1-0.1,0.1-0.1,0.2-0.1
		c0-0.2-0.1-0.3-0.2-0.3c-0.1,0-0.2,0-0.4,0.2C7.2,3.5,7.1,3.8,7,4.1C6.9,4.3,6.9,4.5,6.8,4.7c0,0.2,0,0.3,0.1,0.3
		c0.1,0,0.2,0,0.4-0.1C7.5,4.7,7.6,4.6,7.6,4.3L7.6,4.3z"/>
	<path fill="#FFFFFF" d="M8.5,4.1C8.6,4,8.7,3.8,8.8,3.7C8.9,3.5,9,3.4,9,3.3C9.1,3.2,9.2,3,9.3,2.9h0.7c0,0.1-0.1,0.3-0.2,0.5
		C9.7,3.6,9.6,3.9,9.5,4.1C9.6,4,9.8,3.8,9.9,3.6c0.1-0.2,0.3-0.3,0.4-0.5c0.1-0.1,0.3-0.2,0.4-0.3s0.3-0.1,0.4-0.1
		c0.1,0,0.1,0.1,0.1,0.2c0,0.1,0,0.2-0.1,0.4c0,0.1-0.1,0.3-0.1,0.5C11,4,10.9,4.1,10.9,4.2c0,0.1-0.1,0.2-0.1,0.3
		c0,0.1,0,0.1,0,0.1c0.1,0,0.1,0,0.2-0.1c0.1,0,0.1-0.1,0.2-0.1c0.1-0.1,0.1-0.1,0.2-0.2c0.1-0.1,0.1-0.1,0.2-0.2
		C11.7,4,11.8,4,11.8,4c0.1,0,0.1,0,0.1,0c0,0,0,0,0,0.1s0,0.1-0.1,0.1c-0.2,0.2-0.3,0.4-0.5,0.6c-0.1,0.1-0.3,0.3-0.5,0.4
		c-0.2,0.1-0.4,0.2-0.6,0.2c-0.1,0-0.2,0-0.3-0.1C10,5.1,10,5,10,4.9c0-0.1,0-0.2,0.1-0.4c0-0.1,0.1-0.3,0.1-0.4
		c0-0.1,0.1-0.2,0.1-0.3c0-0.1,0-0.1,0-0.1s-0.1,0-0.2,0.1C10.1,3.9,10,4,9.9,4.1C9.9,4.2,9.8,4.3,9.7,4.5C9.6,4.6,9.5,4.7,9.4,4.8
		C9.3,5,9.2,5.1,9.2,5.1C9.1,5.2,9.1,5.3,9.1,5.3v0H8.5C8.6,5.2,8.6,5,8.7,4.7C8.8,4.4,8.9,4.2,9,3.9L8.8,4.2
		C8.7,4.3,8.6,4.3,8.6,4.4c-0.1,0-0.1,0-0.1,0c0,0,0-0.1,0-0.1C8.4,4.2,8.5,4.1,8.5,4.1z"/>
	<path fill="#FFFFFF" d="M13.5,2.5h-0.6l-0.6,1.6c0,0.1-0.1,0.3-0.1,0.4c0,0.1,0,0.2,0,0.2c0.1,0,0.1,0,0.2-0.1
		c0.1,0,0.1-0.1,0.2-0.1c0.1-0.1,0.1-0.1,0.2-0.2C12.9,4.2,13,4.2,13,4.1C13.1,4,13.2,4,13.2,4c0.1,0,0.1,0,0.1,0c0,0,0,0,0,0.1
		c0,0,0,0.1-0.1,0.1c-0.2,0.2-0.3,0.4-0.5,0.6c-0.1,0.1-0.3,0.3-0.5,0.4c-0.2,0.1-0.4,0.2-0.6,0.2c-0.1,0-0.2,0-0.3-0.1
		c-0.1-0.1-0.1-0.2-0.1-0.3c0-0.1,0-0.2,0.1-0.4c0-0.1,0.1-0.3,0.1-0.4c0.1-0.2,0.2-0.5,0.3-0.8c0.1-0.3,0.2-0.6,0.3-0.9h-1.6
		l0.2-0.4h1.6c0-0.1,0.1-0.2,0.1-0.3c0-0.1,0.1-0.2,0.1-0.2c0-0.1,0-0.1,0.1-0.2h0.7c0,0.1,0,0.1-0.1,0.2c0,0.1-0.1,0.3-0.2,0.5h0.6
		L13.5,2.5z"/>
	<path fill="#FFFFFF" d="M14.4,2.8c0.2,0,0.4,0.1,0.5,0.3c0,0,0-0.1,0-0.1c0,0,0-0.1,0-0.1l0-0.1h0.7c-0.1,0.2-0.1,0.4-0.2,0.5
		c0,0.1-0.1,0.3-0.1,0.4c0,0.1-0.1,0.2-0.1,0.3c0,0.1-0.1,0.3-0.1,0.4c0,0.1,0,0.2,0,0.2c0.1,0,0.1,0,0.2-0.1c0.1,0,0.1-0.1,0.2-0.1
		c0.1-0.1,0.1-0.1,0.2-0.2c0.1-0.1,0.1-0.1,0.2-0.2C16,4,16.1,4,16.1,4c0.1,0,0.1,0,0.1,0c0,0,0,0,0,0.1c0,0,0,0.1-0.1,0.1
		c-0.2,0.2-0.3,0.4-0.5,0.6c-0.1,0.1-0.3,0.3-0.5,0.4c-0.2,0.1-0.4,0.2-0.6,0.2c-0.2,0-0.3,0-0.3-0.1c0-0.1-0.1-0.2,0-0.4
		C14.1,5,14,5.1,13.8,5.2c-0.2,0.1-0.3,0.1-0.5,0.1c-0.1,0-0.2-0.1-0.2-0.2S13,4.9,13,4.7c0-0.1,0-0.3,0-0.4c0-0.2,0.1-0.3,0.2-0.5
		c0.1-0.1,0.2-0.3,0.3-0.4c0.1-0.1,0.2-0.2,0.3-0.3C13.9,3,14,2.9,14.1,2.9S14.3,2.8,14.4,2.8z M14.6,3.9c0.1-0.2,0.1-0.4,0.1-0.5
		c0-0.1-0.1-0.2-0.3-0.2c-0.1,0-0.2,0.1-0.3,0.2c-0.1,0.1-0.2,0.3-0.3,0.5c0,0.1-0.1,0.2-0.1,0.3c0,0.1-0.1,0.2-0.1,0.3
		c0,0.1,0,0.2,0,0.2c0,0.1,0,0.1,0.1,0.1c0.1,0,0.1,0,0.2,0c0.1-0.1,0.2-0.1,0.3-0.2c0.1-0.1,0.2-0.2,0.2-0.3
		C14.5,4.1,14.5,4,14.6,3.9z"/>
	<path fill="#FFFFFF" d="M18.7,4.1C18.8,4,18.8,4,18.9,4c0.1,0,0.1,0,0.1,0c0,0,0,0,0,0.1c0,0,0,0.1-0.1,0.1
		c-0.1,0.2-0.3,0.4-0.5,0.6c-0.1,0.1-0.3,0.3-0.5,0.4c-0.2,0.1-0.3,0.2-0.5,0.2c-0.1,0-0.3,0-0.3-0.1S17.1,5.1,17.1,5
		c0-0.1,0-0.2,0-0.3c0-0.1,0.1-0.2,0.1-0.3c0-0.1,0-0.2,0-0.2c0,0,0,0-0.1,0s-0.1,0-0.2,0.1c-0.1,0.1-0.1,0.1-0.2,0.2l-0.3,0.9h-0.7
		c0-0.1,0.1-0.3,0.2-0.5c0.1-0.2,0.1-0.4,0.2-0.6c0,0,0,0,0,0c-0.1,0.1-0.1,0.1-0.2,0.2c-0.1,0-0.1,0-0.1,0c0,0,0-0.1,0-0.1
		c0-0.1,0-0.1,0.1-0.2C16,4,16.1,3.9,16.2,3.7c0.1-0.1,0.2-0.3,0.2-0.4c0.1-0.1,0.1-0.2,0.2-0.3s0.1-0.1,0.1-0.2
		c0.1-0.2,0.1-0.4,0.2-0.6C16.9,2.1,17,2,17,1.8c0.1-0.2,0.1-0.3,0.2-0.5h0.7c-0.1,0.3-0.2,0.6-0.3,0.9c-0.1,0.3-0.2,0.5-0.3,0.8
		C17.2,3.4,17.1,3.7,17,4c0.1-0.1,0.2-0.2,0.3-0.4c0.1-0.2,0.2-0.4,0.4-0.7h0.8c0,0.1-0.1,0.2-0.2,0.3c-0.1,0.1-0.1,0.2-0.2,0.3
		c-0.1,0.1-0.2,0.2-0.4,0.3c0.2,0,0.2,0.1,0.3,0.2c0,0.1,0,0.2,0,0.4c-0.1,0.2-0.1,0.3,0,0.3c0,0,0.1,0,0.1,0c0.1,0,0.1-0.1,0.2-0.2
		c0.1-0.1,0.1-0.1,0.2-0.2C18.6,4.2,18.6,4.2,18.7,4.1z"/>
</g>
</svg>
