<?xml version="1.0" encoding="utf-8"?>
<!-- Generator: Adobe Illustrator 17.1.0, SVG Export Plug-In . SVG Version: 6.00 Build 0)  -->
<!DOCTYPE svg PUBLIC "-//W3C//DTD SVG 1.1//EN" "http://www.w3.org/Graphics/SVG/1.1/DTD/svg11.dtd" []>
<svg xmlns="http://www.w3.org/2000/svg" xmlns:xlink="http://www.w3.org/1999/xlink" x="0px" y="0px" viewBox="0 0 36.3 7.4"
	 enable-background="new 0 0 36.3 7.4" xml:space="preserve">
<metadata>
	<sfw>
		<slices></slices>
		<sliceSourceBounds  width="36.3" height="7.4" y="-283.4" x="462.4" bottomLeftOrigin="true"></sliceSourceBounds>
	</sfw>
</metadata>
<g>
	<path fill="#FFFFFF" d="M0.6,0.7c0.1-0.2,0.3-0.4,0.5-0.5C1.3,0.1,1.6,0,1.8,0s0.5,0,0.8,0.1c0.3,0.1,0.6,0.1,0.9,0.2
		c0.3,0.1,0.6,0.2,0.8,0.2c0.3,0.1,0.5,0.1,0.8,0.2c0.2,0,0.4,0,0.6,0c0.2,0,0.3-0.2,0.4-0.3c0-0.1,0.1-0.1,0.1-0.1c0,0,0.1,0,0.1,0
		c0,0,0.1,0.1,0.1,0.1c0,0.1,0,0.1,0,0.2C6.3,0.9,6.2,1.1,5.9,1.3C5.7,1.5,5.5,1.5,5.2,1.6C5,1.6,4.8,1.7,4.7,1.8
		C4.5,2,4.4,2.2,4.2,2.5C4.1,2.7,4,3,3.9,3.4C3.8,3.7,3.7,4,3.6,4.3C3.5,4.7,3.3,5,3.2,5.3C3.1,5.6,2.9,5.9,2.8,6.2
		C2.6,6.4,2.4,6.6,2.2,6.8C2,6.9,1.7,7,1.4,7C1.1,7,0.9,7,0.7,6.9C0.5,6.8,0.4,6.7,0.3,6.6C0.2,6.5,0.1,6.4,0.1,6.3C0,6.2,0,6,0,6
		c0-0.2,0-0.3,0.1-0.5c0.1-0.1,0.2-0.2,0.4-0.2c0.2,0,0.3,0,0.4,0.1c0.1,0.1,0.2,0.2,0.2,0.4c0,0.2,0,0.3-0.1,0.4c0,0,0,0.1-0.1,0.1
		c0,0-0.1,0-0.1,0.1c0.1,0,0.2,0.1,0.3,0.1c0.2,0,0.4-0.1,0.5-0.3C1.9,5.9,2,5.7,2.1,5.4c0.1-0.3,0.3-0.7,0.4-1
		C2.6,4,2.8,3.6,2.9,3.2c0.2-0.4,0.4-0.7,0.6-1c0.2-0.3,0.5-0.6,0.9-0.8C4.2,1.4,3.9,1.3,3.6,1.2S3.1,1,2.8,0.9S2.3,0.7,2.1,0.6
		s-0.4-0.1-0.6,0c0,0,0.1,0,0.1,0.1c0.1,0.1,0.2,0.3,0.1,0.4c0,0.2-0.1,0.3-0.2,0.4C1.4,1.6,1.3,1.6,1.1,1.6c-0.2,0-0.3-0.1-0.4-0.2
		C0.6,1.3,0.5,1.2,0.5,1.1C0.5,0.9,0.5,0.8,0.6,0.7z"/>
	<path fill="#FFFFFF" d="M6.5,4.1C6.6,4,6.6,4,6.7,4c0.1,0,0.1,0,0.1,0c0,0,0.1,0,0.1,0.1c0,0,0,0.1-0.1,0.2
		C6.7,4.3,6.6,4.4,6.5,4.5C6.4,4.6,6.3,4.8,6.1,4.9C6,5,5.8,5.1,5.6,5.2C5.5,5.3,5.3,5.3,5.1,5.3c-0.2,0-0.3-0.1-0.5-0.2
		C4.6,5,4.5,4.8,4.4,4.6c0-0.2,0-0.4,0-0.6c0-0.2,0.1-0.4,0.2-0.6C4.7,3.3,4.9,3.2,5,3.1C5.2,3,5.4,2.9,5.7,2.9
		c0.2,0,0.4,0.1,0.5,0.2c0.1,0.1,0.1,0.3,0.1,0.5c0,0.2-0.1,0.3-0.3,0.5C5.8,4.2,5.6,4.3,5.4,4.3c0,0-0.1,0-0.1,0c0,0-0.1,0-0.1,0
		c0,0-0.1,0-0.1,0c0,0.1,0,0.1,0,0.2c0,0.1,0,0.1,0.1,0.2c0,0.1,0.1,0.1,0.1,0.1c0.1,0,0.1,0.1,0.2,0.1c0.1,0,0.2,0,0.3-0.1
		c0.1,0,0.2-0.1,0.3-0.2c0.1-0.1,0.2-0.1,0.3-0.2C6.4,4.2,6.4,4.2,6.5,4.1z M5.8,3.3c-0.1-0.1-0.2-0.1-0.2,0c-0.1,0-0.2,0.1-0.2,0.2
		C5.3,3.5,5.2,3.6,5.2,3.7c0,0.1-0.1,0.2-0.1,0.2c0.1,0,0.2,0,0.3,0c0.1-0.1,0.2-0.1,0.3-0.2c0.1-0.1,0.1-0.2,0.2-0.3
		C5.9,3.4,5.9,3.3,5.8,3.3z"/>
	<path fill="#FFFFFF" d="M6.5,4.1C6.6,4,6.7,3.8,6.8,3.7C6.9,3.6,7,3.4,7,3.3C7.1,3.2,7.2,3,7.3,2.9H8c0,0.1-0.1,0.3-0.2,0.5
		C7.7,3.6,7.6,3.9,7.5,4.2C7.6,4,7.8,3.8,7.9,3.6s0.3-0.3,0.4-0.5C8.5,3,8.6,2.9,8.8,2.8C8.9,2.8,9,2.8,9.1,2.8
		c0.1,0,0.1,0.1,0.1,0.2c0,0.1,0,0.2-0.1,0.4c0,0.1-0.1,0.3-0.1,0.5C9,4,8.9,4.1,8.9,4.3c0,0.1-0.1,0.2-0.1,0.3c0,0.1,0,0.1,0,0.1
		c0.1,0,0.1,0,0.2-0.1c0.1,0,0.1-0.1,0.2-0.1c0.1-0.1,0.1-0.1,0.2-0.2c0.1-0.1,0.1-0.1,0.2-0.2C9.7,4,9.8,4,9.8,4C9.9,4,9.9,4,10,4
		c0,0,0,0,0,0.1c0,0,0,0.1-0.1,0.1C9.8,4.4,9.6,4.6,9.4,4.8C9.3,4.9,9.1,5,8.9,5.1C8.8,5.3,8.6,5.3,8.4,5.3c-0.1,0-0.2,0-0.3-0.1
		C8,5.1,8,5,8,4.9c0-0.1,0-0.2,0.1-0.4c0-0.1,0.1-0.3,0.1-0.4c0-0.1,0.1-0.2,0.1-0.3c0-0.1,0-0.1,0-0.1c0,0-0.1,0-0.2,0.1
		C8.1,3.9,8,4,7.9,4.1C7.9,4.2,7.8,4.3,7.7,4.5C7.6,4.6,7.5,4.7,7.4,4.8S7.2,5.1,7.2,5.2C7.1,5.2,7.1,5.3,7.1,5.3v0H6.5
		C6.6,5.2,6.7,5,6.7,4.7C6.8,4.5,6.9,4.2,7,3.9L6.8,4.2C6.7,4.3,6.7,4.4,6.6,4.4c-0.1,0-0.1,0-0.1,0c0,0,0-0.1,0-0.1
		C6.4,4.2,6.5,4.2,6.5,4.1z"/>
	<path fill="#FFFFFF" d="M11.5,2.5h-0.6l-0.6,1.6c0,0.1-0.1,0.3-0.1,0.4c0,0.1,0,0.2,0,0.2c0.1,0,0.1,0,0.2-0.1
		c0.1,0,0.1-0.1,0.2-0.1c0.1-0.1,0.1-0.1,0.2-0.2C10.9,4.2,11,4.2,11,4.1C11.1,4,11.2,4,11.2,4c0.1,0,0.1,0,0.1,0c0,0,0,0,0,0.1
		c0,0,0,0.1-0.1,0.1c-0.2,0.2-0.3,0.4-0.5,0.6c-0.1,0.1-0.3,0.3-0.5,0.4C10.2,5.3,10,5.3,9.8,5.3c-0.1,0-0.2,0-0.3-0.1
		C9.4,5.1,9.4,5,9.4,4.9c0-0.1,0-0.2,0.1-0.4c0-0.1,0.1-0.3,0.1-0.4C9.7,4,9.8,3.7,9.9,3.4c0.1-0.3,0.2-0.6,0.3-0.9H8.6l0.2-0.4h1.6
		c0-0.1,0.1-0.2,0.1-0.3c0-0.1,0.1-0.2,0.1-0.2c0-0.1,0-0.1,0.1-0.2h0.7c0,0.1,0,0.1-0.1,0.2c0,0.1-0.1,0.3-0.2,0.5h0.6L11.5,2.5z"
		/>
	<path fill="#FFFFFF" d="M12.4,2.8c0.2,0,0.4,0.1,0.5,0.3c0,0,0-0.1,0-0.1c0,0,0-0.1,0-0.1l0-0.1h0.7c-0.1,0.2-0.1,0.4-0.2,0.5
		c0,0.1-0.1,0.3-0.1,0.4c0,0.1-0.1,0.2-0.1,0.3c0,0.1-0.1,0.3-0.1,0.4c0,0.1,0,0.2,0,0.2c0.1,0,0.1,0,0.2-0.1c0.1,0,0.1-0.1,0.2-0.1
		c0.1-0.1,0.1-0.1,0.2-0.2c0.1-0.1,0.1-0.1,0.2-0.2C14,4,14.1,4,14.1,4c0.1,0,0.1,0,0.1,0c0,0,0,0,0,0.1c0,0,0,0.1-0.1,0.1
		c-0.2,0.2-0.3,0.4-0.5,0.6c-0.1,0.1-0.3,0.3-0.5,0.4c-0.2,0.1-0.4,0.2-0.6,0.2c-0.2,0-0.3,0-0.3-0.1c0-0.1-0.1-0.2,0-0.4
		C12.1,5,12,5.1,11.8,5.2c-0.2,0.1-0.3,0.1-0.5,0.1c-0.1,0-0.2-0.1-0.2-0.2C11,5,11,4.9,11,4.7c0-0.1,0-0.3,0-0.4
		c0-0.2,0.1-0.3,0.2-0.5c0.1-0.1,0.2-0.3,0.3-0.4c0.1-0.1,0.2-0.2,0.3-0.3C11.9,3,12,2.9,12.1,2.9C12.2,2.8,12.3,2.8,12.4,2.8z
		 M12.6,3.9c0.1-0.2,0.1-0.4,0.1-0.5c0-0.1-0.1-0.2-0.3-0.2c-0.1,0-0.2,0.1-0.3,0.2c-0.1,0.1-0.2,0.3-0.3,0.5c0,0.1-0.1,0.2-0.1,0.3
		c0,0.1-0.1,0.2-0.1,0.3c0,0.1,0,0.2,0,0.2c0,0.1,0,0.1,0.1,0.1c0.1,0,0.1,0,0.2,0c0.1-0.1,0.2-0.1,0.3-0.2c0.1-0.1,0.2-0.2,0.2-0.3
		C12.5,4.1,12.5,4,12.6,3.9z"/>
	<path fill="#FFFFFF" d="M13.9,4.1C14,4,14.1,3.8,14.2,3.7c0.1-0.1,0.2-0.3,0.2-0.4c0.1-0.1,0.2-0.3,0.2-0.4h0.7
		c0,0.1-0.1,0.3-0.2,0.5S15,3.9,14.9,4.2c0.1-0.2,0.3-0.4,0.4-0.5s0.3-0.3,0.4-0.5c0.1-0.1,0.3-0.2,0.4-0.3c0.1-0.1,0.3-0.1,0.4-0.1
		c0.1,0,0.1,0.1,0.1,0.2c0,0.1,0,0.2-0.1,0.4c0,0.1-0.1,0.3-0.1,0.5c-0.1,0.2-0.1,0.3-0.2,0.4c0,0.1-0.1,0.2-0.1,0.3
		c0,0.1,0,0.1,0,0.1c0.1,0,0.1,0,0.2-0.1c0.1,0,0.1-0.1,0.2-0.1c0.1-0.1,0.1-0.1,0.2-0.2c0.1-0.1,0.1-0.1,0.2-0.2
		C17.1,4,17.2,4,17.3,4c0.1,0,0.1,0,0.1,0c0,0,0,0,0,0.1c0,0,0,0.1-0.1,0.1c-0.2,0.2-0.3,0.4-0.5,0.6c-0.1,0.1-0.3,0.3-0.5,0.4
		c-0.2,0.1-0.4,0.2-0.6,0.2c-0.1,0-0.2,0-0.3-0.1c-0.1-0.1-0.1-0.2-0.1-0.3c0-0.1,0-0.2,0.1-0.4c0-0.1,0.1-0.3,0.1-0.4
		c0-0.1,0.1-0.2,0.1-0.3c0-0.1,0-0.1,0-0.1c0,0-0.1,0-0.2,0.1c-0.1,0.1-0.2,0.2-0.2,0.3c-0.1,0.1-0.2,0.2-0.3,0.4
		c-0.1,0.1-0.2,0.3-0.3,0.4c-0.1,0.1-0.2,0.2-0.2,0.3c-0.1,0.1-0.1,0.1-0.1,0.2v0h-0.6C14,5.2,14.1,5,14.2,4.7
		c0.1-0.3,0.2-0.5,0.2-0.8l-0.2,0.3c-0.1,0.1-0.1,0.1-0.2,0.2c-0.1,0-0.1,0-0.1,0c0,0,0-0.1,0-0.1C13.9,4.2,13.9,4.2,13.9,4.1z"/>
	<path fill="#FFFFFF" d="M18.5,2.8c0.1,0,0.2,0,0.3,0.1c0.1,0,0.1,0.1,0.2,0.2c0,0,0-0.1,0-0.1C19,3,19,3,19,3c0,0,0,0,0-0.1h0.7
		c-0.1,0.3-0.2,0.6-0.3,0.8c-0.1,0.2-0.1,0.4-0.2,0.6C19.1,4.6,19,4.7,19,4.8c0.1-0.1,0.3-0.2,0.4-0.3c0.1-0.1,0.3-0.2,0.4-0.4
		C19.9,4,19.9,4,20,4c0.1,0,0.1,0,0.1,0c0,0,0,0.1,0,0.1c0,0,0,0.1-0.1,0.2c-0.2,0.3-0.4,0.5-0.6,0.6S19,5.1,18.8,5.2
		c-0.1,0.2-0.2,0.3-0.2,0.5c-0.1,0.2-0.2,0.3-0.3,0.4c-0.1,0.1-0.3,0.2-0.4,0.3c-0.2,0.1-0.3,0.1-0.5,0c-0.2,0-0.3-0.1-0.4-0.2
		c-0.1-0.1-0.1-0.3,0-0.4c0.1-0.1,0.2-0.3,0.4-0.4c0.2-0.1,0.5-0.2,0.8-0.2l0.2-0.4c-0.2,0.1-0.3,0.3-0.5,0.3
		c-0.2,0.1-0.3,0.1-0.4,0c-0.1,0-0.2-0.1-0.2-0.2S17,4.9,17,4.7c0-0.1,0-0.3,0-0.4c0-0.2,0.1-0.3,0.2-0.5c0.1-0.1,0.2-0.3,0.3-0.4
		c0.1-0.1,0.2-0.2,0.3-0.3C17.9,3,18,2.9,18.1,2.9C18.3,2.8,18.4,2.8,18.5,2.8z M17.3,6.2c0.1,0,0.2,0,0.3-0.1
		c0.1-0.1,0.2-0.2,0.3-0.4c-0.1,0-0.3,0-0.4,0.1c-0.1,0-0.2,0.1-0.2,0.2C17.2,5.9,17.2,6,17.2,6C17.2,6.1,17.2,6.1,17.3,6.2z
		 M18.6,3.9c0.1-0.2,0.1-0.4,0.1-0.5c0-0.1-0.1-0.2-0.2-0.2c-0.1,0-0.2,0.1-0.3,0.2s-0.2,0.3-0.3,0.5c0,0.1-0.1,0.2-0.1,0.3
		c0,0.1-0.1,0.2-0.1,0.3c0,0.1,0,0.2,0,0.2c0,0.1,0,0.1,0.1,0.1c0.1,0,0.1,0,0.2,0c0.1-0.1,0.2-0.1,0.3-0.2c0.1-0.1,0.2-0.2,0.2-0.3
		C18.5,4.1,18.6,4,18.6,3.9z"/>
	<path fill="#FFFFFF" d="M29.7,0.5c-0.1,0-0.3,0-0.5,0.1s-0.3,0.3-0.5,0.5c-0.2,0.2-0.4,0.4-0.6,0.7c-0.2,0.2-0.4,0.5-0.7,0.7
		c-0.2,0.2-0.5,0.4-0.8,0.6c-0.3,0.2-0.6,0.3-0.9,0.3c0.2,0.2,0.4,0.4,0.6,0.6c0.1,0.2,0.3,0.5,0.3,0.7c0.1,0.2,0.1,0.5,0.2,0.7
		c0,0.2,0.1,0.5,0.1,0.7c0,0.2,0.1,0.4,0.1,0.5c0.1,0.1,0.1,0.2,0.2,0.2c0.1,0,0.2,0,0.3,0c-0.1,0-0.1-0.1-0.2-0.1
		c-0.1-0.1-0.2-0.3-0.1-0.4c0-0.2,0.1-0.3,0.2-0.4c0.1-0.1,0.3-0.2,0.4-0.1c0.2,0,0.3,0.1,0.4,0.2c0.1,0.1,0.2,0.3,0.2,0.5
		c0,0.2-0.1,0.4-0.3,0.5C28.2,7,28,7.2,27.8,7.3c-0.2,0.1-0.4,0.1-0.6,0.1c-0.3-0.1-0.6-0.2-0.8-0.4c-0.2-0.2-0.3-0.4-0.4-0.7
		c-0.1-0.3-0.2-0.5-0.2-0.8c0-0.3-0.1-0.6-0.1-0.9c0-0.3-0.1-0.5-0.2-0.7c-0.1-0.2-0.2-0.4-0.4-0.5c-0.1,0.4-0.3,0.9-0.4,1.3
		c-0.1,0.4-0.3,0.8-0.5,1.2c-0.2,0.3-0.4,0.6-0.6,0.8S23,7,22.6,7c-0.3,0-0.5,0-0.7-0.1c-0.2-0.1-0.3-0.2-0.4-0.3
		c-0.1-0.1-0.2-0.2-0.2-0.3c0-0.1-0.1-0.2-0.1-0.3c0-0.2,0-0.3,0.2-0.5c0.1-0.1,0.2-0.2,0.4-0.2c0.2,0,0.3,0,0.4,0.1
		c0.1,0.1,0.2,0.2,0.2,0.4c0,0.2,0,0.3-0.1,0.4c0,0,0,0.1-0.1,0.1c0,0-0.1,0-0.1,0.1c0.1,0,0.2,0.1,0.3,0.1c0.1,0,0.2-0.1,0.3-0.1
		C22.8,6.2,22.9,6.1,23,6c0.1-0.1,0.2-0.3,0.2-0.5s0.2-0.4,0.2-0.6c-0.2,0-0.4-0.1-0.6-0.2c-0.2-0.1-0.4-0.3-0.5-0.5
		c-0.1-0.3-0.2-0.6-0.1-0.9c0.1-0.3,0.2-0.7,0.4-1c0.2-0.3,0.5-0.6,0.8-0.9c0.3-0.3,0.7-0.6,1.1-0.8C25.3,0.1,26,0,26.7,0.1
		c0,0,0.1,0,0.1,0.1c0,0,0,0.1,0.1,0.1c0,0,0,0.1,0,0.1c0,0-0.1,0.1-0.1,0.1c-0.2,0.1-0.3,0.2-0.5,0.3c-0.1,0.2-0.3,0.3-0.4,0.6
		c-0.1,0.2-0.2,0.5-0.3,0.8c-0.1,0.3-0.2,0.6-0.3,0.9c0.3,0,0.5-0.1,0.7-0.2c0.2-0.2,0.4-0.4,0.6-0.6c0.2-0.2,0.4-0.5,0.6-0.8
		c0.2-0.3,0.4-0.5,0.7-0.7c0.2-0.2,0.5-0.4,0.8-0.5c0.3-0.1,0.6-0.1,1,0c0.1,0,0.2,0.1,0.2,0.1C30,0.2,30,0.3,30,0.4
		c0,0.1,0,0.1-0.1,0.1C29.9,0.5,29.8,0.5,29.7,0.5z M23.6,4.4c0.1-0.4,0.3-0.7,0.4-1.1c0.1-0.4,0.3-0.8,0.5-1.1
		c0.2-0.4,0.4-0.7,0.6-1c0.2-0.3,0.5-0.6,0.7-0.8c-0.3,0-0.5,0.1-0.8,0.3s-0.5,0.3-0.8,0.6c-0.3,0.2-0.5,0.5-0.6,0.8
		c-0.2,0.3-0.3,0.6-0.3,0.8c-0.1,0.3-0.1,0.5,0,0.8C23.3,4,23.5,4.2,23.6,4.4C23.6,4.4,23.6,4.4,23.6,4.4
		C23.6,4.4,23.6,4.4,23.6,4.4z"/>
	<path fill="#FFFFFF" d="M28.8,2.8c0.2,0,0.4,0.1,0.5,0.3c0,0,0-0.1,0-0.1c0,0,0-0.1,0-0.1l0-0.1h0.7c-0.1,0.2-0.1,0.4-0.2,0.5
		c0,0.1-0.1,0.3-0.1,0.4c0,0.1-0.1,0.2-0.1,0.3c0,0.1-0.1,0.3-0.1,0.4c0,0.1,0,0.2,0,0.2c0.1,0,0.1,0,0.2-0.1c0.1,0,0.1-0.1,0.2-0.1
		C30,4.5,30,4.4,30.1,4.3c0.1-0.1,0.1-0.1,0.2-0.2C30.4,4,30.5,4,30.5,4c0.1,0,0.1,0,0.1,0c0,0,0,0,0,0.1c0,0,0,0.1-0.1,0.1
		c-0.2,0.2-0.3,0.4-0.5,0.6C30,4.9,29.8,5,29.6,5.1c-0.2,0.1-0.4,0.2-0.6,0.2c-0.2,0-0.3,0-0.3-0.1c0-0.1-0.1-0.2,0-0.4
		c-0.2,0.2-0.3,0.3-0.5,0.4c-0.2,0.1-0.3,0.1-0.5,0.1c-0.1,0-0.2-0.1-0.2-0.2c-0.1-0.1-0.1-0.2-0.1-0.3c0-0.1,0-0.3,0-0.4
		c0-0.2,0.1-0.3,0.2-0.5c0.1-0.1,0.2-0.3,0.3-0.4c0.1-0.1,0.2-0.2,0.3-0.3c0.1-0.1,0.2-0.2,0.3-0.2C28.6,2.8,28.7,2.8,28.8,2.8z
		 M29,3.9c0.1-0.2,0.1-0.4,0.1-0.5c0-0.1-0.1-0.2-0.3-0.2c-0.1,0-0.2,0.1-0.3,0.2c-0.1,0.1-0.2,0.3-0.3,0.5c0,0.1-0.1,0.2-0.1,0.3
		c0,0.1-0.1,0.2-0.1,0.3c0,0.1,0,0.2,0,0.2c0,0.1,0,0.1,0.1,0.1c0.1,0,0.1,0,0.2,0c0.1-0.1,0.2-0.1,0.3-0.2c0.1-0.1,0.2-0.2,0.2-0.3
		C28.9,4.1,28.9,4,29,3.9z"/>
	<path fill="#FFFFFF" d="M32,4.1c0-0.1,0.1-0.2,0.1-0.3c0-0.1,0-0.1,0-0.1c0,0-0.1,0-0.1,0.1c-0.1,0.1-0.1,0.2-0.2,0.3
		c-0.1,0.1-0.2,0.2-0.3,0.4c-0.1,0.1-0.2,0.3-0.3,0.4C31.1,5,31.1,5.1,31,5.1c-0.1,0.1-0.1,0.1-0.1,0.2v0h-0.6
		c0.1-0.2,0.2-0.4,0.2-0.6c0.1-0.3,0.2-0.5,0.2-0.8c0,0.1-0.1,0.1-0.1,0.2c0,0-0.1,0.1-0.1,0.1c-0.1,0.1-0.1,0.1-0.2,0.2
		c-0.1,0-0.1,0-0.1,0c0,0,0-0.1,0-0.1c0-0.1,0-0.1,0.1-0.2c0.1-0.1,0.2-0.3,0.3-0.4c0.1-0.1,0.2-0.3,0.2-0.4C30.9,3.2,31,3,31.1,2.9
		h0.7c0,0,0,0.1-0.1,0.2c0,0.1-0.1,0.2-0.1,0.3c0,0.1-0.1,0.2-0.1,0.3c0,0.1-0.1,0.2-0.1,0.4c0.1-0.2,0.2-0.3,0.4-0.5
		c0.1-0.2,0.3-0.3,0.4-0.4c0.1-0.1,0.3-0.2,0.4-0.3c0.1-0.1,0.2-0.1,0.3,0C33,2.8,33,2.9,33,3.1c0,0.1,0,0.3-0.1,0.5
		c0.1-0.1,0.2-0.2,0.3-0.3c0.1-0.1,0.2-0.2,0.3-0.3c0.1-0.1,0.2-0.1,0.3-0.2c0.1,0,0.2,0,0.3,0c0.1,0,0.1,0.1,0.1,0.2
		c0,0.1,0,0.2,0,0.4c0,0.1-0.1,0.3-0.1,0.5c-0.1,0.2-0.1,0.3-0.2,0.4c0,0.1-0.1,0.2-0.1,0.3c0,0.1,0,0.1,0,0.1c0.1,0,0.1,0,0.2-0.1
		c0.1,0,0.1-0.1,0.2-0.1c0.1-0.1,0.1-0.1,0.2-0.2c0.1-0.1,0.1-0.1,0.2-0.2C34.6,4,34.6,4,34.7,4c0.1,0,0.1,0,0.1,0c0,0,0,0,0,0.1
		c0,0,0,0.1-0.1,0.1c-0.2,0.2-0.3,0.4-0.5,0.6C34.1,4.9,34,5,33.8,5.1c-0.2,0.1-0.4,0.2-0.6,0.2c-0.1,0-0.2,0-0.3-0.1
		c0-0.1-0.1-0.2-0.1-0.3c0-0.1,0-0.2,0.1-0.4c0-0.1,0.1-0.3,0.1-0.4c0-0.1,0.1-0.2,0.1-0.3c0-0.1,0-0.1,0-0.1c0,0,0,0-0.1,0.1
		c0,0-0.1,0.1-0.1,0.2c-0.1,0.1-0.1,0.2-0.2,0.3c-0.1,0.1-0.1,0.2-0.2,0.3c-0.2,0.2-0.3,0.5-0.5,0.8h-0.6c0.1-0.2,0.1-0.4,0.2-0.5
		c0-0.1,0.1-0.3,0.1-0.4C31.9,4.3,31.9,4.2,32,4.1z"/>
	<path fill="#FFFFFF" d="M35.9,4.1C36,4,36,4,36.1,4c0.1,0,0.1,0,0.1,0c0,0,0,0,0,0.1c0,0,0,0.1-0.1,0.1c-0.2,0.2-0.3,0.4-0.5,0.6
		c-0.1,0.1-0.3,0.3-0.5,0.4c-0.2,0.1-0.4,0.2-0.6,0.2c-0.1,0-0.2,0-0.3-0.1c-0.1-0.1-0.1-0.2-0.1-0.3c0-0.1,0-0.2,0.1-0.4
		c0-0.1,0.1-0.3,0.1-0.4c0.1-0.3,0.2-0.6,0.3-0.8C34.9,3.2,34.9,3,34.9,3c0.1,0.1,0.3,0.2,0.5,0.2c0.1,0,0.1,0,0.1,0l-0.3,1
		c0,0.1-0.1,0.3-0.1,0.4s0,0.2,0,0.2c0.1,0,0.1,0,0.2-0.1c0.1,0,0.1-0.1,0.2-0.1c0.1-0.1,0.1-0.1,0.2-0.2
		C35.8,4.2,35.8,4.2,35.9,4.1z M35.8,2.5c0,0.1,0,0.2-0.1,0.3C35.6,2.9,35.5,3,35.4,3c-0.1,0-0.2,0-0.3-0.1C35,2.8,35,2.7,35,2.5
		c0-0.1,0-0.2,0.1-0.3c0.1-0.1,0.2-0.1,0.3-0.1c0.1,0,0.2,0,0.3,0.1C35.8,2.3,35.8,2.4,35.8,2.5z"/>
</g>
</svg>
