<?xml version="1.0" encoding="utf-8"?>
<!-- Generator: Adobe Illustrator 17.1.0, SVG Export Plug-In . SVG Version: 6.00 Build 0)  -->
<!DOCTYPE svg PUBLIC "-//W3C//DTD SVG 1.1//EN" "http://www.w3.org/Graphics/SVG/1.1/DTD/svg11.dtd" []>
<svg xmlns="http://www.w3.org/2000/svg" xmlns:xlink="http://www.w3.org/1999/xlink" x="0px" y="0px" viewBox="0 0 481.5 1.5"
	 enable-background="new 0 0 481.5 1.5" xml:space="preserve">
<metadata>
	<sfw>
		<slices></slices>
		<sliceSourceBounds  width="481.5" height="1.5" bottomLeftOrigin="true" x="239.8" y="-281.3"></sliceSourceBounds>
	</sfw>
</metadata>
<g>
	<path fill="#4D4D4D" d="M0,0.7l3.5,0c0,0,0,0,0,0c0,0,0,0,0,0c0,0,0,0,0,0L0,0.7z"/>
	<path fill="#4D4D4D" d="M9.9,0.7l6.9,0c0.1,0,0.1,0.2,0.1,0.3c0,0.1,0,0.3-0.1,0.3c0,0,0,0,0,0L9.9,1c0,0-0.1-0.1-0.1-0.2
		C9.9,0.8,9.9,0.7,9.9,0.7z"/>
	<path fill="#4D4D4D" d="M23.3,0.6l6.9,0c0.1,0,0.2,0.2,0.2,0.3c0,0.1-0.1,0.3-0.2,0.3c0,0,0,0,0,0L23.3,1c-0.1,0-0.1-0.1-0.1-0.2
		C23.2,0.7,23.2,0.6,23.3,0.6z"/>
	<path fill="#4D4D4D" d="M36.7,0.5l6.9,0c0.1,0,0.3,0.2,0.3,0.4c0,0.1-0.1,0.4-0.3,0.4c0,0,0,0,0,0l-6.9-0.2c-0.1,0-0.2-0.2-0.2-0.3
		C36.5,0.7,36.6,0.5,36.7,0.5z"/>
	<path fill="#4D4D4D" d="M50.1,0.4l6.9,0c0.2,0,0.3,0.2,0.3,0.4S57.2,1.2,57,1.2c0,0,0,0,0,0l-6.9-0.1c-0.2,0-0.3-0.2-0.3-0.3
		C49.8,0.6,49.9,0.4,50.1,0.4z"/>
	<path fill="#4D4D4D" d="M63.4,0.4l6.9,0c0.2,0,0.4,0.2,0.4,0.5c0,0.2-0.2,0.5-0.4,0.5h0l-6.9-0.1c-0.2,0-0.4-0.2-0.4-0.4
		C63.1,0.6,63.2,0.4,63.4,0.4z"/>
	<path fill="#4D4D4D" d="M76.8,0.3l6.9,0c0.2,0,0.5,0.2,0.5,0.5c0,0.2-0.2,0.5-0.4,0.5h0l-6.9,0c-0.2,0-0.4-0.2-0.4-0.4
		C76.4,0.5,76.6,0.3,76.8,0.3z"/>
	<path fill="#4D4D4D" d="M90.2,0.3l6.9,0c0.3,0,0.5,0.2,0.5,0.5c0,0.3-0.2,0.5-0.5,0.5h0l-6.9,0c-0.3,0-0.5-0.2-0.5-0.5
		C89.7,0.5,89.9,0.3,90.2,0.3z"/>
	<path fill="#4D4D4D" d="M103.6,0.2l6.9,0c0.3,0,0.5,0.2,0.5,0.5c0,0.3-0.2,0.5-0.5,0.5h0l-6.9,0c-0.3,0-0.5-0.2-0.5-0.5
		C103,0.5,103.3,0.2,103.6,0.2z"/>
	<path fill="#4D4D4D" d="M116.9,0.2l6.9,0c0.3,0,0.6,0.2,0.6,0.5c0,0.3-0.3,0.5-0.6,0.5h0l-6.9,0c-0.3,0-0.6-0.2-0.6-0.5
		C116.4,0.4,116.6,0.2,116.9,0.2z"/>
	<path fill="#4D4D4D" d="M130.3,0.1l6.9,0c0.3,0,0.6,0.2,0.6,0.6s-0.3,0.6-0.6,0.6h0l-6.9,0c-0.3,0-0.6-0.2-0.6-0.6
		C129.7,0.4,130,0.1,130.3,0.1z"/>
	<path fill="#4D4D4D" d="M143.7,0.1l6.9,0c0.4,0,0.6,0.2,0.6,0.6s-0.3,0.6-0.6,0.6h0l-6.9,0.1c-0.4,0-0.6-0.3-0.6-0.6
		S143.3,0.1,143.7,0.1z"/>
	<path fill="#4D4D4D" d="M157,0.1l6.9,0c0.4,0,0.7,0.2,0.7,0.6s-0.3,0.6-0.7,0.6h0L157,1.3c-0.4,0-0.7-0.3-0.7-0.6
		C156.4,0.3,156.7,0.1,157,0.1z"/>
	<path fill="#4D4D4D" d="M170.4,0.1l6.9,0c0.4,0,0.7,0.2,0.7,0.6c0,0.4-0.3,0.6-0.7,0.6h0l-6.9,0.1c-0.4,0-0.7-0.3-0.7-0.6
		C169.7,0.3,170,0.1,170.4,0.1z"/>
	<path fill="#4D4D4D" d="M183.8,0.1l6.9,0c0.4,0,0.7,0.2,0.7,0.6c0,0.4-0.3,0.6-0.7,0.6h0l-6.9,0.1c-0.4,0-0.7-0.3-0.7-0.6
		C183.1,0.3,183.4,0.1,183.8,0.1z"/>
	<path fill="#4D4D4D" d="M197.2,0l6.9,0c0.4,0,0.7,0.2,0.7,0.6s-0.3,0.6-0.7,0.6h0l-6.9,0.1c-0.4,0-0.7-0.3-0.7-0.6
		C196.5,0.3,196.8,0,197.2,0z"/>
	<path fill="#4D4D4D" d="M210.5,0l6.9,0c0.4,0,0.7,0.2,0.7,0.6c0,0.4-0.3,0.6-0.7,0.6h0l-6.9,0.1c-0.4,0-0.7-0.3-0.7-0.7
		S210.1,0,210.5,0z"/>
	<path fill="#4D4D4D" d="M223.9,0l6.9,0c0.4,0,0.7,0.2,0.7,0.6c0,0.4-0.3,0.6-0.7,0.6h0l-6.9,0.1c-0.4,0-0.7-0.3-0.7-0.7
		C223.2,0.3,223.5,0,223.9,0z"/>
	<path fill="#4D4D4D" d="M237.3,0l6.9,0c0.4,0,0.7,0.3,0.7,0.7c0,0.4-0.3,0.7-0.7,0.7h0l-6.9,0c-0.4,0-0.7-0.3-0.7-0.7
		S236.9,0,237.3,0z"/>
	<path fill="#4D4D4D" d="M250.7,0.2l6.9-0.1c0.4,0,0.7,0.3,0.7,0.7s-0.3,0.7-0.7,0.7l-6.9,0c-0.4,0-0.7-0.2-0.7-0.6
		C249.9,0.5,250.2,0.2,250.7,0.2L250.7,0.2z"/>
	<path fill="#4D4D4D" d="M264,0.2l6.9-0.1c0.4,0,0.7,0.3,0.7,0.7c0,0.4-0.3,0.7-0.7,0.7l-6.9,0c-0.4,0-0.7-0.2-0.7-0.6
		C263.3,0.5,263.6,0.2,264,0.2L264,0.2z"/>
	<path fill="#4D4D4D" d="M277.4,0.2l6.9-0.1c0.4,0,0.7,0.3,0.7,0.6c0,0.4-0.3,0.7-0.7,0.7l-6.9,0c-0.4,0-0.7-0.2-0.7-0.6
		C276.7,0.5,277,0.2,277.4,0.2L277.4,0.2z"/>
	<path fill="#4D4D4D" d="M290.8,0.2l6.9-0.1c0.4,0,0.7,0.3,0.7,0.6s-0.3,0.7-0.7,0.7l-6.9,0c-0.4,0-0.7-0.2-0.7-0.6
		C290.1,0.5,290.4,0.2,290.8,0.2L290.8,0.2z"/>
	<path fill="#4D4D4D" d="M304.1,0.2l6.9-0.1c0.4,0,0.7,0.3,0.7,0.6c0,0.4-0.3,0.6-0.7,0.6l-6.9,0c-0.4,0-0.7-0.2-0.7-0.6
		C303.5,0.5,303.8,0.2,304.1,0.2L304.1,0.2z"/>
	<path fill="#4D4D4D" d="M317.5,0.2l6.9-0.1c0.4,0,0.7,0.3,0.7,0.6c0,0.4-0.3,0.6-0.7,0.6l-6.9,0c-0.4,0-0.7-0.2-0.7-0.6
		C316.9,0.5,317.2,0.2,317.5,0.2L317.5,0.2z"/>
	<path fill="#4D4D4D" d="M330.9,0.2l6.9-0.1c0.4,0,0.6,0.3,0.6,0.6c0,0.4-0.3,0.6-0.6,0.6l-6.9,0c-0.4,0-0.6-0.2-0.6-0.6
		C330.2,0.5,330.5,0.2,330.9,0.2L330.9,0.2z"/>
	<path fill="#4D4D4D" d="M344.3,0.2l6.9,0c0.3,0,0.6,0.2,0.6,0.6c0,0.3-0.3,0.6-0.6,0.6l-6.9,0c-0.3,0-0.6-0.2-0.6-0.6
		C343.6,0.5,343.9,0.2,344.3,0.2L344.3,0.2z"/>
	<path fill="#4D4D4D" d="M357.6,0.2l6.9,0c0.3,0,0.6,0.2,0.6,0.5c0,0.3-0.3,0.6-0.6,0.6l-6.9,0c-0.3,0-0.6-0.2-0.6-0.5
		C357,0.5,357.3,0.2,357.6,0.2L357.6,0.2z"/>
	<path fill="#4D4D4D" d="M371,0.2l6.9,0c0.3,0,0.5,0.2,0.5,0.5c0,0.3-0.2,0.5-0.5,0.5l-6.9,0c-0.3,0-0.5-0.2-0.5-0.5
		S370.7,0.2,371,0.2L371,0.2z"/>
	<path fill="#4D4D4D" d="M384.4,0.2l6.9,0c0.3,0,0.5,0.2,0.5,0.5c0,0.3-0.2,0.5-0.5,0.5l-6.9,0c-0.3,0-0.5-0.2-0.5-0.5
		C383.9,0.5,384.1,0.2,384.4,0.2L384.4,0.2z"/>
	<path fill="#4D4D4D" d="M397.8,0.2l6.9,0c0.2,0,0.4,0.2,0.4,0.4c0,0.2-0.2,0.4-0.4,0.4l-6.9,0c-0.2,0-0.5-0.2-0.5-0.5
		C397.3,0.5,397.5,0.2,397.8,0.2L397.8,0.2z"/>
	<path fill="#4D4D4D" d="M411.1,0.2l6.9,0.1c0.2,0,0.4,0.2,0.4,0.4c0,0.2-0.2,0.4-0.4,0.4l-6.9,0c-0.2,0-0.4-0.2-0.4-0.4
		S410.9,0.2,411.1,0.2L411.1,0.2z"/>
	<path fill="#4D4D4D" d="M424.5,0.2l6.9,0.1c0.2,0,0.3,0.2,0.3,0.3c0,0.2-0.1,0.3-0.3,0.3l-6.9,0.1c-0.2,0-0.3-0.2-0.3-0.4
		C424.2,0.5,424.3,0.2,424.5,0.2C424.5,0.2,424.5,0.2,424.5,0.2z"/>
	<path fill="#4D4D4D" d="M437.9,0.2l6.9,0.2c0.1,0,0.2,0.2,0.2,0.3c0,0.1-0.1,0.3-0.2,0.3L437.9,1c-0.1,0-0.3-0.2-0.3-0.4
		C437.6,0.5,437.7,0.2,437.9,0.2C437.9,0.2,437.9,0.2,437.9,0.2z"/>
	<path fill="#4D4D4D" d="M451.3,0.2l6.9,0.2c0.1,0,0.1,0.1,0.1,0.2c0,0.1-0.1,0.2-0.1,0.2l-6.9,0.1c-0.1,0-0.2-0.2-0.2-0.3
		S451.1,0.2,451.3,0.2C451.3,0.2,451.3,0.2,451.3,0.2z"/>
	<path fill="#4D4D4D" d="M464.6,0.2l6.9,0.2c0,0,0.1,0.1,0.1,0.2c0,0,0,0.1-0.1,0.1l-6.9,0.1c-0.1,0-0.1-0.2-0.1-0.3
		C464.5,0.5,464.6,0.2,464.6,0.2C464.6,0.2,464.6,0.2,464.6,0.2z"/>
	<path fill="#4D4D4D" d="M478,0.7l3.5,0L478,0.7C478,0.8,478,0.8,478,0.7C478,0.7,478,0.7,478,0.7C478,0.7,478,0.7,478,0.7z"/>
</g>
</svg>
