<?xml version="1.0" encoding="utf-8"?>
<!-- Generator: Adobe Illustrator 17.1.0, SVG Export Plug-In . SVG Version: 6.00 Build 0)  -->
<!DOCTYPE svg PUBLIC "-//W3C//DTD SVG 1.1//EN" "http://www.w3.org/Graphics/SVG/1.1/DTD/svg11.dtd" []>
<svg xmlns="http://www.w3.org/2000/svg" xmlns:xlink="http://www.w3.org/1999/xlink" x="0px" y="0px" viewBox="0 0 60.2 59.5"
	 enable-background="new 0 0 60.2 59.5" xml:space="preserve">
<metadata>
	<sfw>
		<slices></slices>
		<sliceSourceBounds  width="60.2" height="59.5" y="-309.1" x="450.5" bottomLeftOrigin="true"></sliceSourceBounds>
	</sfw>
</metadata>
<g>
	<g>
		<g>
			<g>
				<path fill="#335C64" d="M52.1,25.6l6.8,0c-0.3-0.4-0.7-0.8-1.1-1.1l-0.1,0c-0.2-0.1-0.4-0.3-0.6-0.5l-5.5,0
					C51.9,24.5,52,25,52.1,25.6z"/>
			</g>
		</g>
	</g>
	<g>
		<g>
			<g>
				<radialGradient id="SVGID_1_" cx="29.9969" cy="11.7127" r="20.5428" gradientUnits="userSpaceOnUse">
					<stop  offset="0" style="stop-color:#A3CD39"/>
					<stop  offset="0.4549" style="stop-color:#87C440"/>
					<stop  offset="0.5828" style="stop-color:#7EC142"/>
					<stop  offset="0.7663" style="stop-color:#70BD44"/>
					<stop  offset="1" style="stop-color:#63B946"/>
				</radialGradient>
				<path fill="url(#SVGID_1_)" d="M9.4,20.9c1.1-2.7,2.7-5.2,4.8-7.3c2-2.1,4.4-3.8,7.1-5C24,7.4,26.9,6.8,30,6.8
					c3,0,6,0.6,8.7,1.8c2.7,1.1,5.1,2.8,7.2,4.9c2.1,2.1,3.7,4.6,4.8,7.3c0.3,0.8,0.6,1.6,0.9,2.5l5,0c-0.4-0.6-0.7-1.2-1-2
					c-0.1-0.2-0.1-0.4-0.2-0.6l0,0c-0.3-1.2-0.2-2.4,0.1-3.3l0,0c0,0,0-0.1,0-0.1c0,0,0,0,0-0.1l0,0l0,0c0.2-0.8,0.3-1.7,0.1-2.6
					c-0.2-0.9-0.6-1.9-1.3-2.9l0,0l0-0.1c-0.2-0.3-0.5-0.7-0.8-0.9l0,0c-0.1-0.1-0.1-0.1-0.2-0.2l-0.1-0.1l-0.1-0.1L52.9,10
					l-0.1-0.1l-0.2-0.2l-0.1,0c-0.1-0.1-0.2-0.1-0.3-0.2l0,0c-0.1-0.1-0.2-0.1-0.3-0.2h0l0,0c-0.8-0.4-1.6-0.6-2.4-0.6l-0.1,0
					c-1.1,0-2.5-0.4-3.6-1.3c-0.2-0.1-0.3-0.3-0.5-0.4l0,0c-0.9-0.8-1.5-1.8-1.8-2.7l0,0c0,0,0-0.1,0-0.1c0,0,0,0,0,0l0,0l0,0
					c-0.2-0.8-0.7-1.5-1.4-2.2c-0.7-0.7-1.6-1.2-2.7-1.6l0,0l-0.1,0c-0.4-0.1-0.8-0.2-1.2-0.3l0,0c-0.1,0-0.2,0-0.3,0l-0.2,0l-0.2,0
					l-0.2,0l-0.1,0l-0.3,0l-0.1,0c-0.1,0-0.2,0-0.3,0l0,0c-0.1,0-0.2,0-0.4,0h0h0c-0.9,0.1-1.7,0.5-2.3,0.9l-0.1,0.1
					c-0.9,0.7-2.2,1.1-3.7,1.1c-0.2,0-0.4,0-0.6,0v0c-1.2-0.1-2.2-0.5-3-1.1l0,0c0,0-0.1,0-0.1-0.1c0,0,0,0,0,0l0,0l0,0
					c-0.6-0.5-1.4-0.8-2.4-0.9c-0.9-0.1-2,0-3.1,0.4l0,0l-0.1,0c-0.4,0.1-0.8,0.3-1.1,0.5l0,0c-0.1,0-0.2,0.1-0.2,0.1l-0.1,0.1
					L19,1.2l-0.2,0.1l-0.1,0.1l-0.2,0.2l-0.1,0c-0.1,0.1-0.2,0.1-0.3,0.2l0,0C18.1,2,18,2.1,17.9,2.2l0,0l0,0
					c-0.6,0.7-1.1,1.4-1.3,2.1l0,0.1c-0.3,1.1-1.2,2.3-2.3,3.2c-0.2,0.1-0.3,0.2-0.5,0.3l0,0c-1,0.6-2.1,0.9-3.1,0.9l0,0
					c0,0-0.1,0-0.1,0c0,0,0,0-0.1,0l0,0l0,0C9.7,8.8,8.8,9,8,9.5c-0.8,0.5-1.6,1.2-2.3,2.1l0,0l0,0.1c-0.2,0.3-0.5,0.7-0.6,1.1l0,0
					C5,12.9,5,13,4.9,13l-0.1,0.1l-0.1,0.2l-0.1,0.2l0,0.1c0,0.1-0.1,0.2-0.1,0.3l0,0.1c0,0.1-0.1,0.2-0.1,0.3l0,0
					c0,0.1,0,0.2-0.1,0.4v0l0,0c-0.1,0.9-0.1,1.8,0.2,2.5l0,0.1c0.4,1.1,0.3,2.5-0.1,4c-0.1,0.2-0.1,0.4-0.2,0.6l0,0
					C4,22.5,3.7,23,3.4,23.4l5.1,0C8.8,22.6,9.1,21.7,9.4,20.9z"/>
			</g>
		</g>
	</g>
	<g>
		<g>
			<g>
				<path fill="#335C64" d="M8.3,24.2l-5.6,0c-0.1,0.1-0.3,0.2-0.4,0.3l0,0c0,0-0.1,0-0.1,0.1c0,0,0,0,0,0l0,0l0,0
					c-0.4,0.3-0.8,0.7-1.1,1.3l7,0C8.1,25.3,8.2,24.7,8.3,24.2z"/>
			</g>
		</g>
	</g>
	<g>
		<g>
			<g>
				<path fill="#335C64" d="M7.9,26.6l-7.3,0c0,0,0,0,0,0c-0.2,0.5-0.4,1.1-0.5,1.7l7.6,0C7.8,27.7,7.8,27.2,7.9,26.6z"/>
			</g>
		</g>
	</g>
	<g>
		<g>
			<g>
				<path fill="#335C64" d="M51.8,35.4l5.6,0c0.1-0.1,0.3-0.2,0.4-0.3l0,0c0,0,0.1,0,0.1-0.1c0,0,0,0,0,0v0l0,0
					c0.4-0.3,0.8-0.7,1.1-1.3l-7,0C52.1,34.3,52,34.8,51.8,35.4z"/>
			</g>
		</g>
	</g>
	<g>
		<g>
			<g>
				<path fill="#335C64" d="M52.4,28l7.6,0l0,0l0-0.2l-0.1-0.2l0-0.1c0-0.1-0.1-0.2-0.1-0.3l0-0.1c0-0.1-0.1-0.2-0.1-0.3l0,0
					c0-0.1-0.1-0.2-0.1-0.3h0l0,0c0,0,0,0,0-0.1l-7.2,0C52.3,26.9,52.4,27.5,52.4,28z"/>
			</g>
		</g>
	</g>
	<g>
		<g>
			<g>
				<path fill="#335C64" d="M52.3,32.9l7.3,0c0,0,0,0,0,0c0.2-0.5,0.4-1.1,0.5-1.7l-7.6,0C52.4,31.8,52.4,32.4,52.3,32.9z"/>
			</g>
		</g>
	</g>
	<g>
		<g>
			<g>
				<radialGradient id="SVGID_2_" cx="30.0833" cy="29.7688" r="21.9503" gradientUnits="userSpaceOnUse">
					<stop  offset="0" style="stop-color:#A3CD39"/>
					<stop  offset="0.4549" style="stop-color:#87C440"/>
					<stop  offset="0.5828" style="stop-color:#7EC142"/>
					<stop  offset="0.7663" style="stop-color:#70BD44"/>
					<stop  offset="1" style="stop-color:#63B946"/>
				</radialGradient>
				<path fill="url(#SVGID_2_)" d="M30,7.5C18,7.6,8.4,17.6,8.4,29.9C8.5,42.1,18.3,52.1,30.2,52c11.9-0.1,21.6-10.1,21.5-22.3
					C51.7,17.4,41.9,7.5,30,7.5z M50.5,29.7c0,2.8-0.5,5.6-1.6,8.2c-1,2.5-2.5,4.8-4.3,6.7c-1.9,1.9-4.1,3.5-6.5,4.5
					c-2.5,1.1-5.2,1.7-8,1.7c-2.8,0-5.4-0.5-8-1.6c-2.4-1-4.6-2.5-6.5-4.5c-1.9-1.9-3.4-4.2-4.4-6.7c-1.1-2.6-1.6-5.3-1.7-8.2
					c0-2.8,0.5-5.6,1.6-8.2c1-2.5,2.5-4.8,4.4-6.7c1.9-1.9,4-3.5,6.5-4.5c2.5-1.1,5.2-1.7,8-1.7c2.8,0,5.4,0.5,8,1.6
					c2.4,1,4.6,2.5,6.5,4.5c1.9,1.9,3.4,4.2,4.4,6.7C50,24.1,50.5,26.8,50.5,29.7z"/>
			</g>
		</g>
	</g>
	<g>
		<g>
			<g>
				<path fill="#335C64" d="M52.5,29.6c0,0.3,0,0.6,0,0.8l7.7,0c0-0.2,0-0.4,0-0.6v0l0-0.1c0-0.3,0-0.6-0.1-0.9l-7.6,0
					C52.5,29.1,52.5,29.4,52.5,29.6z"/>
			</g>
		</g>
	</g>
	<g>
		<g>
			<g>
				<path fill="#335C64" d="M7.7,29.9c0-0.3,0-0.6,0-0.8l-7.7,0c0,0.2,0,0.4,0,0.7l0,0l0,0.1c0,0.3,0,0.6,0.1,0.9l7.6,0
					C7.7,30.4,7.7,30.2,7.7,29.9z"/>
			</g>
		</g>
	</g>
	<g>
		<g>
			<g>
				<path fill="#335C64" d="M8,33.9l-6.8,0c0.3,0.4,0.7,0.8,1.1,1.1l0.1,0c0.2,0.1,0.4,0.3,0.6,0.5l5.5,0C8.3,35.1,8.1,34.5,8,33.9z
					"/>
			</g>
		</g>
	</g>
	<g>
		<g>
			<g>
				<path fill="#335C64" d="M7.7,31.5l-7.6,0l0,0l0,0.2L0.3,32l0,0.1c0,0.1,0.1,0.2,0.1,0.3l0,0.1c0,0.1,0.1,0.2,0.1,0.3l0,0
					c0,0.1,0.1,0.2,0.1,0.3v0v0c0,0,0,0,0,0.1l7.2,0C7.8,32.6,7.8,32.1,7.7,31.5z"/>
			</g>
		</g>
	</g>
	<g>
		<g>
			<g>
				<radialGradient id="SVGID_3_" cx="30.1709" cy="47.8254" r="20.5419" gradientUnits="userSpaceOnUse">
					<stop  offset="0" style="stop-color:#A3CD39"/>
					<stop  offset="0.4549" style="stop-color:#87C440"/>
					<stop  offset="0.5828" style="stop-color:#7EC142"/>
					<stop  offset="0.7663" style="stop-color:#70BD44"/>
					<stop  offset="1" style="stop-color:#63B946"/>
				</radialGradient>
				<path fill="url(#SVGID_3_)" d="M50.8,38.6c-1.1,2.7-2.7,5.2-4.8,7.3c-2,2.1-4.4,3.8-7.1,5c-2.8,1.2-5.7,1.8-8.7,1.9
					c-3,0-6-0.6-8.7-1.8c-2.7-1.1-5.1-2.8-7.1-4.9c-2.1-2.1-3.7-4.6-4.8-7.3c-0.3-0.8-0.6-1.6-0.9-2.5l-5,0c0.4,0.6,0.7,1.2,1,2
					c0.1,0.2,0.1,0.4,0.2,0.6l0,0c0.3,1.2,0.2,2.4-0.1,3.3l0,0c0,0,0,0.1,0,0.1c0,0,0,0,0,0.1l0,0l0,0c-0.2,0.8-0.3,1.7-0.1,2.6
					C4.7,46,5.1,47,5.7,47.9l0,0l0,0.1c0.2,0.3,0.5,0.7,0.8,0.9l0,0c0.1,0.1,0.1,0.1,0.2,0.2l0.1,0.1l0.1,0.1l0.2,0.2l0.1,0.1
					l0.2,0.2l0.1,0c0.1,0.1,0.2,0.1,0.3,0.2l0,0c0.1,0.1,0.2,0.1,0.3,0.2l0,0h0c0.8,0.4,1.6,0.6,2.4,0.6l0.1,0
					c1.1,0,2.5,0.4,3.6,1.3c1.2,0.9,2,2,2.4,3.2l0,0c0,0,0,0.1,0,0.1c0,0,0,0,0,0l0,0l0,0c0.2,0.8,0.7,1.5,1.4,2.2
					c0.7,0.6,1.6,1.2,2.7,1.5c0.4,0.1,0.8,0.2,1.2,0.3l0,0c0.1,0,0.2,0,0.3,0l0.2,0l0.2,0l0.2,0l0.1,0l0.3,0l0.1,0
					c0.1,0,0.2,0,0.3,0l0,0c0.1,0,0.2,0,0.4,0l0,0l0,0c0.9-0.1,1.7-0.5,2.3-0.9l0.1-0.1c0.9-0.7,2.3-1.1,3.8-1.1c0.2,0,0.4,0,0.6,0
					l0-1.3l0,1.3c1.2,0.1,2.2,0.5,3,1.1l0,0c0,0,0.1,0,0.1,0.1c0,0,0,0,0,0l0,0l0,0c0.6,0.5,1.4,0.8,2.4,0.9c0.9,0.1,2,0,3.1-0.3
					c0.4-0.1,0.8-0.3,1.1-0.5l0,0l0.2-0.1l0.1-0.1l0.2-0.1l0.2-0.1l0.1-0.1c0.1-0.1,0.2-0.1,0.2-0.2l0.1,0c0.1-0.1,0.2-0.1,0.2-0.2
					l0,0c0.1-0.1,0.2-0.2,0.3-0.2v0l0,0c0.6-0.7,1.1-1.4,1.3-2.1l0-0.1c0.3-1.1,1.2-2.3,2.4-3.2c0.2-0.1,0.4-0.3,0.6-0.4l0,0
					c1-0.6,2.1-0.9,3.1-0.9h0c0,0,0.1,0,0.1,0c0,0,0,0,0,0h0h0c0.8,0,1.6-0.2,2.4-0.7c0.8-0.5,1.6-1.2,2.3-2.1l0,0l0-0.1
					c0.2-0.3,0.5-0.7,0.6-1.1l0,0c0-0.1,0.1-0.2,0.1-0.2l0.1-0.1l0.1-0.2l0.1-0.2l0-0.1c0-0.1,0.1-0.2,0.1-0.3l0-0.1
					c0-0.1,0.1-0.2,0.1-0.3l0,0c0-0.1,0-0.2,0.1-0.4l0,0v0c0.1-0.9,0.1-1.8-0.2-2.5l0-0.1c-0.4-1.1-0.3-2.5,0.1-4
					c0.1-0.2,0.1-0.4,0.2-0.6l0,0c0.2-0.6,0.5-1.1,0.9-1.5l-5.1,0C51.4,37,51.1,37.8,50.8,38.6z"/>
			</g>
		</g>
	</g>
	<g>
		<g>
			<g>
				<path fill="#FBF8F1" d="M37.9,10.4c-2.5-1.1-5.2-1.6-8-1.6c-2.8,0-5.4,0.6-8,1.7c-2.4,1.1-4.6,2.6-6.5,4.5
					c-1.9,1.9-3.3,4.2-4.4,6.7c-1.1,2.6-1.6,5.3-1.6,8.2c0,2.8,0.6,5.6,1.7,8.2c1,2.5,2.5,4.7,4.4,6.7c1.9,1.9,4.1,3.4,6.5,4.5
					c2.5,1.1,5.2,1.6,8,1.6c2.8,0,5.4-0.6,8-1.7c2.4-1.1,4.6-2.6,6.5-4.5c1.9-1.9,3.3-4.2,4.3-6.7c1.1-2.6,1.6-5.3,1.6-8.2
					c0-2.8-0.6-5.6-1.7-8.2c-1-2.5-2.5-4.7-4.4-6.7C42.6,12.9,40.4,11.4,37.9,10.4z M50.3,29.7c0.1,11.4-8.9,20.8-20.1,20.8
					C19.1,50.5,10,41.3,9.9,29.9C9.8,18.5,18.8,9.1,30,9.1C41.1,9,50.2,18.2,50.3,29.7z"/>
			</g>
		</g>
	</g>
	<g>
		<g>
			<g>
				<g>
					<path fill="#231F20" d="M51.8,23.9l5.5,0c-0.2-0.2-0.4-0.5-0.6-0.8l-5,0C51.6,23.4,51.7,23.7,51.8,23.9z"/>
				</g>
			</g>
		</g>
		<g>
			<g>
				<g>
					<path fill="#231F20" d="M52.3,26.4l7.2,0c-0.1-0.3-0.3-0.5-0.5-0.8l-6.8,0C52.2,25.9,52.2,26.1,52.3,26.4z"/>
				</g>
			</g>
		</g>
		<g>
			<g>
				<g>
					<path fill="#231F20" d="M52.5,28.8l7.6,0c0-0.1,0-0.2,0-0.3l0,0c0-0.1,0-0.2,0-0.3l0-0.1l-7.6,0C52.5,28.3,52.5,28.6,52.5,28.8
						z"/>
				</g>
			</g>
		</g>
		<g>
			<g>
				<g>
					<path fill="#231F20" d="M52.4,31.3l7.6,0c0-0.3,0.1-0.5,0.1-0.8l-7.7,0C52.5,30.7,52.5,31,52.4,31.3z"/>
				</g>
			</g>
		</g>
		<g>
			<g>
				<g>
					<path fill="#231F20" d="M52.2,33.7l7,0c0.2-0.2,0.3-0.5,0.4-0.8l-7.3,0C52.3,33.2,52.2,33.4,52.2,33.7z"/>
				</g>
			</g>
		</g>
		<g>
			<g>
				<g>
					<path fill="#231F20" d="M57.5,35.3l-5.6,0c-0.1,0.3-0.1,0.5-0.2,0.8l5.1,0C57,35.8,57.2,35.6,57.5,35.3z"/>
				</g>
			</g>
		</g>
		<g>
			<g>
				<g>
					<path fill="#231F20" d="M8.5,23.4l-5.1,0C3.2,23.7,3,24,2.7,24.2l5.6,0C8.4,23.9,8.5,23.7,8.5,23.4z"/>
				</g>
			</g>
		</g>
		<g>
			<g>
				<g>
					<path fill="#231F20" d="M8,25.8l-7,0c-0.2,0.2-0.3,0.5-0.4,0.8l7.3,0C7.9,26.4,8,26.1,8,25.8z"/>
				</g>
			</g>
		</g>
		<g>
			<g>
				<g>
					<path fill="#231F20" d="M7.7,28.3l-7.6,0c0,0.3-0.1,0.5-0.1,0.8l7.7,0C7.7,28.8,7.7,28.5,7.7,28.3z"/>
				</g>
			</g>
		</g>
		<g>
			<g>
				<g>
					<path fill="#231F20" d="M7.7,30.7l-7.6,0c0,0.1,0,0.2,0,0.3l0,0c0,0.1,0,0.2,0,0.3l0,0.1l7.6,0C7.7,31.2,7.7,31,7.7,30.7z"/>
				</g>
			</g>
		</g>
		<g>
			<g>
				<g>
					<path fill="#231F20" d="M7.9,33.2l-7.2,0c0.1,0.3,0.3,0.5,0.5,0.8l6.8,0C8,33.7,8,33.4,7.9,33.2z"/>
				</g>
			</g>
		</g>
		<g>
			<g>
				<g>
					<path fill="#231F20" d="M8.4,35.6l-5.5,0c0.2,0.2,0.4,0.5,0.6,0.8l5,0C8.5,36.1,8.5,35.9,8.4,35.6z"/>
				</g>
			</g>
		</g>
	</g>
	<g>
		<g>
			<g>
				<path fill="#231F20" d="M52.5,28.8c0-0.3,0-0.5,0-0.8c0-0.6-0.1-1.1-0.2-1.7c0-0.3-0.1-0.5-0.1-0.8c-0.1-0.6-0.2-1.1-0.4-1.7
					c-0.1-0.3-0.1-0.5-0.2-0.8c-0.2-0.8-0.5-1.7-0.9-2.5c-1.1-2.7-2.8-5.2-4.8-7.3c-2.1-2.1-4.5-3.7-7.2-4.9C35.9,7.3,33,6.8,30,6.8
					c-3,0-6,0.6-8.7,1.9c-2.7,1.2-5.1,2.8-7.1,5c-2,2.1-3.7,4.6-4.8,7.3c-0.3,0.8-0.6,1.6-0.8,2.5c-0.1,0.3-0.1,0.5-0.2,0.8
					c-0.1,0.6-0.2,1.1-0.3,1.7c0,0.3-0.1,0.5-0.1,0.8c-0.1,0.5-0.1,1.1-0.2,1.7c0,0.3,0,0.5,0,0.8c0,0.3,0,0.6,0,0.8
					c0,0.3,0,0.6,0,0.8c0,0.3,0,0.5,0,0.8c0,0.6,0.1,1.1,0.2,1.7C8,33.4,8,33.7,8,33.9c0.1,0.6,0.2,1.1,0.4,1.7
					c0.1,0.3,0.1,0.5,0.2,0.8c0.2,0.8,0.5,1.7,0.9,2.5c1.1,2.7,2.8,5.2,4.8,7.3c2.1,2.1,4.5,3.7,7.1,4.9c2.8,1.2,5.7,1.8,8.7,1.8
					c3,0,6-0.6,8.7-1.9c2.7-1.2,5.1-2.8,7.1-5c2-2.1,3.6-4.6,4.8-7.3c0.3-0.8,0.6-1.6,0.8-2.5c0.1-0.3,0.1-0.5,0.2-0.8
					c0.1-0.6,0.2-1.1,0.3-1.7c0-0.3,0.1-0.5,0.1-0.8c0.1-0.5,0.1-1.1,0.2-1.7c0-0.3,0-0.5,0-0.8c0-0.3,0-0.6,0-0.8
					C52.5,29.4,52.5,29.1,52.5,28.8z M30.2,52C18.3,52.1,8.5,42.1,8.4,29.9C8.4,17.6,18,7.6,30,7.5c11.9-0.1,21.7,9.9,21.8,22.1
					C51.8,41.9,42.1,51.9,30.2,52z"/>
			</g>
		</g>
	</g>
	<g>
		<g>
			<g>
				<path fill="#231F20" d="M47.8,49.7c0,0,3.7,0.2,5.5-2.5c1.8-2.6,1.2-4.6,0.9-5.2C54.3,42.1,54.5,48.3,47.8,49.7z"/>
			</g>
		</g>
	</g>
	<g>
		<g>
			<g>
				<path fill="#231F20" d="M54.6,16.9c0,0,0.3-3.8-2.2-5.8c-2.5-2-4.5-1.4-5.1-1.2C47.3,9.9,53.5,9.9,54.6,16.9z"/>
			</g>
		</g>
	</g>
	<g>
		<g>
			<g>
				<path fill="#231F20" d="M12.5,9.8c0,0-3.7-0.2-5.5,2.5c-1.8,2.6-1.2,4.6-0.9,5.2C6,17.5,5.8,11.2,12.5,9.8z"/>
			</g>
		</g>
	</g>
	<g>
		<g>
			<g>
				<path fill="#231F20" d="M5.7,41.9c0,0-0.3,3.8,2.2,5.8c2.5,2,4.5,1.4,5.1,1.2C13,48.9,6.8,48.9,5.7,41.9z"/>
			</g>
		</g>
	</g>
	<g>
		<g>
			<g>
				<path fill="#231F20" d="M43,6.5c0,0-0.9-3.7-3.9-4.8c-3-1.1-5.4,0.4-5.8,0.8C33.3,2.5,39.8,0.2,43,6.5z"/>
			</g>
		</g>
	</g>
	<g>
		<g>
			<g>
				<path fill="#231F20" d="M27,2.6c0,0-3.1-2.1-6.1-0.8c-2.9,1.3-3.7,4.1-3.7,4.7C17.3,6.5,20.5,0.3,27,2.6z"/>
			</g>
		</g>
	</g>
	<g>
		<path fill="#FFFFFF" d="M20.8,37.9c0.5,0.3,0.9,0.7,1.2,1.2c0.3,0.5,0.5,1.1,0.5,1.7c0,0.6-0.1,1.1-0.4,1.6
			c-0.3,0.5-0.7,0.9-1.1,1.2c-0.5,0.3-1,0.4-1.6,0.4l-2,0l0-5.8l-1.1,0l0.4-0.8l0.7,0l0-3l2.5,0c0.5,0,0.9,0.2,1.3,0.6
			c0.4,0.4,0.5,0.8,0.5,1.4C21.6,37,21.3,37.5,20.8,37.9z M18,37.5l1.7,0c0.3,0,0.6-0.1,0.8-0.4c0.2-0.2,0.3-0.5,0.3-0.8
			c0-0.3-0.1-0.6-0.3-0.8c-0.2-0.2-0.5-0.3-0.8-0.3l-1.7,0L18,37.5z M18,38.2l0,5l1.2,0c0.7,0,1.3-0.3,1.7-0.8
			c0.5-0.5,0.7-1.1,0.7-1.8c0-0.5-0.1-0.9-0.3-1.3c-0.2-0.4-0.5-0.7-0.9-0.9c-0.4-0.2-0.8-0.3-1.2-0.3L18,38.2z"/>
		<path fill="#FFFFFF" d="M25.8,38c0.8,0,1.5,0.3,2.1,0.9c0.6,0.6,0.9,1.3,0.9,2.2c0,0.8-0.3,1.5-0.8,2.2c-0.6,0.6-1.3,0.9-2.1,0.9
			c-0.8,0-1.5-0.3-2.1-0.9c-0.6-0.6-0.9-1.3-0.9-2.1c0-0.8,0.3-1.6,0.9-2.2C24.3,38.3,25,38,25.8,38z M25.8,38.8
			c-0.6,0-1.1,0.2-1.5,0.7c-0.4,0.4-0.6,1-0.6,1.6c0,0.6,0.2,1.2,0.6,1.6c0.4,0.4,0.9,0.7,1.6,0.6c0.6,0,1.1-0.2,1.5-0.7
			c0.4-0.4,0.6-1,0.6-1.6c0-0.6-0.2-1.2-0.6-1.6S26.4,38.8,25.8,38.8z"/>
		<path fill="#FFFFFF" d="M35.3,38.9l-1,0l0-0.8l1,0l0-1.6l0.7-0.4l0,2l1,0l0,0.8l-1,0l0,5l-0.7,0L35.3,38.9z"/>
		<path fill="#FFFFFF" d="M41.3,40.3c0-0.4-0.1-0.8-0.4-1.1c-0.3-0.3-0.6-0.4-1-0.4c-0.4,0-0.8,0.2-1,0.5c-0.3,0.3-0.4,0.7-0.4,1.1
			l0,3.6l-0.7,0l-0.1-9.6l0.7,0l0,4.3c0.4-0.4,0.9-0.6,1.5-0.6c0.6,0,1.1,0.2,1.6,0.7c0.4,0.4,0.6,1,0.6,1.6l0,3.6l-0.7,0L41.3,40.3
			z"/>
		<path fill="#FFFFFF" d="M42.8,34.3l0.7,0l0,8l-0.7,0L42.8,34.3z M42.9,43.1l0.8,0l0,0.8l-0.8,0L42.9,43.1z"/>
	</g>
	<path fill="#FFFFFF" d="M32.5,40.7c0.9,1.1,1.4,2.3,1.1,2.6c-0.4,0.3-1.4-0.3-2.3-1.4c-0.9-1.1-1.4-2.3-1.1-2.6
		C30.6,38.9,31.6,39.5,32.5,40.7z"/>
	<path fill="none" stroke="#FFFFFF" stroke-width="0.3194" d="M27.2,38.1c0.6-0.4,1.4-0.3,1.8,0.3"/>
	<path fill="#DF1E26" d="M29.8,38.9c-1.1,1-1.3,2.8-0.4,4.1c0.9,1.3,2.6,1.7,3.9,0.8L29.8,38.9z"/>
	<path fill="#DF1E26" d="M34.2,43c1-1.2,0.9-3-0.3-4.1c-1.1-1.1-2.8-1.2-3.9-0.1L34.2,43z"/>
	<g id="XMLID_4_">
		<g>
			<path fill="#FFFFFF" d="M30.4,37.8c0.4,0.5,0.3,1.3-0.2,1.6c-0.5,0.4-1.2,0.2-1.6-0.3c-0.4-0.5-0.3-1.2,0.2-1.6
				C29.3,37.2,30,37.3,30.4,37.8z"/>
		</g>
	</g>
	<path fill="#C7B9A9" d="M30.2,40.1c0.1,0.2,0.1,0.5-0.1,0.6c-0.2,0.1-0.4,0.1-0.6-0.1c-0.1-0.2-0.1-0.5,0.1-0.6
		C29.8,39.8,30.1,39.9,30.2,40.1z"/>
	<path fill="#C7B9A9" d="M29.8,41.4c0.1,0.2,0.1,0.5-0.1,0.6c-0.2,0.1-0.4,0.1-0.6-0.1c-0.1-0.2-0.1-0.5,0.1-0.6
		C29.4,41.1,29.7,41.2,29.8,41.4z"/>
	<path fill="#C7B9A9" d="M32.2,42.8c0.1,0.2,0.1,0.5-0.1,0.6c-0.2,0.1-0.4,0.1-0.6-0.1c-0.1-0.2-0.1-0.5,0.1-0.6
		C31.8,42.6,32,42.6,32.2,42.8z"/>
	<path fill="#C7B9A9" d="M31.3,41.5c0.1,0.2,0.1,0.5-0.1,0.6c-0.2,0.1-0.4,0.1-0.6-0.1c-0.1-0.2-0.1-0.5,0.1-0.6
		C30.9,41.2,31.2,41.3,31.3,41.5z"/>
	<path fill="#C7B9A9" d="M31.7,38.9c0.1,0.2,0.1,0.5-0.1,0.6c-0.2,0.1-0.4,0.1-0.6-0.1c-0.1-0.2-0.1-0.5,0.1-0.6
		C31.3,38.7,31.6,38.8,31.7,38.9z"/>
	<path fill="#C7B9A9" d="M33,40.2c0.1,0.2,0.1,0.5-0.1,0.6c-0.2,0.1-0.4,0.1-0.6-0.1c-0.1-0.2-0.1-0.5,0.1-0.6
		C32.6,39.9,32.9,40,33,40.2z"/>
	<path fill="#C7B9A9" d="M33.2,38.8c0.1,0.2,0.1,0.5-0.1,0.6c-0.2,0.1-0.4,0.1-0.6-0.1c-0.1-0.2-0.1-0.5,0.1-0.6
		C32.8,38.6,33.1,38.6,33.2,38.8z"/>
	<path fill="#C7B9A9" d="M34.3,40.1c0.1,0.2,0.1,0.5-0.1,0.6c-0.2,0.1-0.4,0.1-0.6-0.1c-0.1-0.2-0.1-0.5,0.1-0.6
		C33.9,39.9,34.1,39.9,34.3,40.1z"/>
	<path fill="#C7B9A9" d="M34,41.4c0.1,0.2,0.1,0.5-0.1,0.6c-0.2,0.1-0.4,0.1-0.6-0.1c-0.1-0.2-0.1-0.5,0.1-0.6
		C33.6,41.2,33.9,41.2,34,41.4z"/>
	<path fill="#C7B9A9" d="M30.8,42.8c0.1,0.2,0.1,0.5-0.1,0.6c-0.2,0.1-0.4,0.1-0.6-0.1c-0.1-0.2-0.1-0.5,0.1-0.6
		C30.4,42.5,30.7,42.6,30.8,42.8z"/>
	<path fill="none" stroke="#FFFFFF" stroke-width="0.3194" d="M29.2,38.2c-0.6-0.5-0.6-1.4-0.2-1.9"/>
	<ellipse transform="matrix(0.7999 -0.6002 0.6002 0.7999 -15.7453 24.8092)" fill="#FFFFFF" cx="29.3" cy="36" rx="0.2" ry="0.2"/>
	<g>
		<path fill="#FFFFFF" d="M24.7,13.5c0.6,0,1.1,0.1,1.6,0.4c0.5,0.3,0.9,0.7,1.2,1.3c0.3,0.5,0.4,1.1,0.4,1.7c0,1-0.3,1.8-0.9,2.4
			c-0.6,0.7-1.4,1-2.3,1l-1.1,0l0,2.7l-0.7,0l0-8.8l-1.1,0l0.4-0.8L24.7,13.5z M23.6,19.6l1.1,0c0.8,0,1.4-0.3,1.8-0.8
			c0.5-0.5,0.7-1.2,0.7-1.9c0-0.5-0.1-1-0.4-1.4c-0.2-0.4-0.6-0.7-1-0.9c-0.4-0.2-0.8-0.3-1.2-0.3l-1.1,0L23.6,19.6z"/>
		<path fill="#FFFFFF" d="M28.6,15l0.7,0l0,0.8l-0.7,0L28.6,15z M28.6,17.3l0.7,0l0,5.8l-0.7,0L28.6,17.3z"/>
		<path fill="#FFFFFF" d="M35.2,18.2l-0.6,0.5c-0.4-0.5-1-0.8-1.7-0.8c-0.6,0-1.1,0.2-1.5,0.7c-0.4,0.4-0.6,1-0.6,1.6
			c0,0.6,0.2,1.2,0.6,1.6c0.4,0.4,0.9,0.7,1.6,0.6c0.7,0,1.2-0.3,1.6-0.8l0.6,0.5c-0.3,0.3-0.6,0.6-1,0.8c-0.4,0.2-0.8,0.3-1.2,0.3
			c-0.8,0-1.5-0.3-2.1-0.9C30.3,21.7,30,21,30,20.2c0-0.8,0.3-1.6,0.9-2.2c0.6-0.6,1.3-0.9,2.1-0.9c0.5,0,0.9,0.1,1.3,0.3
			C34.5,17.6,34.9,17.8,35.2,18.2z"/>
		<path fill="#FFFFFF" d="M39.4,23l-0.9,0l-2-2.9l0,2.9l-0.7,0l-0.1-9.6l0.7,0l0,6.5l1.6-2.7l0.9,0L37.3,20L39.4,23z"/>
	</g>
	<g>
		<path fill="#FFFFFF" d="M29.9,32.1l0,2.7l-0.7,0l0-2.7l-1,0l0.4-0.8l0.5,0l0-3.8c0-0.4,0.1-0.9,0.3-1.2c0.2-0.4,0.5-0.7,0.9-0.9
			c0.4-0.2,0.8-0.3,1.2-0.3c0.4,0,0.8,0.1,1.2,0.3c0.4,0.2,0.7,0.5,0.9,0.9c0.2,0.4,0.3,0.8,0.3,1.2l0,7.3l-0.7,0l0-2.7L29.9,32.1z
			 M29.9,31.3l3.3,0l0-3.8c0-0.3-0.1-0.6-0.2-0.9c-0.2-0.3-0.4-0.5-0.6-0.6c-0.3-0.1-0.5-0.2-0.8-0.2c-0.5,0-0.9,0.2-1.2,0.5
			c-0.3,0.4-0.5,0.8-0.5,1.2L29.9,31.3z"/>
	</g>
	<g>
		<g>
			<g>
				<path fill="#231F20" d="M33.6,57.5c0,0,3.1,2,6,0.7c2.9-1.4,3.3-3.4,3.3-4C42.9,54.2,40.1,59.7,33.6,57.5z"/>
			</g>
		</g>
	</g>
	<g>
		<g>
			<g>
				<path fill="#231F20" d="M16.9,53.6c0,0,0.9,3.7,4,4.6c3,1,4.7-0.3,5.1-0.7C26,57.5,20.2,59.7,16.9,53.6z"/>
			</g>
		</g>
	</g>
</g>
</svg>
