<?xml version="1.0" encoding="utf-8"?>
<!-- Generator: Adobe Illustrator 17.1.0, SVG Export Plug-In . SVG Version: 6.00 Build 0)  -->
<!DOCTYPE svg PUBLIC "-//W3C//DTD SVG 1.1//EN" "http://www.w3.org/Graphics/SVG/1.1/DTD/svg11.dtd" []>
<svg version="1.1" id="Layer_1"   
	 xmlns="http://www.w3.org/2000/svg" xmlns:xlink="http://www.w3.org/1999/xlink" x="0px" y="0px" viewBox="0 0 324.5 77.1"
	 enable-background="new 0 0 324.5 77.1" xml:space="preserve">
<metadata>
	<sfw  >
		<slices></slices>
		<sliceSourceBounds  bottomLeftOrigin="true" y="-313.1" height="76.6" x="297" width="324"></sliceSourceBounds>
	</sfw>
</metadata>
<g>
	<g id="XMLID_1_">
		<g>
			<path fill="#3C2415" d="M324.2,29.7v7h-16.8v-6.6c0-1.4-0.3-2.5-0.8-3.4c-0.5-0.8-1.4-1.2-2.7-1.2s-2.2,0.4-2.7,1.2
				s-0.8,1.9-0.8,3.4c0,2,0.7,3.6,2.1,4.8c1.4,1.2,3.7,2.7,6.8,4.3c2.4,1.3,4.4,2.4,5.8,3.3c1.5,0.9,2.9,2.1,4.2,3.5
				c1.4,1.4,2.4,3.2,3.3,5.2c0.9,2.1,1.3,4.5,1.3,7.1c0,12.3-7.1,18.4-21.3,18.4c-5.8,0-10.4-1.2-13.9-3.7
				c-3.5-2.5-5.2-6.3-5.2-11.5V52h16.8v9.2c0,1.4,0.3,2.5,0.8,3.3c0.5,0.8,1.4,1.2,2.7,1.2s2.2-0.4,2.7-1.2c0.5-0.8,0.8-1.9,0.8-3.3
				c0-3-0.9-5.3-2.6-6.9c-1-0.9-2.2-1.9-3.8-2.9c-1.2-0.8-2.6-1.5-4.2-2.4c-2.3-1.2-4.1-2.2-5.4-3.1c-1.3-0.9-2.6-1.9-3.8-3.2
				c-1.2-1.3-2.2-2.9-3-4.8c-0.8-1.8-1.1-4.1-1.1-6.6c0-5.8,1.8-10,5.4-12.8c3.6-2.8,8.4-4.2,14.3-4.2c6.5,0,11.7,1.3,15.4,3.8
				C322.4,20.8,324.2,24.6,324.2,29.7z"/>
			<path fill="#3C2415" d="M278.8,15.2v61H262v-7.6h-0.2c-1.6,5.5-5.7,8.3-12.2,8.3c-3.7,0-6.5-1.2-8.5-3.7
				c-1.9-2.5-2.9-5.9-2.9-10.3V15.2h16.8v42.3c0,1.7,0.2,3,0.6,4c0.4,1,1.4,1.5,2.8,1.5c1.4,0,2.4-0.5,2.9-1.5c0.5-1,0.8-2.4,0.8-4
				V15.2H278.8z"/>
			<path fill="#3C2415" d="M210.2,65v11.1h-13.8c-4,0-6.7-1-8.2-3.1c-1.5-2.1-2.2-5.3-2.2-9.5V26.2h-5.6V15.2h5.6v-11h16.8v11h7.4
				v11.1h-7.4v33.2c0,2.1,0.2,3.6,0.6,4.4c0.4,0.8,1.6,1.2,3.4,1.2H210.2z"/>
			<path fill="#3C2415" d="M177.2,15.2v61h-16.8v-7.6h-0.2c-1.6,5.5-5.7,8.3-12.2,8.3c-3.7,0-6.5-1.2-8.5-3.7
				c-2-2.5-2.9-5.9-2.9-10.3V15.2h16.8v42.3c0,1.7,0.2,3,0.6,4c0.4,1,1.4,1.5,2.8,1.5c1.4,0,2.4-0.5,2.9-1.5c0.5-1,0.8-2.4,0.8-4
				V15.2H177.2z"/>
			<path fill="#3C2415" d="M131.8,31.6v29.1c0,5.3-1.9,9.4-5.8,12.1c-3.9,2.7-8.7,4.1-14.5,4.1c-5.8,0-10.7-1.4-14.5-4.1
				C93,70,91.1,66,91.1,60.7V31.6c0-5.5,1.8-9.7,5.3-12.7c3.5-3,8.6-4.5,15.1-4.5c6.5,0,11.6,1.5,15.1,4.5
				C130,21.9,131.8,26.1,131.8,31.6z M114.9,61.5V29.8c0-1.3-0.3-2.3-0.8-3.1c-0.5-0.8-1.4-1.2-2.7-1.2s-2.2,0.4-2.7,1.2
				c-0.5,0.8-0.8,1.8-0.8,3.1v31.8c0,1.3,0.3,2.3,0.8,3.1c0.5,0.8,1.4,1.2,2.7,1.2s2.2-0.4,2.7-1.2
				C114.7,63.8,114.9,62.8,114.9,61.5z"/>
			<path fill="#3C2415" d="M86.4,28v33.7c0,2-0.2,3.9-0.6,5.6c-0.4,1.8-1.1,3.4-2,4.8s-2.2,2.6-3.8,3.5c-1.6,0.9-3.4,1.3-5.6,1.3
				c-3.3,0-5.9-0.7-7.9-2c-2-1.3-3.2-3.5-3.7-6.4h-0.2v7.7H45.7V0.2h16.8v23.2h0.2c0.8-2.8,2.2-5.1,4.3-6.7s4.6-2.4,7.7-2.4
				c4.1,0,7,1.2,8.9,3.6C85.4,20.5,86.4,23.8,86.4,28z M69.5,58.9V32.4c0-2.8-1.2-4.1-3.5-4.1c-2.3,0-3.5,1.4-3.5,4.1v26.4
				c0,2.8,1.2,4.2,3.5,4.2C68.3,63,69.5,61.6,69.5,58.9z"/>
			<path fill="#3C2415" d="M41,31v45.1H24.1V69h-0.2c-1.1,2.5-2.6,4.4-4.4,5.8c-1.8,1.4-4.3,2.1-7.4,2.1c-3.7,0-6.6-1.1-8.7-3.2
				c-2.1-2.2-3.1-5.2-3.1-9.2v-9.1c0-2.1,0.4-3.9,1.1-5.4s1.8-2.9,3-4c1.3-1.1,2.6-2.1,4.1-3c1.4-0.9,3.2-1.8,5.3-2.8
				c3.6-1.7,6.2-3.3,7.8-4.6c1.7-1.4,2.5-3.2,2.5-5.5c0-1.4-0.3-2.4-0.8-3.2c-0.5-0.8-1.4-1.2-2.7-1.2c-1.3,0-2.2,0.4-2.7,1.2
				c-0.5,0.8-0.8,1.9-0.8,3.2v6.7H0.2V31c0-3,0.6-5.5,1.7-7.7c1.1-2.1,2.7-3.9,4.6-5.2c1.9-1.3,4.1-2.3,6.5-2.9
				c2.4-0.6,4.9-0.9,7.6-0.9c2.6,0,5.1,0.3,7.6,0.9c2.4,0.6,4.6,1.6,6.5,2.9c1.9,1.3,3.5,3,4.6,5.2C40.4,25.5,41,28.1,41,31z
				 M24.1,55.9V45.3c-0.4,0.3-0.9,0.7-1.7,1.2c-1.8,1.1-3.1,2.2-4,3.2c-0.9,1-1.3,2.4-1.3,4.1v6.6c0,1,0.3,1.8,0.9,2.3
				c0.6,0.6,1.3,0.9,2.2,0.9c1.6,0,2.7-0.6,3.2-1.7C23.9,60.8,24.1,58.8,24.1,55.9z"/>
		</g>
	</g>
</g>
</svg>
