<?xml version="1.0" encoding="utf-8"?>
<!-- Generator: Adobe Illustrator 17.1.0, SVG Export Plug-In . SVG Version: 6.00 Build 0)  -->
<!DOCTYPE svg PUBLIC "-//W3C//DTD SVG 1.1//EN" "http://www.w3.org/Graphics/SVG/1.1/DTD/svg11.dtd" [
	
]>
<svg version="1.1" id="Layer_1" 
	 xmlns="http://www.w3.org/2000/svg" xmlns:xlink="http://www.w3.org/1999/xlink" x="0px" y="0px" viewBox="0 0 1280 29.3"
	 enable-background="new 0 0 1280 29.3" xml:space="preserve">
<metadata>
	<sfw>
		<slices></slices>
		<sliceSourceBounds  bottomLeftOrigin="true" y="-414.6" height="29.3" x="0" width="1280"></sliceSourceBounds>
	</sfw>
</metadata>
<g>
	<g>
		<path fill="#231F20" d="M516.6,10.4V8.6c0-1.2-0.2-2.1-0.6-2.7c-0.4-0.6-0.9-0.9-1.5-0.9c-1,0-1.6,0.2-2,0.7
			c-0.4,0.5-0.5,1.2-0.5,2.2l0,13.8c0,0.8,0.2,1.4,0.6,1.9c0.4,0.4,1,0.6,1.8,0.6c0.5,0,0.9-0.1,1.3-0.4c0.3-0.2,0.6-0.6,0.7-0.9
			c0.2-0.4,0.3-0.8,0.3-1.2c0-0.4,0.1-0.9,0.1-1.5v-2.5h6.6v3.4c0,2.5-0.8,4.5-2.3,6c-1.5,1.5-3.9,2.2-7.1,2.2
			c-2.9,0-5.1-0.8-6.4-2.3c-1.3-1.5-2-3.7-2-6.6V8.9c0-3,0.7-5.3,2.1-6.7c1.4-1.5,3.6-2.2,6.6-2.2c2.9,0,5.1,0.7,6.6,2
			c1.5,1.3,2.3,3.3,2.3,6.1v2.3H516.6z"/>
		<path fill="#231F20" d="M544,19.7c0,3.3-0.7,5.7-2,7.2c-1.3,1.6-3.6,2.3-6.8,2.3c-3.2,0-5.5-0.8-6.9-2.3c-1.4-1.6-2-4-2-7.2V8.3
			c0-2.7,0.8-4.7,2.3-6.2c1.6-1.4,3.8-2.2,6.6-2.2c2.9,0,5,0.7,6.6,2.2c1.5,1.4,2.3,3.5,2.3,6.2V19.7z M537.4,8.8c0-0.5,0-1-0.1-1.4
			c0-0.4-0.1-0.8-0.3-1.1c-0.1-0.3-0.4-0.6-0.7-0.9C536,5.1,535.6,5,535.1,5c-0.5,0-0.9,0.1-1.2,0.3c-0.3,0.2-0.6,0.5-0.7,0.9
			c-0.1,0.4-0.3,0.8-0.3,1.2c-0.1,0.4-0.1,0.9-0.1,1.4v11.5c0,0.5,0,0.9,0.1,1.4c0.1,0.4,0.2,0.9,0.3,1.3c0.2,0.4,0.4,0.7,0.7,1
			c0.3,0.2,0.7,0.4,1.2,0.4c0.5,0,0.9-0.1,1.2-0.4c0.3-0.2,0.6-0.6,0.7-0.9c0.1-0.4,0.2-0.8,0.3-1.2c0-0.4,0.1-0.9,0.1-1.4V8.8z"/>
		<path fill="#231F20" d="M547.2,28.6V0.7h9.2l3.4,16.5h0.1l3.5-16.5h9.2v27.9h-6.3L567,6.7h-0.1l-4.6,21.9h-4.9l-4.5-21.9h-0.1
			l0.6,21.9H547.2z"/>
		<path fill="#231F20" d="M576.1,28.6V0.7h15v5.6h-8.5v5.1h8.2V17h-8.2v6h8.9v5.6H576.1z"/>
		<path fill="#231F20" d="M603.9,28.6V0.7h8.5c1.3,0,2.5,0.1,3.6,0.4c1.1,0.2,2,0.6,2.8,1.2c0.8,0.5,1.4,1.3,1.8,2.2
			c0.4,0.9,0.7,2.1,0.7,3.5c0,1.3-0.3,2.4-0.8,3.5c-0.5,1-1.3,1.8-2.4,2.4v0.1c0.8,0.4,1.4,0.9,1.8,1.3c0.5,0.4,0.8,0.9,1.1,1.4
			c0.3,0.5,0.4,1,0.5,1.7c0.1,0.6,0.1,1.4,0.1,2.3c0,2.8-0.7,4.8-2.2,6.1c-1.5,1.3-3.6,2-6.3,2H603.9z M610.5,11.7
			c0.1,0,0.3,0,0.6,0c1.4-0.1,2.4-0.3,2.9-0.6c0.5-0.3,0.7-1.2,0.7-2.6c0-1.2-0.3-1.9-0.9-2.2c-0.6-0.3-1.7-0.4-3.3-0.4V11.7z
			 M610.5,23.6c0.2,0,0.4,0,0.6,0c0.9,0,1.6-0.1,2-0.1c0.4,0,0.8-0.2,1.1-0.4c0.3-0.2,0.6-0.6,0.7-1.1c0.1-0.5,0.2-1.2,0.2-2
			c0-0.7-0.1-1.3-0.3-1.8c-0.2-0.4-0.5-0.8-0.8-1c-0.4-0.2-0.8-0.3-1.2-0.4c-0.5-0.1-1.1-0.1-1.9-0.1h-0.4V23.6z"/>
		<path fill="#231F20" d="M623.3,28.6l6.1-27.9h7.9l6.1,27.9h-6.6l-0.9-5.4h-5.1l-0.8,5.4H623.3z M633.4,5.7L633.4,5.7l-2,12.5h3.8
			L633.4,5.7z"/>
		<path fill="#231F20" d="M656.3,10.4V8.6c0-1.2-0.2-2.1-0.6-2.7c-0.4-0.6-0.9-0.9-1.5-0.9c-1,0-1.6,0.2-2,0.7
			c-0.4,0.5-0.5,1.2-0.5,2.2l0,13.8c0,0.8,0.2,1.4,0.6,1.9c0.4,0.4,1,0.6,1.8,0.6c0.5,0,0.9-0.1,1.3-0.4c0.3-0.2,0.6-0.6,0.7-0.9
			c0.2-0.4,0.3-0.8,0.3-1.2c0-0.4,0.1-0.9,0.1-1.5v-2.5h6.6v3.4c0,2.5-0.8,4.5-2.3,6c-1.5,1.5-3.9,2.2-7.1,2.2
			c-2.9,0-5.1-0.8-6.4-2.3c-1.3-1.5-2-3.7-2-6.6V8.9c0-3,0.7-5.3,2.1-6.7c1.4-1.5,3.6-2.2,6.6-2.2c2.9,0,5.1,0.7,6.6,2
			c1.5,1.3,2.3,3.3,2.3,6.1v2.3H656.3z"/>
		<path fill="#231F20" d="M666,28.6V0.7h6.6v11.2h0.1l4.8-11.2h6.7l-6,12.3l6.3,15.6h-6.9l-3.6-9.7l-1.5,2.8v6.9H666z"/>
		<path fill="#231F20" d="M701.1,19.2v2c0,0.9,0.2,1.7,0.6,2.2c0.4,0.5,1.1,0.8,2,0.8c0.7,0,1.3-0.3,1.6-0.8c0.4-0.5,0.6-1.2,0.6-2
			c0-0.9-0.3-1.7-0.8-2.2c-0.5-0.5-1.3-1.1-2.3-1.7c-0.1-0.1-0.3-0.2-0.5-0.3c-1.2-0.7-2.1-1.3-2.9-1.8s-1.5-1.2-2-1.8
			c-0.6-0.7-1.1-1.6-1.4-2.5c-0.3-0.9-0.5-1.9-0.5-3.1c0-2.6,0.7-4.5,2.2-5.9c1.5-1.4,3.5-2,6-2c2.7,0,4.7,0.8,6.2,2.3
			c1.5,1.5,2.2,3.5,2.2,6l0,0.4c0,0.1,0,0.2,0,0.4h-6V8.7c0-0.5-0.1-1-0.1-1.4c-0.1-0.4-0.1-0.7-0.3-1.1c-0.1-0.3-0.3-0.6-0.6-0.9
			c-0.3-0.2-0.7-0.3-1.1-0.4c-0.7,0-1.2,0.2-1.6,0.5c-0.4,0.3-0.6,0.8-0.7,1.4c0,0.1,0,0.1,0,0.2c0,0.1,0,0.1,0,0.2
			c0,0.6,0.2,1.2,0.5,1.6c0.3,0.4,0.8,0.9,1.5,1.4c0.5,0.3,1.3,0.8,2.3,1.4c1.8,1.1,3.1,1.9,3.8,2.5c0.8,0.7,1.4,1.6,1.8,2.7
			c0.4,1,0.6,2.4,0.6,4c0,2.7-0.7,4.7-2.2,6.2c-1.4,1.4-3.5,2.2-6.3,2.2c-1.4,0-2.7-0.2-3.8-0.6c-1.1-0.4-2-0.9-2.7-1.5
			c-0.7-0.7-1.2-1.4-1.5-2.3s-0.5-1.7-0.5-2.7v-3H701.1z"/>
		<path fill="#231F20" d="M732.3,19.7c0,3.3-0.7,5.7-2,7.2c-1.3,1.6-3.6,2.3-6.8,2.3c-3.2,0-5.5-0.8-6.9-2.3c-1.4-1.6-2-4-2-7.2V8.3
			c0-2.7,0.8-4.7,2.3-6.2c1.6-1.4,3.8-2.2,6.6-2.2s5,0.7,6.6,2.2c1.5,1.4,2.3,3.5,2.3,6.2V19.7z M725.7,8.8c0-0.5,0-1-0.1-1.4
			c-0.1-0.4-0.1-0.8-0.3-1.1c-0.1-0.3-0.4-0.6-0.7-0.9c-0.3-0.2-0.7-0.3-1.2-0.3c-0.5,0-0.9,0.1-1.2,0.3c-0.3,0.2-0.6,0.5-0.7,0.9
			c-0.1,0.4-0.3,0.8-0.3,1.2c-0.1,0.4-0.1,0.9-0.1,1.4v11.5c0,0.5,0,0.9,0.1,1.4c0.1,0.4,0.2,0.9,0.3,1.3c0.2,0.4,0.4,0.7,0.7,1
			c0.3,0.2,0.7,0.4,1.2,0.4c0.5,0,0.9-0.1,1.2-0.4c0.3-0.2,0.6-0.6,0.7-0.9c0.1-0.4,0.2-0.8,0.3-1.2c0-0.4,0.1-0.9,0.1-1.4V8.8z"/>
		<path fill="#231F20" d="M753,19.7c0,3.3-0.7,5.7-2,7.2c-1.3,1.6-3.6,2.3-6.8,2.3c-3.2,0-5.5-0.8-6.9-2.3c-1.4-1.6-2-4-2-7.2V8.3
			c0-2.7,0.8-4.7,2.3-6.2c1.6-1.4,3.8-2.2,6.6-2.2s5,0.7,6.6,2.2c1.5,1.4,2.3,3.5,2.3,6.2V19.7z M746.4,8.8c0-0.5,0-1-0.1-1.4
			c-0.1-0.4-0.1-0.8-0.3-1.1c-0.1-0.3-0.4-0.6-0.7-0.9c-0.3-0.2-0.7-0.3-1.2-0.3c-0.5,0-0.9,0.1-1.2,0.3c-0.3,0.2-0.6,0.5-0.7,0.9
			c-0.1,0.4-0.3,0.8-0.3,1.2c-0.1,0.4-0.1,0.9-0.1,1.4v11.5c0,0.5,0,0.9,0.1,1.4c0.1,0.4,0.2,0.9,0.3,1.3c0.2,0.4,0.4,0.7,0.7,1
			c0.3,0.2,0.7,0.4,1.2,0.4s0.9-0.1,1.2-0.4c0.3-0.2,0.6-0.6,0.7-0.9c0.1-0.4,0.2-0.8,0.3-1.2c0-0.4,0.1-0.9,0.1-1.4V8.8z"/>
		<path fill="#231F20" d="M761.7,13L761.7,13l0.5,15.6H756V0.7h6.7l5.1,15.6h0.1l-0.6-15.6h6.2v27.9h-6.7L761.7,13z"/>
	</g>
	<rect y="20.6" fill="#231F20" width="492" height="2"/>
	<rect y="14.6" fill="#231F20" width="492" height="3"/>
	<rect y="6.6" fill="#231F20" width="492" height="5"/>
	<rect x="789" y="20.6" fill="#231F20" width="491" height="2"/>
	<rect x="789" y="14.6" fill="#231F20" width="491" height="3"/>
	<rect x="789" y="6.6" fill="#231F20" width="491" height="5"/>
</g>
</svg>
