<?xml version="1.0" encoding="utf-8"?>
<!DOCTYPE svg PUBLIC "-//W3C//DTD SVG 1.1//EN" "http://www.w3.org/Graphics/SVG/1.1/DTD/svg11.dtd" []>
<svg xmlns="http://www.w3.org/2000/svg" xmlns:xlink="http://www.w3.org/1999/xlink" x="0px" y="0px" viewBox="0 0 72 57.4"
	 enable-background="new 0 0 72 57.4" xml:space="preserve">
<metadata>
	<sfw>
		<slices></slices>
		<sliceSourceBounds  width="148.2" height="147.3" bottomLeftOrigin="true" x="-56.2" y="-127.5"></sliceSourceBounds>
	</sfw>
</metadata>
<path fill="#B8AF8B" d="M44.7,18.3c0,4.9-4,12.5-8.9,12.5s-8.9-7.6-8.9-12.5s4-8.9,8.9-8.9S44.7,13.3,44.7,18.3z"/>
<path fill="#B8AF8B" d="M53.5,36.6v15.8c0,0.5-0.3,0.8-0.6,0.8H19.1c-0.3,0-0.6-0.4-0.6-0.8V36.6c0-2.3,7.6-6.8,7.6-6.8l7.9,6.7
	c1.1,0.9,2.5,0.9,3.6,0l7.9-6.8C45.5,29.7,53.5,34.4,53.5,36.6z"/>
</svg>
