<?xml version="1.0" encoding="utf-8"?>
<!DOCTYPE svg PUBLIC "-//W3C//DTD SVG 1.1//EN" "http://www.w3.org/Graphics/SVG/1.1/DTD/svg11.dtd" []>
<svg xmlns="http://www.w3.org/2000/svg" xmlns:xlink="http://www.w3.org/1999/xlink" x="0px" y="0px" viewBox="0 0 72 44.2"
	 enable-background="new 0 0 72 44.2" xml:space="preserve">
<metadata>
	<sfw>
		<slices></slices>
		<sliceSourceBounds  width="148.2" height="147.3" bottomLeftOrigin="true" x="-56.2" y="-127.5"></sliceSourceBounds>
	</sfw>
</metadata>
<path fill="#B8AF8B" d="M51.1,4H20.9C12.5,4,6,10.1,6,18.5v0C6,26.8,12.5,34,20.9,34h22.2l7.9,6.5V34h0.1C59.5,34,66,26.8,66,18.5v0
	C66,10.1,59.5,4,51.1,4z M19.4,20.2c-0.6,0-1.1-0.5-1.1-1.1c0-0.6,0.5-1.1,1.1-1.1c0.6,0,1.1,0.5,1.1,1.1
	C20.5,19.7,20,20.2,19.4,20.2z M25.5,20h-4c-0.3,0-0.5-0.2-0.5-0.5c0-0.3,0.2-0.5,0.5-0.5h4c0.3,0,0.5,0.2,0.5,0.5
	C26,19.8,25.8,20,25.5,20z M31.5,20h-4c-0.3,0-0.5-0.2-0.5-0.5c0-0.3,0.2-0.5,0.5-0.5h4c0.3,0,0.5,0.2,0.5,0.5
	C32,19.8,31.8,20,31.5,20z M34.6,20.2c-0.6,0-1.1-0.5-1.1-1.1c0-0.6,0.5-1.1,1.1-1.1c0.6,0,1.1,0.5,1.1,1.1
	C35.7,19.7,35.2,20.2,34.6,20.2z M43.5,20h-4c-0.3,0-0.5-0.2-0.5-0.5c0-0.3,0.2-0.5,0.5-0.5h4c0.3,0,0.5,0.2,0.5,0.5
	C44,19.8,43.8,20,43.5,20z M46.6,20.2c-0.6,0-1.1-0.5-1.1-1.1c0-0.6,0.5-1.1,1.1-1.1c0.6,0,1.1,0.5,1.1,1.1
	C47.7,19.7,47.2,20.2,46.6,20.2z M49.6,20.2c-0.6,0-1.1-0.5-1.1-1.1c0-0.6,0.5-1.1,1.1-1.1c0.6,0,1.1,0.5,1.1,1.1
	C50.7,19.7,50.2,20.2,49.6,20.2z M52.6,20.2c-0.6,0-1.1-0.5-1.1-1.1c0-0.6,0.5-1.1,1.1-1.1c0.6,0,1.1,0.5,1.1,1.1
	C53.7,19.7,53.2,20.2,52.6,20.2z"/>
</svg>
