<?xml version="1.0" encoding="utf-8"?>

<!DOCTYPE svg PUBLIC "-//W3C//DTD SVG 1.1//EN" "http://www.w3.org/Graphics/SVG/1.1/DTD/svg11.dtd" []>
<svg version="1.1" id="Layer_1" 
	 xmlns="http://www.w3.org/2000/svg" xmlns:xlink="http://www.w3.org/1999/xlink" x="0px" y="0px" viewBox="0 0 337.4 335.5"
	 enable-background="new 0 0 337.4 335.5" xml:space="preserve">
<metadata>
	<sfw>
		<slices></slices>
		<sliceSourceBounds  bottomLeftOrigin="true" y="-388.3" height="335.5" x="311.5" width="337.4"></sliceSourceBounds>
	</sfw>
</metadata>
<path opacity="5.000000e-02" d="M52,53.9c66.1-64.5,172.6-65.5,237.7-1.1c64.2,64.7,63.6,169.5-1.7,233.9
	c-64.4,64.3-170.9,65.2-235.8,1.8C-12.9,223.5-11.4,119.8,52,53.9"/>
<path opacity="0.15" d="M54.9,56.8C119.4-6.1,223.2-7,286.7,55.8c62.6,63.1,62,165.3-1.6,228c-62.8,62.7-166.6,63.6-229.9,1.7
	C-8.3,222.2-6.8,121,54.9,56.8"/>
<path fill="#FFFFFF" d="M47.7,48.6c65.7-64.1,171.4-65.1,236.1-1.1c63.8,64.3,63.2,168.4-1.7,232.3c-64,63.9-169.8,64.8-234.2,1.8
	C-16.7,217.1-15.2,114,47.7,48.6"/>
<path fill="#335C64" d="M278.4,143.9l34.6-0.2c-1.6-2.2-3.4-4-5.5-5.3l-0.3-0.2c-1.1-0.8-2-1.5-3-2.5l-27.7,0.1
	C277.3,138.4,277.8,141.1,278.4,143.9"/>
<path fill="#3C5533" d="M301,131.9l-25.6,0.1c-1.2-4-2.7-8-4.5-11.9c-5.8-13.3-14-25.2-24.5-35.5c-10.5-10.2-22.8-18.2-36.3-23.8
	c-14.1-5.8-29-8.7-44.4-8.6c-15.4,0.1-30.3,3.1-44.3,9c-13.5,5.7-25.6,13.9-36,24.2C75,95.7,66.9,107.8,61.2,121.1
	c-1.7,3.9-3.1,7.9-4.3,12l-26.1,0.1c1.7-2.1,3.2-4.6,4.4-7.3l0.1,0c0.4-0.9,0.7-1.9,1.1-2.9c2.2-6.9,2.4-13.8,0.5-19.3l-0.1-0.4
	c-1.2-3.5-1.6-7.7-0.8-12.2h0v0c0.1-0.6,0.2-1.2,0.3-1.7l0.1-0.2c0.1-0.6,0.3-1.1,0.4-1.5l0.1-0.4c0.1-0.4,0.2-0.9,0.4-1.3l0.2-0.6
	l0.4-1.1l0.3-0.8l0.3-0.7c0.2-0.4,0.4-0.8,0.6-1.2l0.1-0.2c0.9-1.8,2-3.5,3.2-5.2l0.2-0.3l0.2-0.2c3.3-4.5,7.4-8,11.5-10.4
	c4.1-2.3,8.2-3.4,12.1-3.4h0.3c0.1,0,0.2,0,0.3,0c0.2,0,0.3,0,0.5,0l0.1,0c4.9,0.1,10.4-1.5,15.6-4.5l0,0.1c0.9-0.6,1.7-1.1,2.6-1.7
	c6-4.4,10.2-9.9,11.9-15.3l0.1-0.4c1.1-3.5,3.4-7.1,6.7-10.4c0.4-0.4,0.9-0.8,1.3-1.2l0.1-0.1c0.4-0.4,0.8-0.7,1.3-1l0.3-0.2
	l1.2-0.8l0.5-0.4l1-0.6l0.8-0.5l0.7-0.4c0.4-0.2,0.8-0.4,1.2-0.6l0.2-0.1c1.8-0.9,3.7-1.7,5.7-2.3l0.4-0.1l0.2-0.1
	c5.4-1.7,10.8-2.2,15.6-1.7c4.8,0.6,8.9,2.1,12,4.4l0.1,0c0,0,0.1,0.1,0.2,0.1c0.1,0.1,0.2,0.2,0.3,0.3l0.1,0
	c3.9,2.9,9.3,4.8,15.3,5.4v0.1c1,0.1,2.1,0.1,3.2,0.1c7.3-0.1,14.1-2.1,18.8-5.6l0.3-0.2c3-2.2,7-3.8,11.5-4.5
	c0.6-0.1,1.2-0.1,1.8-0.2h0.2c0.5-0.1,1.1-0.1,1.7-0.2h2.4l1.2,0.1l0.9,0.1l0.8,0.1c0.4,0.1,0.8,0.1,1.3,0.2l0.2,0
	c2,0.3,4,0.8,6,1.4l0.4,0.1l0.2,0.1c5.4,1.7,10,4.4,13.6,7.6c3.5,3.2,5.9,6.8,7.1,10.6v0c0.1,0.1,0.1,0.1,0.1,0.2
	c0.1,0.1,0.1,0.3,0.2,0.5v0c1.4,4.6,4.6,9.3,9.2,13.3l-0.1,0.1c0.8,0.6,1.6,1.3,2.4,1.9c6.1,4.2,12.7,6.5,18.5,6.4h0.4
	c3.7-0.1,8,0.9,12,3h0c0.6,0.3,1,0.6,1.6,0.9l0.1,0.1c0.5,0.3,0.9,0.6,1.4,0.8l0.3,0.2l1.1,0.8l0.5,0.4l0.9,0.8l0.7,0.6l0.6,0.5
	c0.4,0.3,0.6,0.6,1,0.9l0.1,0.2c1.4,1.4,2.8,2.9,4,4.6l0.2,0.3l0.2,0.2c3.3,4.5,5.5,9.3,6.4,14c1,4.6,0.8,8.9-0.4,12.6l0,0.1
	c-0.1,0.1-0.1,0.1-0.1,0.2c-0.1,0.1-0.1,0.3-0.2,0.4v0.1c-1.6,4.6-1.8,10.2-0.5,16l-0.1,0c0.3,1,0.5,2,0.8,3
	C297.3,125.8,299,129.1,301,131.9"/>
<path fill="#335C64" d="M55.9,136.9l-28.6,0.2c-0.6,0.5-1.3,1.1-2,1.5l-0.1,0c-0.1,0.1-0.2,0.2-0.4,0.3c-0.1,0-0.1,0.1-0.2,0.1l0,0
	c-2.2,1.5-4.2,3.6-5.8,6.1l35.4-0.2C54.6,142.3,55.2,139.6,55.9,136.9"/>
<path fill="#335C64" d="M53.6,148.8L16.7,149c0,0,0,0.1,0,0.1c-1.1,2.4-2,5.1-2.5,8.1l38.6-0.2C52.9,154.2,53.2,151.5,53.6,148.8"/>
<path fill="#335C64" d="M276.9,191.3l28.6-0.2c0.7-0.5,1.3-1,1.9-1.5h0.1c0.1-0.1,0.2-0.2,0.4-0.3c0,0,0.1-0.1,0.2-0.1v0l0-0.1
	c2.2-1.5,4.1-3.6,5.8-6.1l-35.3,0.2C278.1,185.9,277.6,188.6,276.9,191.3"/>
<path fill="#335C64" d="M279.9,155.7l38.4-0.2l0-0.2l-0.2-0.9l-0.3-1.1l-0.2-0.6c-0.2-0.4-0.3-0.9-0.4-1.4l-0.2-0.3
	c-0.2-0.5-0.3-1-0.6-1.5l-0.1-0.2c-0.2-0.5-0.5-1.1-0.8-1.6l0,0c-0.1-0.1-0.1-0.2-0.2-0.3l-36.3,0.2
	C279.5,150.3,279.7,153,279.9,155.7"/>
<path fill="#335C64" d="M279.2,179.5l36.9-0.2v0c1.1-2.5,2-5.2,2.5-8l-38.6,0.2C279.8,174.1,279.5,176.8,279.2,179.5"/>
<path fill="#335C64" d="M165.8,55.9C105.1,56.2,56,105.1,56.3,164.7c0.3,59.7,50,107.9,110.7,107.6c60.7-0.3,109.8-49.1,109.5-108.7
	C276.1,103.9,226.5,55.6,165.8,55.9 M270.4,163.6c0.1,13.8-2.6,27.2-8,39.8c-5.1,12.2-12.5,23.2-22,32.6
	c-9.5,9.4-20.6,16.9-32.9,22.1c-12.8,5.4-26.4,8.2-40.4,8.2c-14,0.1-27.7-2.5-40.5-7.8c-12.4-5.1-23.6-12.4-33.2-21.8
	c-9.6-9.3-17.2-20.2-22.5-32.3c-5.5-12.6-8.3-26-8.4-39.7c-0.1-13.8,2.6-27.2,7.9-39.9c5.2-12.2,12.6-23.2,22.1-32.6
	c9.5-9.4,20.6-16.9,32.9-22.1c12.8-5.4,26.4-8.2,40.5-8.3c14-0.1,27.7,2.6,40.5,7.8c12.4,5.1,23.6,12.4,33.2,21.7
	c9.6,9.3,17.2,20.2,22.4,32.4C267.4,136.4,270.3,149.8,270.4,163.6"/>
<path fill="#335C64" d="M280.2,163.5c0,1.4,0,2.7-0.1,4.1l38.9-0.2c0.1-1.1,0.1-2.1,0.1-3.2V164l0-0.4c0-1.4-0.1-2.9-0.3-4.3
	l-38.7,0.2C280.2,160.8,280.2,162.2,280.2,163.5"/>
<path fill="#335C64" d="M52.5,164.7c0-1.3,0-2.7,0-4l-38.9,0.2c-0.1,1-0.1,2.1-0.1,3.2l0,0.2v0.3c0,1.4,0.1,3,0.3,4.3l38.8-0.2
	C52.6,167.4,52.5,166.1,52.5,164.7"/>
<path fill="#335C64" d="M54.4,184.5l-34.6,0.2c1.6,2.2,3.4,4,5.4,5.3l0.3,0.2c1.1,0.7,2,1.6,3,2.5l27.7-0.1
	C55.5,189.8,54.9,187.2,54.4,184.5"/>
<path fill="#335C64" d="M52.8,172.6l-38.3,0.2l0,0.2l0.2,0.9l0.3,1.2l0.2,0.6c0.1,0.4,0.3,0.9,0.5,1.3l0.1,0.4
	c0.2,0.5,0.4,1,0.6,1.5l0.1,0.2c0.2,0.6,0.5,1.1,0.7,1.6v0v0c0.1,0.1,0.1,0.2,0.2,0.3l36.4-0.2C53.4,178,53.1,175.3,52.8,172.6"/>
<path fill="#3C5533" d="M271.5,207.2c-5.7,13.4-13.8,25.4-24.2,35.7c-10.4,10.3-22.5,18.5-36,24.2c-14.1,5.9-29,9-44.3,9
	c-15.4,0.1-30.3-2.8-44.3-8.5c-13.6-5.6-25.8-13.6-36.3-23.8c-10.5-10.2-18.8-22.1-24.6-35.4c-1.8-3.9-3.2-7.9-4.4-12l-25.5,0.1
	c2,2.8,3.7,6,4.9,9.6c0.3,1,0.6,2,0.8,3h0c1.3,5.8,1.1,11.5-0.5,16l0,0.1c0,0.1-0.1,0.3-0.1,0.4c0,0.1,0,0.2-0.1,0.3
	c-1.2,3.7-1.5,8.1-0.5,12.7c1,4.6,3.1,9.4,6.5,13.9l0.1,0.1l0.2,0.3c1.2,1.7,2.6,3.2,4,4.6l0.1,0.2c0.3,0.3,0.6,0.6,1,0.9l0.6,0.6
	l0.7,0.6l0.9,0.7l0.5,0.4l1.2,0.8l0.3,0.2c0.5,0.3,0.9,0.6,1.4,0.9l0.2,0.1c0.5,0.3,1,0.6,1.6,0.9l0,0h0c4.1,2.1,8.3,3.1,12,3l0.4,0
	c5.8-0.1,12.5,2.2,18.5,6.4c6.1,4.4,10.3,9.9,12.1,15.4v0.1c0.1,0.2,0.1,0.3,0.1,0.4c0.1,0.1,0.1,0.2,0.1,0.2v0
	c1.2,3.7,3.7,7.4,7.2,10.5c3.5,3.2,8.2,5.8,13.6,7.5c2,0.7,4,1.1,6,1.4l0.2,0.1c0.5,0,0.9,0.1,1.3,0.1l0.9,0.1l0.9,0.1l1.2,0l0.6,0
	l1.4,0l0.4,0c0.6,0,1.1,0,1.7-0.1l0.2,0c0.6,0,1.2-0.1,1.8-0.2h0c4.5-0.7,8.5-2.3,11.5-4.6l0.3-0.2c4.7-3.5,11.5-5.5,19.1-5.6
	c1,0,1.9,0,2.8,0.1l-0.2-6.1l0.2,6.2c6.1,0.6,11.4,2.5,15.3,5.4l0.1,0.1c0.2,0.1,0.3,0.2,0.4,0.3c0.1,0,0.2,0.1,0.2,0.1l0.1,0
	c3.2,2.3,7.3,3.9,12,4.4c4.8,0.6,10.1,0,15.6-1.7c2-0.6,3.9-1.4,5.7-2.3l0.2-0.1l1.2-0.6l0.7-0.4l0.8-0.5l1-0.6l0.5-0.4
	c0.4-0.3,0.8-0.5,1.2-0.8l0.3-0.3c0.4-0.3,0.9-0.7,1.3-1l0.1-0.1c0.5-0.4,0.9-0.8,1.3-1.2c3.3-3.2,5.6-6.8,6.7-10.4l0.1-0.4
	c1.7-5.6,6-11.1,12.1-15.5c0.9-0.7,1.9-1.3,2.8-1.9l0,0.1c5.2-3,10.8-4.6,15.6-4.5h0c0.2,0,0.3,0,0.5,0h0.2c4,0,8.3-1.1,12.4-3.5
	c4.2-2.3,8.2-5.8,11.5-10.3l0.1-0.2l0.2-0.3c1.2-1.7,2.2-3.4,3.2-5.2l0.1-0.1c0.2-0.4,0.4-0.8,0.5-1.2l0.4-0.8l0.3-0.8l0.4-1.1
	l0.2-0.6c0.1-0.4,0.3-0.9,0.4-1.3l0.1-0.4c0.1-0.5,0.3-1,0.4-1.6v-0.2c0.2-0.5,0.3-1.1,0.4-1.7v0c0.8-4.5,0.5-8.7-0.8-12.2l-0.1-0.3
	c-1.9-5.5-1.8-12.4,0.5-19.3c0.3-1,0.7-2,1.1-2.9h0.1c1.2-2.7,2.6-5.2,4.3-7.3l-26,0.1C274.6,199.2,273.2,203.2,271.5,207.2"/>
<path fill="#FCF9F2" d="M206.3,69.8c-12.8-5.3-26.5-7.9-40.5-7.8c-14,0.1-27.7,2.9-40.5,8.3c-12.3,5.2-23.4,12.6-32.9,22.1
	c-9.5,9.4-16.9,20.4-22.1,32.6c-5.3,12.6-8,26.1-7.9,39.9c0.1,13.7,2.9,27.1,8.4,39.7c5.3,12.2,12.9,23.1,22.5,32.3
	c9.6,9.4,20.7,16.7,33.2,21.8c12.8,5.3,26.5,7.9,40.5,7.8c14,0,27.6-2.8,40.4-8.2c12.3-5.2,23.4-12.7,32.9-22.1
	c9.5-9.4,16.9-20.4,22.1-32.6c5.4-12.6,8.1-26.1,8-39.8c-0.1-13.8-2.9-27.2-8.4-39.8c-5.3-12.1-12.9-23-22.4-32.4
	C229.9,82.1,218.7,74.8,206.3,69.8 M268.9,163.6c0.3,55.6-45.4,101-101.9,101.3c-56.6,0.3-102.8-44.7-103.1-100.2
	c-0.3-55.6,45.4-101.1,102-101.4C222.4,63,268.6,108,268.9,163.6"/>
<g>
	<defs>
		<path id="SVGID_1_" d="M275.5,132c0.4,1.2,0.8,2.5,1.1,3.8l27.7-0.1c-1.1-1.1-2.2-2.4-3.2-3.8L275.5,132z"/>
	</defs>
	<clipPath id="SVGID_2_">
		<use xlink:href="#SVGID_1_"  overflow="visible"/>
	</clipPath>
	
		<radialGradient id="SVGID_3_" cx="-197.1359" cy="-284.2005" r="2.9281" gradientTransform="matrix(3.5074 -1.830000e-02 -1.910000e-02 -3.4018 975.8655 -836.6143)" gradientUnits="userSpaceOnUse">
		<stop  offset="0" style="stop-color:#FFFFFF"/>
		<stop  offset="1" style="stop-color:#EFEAD7"/>
	</radialGradient>
	<polygon clip-path="url(#SVGID_2_)" fill="url(#SVGID_3_)" points="275.4,131.8 304.3,131.7 304.3,135.8 275.5,135.9 	"/>
</g>
<g>
	<defs>
		<path id="SVGID_4_" d="M278.4,143.9c0.2,1.3,0.4,2.5,0.6,3.8l36.3-0.2c-0.7-1.4-1.5-2.6-2.3-3.8L278.4,143.9z"/>
	</defs>
	<clipPath id="SVGID_5_">
		<use xlink:href="#SVGID_4_"  overflow="visible"/>
	</clipPath>
	
		<radialGradient id="SVGID_6_" cx="-227.9083" cy="-258.3063" r="2.9265" gradientTransform="matrix(4.482 -2.340000e-02 -2.440000e-02 -4.3471 1312.0519 -982.5652)" gradientUnits="userSpaceOnUse">
		<stop  offset="0" style="stop-color:#FFFFFF"/>
		<stop  offset="1" style="stop-color:#EFEAD7"/>
	</radialGradient>
	<polygon clip-path="url(#SVGID_5_)" fill="url(#SVGID_6_)" points="278.4,143.6 315.3,143.5 315.4,147.6 278.4,147.8 	"/>
</g>
<g>
	<defs>
		<path id="SVGID_7_" d="M279.9,155.7c0.1,1.3,0.2,2.5,0.3,3.8l38.7-0.2c0-0.6-0.1-1.1-0.2-1.7l0-0.2c-0.1-0.4-0.2-0.9-0.3-1.3
			l-0.1-0.6L279.9,155.7z"/>
	</defs>
	<clipPath id="SVGID_8_">
		<use xlink:href="#SVGID_7_"  overflow="visible"/>
	</clipPath>
	
		<radialGradient id="SVGID_9_" cx="-233.7246" cy="-254.618" r="2.928" gradientTransform="matrix(4.7324 -2.470000e-02 -2.570000e-02 -4.59 1398.9474 -1016.9718)" gradientUnits="userSpaceOnUse">
		<stop  offset="0" style="stop-color:#FFFFFF"/>
		<stop  offset="1" style="stop-color:#EFEAD7"/>
	</radialGradient>
	<polygon clip-path="url(#SVGID_8_)" fill="url(#SVGID_9_)" points="279.9,155.5 318.9,155.3 318.9,159.5 279.9,159.7 	"/>
</g>
<g>
	<defs>
		<path id="SVGID_10_" d="M280.2,167.6c0,1.3-0.1,2.5-0.2,3.8l38.6-0.2c0.2-1.2,0.4-2.5,0.5-3.8L280.2,167.6z"/>
	</defs>
	<clipPath id="SVGID_11_">
		<use xlink:href="#SVGID_10_"  overflow="visible"/>
	</clipPath>
	
		<radialGradient id="SVGID_12_" cx="-234.2961" cy="-255.9922" r="2.9266" gradientTransform="matrix(4.7538 -2.490000e-02 -2.580000e-02 -4.6107 1406.7325 -1016.7349)" gradientUnits="userSpaceOnUse">
		<stop  offset="0" style="stop-color:#FFFFFF"/>
		<stop  offset="1" style="stop-color:#EFEAD7"/>
	</radialGradient>
	<polygon clip-path="url(#SVGID_11_)" fill="url(#SVGID_12_)" points="279.9,167.4 319.1,167.2 319.1,171.4 280,171.6 	"/>
</g>
<g>
	<defs>
		<path id="SVGID_13_" d="M279.2,179.5c-0.2,1.3-0.4,2.5-0.6,3.8L314,183c0.7-1.2,1.5-2.4,2.1-3.8L279.2,179.5z"/>
	</defs>
	<clipPath id="SVGID_14_">
		<use xlink:href="#SVGID_13_"  overflow="visible"/>
	</clipPath>
	
		<radialGradient id="SVGID_15_" cx="-229.7028" cy="-262.2337" r="2.9304" gradientTransform="matrix(4.5508 -2.380000e-02 -2.470000e-02 -4.4139 1336.2133 -981.6913)" gradientUnits="userSpaceOnUse">
		<stop  offset="0" style="stop-color:#FFFFFF"/>
		<stop  offset="1" style="stop-color:#EFEAD7"/>
	</radialGradient>
	<polygon clip-path="url(#SVGID_14_)" fill="url(#SVGID_15_)" points="278.6,179.3 316.1,179.1 316.1,183.3 278.6,183.5 	"/>
</g>
<g>
	<defs>
		<path id="SVGID_16_" d="M276.9,191.3c-0.3,1.3-0.7,2.5-1.1,3.8l26-0.1c1.2-1.5,2.4-2.7,3.7-3.8L276.9,191.3z"/>
	</defs>
	<clipPath id="SVGID_17_">
		<use xlink:href="#SVGID_16_"  overflow="visible"/>
	</clipPath>
	
		<radialGradient id="SVGID_18_" cx="-201.4205" cy="-291.3806" r="2.9273" gradientTransform="matrix(3.62 -1.890000e-02 -1.970000e-02 -3.5111 1014.0734 -833.6957)" gradientUnits="userSpaceOnUse">
		<stop  offset="0" style="stop-color:#FFFFFF"/>
		<stop  offset="1" style="stop-color:#EFEAD7"/>
	</radialGradient>
	<polygon clip-path="url(#SVGID_17_)" fill="url(#SVGID_18_)" points="275.8,191.2 305.5,191 305.5,195.1 275.8,195.3 	"/>
</g>
<g>
	<defs>
		<path id="SVGID_19_" d="M30.9,133.3c-1.1,1.4-2.3,2.7-3.6,3.8l28.6-0.2c0.3-1.3,0.7-2.5,1.1-3.8L30.9,133.3z"/>
	</defs>
	<clipPath id="SVGID_20_">
		<use xlink:href="#SVGID_19_"  overflow="visible"/>
	</clipPath>
	
		<radialGradient id="SVGID_21_" cx="-246.6633" cy="-280.3259" r="2.9268" gradientTransform="matrix(3.621 -1.890000e-02 -1.970000e-02 -3.5121 929.7521 -854.1049)" gradientUnits="userSpaceOnUse">
		<stop  offset="0" style="stop-color:#FFFFFF"/>
		<stop  offset="1" style="stop-color:#EFEAD7"/>
	</radialGradient>
	<polygon clip-path="url(#SVGID_20_)" fill="url(#SVGID_21_)" points="27.2,133.1 57,133 57,137.1 27.3,137.2 	"/>
</g>
<g>
	<defs>
		<path id="SVGID_22_" d="M18.8,145.2c-0.8,1.2-1.5,2.4-2.1,3.8l36.9-0.2c0.2-1.3,0.4-2.5,0.6-3.8L18.8,145.2z"/>
	</defs>
	<clipPath id="SVGID_23_">
		<use xlink:href="#SVGID_22_"  overflow="visible"/>
	</clipPath>
	
		<radialGradient id="SVGID_24_" cx="-267.4756" cy="-256.8092" r="2.9268" gradientTransform="matrix(4.5558 -2.380000e-02 -2.480000e-02 -4.4188 1247.6427 -994.1357)" gradientUnits="userSpaceOnUse">
		<stop  offset="0" style="stop-color:#FFFFFF"/>
		<stop  offset="1" style="stop-color:#EFEAD7"/>
	</radialGradient>
	<polygon clip-path="url(#SVGID_23_)" fill="url(#SVGID_24_)" points="16.7,145 54.2,144.8 54.2,149 16.7,149.2 	"/>
</g>
<g>
	<defs>
		<path id="SVGID_25_" d="M14.2,157.1c-0.3,1.2-0.4,2.5-0.5,3.8l38.9-0.2c0.1-1.3,0.1-2.6,0.2-3.8L14.2,157.1z"/>
	</defs>
	<clipPath id="SVGID_26_">
		<use xlink:href="#SVGID_25_"  overflow="visible"/>
	</clipPath>
	
		<radialGradient id="SVGID_27_" cx="-270.8619" cy="-254.5135" r="2.9263" gradientTransform="matrix(4.7459 -2.480000e-02 -2.580000e-02 -4.6032 1312.1538 -1019.3801)" gradientUnits="userSpaceOnUse">
		<stop  offset="0" style="stop-color:#FFFFFF"/>
		<stop  offset="1" style="stop-color:#EFEAD7"/>
	</radialGradient>
	<polygon clip-path="url(#SVGID_26_)" fill="url(#SVGID_27_)" points="13.7,156.9 52.8,156.7 52.8,160.9 13.7,161.1 	"/>
</g>
<g>
	<defs>
		<path id="SVGID_28_" d="M13.8,169c0.1,0.6,0.2,1.1,0.2,1.7l0,0.2c0.1,0.4,0.2,0.8,0.3,1.2l0.1,0.6l38.3-0.2
			c-0.1-1.3-0.1-2.5-0.2-3.8L13.8,169z"/>
	</defs>
	<clipPath id="SVGID_29_">
		<use xlink:href="#SVGID_28_"  overflow="visible"/>
	</clipPath>
	
		<radialGradient id="SVGID_30_" cx="-270.8006" cy="-256.3785" r="2.9266" gradientTransform="matrix(4.7323 -2.470000e-02 -2.570000e-02 -4.5899 1308.2565 -1012.648)" gradientUnits="userSpaceOnUse">
		<stop  offset="0" style="stop-color:#FFFFFF"/>
		<stop  offset="1" style="stop-color:#EFEAD7"/>
	</radialGradient>
	<polygon clip-path="url(#SVGID_29_)" fill="url(#SVGID_30_)" points="13.8,168.8 52.8,168.6 52.9,172.8 13.8,173 	"/>
</g>
<g>
	<defs>
		<path id="SVGID_31_" d="M17.4,180.8c0.7,1.3,1.5,2.6,2.4,3.8l34.6-0.2c-0.2-1.3-0.4-2.5-0.6-3.8L17.4,180.8z"/>
	</defs>
	<clipPath id="SVGID_32_">
		<use xlink:href="#SVGID_31_"  overflow="visible"/>
	</clipPath>
	
		<radialGradient id="SVGID_33_" cx="-266.3818" cy="-263.5872" r="2.928" gradientTransform="matrix(4.4899 -2.350000e-02 -2.440000e-02 -4.3548 1225.5077 -971.4814)" gradientUnits="userSpaceOnUse">
		<stop  offset="0" style="stop-color:#FFFFFF"/>
		<stop  offset="1" style="stop-color:#EFEAD7"/>
	</radialGradient>
	<polygon clip-path="url(#SVGID_32_)" fill="url(#SVGID_33_)" points="17.4,180.7 54.4,180.5 54.4,184.6 17.4,184.8 	"/>
</g>
<g>
	<defs>
		<path id="SVGID_34_" d="M28.5,192.6c1.2,1.1,2.3,2.4,3.3,3.8l25.5-0.1c-0.4-1.3-0.8-2.6-1.1-3.8L28.5,192.6z"/>
	</defs>
	<clipPath id="SVGID_35_">
		<use xlink:href="#SVGID_34_"  overflow="visible"/>
	</clipPath>
	
		<radialGradient id="SVGID_36_" cx="-243.4362" cy="-295.9953" r="2.9288" gradientTransform="matrix(3.509 -1.840000e-02 -1.910000e-02 -3.4035 891.4905 -817.4199)" gradientUnits="userSpaceOnUse">
		<stop  offset="0" style="stop-color:#FFFFFF"/>
		<stop  offset="1" style="stop-color:#EFEAD7"/>
	</radialGradient>
	<polygon clip-path="url(#SVGID_35_)" fill="url(#SVGID_36_)" points="28.5,192.5 57.3,192.4 57.3,196.4 28.5,196.6 	"/>
</g>
<g>
	<defs>
		<path id="SVGID_37_" d="M56.3,164.7C56,105.1,105.1,56.2,165.8,55.9c60.6-0.3,110.3,48,110.6,107.7
			c0.3,59.6-48.8,108.4-109.5,108.7c-0.2,0-0.4,0-0.7,0C106,272.3,56.7,224.2,56.3,164.7 M165.8,52.2c-15.4,0.1-30.3,3.1-44.3,9
			C108,66.9,95.9,75.1,85.4,85.4c-10.4,10.3-18.5,22.4-24.2,35.7c-1.7,3.9-3.1,7.9-4.3,12c-0.4,1.3-0.7,2.5-1.1,3.8
			c-0.7,2.7-1.3,5.4-1.7,8.1c-0.2,1.3-0.4,2.5-0.6,3.8c-0.4,2.7-0.6,5.4-0.8,8.1c-0.1,1.2-0.1,2.5-0.2,3.8c0,1.3,0,2.7,0,4
			c0,1.4,0,2.7,0.1,4.1c0.1,1.3,0.1,2.5,0.2,3.8c0.2,2.7,0.5,5.4,0.9,8.1c0.2,1.3,0.4,2.5,0.6,3.8c0.5,2.7,1.1,5.4,1.8,8.1
			c0.3,1.2,0.7,2.5,1.1,3.8c1.2,4,2.7,8,4.4,12c5.8,13.3,14.1,25.2,24.6,35.4c10.5,10.2,22.7,18.2,36.3,23.8
			c14.1,5.7,29,8.6,44.3,8.5c15.4-0.1,30.3-3.2,44.3-9c13.4-5.7,25.6-13.8,36-24.2c10.4-10.3,18.5-22.3,24.2-35.7
			c1.7-3.9,3.1-7.9,4.3-12c0.3-1.2,0.7-2.5,1.1-3.8c0.7-2.7,1.2-5.4,1.7-8.1c0.2-1.3,0.4-2.5,0.6-3.8c0.3-2.7,0.6-5.4,0.8-8.1
			c0.1-1.3,0.2-2.5,0.2-3.8c0.1-1.4,0.1-2.7,0.1-4.1c0-1.3-0.1-2.7-0.1-4c-0.1-1.3-0.1-2.5-0.3-3.8c-0.2-2.7-0.4-5.4-0.9-8.1
			c-0.2-1.3-0.4-2.5-0.6-3.8c-0.6-2.8-1.2-5.4-1.9-8.1c-0.3-1.3-0.7-2.5-1.1-3.8c-1.2-4.1-2.7-8-4.5-12c-5.8-13.3-14-25.2-24.5-35.5
			c-10.5-10.2-22.8-18.2-36.3-23.8c-13.9-5.7-28.6-8.6-43.8-8.6C166.2,52.2,166,52.2,165.8,52.2"/>
	</defs>
	<clipPath id="SVGID_38_">
		<use xlink:href="#SVGID_37_"  overflow="visible"/>
	</clipPath>
	
		<radialGradient id="SVGID_39_" cx="-332.4551" cy="-168.7201" r="2.9278" gradientTransform="matrix(39.1625 -0.2048 -0.2149 -37.9824 13149.915 -6312.3062)" gradientUnits="userSpaceOnUse">
		<stop  offset="0" style="stop-color:#FFFFFF"/>
		<stop  offset="1" style="stop-color:#EFEAD7"/>
	</radialGradient>
	<polygon clip-path="url(#SVGID_38_)" fill="url(#SVGID_39_)" points="51.3,52.2 280.3,51 281.5,276.1 52.5,277.3 	"/>
</g>
<g>
	<defs>
		<path id="SVGID_40_" d="M256.3,261.1c0,0,18.9,1,28.1-11.9c9.4-12.9,6.3-22.6,4.8-25.2C289.2,224,290.4,254.4,256.3,261.1"/>
	</defs>
	<clipPath id="SVGID_41_">
		<use xlink:href="#SVGID_40_"  overflow="visible"/>
	</clipPath>
	
		<radialGradient id="SVGID_42_" cx="-262.9524" cy="-240.3761" r="2.9269" gradientTransform="matrix(6.2348 -3.260000e-02 -3.390000e-02 -6.0472 1904.8674 -1219.6241)" gradientUnits="userSpaceOnUse">
		<stop  offset="0" style="stop-color:#FFFFFF"/>
		<stop  offset="1" style="stop-color:#EFEAD7"/>
	</radialGradient>
	<polygon clip-path="url(#SVGID_41_)" fill="url(#SVGID_42_)" points="256,224 293.7,223.8 293.9,262.1 256.3,262.3 	"/>
</g>
<g>
	<defs>
		<path id="SVGID_43_" d="M253.8,67.5c0,0,31.3,0,37,34.1c0,0,1.7-18.7-11.2-28.4c-7.4-5.6-13.9-7.1-18.6-7.1
			C257.5,66.1,255,66.9,253.8,67.5"/>
	</defs>
	<clipPath id="SVGID_44_">
		<use xlink:href="#SVGID_43_"  overflow="visible"/>
	</clipPath>
	
		<radialGradient id="SVGID_45_" cx="-263.6762" cy="-222.5906" r="2.9256" gradientTransform="matrix(6.2887 -3.290000e-02 -3.420000e-02 -6.0995 1922.937 -1282.4969)" gradientUnits="userSpaceOnUse">
		<stop  offset="0" style="stop-color:#FFFFFF"/>
		<stop  offset="1" style="stop-color:#EFEAD7"/>
	</radialGradient>
	<polygon clip-path="url(#SVGID_44_)" fill="url(#SVGID_45_)" points="253.6,66.1 292.5,65.9 292.7,101.6 253.8,101.8 	"/>
</g>
<g>
	<defs>
		<path id="SVGID_46_" d="M49.1,79.1c-9.3,12.9-6.3,22.6-4.8,25.2c0,0-1.1-30.4,33-37.2c0,0-0.3,0-0.8,0
			C72.8,67.1,57.3,67.8,49.1,79.1"/>
	</defs>
	<clipPath id="SVGID_47_">
		<use xlink:href="#SVGID_46_"  overflow="visible"/>
	</clipPath>
	
		<radialGradient id="SVGID_48_" cx="-285.5466" cy="-223.0881" r="2.9255" gradientTransform="matrix(6.2426 -3.260000e-02 -3.390000e-02 -6.0548 1834.9388 -1274.3988)" gradientUnits="userSpaceOnUse">
		<stop  offset="0" style="stop-color:#FFFFFF"/>
		<stop  offset="1" style="stop-color:#EFEAD7"/>
	</radialGradient>
	<polygon clip-path="url(#SVGID_47_)" fill="url(#SVGID_48_)" points="39.6,67.1 77.3,66.9 77.5,104.3 39.8,104.5 	"/>
</g>
<g>
	<defs>
		<path id="SVGID_49_" d="M53.6,251.5c12.9,9.8,23,7.1,25.8,5.8c0,0-31.3-0.1-37-34.1C42.4,223.2,40.7,241.9,53.6,251.5"/>
	</defs>
	<clipPath id="SVGID_50_">
		<use xlink:href="#SVGID_49_"  overflow="visible"/>
	</clipPath>
	
		<radialGradient id="SVGID_51_" cx="-285.9137" cy="-239.3037" r="2.9269" gradientTransform="matrix(6.2915 -3.290000e-02 -3.420000e-02 -6.1022 1851.4977 -1228.7959)" gradientUnits="userSpaceOnUse">
		<stop  offset="0" style="stop-color:#FFFFFF"/>
		<stop  offset="1" style="stop-color:#EFEAD7"/>
	</radialGradient>
	<polygon clip-path="url(#SVGID_50_)" fill="url(#SVGID_51_)" points="40.5,223.2 79.4,223 79.6,261.3 40.7,261.5 	"/>
</g>
<g>
	<defs>
		<path id="SVGID_52_" d="M182.9,31.3c0,0,33-11,49.3,19.7c0,0-4.4-18.2-19.8-23.5c-4-1.4-7.8-1.9-11.2-1.9
			C191.5,25.6,184.5,29.8,182.9,31.3"/>
	</defs>
	<clipPath id="SVGID_53_">
		<use xlink:href="#SVGID_52_"  overflow="visible"/>
	</clipPath>
	
		<radialGradient id="SVGID_54_" cx="-275.305" cy="-213.612" r="2.9244" gradientTransform="matrix(6.7401 -3.530000e-02 -3.660000e-02 -6.5374 2055.2795 -1367.8894)" gradientUnits="userSpaceOnUse">
		<stop  offset="0" style="stop-color:#FFFFFF"/>
		<stop  offset="1" style="stop-color:#EFEAD7"/>
	</radialGradient>
	<polygon clip-path="url(#SVGID_53_)" fill="url(#SVGID_54_)" points="182.7,20.4 232.1,20.1 232.3,51 182.9,51.2 	"/>
</g>
<g>
	<defs>
		<path id="SVGID_55_" d="M119.9,28.1c-14.8,6.6-18.6,19.8-18.7,22.8c0,0,16.2-30.2,49.5-19.1c0,0-9.2-5.9-20.1-5.9
			C127.2,25.9,123.5,26.5,119.9,28.1"/>
	</defs>
	<clipPath id="SVGID_56_">
		<use xlink:href="#SVGID_55_"  overflow="visible"/>
	</clipPath>
	
		<radialGradient id="SVGID_57_" cx="-283.1695" cy="-213.4922" r="2.9255" gradientTransform="matrix(6.742 -3.530000e-02 -3.670000e-02 -6.5392 2027.3314 -1367.6969)" gradientUnits="userSpaceOnUse">
		<stop  offset="0" style="stop-color:#FFFFFF"/>
		<stop  offset="1" style="stop-color:#EFEAD7"/>
	</radialGradient>
	<polygon clip-path="url(#SVGID_56_)" fill="url(#SVGID_57_)" points="101.1,20.6 150.8,20.4 150.9,50.9 101.3,51.1 	"/>
</g>
<path fill="#231F20" d="M119.1,203.5c2.5,1.4,4.4,3.3,6,5.7c1.5,2.5,2.3,5.2,2.3,8.2c0,2.9-0.7,5.6-2.1,8.1
	c-1.4,2.4-3.3,4.4-5.8,5.8c-2.4,1.4-5.1,2.2-8,2.2h-10.1l-0.1-28.1l-5.7,0l2.3-3.9h3.4l-0.1-14.8l12.5-0.1c2.5,0,4.7,0.9,6.6,2.7
	c1.9,1.8,2.7,4,2.8,6.7C123,199.1,121.7,201.6,119.1,203.5 M104.9,201.6l8.7-0.1c1.6,0,3-0.6,4-1.7c1-1.1,1.5-2.4,1.5-3.8
	c0-1.7-0.6-3-1.7-4c-1.1-1.1-2.4-1.6-3.9-1.6l-8.7,0.1L104.9,201.6z M105,205.4l0.1,24.3h6.3c3.5,0,6.4-1.2,8.7-3.7
	c2.3-2.4,3.4-5.3,3.4-8.6c0-2.3-0.6-4.4-1.7-6.2c-1.1-1.9-2.7-3.3-4.5-4.3c-1.9-1.1-3.9-1.6-6-1.6L105,205.4z"/>
<path fill="#231F20" d="M144.2,204.4c4.1,0,7.7,1.4,10.6,4.3c2.9,2.9,4.4,6.4,4.4,10.5c0,4-1.4,7.5-4.2,10.5
	c-2.9,2.9-6.4,4.4-10.5,4.4c-4.1,0.1-7.6-1.4-10.5-4.3c-3-2.9-4.4-6.4-4.4-10.4c0-4.1,1.4-7.6,4.3-10.5
	C136.8,205.9,140.2,204.4,144.2,204.4 M144.3,208.2c-3.1,0-5.7,1.1-7.8,3.2c-2.2,2.2-3.2,4.8-3.2,7.9c0,3.1,1.1,5.8,3.2,7.9
	c2.1,2.1,4.8,3.2,7.9,3.1c3.1-0.1,5.7-1.1,7.8-3.2c2.1-2.2,3.2-4.8,3.2-7.9c0-3.1-1.1-5.7-3.3-7.8
	C150,209.2,147.4,208.2,144.3,208.2"/>
<polygon fill="#231F20" points="192.4,208.7 187.4,208.7 187.4,204.9 192.4,204.9 192.4,197 196.2,195.1 196.2,204.9 201.3,204.9 
	201.3,208.6 196.2,208.7 196.4,233 192.6,233 "/>
<path fill="#231F20" d="M223.1,215.2c0-2.2-0.7-3.9-2.2-5.3c-1.5-1.4-3.2-2.1-5.2-2.1c-2.1,0-3.8,0.7-5.3,2.2
	c-1.4,1.4-2.1,3.2-2.1,5.3l0.1,17.6h-3.8l-0.3-46.8l3.8-0.1l0.1,20.8c2.2-1.9,4.7-2.9,7.5-2.9c3.2,0,5.8,1.1,8,3.2
	c2.2,2.1,3.2,4.8,3.2,8l0.1,17.7h-3.8L223.1,215.2z"/>
<path fill="#231F20" d="M230.9,186.1h3.8l0.2,39l-3.8,0L230.9,186.1z M231.1,229h3.9l0,3.8l-3.9,0.1V229z"/>
<path fill="#231F20" d="M178.8,217.2c4.7,5.4,7.1,11.1,5.4,12.6c-1.8,1.5-7.1-1.6-11.8-7.1c-4.7-5.4-7.1-11.1-5.3-12.6
	C168.8,208.5,174.1,211.7,178.8,217.2"/>
<path fill="none" stroke="#231F20" stroke-width="0.266" d="M151.7,204.4c3-2.1,7.1-1.4,9.3,1.7"/>
<path fill="#AF352C" d="M164.9,208.4c-5.8,4.8-6.8,13.5-2.1,19.9c4.6,6.4,13.4,8.1,19.7,4L164.9,208.4z"/>
<path fill="#AF352C" d="M187.2,228.6c4.8-5.8,4.3-14.6-1.4-20.1c-5.6-5.5-14.4-5.7-20-0.7L187.2,228.6z"/>
<g>
	<defs>
		<rect id="SVGID_58_" x="157.6" y="201" width="11.3" height="11.3"/>
	</defs>
	<clipPath id="SVGID_59_">
		<use xlink:href="#SVGID_58_"  overflow="visible"/>
	</clipPath>
	<g clip-path="url(#SVGID_59_)">
		<defs>
			<rect id="SVGID_60_" x="157.6" y="201" width="11.3" height="11.3"/>
		</defs>
		<clipPath id="SVGID_61_">
			<use xlink:href="#SVGID_60_"  overflow="visible"/>
		</clipPath>
		<path clip-path="url(#SVGID_61_)" fill="#231F20" d="M166.7,211.3c-2.5,1.8-6,1.2-7.9-1.3c-1.9-2.6-1.4-6.1,1.1-7.9
			c2.5-1.8,6.1-1.2,8,1.4C169.7,206,169.2,209.5,166.7,211.3"/>
	</g>
</g>
<path fill="#C8BAAA" d="M167.1,214.3c0.7,0.9,0.5,2.3-0.4,2.9c-0.9,0.7-2.3,0.5-3-0.5c-0.7-0.9-0.5-2.2,0.4-3
	C165.1,213.2,166.5,213.4,167.1,214.3"/>
<path fill="#C8BAAA" d="M165.1,220.7c0.7,0.9,0.5,2.3-0.4,2.9c-1,0.7-2.2,0.4-2.9-0.4c-0.7-1-0.5-2.3,0.4-3
	C163.1,219.5,164.3,219.7,165.1,220.7"/>
<path fill="#C8BAAA" d="M177,227.7c0.7,0.9,0.5,2.2-0.4,2.9c-0.9,0.7-2.2,0.5-2.9-0.5c-0.6-0.9-0.5-2.2,0.4-2.9
	C175,226.5,176.3,226.7,177,227.7"/>
<path fill="#C8BAAA" d="M172.7,221.1c0.7,1,0.5,2.3-0.4,3c-0.9,0.6-2.3,0.4-3-0.6c-0.7-1-0.5-2.2,0.4-2.9
	C170.7,220,172,220.2,172.7,221.1"/>
<path fill="#C8BAAA" d="M174.7,208.8c0.7,0.9,0.5,2.2-0.4,2.9c-0.9,0.7-2.3,0.5-3-0.5c-0.7-0.9-0.5-2.2,0.4-2.9
	C172.7,207.6,174,207.9,174.7,208.8"/>
<path fill="#C8BAAA" d="M181.4,214.8c0.7,1,0.5,2.3-0.4,3c-0.9,0.6-2.3,0.4-2.9-0.5c-0.7-0.9-0.5-2.3,0.4-2.9
	C179.3,213.7,180.7,213.9,181.4,214.8"/>
<path fill="#C8BAAA" d="M182.2,208.2c0.7,0.9,0.5,2.2-0.4,2.9c-0.9,0.7-2.2,0.4-2.9-0.5c-0.7-1-0.5-2.3,0.4-3
	C180.2,207,181.5,207.2,182.2,208.2"/>
<path fill="#C8BAAA" d="M187.7,214.5c0.7,1,0.5,2.2-0.4,3c-0.9,0.6-2.3,0.4-2.9-0.5c-0.7-1-0.5-2.3,0.4-3
	C185.7,213.4,187,213.6,187.7,214.5"/>
<path fill="#C8BAAA" d="M186.4,220.8c0.7,0.9,0.5,2.2-0.4,3c-0.9,0.6-2.2,0.4-2.9-0.5c-0.7-0.9-0.5-2.3,0.4-2.9
	C184.4,219.6,185.8,219.8,186.4,220.8"/>
<path fill="#C8BAAA" d="M170.1,227.4c0.7,1,0.5,2.3-0.4,3c-0.9,0.7-2.3,0.4-2.9-0.5c-0.7-1-0.5-2.3,0.3-3
	C168,226.3,169.4,226.5,170.1,227.4"/>
<path fill="none" stroke="#231F20" stroke-width="0.266" d="M161.8,205.3c-2.8-2.4-3.3-6.7-1-9.4"/>
<path fill="#231F20" d="M163.4,194c0.2,0.3,0.2,0.9-0.2,1.1c-0.3,0.3-0.9,0.2-1.2-0.2c-0.2-0.4-0.2-0.9,0.2-1.1
	C162.5,193.5,163.1,193.6,163.4,194"/>
<path fill="#231F20" d="M138.8,84.9c3,0,5.8,0.7,8.4,2.2c2.6,1.5,4.6,3.5,6.2,6.1c1.5,2.6,2.2,5.4,2.2,8.3c0.1,4.7-1.6,8.6-4.8,11.9
	c-3.2,3.3-7.2,4.9-11.8,4.9h-5.6l0.1,13.4l-3.8,0l-0.2-43l-5.7,0l2.3-3.8L138.8,84.9z M133.4,114.6l5.6,0c3.9,0,6.9-1.3,9.4-3.9
	c2.3-2.6,3.5-5.6,3.5-9.1c0-2.6-0.7-4.8-1.9-6.8c-1.2-2-2.9-3.5-4.8-4.5c-2-1.1-4-1.6-6.2-1.6l-5.6,0L133.4,114.6z"/>
<path fill="#231F20" d="M158.7,92.4l3.8,0l0,4.1l-3.8,0L158.7,92.4z M158.8,103.5l3.8,0l0.1,28.1l-3.8,0L158.8,103.5z"/>
<path fill="#231F20" d="M192,107.9l-2.9,2.4c-2.2-2.6-5.1-3.9-8.5-3.9c-3.1,0-5.8,1.1-7.9,3.2c-2.1,2.2-3.2,4.8-3.2,7.9
	c0,3.1,1.1,5.7,3.3,7.8c2.1,2.1,4.7,3.2,7.9,3.1c3.3,0,6.1-1.3,8.2-3.7l3.1,2.3c-1.4,1.7-3.1,2.9-5,3.8c-2,0.9-4,1.4-6.3,1.4
	c-4,0-7.5-1.4-10.5-4.3c-3-2.9-4.4-6.4-4.4-10.4c0-4.1,1.5-7.6,4.3-10.5c2.9-2.9,6.4-4.4,10.5-4.4c2.4,0,4.5,0.4,6.4,1.3
	C188.9,104.8,190.6,106.1,192,107.9"/>
<polygon fill="#231F20" points="213.4,131.3 208.8,131.3 198.9,117.2 199,131.4 195.2,131.4 194.9,84.6 198.7,84.6 198.9,116.3 
	206.9,103.2 211.4,103.2 203.1,116.7 "/>
<path fill="#231F20" d="M165.4,175.5l0.1,13.2h-3.8l-0.1-13.2h-4.9l2.3-3.8h2.6l-0.1-18.6c0-2.2,0.5-4.2,1.6-6.1
	c1.1-1.9,2.6-3.4,4.4-4.5c1.9-1.1,3.9-1.7,6.1-1.7c2.1,0,4.2,0.5,6.1,1.6c1.9,1.1,3.4,2.6,4.5,4.5c1.2,1.9,1.7,3.9,1.7,6.1l0.2,35.6
	l-3.8,0l0-13.2L165.4,175.5z M165.4,171.8l16.7-0.1l-0.1-18.6c0-1.6-0.4-3.1-1.2-4.4c-0.8-1.3-1.8-2.3-3.1-3c-1.3-0.7-2.7-1-4.1-1
	c-2.5,0-4.5,0.9-6,2.5c-1.5,1.7-2.3,3.7-2.3,5.9L165.4,171.8z"/>
<g>
	<defs>
		<path id="SVGID_62_" d="M184.2,299.3c0,0,15.9,10,30.5,3.3c14.5-6.6,16.8-16.6,16.9-19.6C231.5,283,217.2,310,184.2,299.3"/>
	</defs>
	<clipPath id="SVGID_63_">
		<use xlink:href="#SVGID_62_"  overflow="visible"/>
	</clipPath>
	
		<radialGradient id="SVGID_64_" cx="-238.138" cy="-206.04" r="2.9276" gradientTransform="matrix(5.6048 2.5353 2.6138 -5.4366 2081.5759 -224.9127)" gradientUnits="userSpaceOnUse">
		<stop  offset="0" style="stop-color:#FFFFFF"/>
		<stop  offset="1" style="stop-color:#EFEAD7"/>
	</radialGradient>
	<polygon clip-path="url(#SVGID_63_)" fill="url(#SVGID_64_)" points="192.6,265.4 242.2,287.8 223.1,327.6 173.5,305.2 	"/>
</g>
<g>
	<defs>
		<path id="SVGID_65_" d="M119.6,302.6c15.4,4.6,24-1.3,26.1-3.4c0,0-29.3,10.5-46.2-19C99.5,280.2,104.3,297.9,119.6,302.6"/>
	</defs>
	<clipPath id="SVGID_66_">
		<use xlink:href="#SVGID_65_"  overflow="visible"/>
	</clipPath>
	
		<radialGradient id="SVGID_67_" cx="-236.0893" cy="-130.3376" r="2.9271" gradientTransform="matrix(2.3706 5.5373 5.7089 -2.2995 1426.4563 1297.8071)" gradientUnits="userSpaceOnUse">
		<stop  offset="0" style="stop-color:#FFFFFF"/>
		<stop  offset="1" style="stop-color:#EFEAD7"/>
	</radialGradient>
	<polygon clip-path="url(#SVGID_66_)" fill="url(#SVGID_67_)" points="138.9,264.3 156.5,305.3 106.3,325.6 88.7,284.5 	"/>
</g>
</svg>
