<?xml version="1.0" encoding="utf-8"?>

<!DOCTYPE svg PUBLIC "-//W3C//DTD SVG 1.1//EN" "http://www.w3.org/Graphics/SVG/1.1/DTD/svg11.dtd" []>
<svg version="1.1" id="Layer_1" 
	 xmlns="http://www.w3.org/2000/svg" xmlns:xlink="http://www.w3.org/1999/xlink" x="0px" y="0px" viewBox="0 0 363.3 106.8"
	 enable-background="new 0 0 363.3 106.8" xml:space="preserve">
<metadata>
	<sfw  >
		<slices></slices>
		<sliceSourceBounds  bottomLeftOrigin="true" y="-333.7" height="106.8" x="299" width="363.3"></sliceSourceBounds>
	</sfw>
</metadata>
<path fill="#231F20" d="M38.6,0.9c3.2,0,6.3,0.7,9.2,2.1c2.9,1.4,5.3,3.4,7.5,6c2.1,2.5,3.8,5.6,5,9.3c1.2,3.7,1.9,7.7,1.9,12
	s-0.5,8.6-1.6,12.8c-1.1,4.1-2.6,7.8-4.6,10.9c-1.9,3.1-4.3,5.6-7,7.3c-2.7,1.7-5.7,2.4-8.8,1.9c-1.2-0.2-2.5-0.5-3.8-1.1
	c-1.3-0.5-2.4-1.3-3.4-2.3v0.4c-0.6,4.6-1.5,9.4-2.6,14.3c-1.1,4.9-2.4,9.4-3.9,13.4c-1.5,4.1-3.4,7.4-5.5,10
	c-2.2,2.6-4.7,3.9-7.6,3.9c-2.8,0-5.1-0.6-6.9-1.9c-1.8-1.2-3.1-2.7-4.1-4.5c-1-1.7-1.6-3.5-1.9-5.3C0.2,88.6,0,87.2,0,86.1v-0.7
	c0.1-1.9,0.6-3.7,1.5-5.3c1.1-1.8,2.4-2.8,4-2.9c1.6-0.2,3,0.5,4.2,2.1c1.2,1.6,1.9,3.6,2,6.1c0.1,2.5-0.4,4.6-1.5,6.5
	c-0.5,0.7-0.9,1.2-1.3,1.6c0.5,0.4,0.9,0.6,1.4,0.7c0.5,0.1,0.9,0.1,1.4,0.1c1.2,0,2.4-0.6,3.5-1.9c1.1-1.3,2.1-3.2,3.1-6
	c1-2.7,1.9-6.3,2.8-10.6c0.9-4.4,1.8-9.7,2.8-16c1.6-11.3,4.1-20.1,7.4-26.3C34.6,27.2,39,23,44.4,20.7c0.6-0.3,1.1-0.2,1.5,0.1
	c0.4,0.3,0.7,0.8,0.8,1.3c0.1,0.6,0.1,1.2-0.2,1.9c-0.2,0.7-0.7,1.3-1.4,1.9c-3.2,2.3-5.6,5.9-7.2,10.7c-1.6,4.8-3,11.1-4.2,18.7
	c0.9,0.4,1.9,0.5,2.9,0.5c3.5,0,6.3-1.3,8.5-3.9c2.2-2.6,4.1-6.7,5.6-12.2c0.9-3.2,1.4-6.4,1.5-9.6c0.1-3.2-0.2-6.1-0.8-8.8
	c-0.6-2.7-1.6-5.1-2.9-7.1c-1.3-2-3-3.5-5-4.3c-3.7-1.6-7.1-1.7-10.4-0.3c-3.3,1.4-6,3.5-8.1,6.4c0.4,0.3,0.9,0.7,1.4,1.3
	c1.2,1.6,1.8,3.6,1.9,6c0.1,2.4-0.4,4.5-1.4,6.3c-1.1,1.9-2.4,2.9-4,3c-1.6,0.1-3-0.6-4.2-2.2c-0.8-1.2-1.4-2.5-1.7-4
	c-0.3-1.5-0.4-3-0.1-4.5c0.1-0.8,0.3-1.7,0.6-2.7c0.3-1,0.7-2.1,1.3-3.3C20.7,11.2,23.5,7.6,27,5C30.5,2.3,34.4,0.9,38.6,0.9z"/>
<path fill="#231F20" d="M74.5,59.8c0.6-1,1.2-1.6,1.8-1.9c0.5-0.3,0.9-0.3,1.2,0c0.3,0.3,0.4,0.7,0.4,1.3c0,0.6-0.3,1.3-0.7,2.1
	c-1.5,3-3.1,5.7-4.8,8c-1.4,2.1-3,3.9-4.8,5.6c-1.8,1.7-3.6,2.5-5.5,2.5c-1.4,0-2.3-0.6-2.8-1.7c-0.5-1.1-0.7-2.5-0.7-4.1
	c0.1-1.7,0.3-3.5,0.7-5.4c0.4-2,0.9-3.8,1.3-5.6c1.2-4.7,2.1-8.5,2.9-11.4c0.7-2.9,1.3-4.9,1.5-6c1.1,2.1,2.5,3.1,4.4,3.1
	c0.6,0,1,0,1.3-0.1l-3.2,14.2c-0.5,2.1-0.9,4.1-1.3,5.8c-0.4,1.7-0.3,2.6,0.1,2.6c0.5,0,1.1-0.3,1.7-0.8c0.6-0.5,1.3-1.2,2-2.1
	c0.7-0.9,1.4-1.9,2.1-2.9C73,61.8,73.8,60.8,74.5,59.8z M73.8,37.2c0,1.8-0.4,3.3-1.2,4.5c-0.8,1.2-1.8,1.9-3,1.9
	c-1.2,0-2.2-0.6-3-1.9c-0.8-1.2-1.2-2.8-1.2-4.5c0-1.8,0.4-3.3,1.2-4.5c0.8-1.2,1.8-1.9,3-1.9c1.2,0,2.2,0.6,3,1.9
	C73.3,33.9,73.8,35.4,73.8,37.2z"/>
<path fill="#231F20" d="M94.4,59.8c0.5-0.8,1-1.4,1.5-1.7c0.5-0.3,1-0.4,1.3-0.3c0.4,0.1,0.5,0.5,0.6,1.1c0,0.6-0.2,1.4-0.8,2.5
	c-0.5,1.1-1.3,2.5-2.4,4.4c-1.1,1.9-2.4,3.7-3.8,5.6c-1.4,1.8-3,3.4-4.7,4.6c-1.7,1.2-3.3,1.7-4.9,1.5c-1.8-0.3-3.3-1.3-4.4-3.1
	c-1.1-1.8-1.8-4-2.3-6.6c-0.4-2.6-0.5-5.4-0.1-8.4c0.3-3,1-5.7,2-8.2c1-2.5,2.3-4.6,4-6.2c1.7-1.6,3.7-2.5,6.1-2.5
	c1.6,0,3,0.6,3.9,1.8c1,1.2,1.6,2.7,1.9,4.4c0.3,1.7,0.2,3.5-0.1,5.4c-0.4,1.9-1,3.5-2,4.8c-0.7,0.9-1.4,1.3-2.1,1.1
	c-0.7-0.1-1.3-0.5-1.7-1.1c-0.5-0.6-0.8-1.2-1-2c-0.2-0.8-0.2-1.3,0.1-1.7c0.9-1.2,1.6-2.7,1.9-4.2c0.4-1.6,0.2-2.7-0.4-3.5
	c-0.5-0.5-1-0.6-1.6-0.2c-0.6,0.4-1.2,1.1-1.8,2.2c-0.6,1.1-1.1,2.4-1.6,3.9c-0.5,1.5-0.8,3-1,4.5c-0.4,3.7-0.2,6.5,0.4,8.6
	c0.6,2.1,1.6,3.1,3.1,3c0.9,0,1.9-0.3,2.8-0.9c0.9-0.6,1.8-1.4,2.7-2.4c0.9-1,1.6-2.1,2.4-3.2C93.1,61.8,93.8,60.8,94.4,59.8z"/>
<path fill="#231F20" d="M121.1,59.8c0.6-1,1.2-1.6,1.8-1.9c0.5-0.3,0.9-0.3,1.2,0c0.3,0.3,0.4,0.7,0.4,1.3c0,0.6-0.3,1.3-0.7,2.1
	c-1.4,3-2.8,5.7-4.3,8c-1.3,2.1-2.8,3.9-4.4,5.6c-1.6,1.7-3.3,2.5-5,2.5c-1.4,0-2.4-0.4-3-1.1c-0.6-0.8-1-1.7-1.1-2.9
	c-0.1-1.2,0-2.6,0.3-4.2c0.3-1.6,0.6-3.3,1.1-5.1c0.4-1.5,0.5-2.5,0.3-3c-0.1-0.5-0.4-0.6-0.9-0.5c-0.4,0.2-1,0.7-1.6,1.4
	c-0.6,0.8-1.3,1.6-1.9,2.6l-2.8,12.8h-7c0.5-1.7,1-4,1.7-6.8c0.6-2.9,1.4-6,2.2-9.4c-0.1,0-0.1,0-0.1,0.1c-0.6,1.2-1.2,2-1.7,2.3
	c-0.5,0.3-0.9,0.3-1.2,0c-0.3-0.3-0.4-0.8-0.4-1.6c0-0.8,0.2-1.5,0.7-2.3c0.9-1.7,1.7-3.5,2.5-5.5c0.8-2,1.5-3.8,2.2-5.4
	c0.6-1.6,1.2-3.1,1.6-4.3c0.4-1.2,0.7-1.9,0.8-2.2c0.6-2.9,1.3-5.7,1.9-8.4c0.6-2.6,1.2-5,1.6-7c0.5-2.3,1-4.5,1.5-6.6h6.3
	c-0.9,4.3-1.9,8.6-2.8,12.8c-0.8,3.7-1.7,7.8-2.7,12.2c-1,4.4-1.9,8.7-2.9,12.9c1-1.2,2.1-3.1,3.3-5.6c1.2-2.5,2.4-6,3.5-10.6h7.4
	c-0.4,1.6-0.9,3.2-1.5,4.8c-0.6,1.4-1.4,2.9-2.3,4.5c-0.9,1.6-2.1,3.1-3.5,4.5c1.5,0.2,2.4,1,2.7,2.4c0.4,1.4,0.4,3.2,0,5.2
	c-0.5,3.1-0.5,4.8,0.1,4.9c0.4,0.2,0.8,0,1.3-0.6c0.5-0.6,1.1-1.3,1.7-2.2c0.6-0.9,1.3-1.9,1.9-3C119.8,61.8,120.4,60.8,121.1,59.8z
	"/>
<path fill="#231F20" d="M144.3,79.3c1.2,1.6,1.8,3.6,1.9,6c0.1,2.4-0.4,4.5-1.4,6.4c-0.4,0.6-0.9,1.2-1.4,1.7c1,0.7,1.9,1,2.8,0.8
	c1.2-0.3,2.5-1.3,3.7-3c1.2-1.7,2.4-4,3.7-6.9c1.2-2.9,2.5-6.2,3.8-9.9c1.3-3.7,2.6-7.7,3.9-11.9L146,65.5l8.2-13h10.3
	c1.8-5.6,3.8-11.2,5.9-16.7c2.1-5.5,4.3-10.6,6.8-15.3c2.4-4.7,5-8.7,7.8-12.2c2.8-3.4,5.9-5.8,9.2-7c1.5-0.4,2.9-0.8,4.2-1
	C199.8,0.1,201,0,202,0c1.2,0,2.3,0.1,3.3,0.3c0.5,0.2,0.6,0.7,0.5,1.5c-0.1,0.8-0.6,1.6-1.4,2.3c-2.2,1.8-4.3,4.9-6.1,9.5
	c-1.9,4.6-3.4,9.8-4.8,15.8c-1.3,6-2.4,12.3-3.1,19.1c-0.8,6.7-1.2,13.2-1.3,19.5c-0.1,6.2,0.2,11.9,0.9,17
	c0.7,5.1,1.9,8.9,3.5,11.5c1,1.7,2.3,2.7,3.8,2.9c1.5,0.3,2.8,0.2,3.8-0.3c-1.5-1.6-2.4-3.7-2.6-6.3c-0.2-2.4,0.2-4.5,1.2-6.4
	c1-1.9,2.3-3,3.9-3.3c1.6-0.3,3,0.4,4.2,1.9c1.2,1.5,2,3.5,2.2,5.9c0.1,3.7-0.8,6.7-2.7,9.2c-1.9,2.5-4.2,4.2-7,5.2
	c-2.7,1-5.6,1.2-8.4,0.6c-2.9-0.6-5.2-2.2-7-4.8c-1.5-2.1-2.7-4.8-3.6-7.8c-0.9-3.1-1.6-6.4-1.9-10.1c-0.4-3.7-0.5-7.5-0.4-11.6
	c0.1-4.1,0.4-8.2,0.9-12.5l-6.8,1.3c-1.7,5.4-3.5,10.7-5.3,15.7c-1.8,5-3.7,9.4-5.7,13.3c-2,3.9-4.2,7-6.5,9.3
	c-2.3,2.3-4.8,3.5-7.5,3.5c-2.8,0-5.3-0.8-7.3-2.3c-2.1-1.5-3.6-3.4-4.7-5.7c-1.1-2.3-1.7-4.7-1.7-7.2c-0.1-2.5,0.5-4.8,1.7-6.8
	c1.1-1.8,2.4-2.8,4-2.9C141.6,77,143.1,77.7,144.3,79.3z M180.8,52.6c0.8-4.7,1.8-9.4,3-14c1.2-4.6,2.6-9,4.2-13.1
	c1.6-4.1,3.3-8,5.1-11.5c1.9-3.5,3.8-6.5,5.9-8.9c-1,0.2-2,0.5-3,0.9c-2,1.1-3.9,3.1-5.7,6c-1.8,2.9-3.5,6.5-5.1,10.8
	c-1.7,4.2-3.3,8.9-4.9,14c-1.6,5.1-3.2,10.4-4.8,15.7H180.8z"/>
<path fill="#231F20" d="M236.4,17.3c1.2,1.6,1.9,3.6,2,6c0.1,2.4-0.4,4.5-1.5,6.3c-1,1.9-2.3,2.9-3.9,3c-1.6,0.1-3-0.6-4.2-2.2
	c-1-1.2-1.6-2.8-1.9-4.7c-0.3-1.9-0.1-3.7,0.4-5.5c0.2-1.2,0.8-2.6,1.6-4.4c2.1-4.5,4.8-8.2,8.4-10.8c3.5-2.7,7.4-4,11.6-4
	c3.2,0,6.3,0.7,9.1,2.1c2.8,1.4,5.3,3.4,7.4,6c2.1,2.5,3.8,5.6,5,9.3c1.2,3.7,1.9,7.7,1.9,12c0,3.4-0.3,6.7-1,10
	c-0.7,3.3-1.6,6.3-2.8,9c-1.2,2.8-2.7,5.2-4.4,7.4c-1.7,2.1-3.6,3.8-5.7,5c1.8,0.6,3.4,1.9,4.6,3.7c1.3,1.8,2.2,4.1,2.8,6.7
	c0.6,2.6,0.9,5.5,0.8,8.6c-0.1,3.1-0.5,6.1-1.3,9.2c-1,3.6-2.4,6.6-4.1,9.2c-1.7,2.5-3.6,4.5-5.7,5.8c-2.1,1.3-4.4,2-6.9,2.1
	c-2.5,0-5-0.6-7.4-2.1c-1.7-0.9-3.3-2.1-4.7-3.6c-1.4-1.5-2.7-3.3-3.7-5.3c-1.3,2-2.7,3.5-4.2,4.6c-1.5,1.1-3.2,1.7-5,1.7
	c-2.8,0-5.1-0.6-6.9-1.9c-1.8-1.2-3.1-2.7-4.1-4.5c-1-1.7-1.6-3.5-1.9-5.3c-0.3-1.8-0.5-3.2-0.5-4.3c0-1.4,0.1-2.6,0.4-3.5
	c0.2-0.9,0.6-1.8,1-2.5c1.1-1.8,2.4-2.8,4-2.9c1.6-0.2,3.1,0.5,4.3,2.1c1.2,1.6,1.8,3.6,1.9,6.1c0.1,2.5-0.4,4.6-1.4,6.5
	c-0.5,0.7-0.9,1.2-1.4,1.6c0.5,0.4,0.9,0.6,1.4,0.7c0.5,0.1,0.9,0.1,1.4,0.1c1.2,0,2.4-0.6,3.5-1.9c1.1-1.3,2.1-3.2,3.1-6
	c1-2.7,1.9-6.3,2.9-10.6c0.9-4.4,1.9-9.7,2.7-16c1.7-11.3,4.1-20.1,7.4-26.3c3.3-6.2,7.7-10.5,13.1-12.7c0.6-0.3,1.1-0.2,1.5,0.1
	c0.4,0.3,0.7,0.8,0.8,1.3c0.1,0.6,0.1,1.2-0.2,1.9c-0.3,0.7-0.8,1.3-1.5,1.9c-3.1,2.3-5.5,5.9-7.1,10.7c-1.6,4.8-3,11.1-4.2,18.7
	c0.5,0.2,1,0.3,1.5,0.4c0.5,0.1,1,0.1,1.4,0.1c3.5,0,6.3-1.3,8.5-3.9c2.2-2.6,4.1-6.7,5.6-12.2c0.9-3.2,1.4-6.4,1.5-9.6
	c0.1-3.2-0.1-6.1-0.8-8.8c-0.6-2.7-1.6-5.1-3-7.1c-1.4-2-3-3.5-5-4.3c-3.7-1.6-7.1-1.7-10.4-0.3c-3.3,1.4-6,3.5-8.1,6.4
	c0.2,0.2,0.5,0.4,0.7,0.6C235.9,16.7,236.1,17,236.4,17.3z M251,63.5c-1.4-0.3-2.7-0.6-4.1-1.1c-1.4-0.5-2.6-1.3-3.8-2.5v0.4
	c-0.7,4.8-1.6,9.7-2.7,14.6c-1.1,4.9-2.4,9.5-4,13.6c0.3,2.3,0.8,4.3,1.6,6.1c0.8,1.7,1.8,3,3.1,3.7c2.4,1.2,4.8,0.7,7.4-1.7
	c2.6-2.4,4.6-6.3,6.1-11.6c0.7-2.7,1.1-5.2,1.3-7.6c0.1-2.4,0-4.6-0.4-6.5c-0.4-1.9-1-3.5-1.8-4.8C253.1,64.8,252.2,64,251,63.5z"/>
<path fill="#231F20" d="M286,42.1c1.4,0,2.5,0.5,3.4,1.4c0.9,0.9,1.5,2.2,2,3.8c0.4,1.6,0.6,3.5,0.5,5.6c-0.1,2.1-0.4,4.4-1,6.8
	l-0.5,1.9c1.4,0.5,2.6-0.1,3.8-1.9c0.6-1,1.2-1.6,1.7-1.9c0.5-0.3,0.9-0.3,1.1,0c0.3,0.3,0.4,0.7,0.4,1.3c0,0.6-0.2,1.3-0.6,2.1
	c-0.8,1.7-1.9,3-3.4,3.9c-1.4,0.9-2.9,1.1-4.3,0.7c-1.2,3.4-2.6,6.2-4.3,8.3c-1.7,2.1-3.6,3.2-5.7,3.2c-1.4,0-2.6-0.5-3.6-1.4
	c-1.1-0.9-1.9-2.2-2.5-3.8c-0.6-1.6-1-3.5-1.1-5.6c-0.1-2.1,0-4.4,0.5-6.8c0.5-2.4,1.1-4.7,2-6.8c0.9-2.1,1.9-4,3.1-5.6
	c1.2-1.6,2.5-2.9,4-3.8C282.8,42.6,284.3,42.1,286,42.1z M285.4,62.7c-0.5-1-0.8-2.1-0.9-3.5c-0.1-1.3,0.1-2.6,0.4-3.7
	c0.4-1.2,0.9-2.1,1.5-2.9c0.6-0.8,1.4-1,2.3-0.9c0.1-2.7-0.5-4.3-1.8-4.8c-1-0.4-2.2,0.6-3.6,2.7c-1.4,2.2-2.7,5.6-3.8,10.1
	c-0.8,3.1-1.2,5.9-1.3,8.4c-0.1,2.5,0.2,3.9,1.1,4.3c1.2,0.6,2.4,0,3.6-1.7c1.2-1.8,2.3-4.1,3.2-6.8L285.4,62.7z"/>
<path fill="#231F20" d="M307.9,42.1c1.4,0,2.5,0.5,3.4,1.4c0.9,0.9,1.5,2.2,2,3.8c0.4,1.6,0.6,3.5,0.5,5.6c-0.1,2.1-0.4,4.4-1,6.8
	l-0.5,1.9c1.4,0.5,2.6-0.1,3.8-1.9c0.6-1,1.2-1.6,1.7-1.9c0.5-0.3,0.9-0.3,1.1,0c0.3,0.3,0.4,0.7,0.4,1.3c0,0.6-0.2,1.3-0.6,2.1
	c-0.8,1.7-1.9,3-3.4,3.9c-1.4,0.9-2.9,1.1-4.3,0.7c-1.2,3.4-2.6,6.2-4.3,8.3c-1.7,2.1-3.6,3.2-5.8,3.2c-1.4,0-2.6-0.5-3.6-1.4
	c-1.1-0.9-1.9-2.2-2.5-3.8c-0.6-1.6-1-3.5-1.1-5.6c-0.1-2.1,0-4.4,0.5-6.8c0.5-2.4,1.1-4.7,2-6.8c0.9-2.1,1.9-4,3.1-5.6
	c1.2-1.6,2.5-2.9,4-3.8C304.7,42.6,306.3,42.1,307.9,42.1z M307.3,62.7c-0.5-1-0.8-2.1-0.9-3.5c-0.1-1.3,0.1-2.6,0.4-3.7
	c0.4-1.2,0.9-2.1,1.5-2.9c0.6-0.8,1.4-1,2.3-0.9c0.1-2.7-0.5-4.3-1.8-4.8c-1-0.4-2.2,0.6-3.6,2.7c-1.4,2.2-2.7,5.6-3.8,10.1
	c-0.8,3.1-1.2,5.9-1.3,8.4c-0.1,2.5,0.2,3.9,1.1,4.3c1.2,0.6,2.4,0,3.6-1.7c1.2-1.8,2.3-4.1,3.2-6.8L307.3,62.7z"/>
<path fill="#231F20" d="M333.8,36.4h-5.6l-5.4,23.9c-0.5,2.1-0.9,4.1-1.3,5.8c-0.4,1.7-0.4,2.6,0,2.6c0.5,0,1.1-0.3,1.8-0.8
	c0.6-0.5,1.3-1.2,2-2.1c0.7-0.9,1.4-1.9,2.1-2.9c0.7-1.1,1.4-2.1,2-3.1c0.7-1,1.3-1.6,1.9-1.9c0.5-0.3,0.9-0.3,1.2,0
	c0.3,0.3,0.4,0.7,0.3,1.3c-0.1,0.6-0.3,1.3-0.7,2.1c-1.5,3-3.1,5.7-4.7,8c-1.4,2.1-3,3.9-4.7,5.6c-1.7,1.7-3.6,2.5-5.4,2.5
	c-1.4,0-2.3-0.6-2.8-1.7c-0.5-1.1-0.7-2.5-0.7-4.1c0.1-1.7,0.3-3.5,0.7-5.4c0.4-2,0.9-3.8,1.3-5.6c0.7-3,1.6-6.8,2.7-11.2
	c1.1-4.4,2.1-8.8,3.1-13h-15.5l1.5-6.3h15.5c0.3-1.4,0.6-2.7,0.9-3.9c0.3-1.2,0.6-2.2,0.8-3.1c0.2-1,0.4-1.9,0.6-2.7h6.4
	c-0.2,0.9-0.4,1.8-0.6,2.8c-0.4,1.8-0.9,4.1-1.5,6.8h5.6L333.8,36.4z"/>
<path fill="#231F20" d="M329.5,59.8c0.7-1.4,1.4-2.9,2.1-4.5c0.7-1.6,1.4-3.1,2-4.6c0.6-1.5,1.1-2.8,1.6-4.1
	c0.4-1.2,0.8-2.3,1.1-3.1c0.7-3.1,1.4-6,2-8.8c0.6-2.7,1.2-5.1,1.7-7.3c0.6-2.4,1.1-4.7,1.6-7h6.3c-1.1,4.9-2.2,9.9-3.3,14.8
	c-0.9,4.3-2,8.9-3.1,13.8c-1.1,4.9-2.2,9.6-3.1,13.8c1.2-2.8,2.6-5.6,4.1-8.5c1.5-2.9,2.9-5.5,4.4-7.8c1.5-2.3,2.9-4,4.3-5.2
	c1.4-1.2,2.7-1.5,3.8-0.9c0.7,0.4,1.1,1.3,1.1,2.9c0,1.6-0.1,3.4-0.5,5.5c-0.4,2.1-0.8,4.3-1.4,6.6c-0.6,2.3-1.1,4.4-1.5,6.4
	c-0.5,1.9-0.8,3.5-1,4.8c-0.2,1.3-0.1,1.9,0.2,1.9c0.5,0,1.1-0.3,1.8-0.8c0.6-0.5,1.3-1.2,2-2.1c0.7-0.9,1.4-1.9,2.1-2.9
	c0.7-1.1,1.4-2.1,2.1-3.1c0.7-1,1.3-1.6,1.9-1.9c0.5-0.3,0.9-0.3,1.2,0c0.3,0.3,0.4,0.7,0.3,1.3c-0.1,0.6-0.3,1.3-0.7,2.1
	c-1.5,3-3.1,5.7-4.7,8c-1.4,2.1-3,3.9-4.7,5.6c-1.7,1.7-3.6,2.5-5.4,2.5c-1.4,0-2.4-0.6-2.9-1.7c-0.5-1.2-0.7-2.6-0.6-4.3
	c0.1-1.7,0.4-3.6,0.8-5.7c0.4-2,0.9-3.9,1.3-5.7c0.4-1.7,0.8-3.2,1.1-4.3c0.3-1.2,0.3-1.7,0-1.7c-0.3,0-0.8,0.5-1.5,1.6
	c-0.7,1.1-1.4,2.4-2.3,4.1c-0.9,1.7-1.8,3.5-2.7,5.4c-0.9,2-1.8,3.8-2.7,5.6c-0.8,1.7-1.5,3.2-2.1,4.5c-0.6,1.2-0.9,2-1,2.3v0.1h-7
	c0.5-1.7,1-3.9,1.6-6.6c0.6-2.7,1.3-5.8,2.1-9.2c-0.6,1.2-1.2,1.9-1.7,2.1c-0.5,0.3-0.8,0.2-1.1-0.1c-0.3-0.3-0.4-0.8-0.4-1.6
	C328.8,61.4,329.1,60.6,329.5,59.8z"/>
</svg>
