<?xml version="1.0" encoding="utf-8"?>

<!DOCTYPE svg PUBLIC "-//W3C//DTD SVG 1.1//EN" "http://www.w3.org/Graphics/SVG/1.1/DTD/svg11.dtd" []>
<svg version="1.1" id="Layer_1"
	 xmlns="http://www.w3.org/2000/svg" xmlns:xlink="http://www.w3.org/1999/xlink" x="0px" y="0px" viewBox="0 0 884.6 137.9"
	 enable-background="new 0 0 884.6 137.9" xml:space="preserve">
<metadata>
	<sfw >
		<slices></slices>
		<sliceSourceBounds  bottomLeftOrigin="true" y="-468.7" height="137.9" x="197.7" width="884.6"></sliceSourceBounds>
	</sfw>
</metadata>
<g>
	<g>
		<path fill="#231F20" d="M199,34.3h0.1l3.5-33.2h10.5l-7.9,47.3h-12.5l-3.4-33.3h-0.1l-3.7,33.3h-12.3l-8-47.3H176l3.3,33.3
			l0.1-0.1L184,1.1h10.7L199,34.3z"/>
		<path fill="#231F20" d="M216.6,48.5V1.1h25.4v9.5h-14.3v8.7h13.9v9.5h-13.9V39h15.1v9.5H216.6z"/>
		<path fill="#231F20" d="M248.1,48.5V1.1h14.4c2.2,0,4.2,0.2,6,0.6c1.8,0.4,3.4,1.1,4.7,2c1.3,0.9,2.4,2.2,3.1,3.8
			c0.7,1.6,1.1,3.6,1.1,5.9c0,2.2-0.4,4.1-1.3,5.9c-0.9,1.7-2.2,3.1-4.1,4.1v0.1c1.3,0.8,2.3,1.5,3.1,2.2c0.8,0.7,1.4,1.5,1.8,2.3
			c0.4,0.8,0.7,1.8,0.9,2.9c0.2,1.1,0.3,2.4,0.3,3.9c0,4.7-1.2,8.1-3.7,10.3c-2.5,2.2-6.1,3.3-10.7,3.3H248.1z M259.2,19.8
			c0.2,0,0.5,0,1-0.1c2.4-0.1,4-0.5,4.9-1.1c0.8-0.6,1.3-2.1,1.3-4.5c0-2-0.5-3.2-1.6-3.7c-1.1-0.5-2.9-0.8-5.5-0.8V19.8z
			 M259.2,39.9c0.3,0,0.6,0,1,0c1.6,0,2.7-0.1,3.4-0.2c0.7-0.1,1.3-0.3,1.9-0.7c0.5-0.4,0.9-1,1.2-1.8c0.3-0.8,0.4-2,0.4-3.4
			c0-1.3-0.2-2.3-0.5-3c-0.3-0.7-0.8-1.3-1.4-1.6c-0.6-0.4-1.3-0.6-2.1-0.7c-0.8-0.1-1.9-0.2-3.2-0.2h-0.6V39.9z"/>
		<path fill="#231F20" d="M307.5,32.6V36c0,1.6,0.3,2.8,1,3.7c0.7,0.9,1.8,1.4,3.4,1.4c1.2,0,2.1-0.5,2.8-1.4c0.6-0.9,0.9-2,0.9-3.3
			c0-1.6-0.4-2.9-1.3-3.8c-0.9-0.9-2.2-1.9-4-3c-0.2-0.1-0.5-0.3-0.9-0.5c-2-1.1-3.6-2.2-5-3.1c-1.3-0.9-2.5-2-3.4-3.1
			c-1.1-1.3-1.9-2.7-2.4-4.2c-0.5-1.5-0.8-3.3-0.8-5.3c0-4.4,1.2-7.7,3.7-10C304,1.1,307.4,0,311.7,0c4.5,0,8,1.3,10.4,3.8
			c2.5,2.6,3.7,6,3.7,10.2l-0.1,0.6c0,0.2,0,0.4,0,0.6h-10.2v-0.6c0-0.9-0.1-1.7-0.2-2.3c-0.1-0.6-0.2-1.2-0.5-1.8
			c-0.2-0.6-0.6-1.1-1.1-1.5c-0.5-0.4-1.1-0.6-1.9-0.6c-1.2,0-2.1,0.3-2.7,0.8c-0.6,0.5-1,1.3-1.1,2.3c0,0.1,0,0.2,0,0.4
			c0,0.1-0.1,0.3-0.1,0.4c0,1.1,0.3,2,0.9,2.7c0.6,0.7,1.4,1.5,2.6,2.3c0.8,0.5,2.2,1.3,4,2.4c3.1,1.8,5.2,3.2,6.4,4.3
			c1.4,1.3,2.4,2.8,3.1,4.5c0.7,1.8,1,4,1,6.8c0,4.5-1.2,8-3.7,10.5c-2.4,2.4-6,3.7-10.6,3.7c-2.4,0-4.6-0.3-6.4-0.9
			c-1.9-0.6-3.4-1.5-4.5-2.6c-1.2-1.1-2.1-2.4-2.6-3.8c-0.6-1.4-0.9-2.9-0.9-4.5v-5H307.5z"/>
		<path fill="#231F20" d="M330.9,48.5V1.1H342v47.3H330.9z"/>
		<path fill="#231F20" d="M346.6,1.1h28.8v9.5h-9v37.9h-11.1V10.6h-8.7V1.1z"/>
		<path fill="#231F20" d="M379.7,48.5V1.1h25.4v9.5h-14.3v8.7h13.9v9.5h-13.9V39h15.1v9.5H379.7z"/>
		<path fill="#231F20" d="M445.5,17.7v-3c0-2-0.3-3.5-0.9-4.5C444,9,443.1,8.5,442,8.5c-1.6,0-2.8,0.4-3.4,1.2
			c-0.6,0.8-0.9,2-0.9,3.7l-0.1,23.4c0,1.4,0.3,2.4,0.9,3.2c0.6,0.7,1.6,1.1,3,1.1c0.9,0,1.6-0.2,2.2-0.6c0.6-0.4,1-1,1.3-1.6
			c0.3-0.7,0.5-1.4,0.5-2.1c0.1-0.8,0.1-1.6,0.1-2.5V30h11.1v5.8c0,4.3-1.3,7.7-3.9,10.1c-2.6,2.5-6.6,3.7-12.1,3.7
			c-5,0-8.6-1.3-10.8-3.8c-2.3-2.5-3.4-6.3-3.4-11.3V15.1c0-5.1,1.2-8.9,3.6-11.4c2.4-2.5,6.2-3.7,11.3-3.7c4.9,0,8.6,1.1,11.2,3.3
			c2.6,2.2,3.9,5.7,3.9,10.4v4H445.5z"/>
		<path fill="#231F20" d="M461.9,1.1H473v35.7c0,1.3,0.3,2.3,0.9,3.1c0.6,0.8,1.6,1.1,3,1.1c1.3,0,2.3-0.5,2.9-1.4
			c0.6-0.9,0.9-2,0.9-3.2V1.1h11.1v34.3c0,2.1-0.3,4-0.8,5.7c-0.5,1.7-1.3,3.2-2.5,4.4c-1.2,1.3-2.7,2.3-4.6,3
			c-1.9,0.7-4.3,1.1-7.1,1.1c-4.8,0-8.5-1.2-11-3.5c-2.6-2.4-3.8-5.9-3.8-10.7V1.1z"/>
		<path fill="#231F20" d="M508.1,48.5H497V1.1h16.2c4.6,0,8.1,1,10.3,3.1c2.2,2,3.3,5.4,3.3,10c0,2.7-0.4,4.9-1.3,6.7
			c-0.8,1.7-2.4,3.1-4.6,4.1v0.1c1.6,0.3,2.9,1,3.9,2.1c1,1.1,1.5,2.4,1.6,4c0.1,0.8,0.2,2.6,0.3,5.3c0.1,2.4,0.2,4.4,0.3,6
			c0.1,1.6,0.2,2.8,0.4,3.7c0.3,0.7,0.7,1.3,1.1,1.6v0.6h-12.1c-0.4-1.1-0.6-2-0.6-2.7c0-1.2-0.1-2.7-0.1-4.5c0-1.9,0-3.3,0-4.2
			c0-0.8-0.1-1.6-0.2-2.3c-0.2-1.6-0.5-2.8-1.1-3.6c-0.6-0.8-1.5-1.3-2.7-1.4h-3.7V48.5z M508.1,21.3h3.8c1.5,0,2.5-0.5,3.1-1.6
			c0.6-1.1,0.9-2.5,0.9-4.2c0-2.4-0.5-4-1.6-4.7c-1.1-0.7-3.1-1-6.2-1V21.3z"/>
		<path fill="#231F20" d="M543.2,48.5h-11.1V1.1h16.2c4.6,0,8.1,1,10.3,3.1c2.2,2,3.3,5.4,3.3,10c0,2.7-0.4,4.9-1.3,6.7
			c-0.8,1.7-2.4,3.1-4.6,4.1v0.1c1.6,0.3,2.9,1,3.9,2.1c1,1.1,1.5,2.4,1.6,4c0.1,0.8,0.2,2.6,0.3,5.3c0.1,2.4,0.2,4.4,0.3,6
			c0.1,1.6,0.2,2.8,0.4,3.7c0.3,0.7,0.7,1.3,1.1,1.6v0.6h-12.1c-0.4-1.1-0.6-2-0.6-2.7c0-1.2-0.1-2.7-0.1-4.5c0-1.9,0-3.3,0-4.2
			c0-0.8-0.1-1.6-0.2-2.3c-0.2-1.6-0.5-2.8-1.1-3.6c-0.6-0.8-1.5-1.3-2.7-1.4h-3.7V48.5z M543.2,21.3h3.8c1.5,0,2.5-0.5,3.1-1.6
			c0.6-1.1,0.9-2.5,0.9-4.2c0-2.4-0.5-4-1.6-4.7c-1.1-0.7-3.1-1-6.2-1V21.3z"/>
		<path fill="#231F20" d="M567.4,48.5V1.1h25.4v9.5h-14.3v8.7h13.9v9.5h-13.9V39h15.1v9.5H567.4z"/>
		<path fill="#231F20" d="M608.4,22l-0.1,0.1l1,26.4h-10.5V1.1h11.4l8.6,26.4h0.2l-1.1-26.4h10.5v47.3h-11.4L608.4,22z"/>
		<path fill="#231F20" d="M632.5,1.1h28.8v9.5h-9v37.9h-11.1V10.6h-8.7V1.1z"/>
		<path fill="#231F20" d="M665,48.5V1.1h11.1V39h13.6v9.5H665z"/>
		<path fill="#231F20" d="M702.4,16.6h0.1l5.7-15.5h11.1l-11.4,27.5v19.9h-11.1V28.6L685.6,1.1h11.2L702.4,16.6z"/>
	</g>
	<g>
		<path fill="#231F20" d="M0,60.5h17.7v57c0,2.1,0.5,3.7,1.4,4.9c0.9,1.2,2.5,1.8,4.8,1.8c2.1,0,3.6-0.7,4.6-2.2
			c1-1.5,1.5-3.2,1.5-5V60.5h17.7v54.7c0,3.4-0.4,6.4-1.2,9.1c-0.8,2.7-2.1,5.1-4,7.1c-1.8,2-4.3,3.6-7.4,4.7
			c-3.1,1.1-6.9,1.7-11.3,1.7c-7.7,0-13.5-1.9-17.6-5.6c-4.1-3.8-6.1-9.4-6.1-17V60.5z"/>
		<path fill="#231F20" d="M71.6,93.7l-0.2,0.2L73,136H56.1V60.5h18.2l13.7,42.2h0.3l-1.7-42.2h16.8V136H85.4L71.6,93.7z"/>
		<path fill="#231F20" d="M112.5,136V60.5h19.2c4.3,0,8.1,0.2,11.3,0.7c3.2,0.4,6.1,1.4,8.7,2.9c3.2,1.8,5.3,4.3,6.3,7.5
			c1.1,3.2,1.6,6.9,1.6,11.2v33.6c-0.1,7.8-2.6,13.2-7.6,16.3c-2.2,1.4-4.5,2.4-7.1,2.8c-2.6,0.5-5.4,0.7-8.7,0.7H112.5z
			 M130.2,122.4c0.3,0,0.8,0,1.3,0c0.5,0.1,0.8,0.1,1.1,0.1c3.8,0,6.3-0.8,7.6-2.4c1.2-1.6,1.8-4.3,1.8-8.1c0-0.5,0-1.1-0.1-1.7
			c0-0.9,0-1.5,0-2V83.6c0-2.2-0.2-3.9-0.6-5.2c-0.4-1.2-1-2.2-1.9-2.8c-0.9-0.6-2-1-3.4-1.2c-1.4-0.2-3.3-0.3-5.8-0.4V122.4z"/>
		<path fill="#231F20" d="M168.5,136V60.5h40.6v15.1h-22.9v13.9h22.2v15.1h-22.2v16.3h24.1V136H168.5z"/>
		<path fill="#231F20" d="M236.2,136h-17.7V60.5h25.9c7.4,0,12.9,1.6,16.4,4.9c3.6,3.3,5.3,8.6,5.3,16c0,4.3-0.7,7.8-2,10.6
			c-1.3,2.8-3.8,5-7.4,6.6v0.2c2.6,0.5,4.6,1.7,6.2,3.4c1.6,1.7,2.4,3.8,2.6,6.4c0.1,1.3,0.3,4.1,0.4,8.5c0.2,3.9,0.4,7.1,0.6,9.6
			c0.2,2.5,0.4,4.4,0.7,5.8c0.5,1.1,1,2,1.7,2.6v1h-19.3c-0.6-1.7-0.9-3.1-1-4.3c-0.1-1.9-0.1-4.4-0.1-7.3c0-3.1,0-5.3-0.1-6.7
			c0-1.3-0.1-2.6-0.3-3.6c-0.3-2.5-0.9-4.4-1.8-5.7c-0.9-1.3-2.3-2.1-4.3-2.2h-5.8V136z M236.2,92.6h6c2.4,0,4-0.9,4.9-2.6
			c0.9-1.7,1.4-4,1.4-6.8c0-3.9-0.8-6.4-2.5-7.5c-1.7-1.1-5-1.7-9.9-1.7V92.6z"/>
		<path fill="#231F20" d="M300.4,136V60.5h25l9.2,44.6h0.2l9.5-44.6h24.8V136h-16.9l1.8-59.3h-0.2L341.2,136H328l-12.2-59.3h-0.2
			l1.6,59.3H300.4z"/>
		<path fill="#231F20" d="M374.8,136l16.5-75.6h21.4l16.4,75.6h-17.9l-2.5-14.7h-13.9l-2.1,14.7H374.8z M402,74.2h-0.2l-5.1,33.9
			h10.3L402,74.2z"/>
		<path fill="#231F20" d="M435.1,136V60.5h17.7V136H435.1z"/>
		<path fill="#231F20" d="M477.7,93.7l-0.2,0.2l1.6,42.1h-16.8V60.5h18.2l13.7,42.2h0.3l-1.7-42.2h16.8V136h-18.1L477.7,93.7z"/>
		<path fill="#231F20" d="M516.2,60.5h46v15.1h-14.3V136h-17.7V75.6h-13.9V60.5z"/>
		<path fill="#231F20" d="M569,136V60.5h40.6v15.1h-22.9v13.9h22.2v15.1h-22.2v16.3h24.1V136H569z"/>
		<path fill="#231F20" d="M634.5,93.7l-0.2,0.2l1.6,42.1h-16.8V60.5h18.2l13.7,42.2h0.3l-1.7-42.2h16.8V136h-18.1L634.5,93.7z"/>
		<path fill="#231F20" d="M746.2,93.7l-0.2,0.2l1.6,42.1h-16.8V60.5H749l13.7,42.2h0.3l-1.7-42.2h16.8V136H760L746.2,93.7z"/>
		<path fill="#231F20" d="M671.7,136l16.5-75.6h21.4L726,136h-17.9l-2.5-14.7h-13.9l-2.1,14.7H671.7z M698.9,74.2h-0.2l-5.1,33.9
			h10.3L698.9,74.2z"/>
		<path fill="#231F20" d="M816.2,86.9V82c0-3.2-0.5-5.6-1.5-7.3c-1-1.7-2.4-2.5-4.1-2.5c-2.6,0-4.4,0.6-5.4,1.9
			c-1,1.3-1.5,3.3-1.5,5.9l-0.1,37.4c0,2.2,0.5,3.9,1.5,5c1,1.1,2.6,1.7,4.8,1.7c1.4,0,2.6-0.3,3.5-1c0.9-0.7,1.6-1.5,2-2.6
			c0.4-1,0.7-2.2,0.9-3.4c0.1-1.2,0.2-2.5,0.2-3.9v-6.9h17.7v9.3c0,6.9-2.1,12.2-6.2,16.2c-4.2,3.9-10.6,5.9-19.3,5.9
			c-7.9,0-13.7-2-17.3-6.1c-3.6-4.1-5.4-10.1-5.4-18v-31c0-8.2,1.9-14.3,5.8-18.2c3.9-3.9,9.9-5.9,18-5.9c7.8,0,13.8,1.8,17.9,5.3
			c4.2,3.5,6.2,9.1,6.2,16.6v6.3H816.2z"/>
		<path fill="#231F20" d="M842.7,136V60.5h40.6v15.1h-22.9v13.9h22.2v15.1h-22.2v16.3h24.1V136H842.7z"/>
	</g>
</g>
</svg>
