<?xml version="1.0" encoding="utf-8"?>
<!-- Generator: Adobe Illustrator 17.1.0, SVG Export Plug-In . SVG Version: 6.00 Build 0)  -->
<!DOCTYPE svg PUBLIC "-//W3C//DTD SVG 1.1//EN" "http://www.w3.org/Graphics/SVG/1.1/DTD/svg11.dtd" [
	<!ENTITY ns_extend "http://ns.adobe.com/Extensibility/1.0/">
	<!ENTITY ns_ai "http://ns.adobe.com/AdobeIllustrator/10.0/">
	<!ENTITY ns_graphs "http://ns.adobe.com/Graphs/1.0/">
	<!ENTITY ns_vars "http://ns.adobe.com/Variables/1.0/">
	<!ENTITY ns_imrep "http://ns.adobe.com/ImageReplacement/1.0/">
	<!ENTITY ns_sfw "http://ns.adobe.com/SaveForWeb/1.0/">
	<!ENTITY ns_custom "http://ns.adobe.com/GenericCustomNamespace/1.0/">
	<!ENTITY ns_adobe_xpath "http://ns.adobe.com/XPath/1.0/">
]>
<svg version="1.1" id="Layer_1" xmlns:x="&ns_extend;" xmlns:i="&ns_ai;" xmlns:graph="&ns_graphs;"
	 xmlns="http://www.w3.org/2000/svg" xmlns:xlink="http://www.w3.org/1999/xlink" x="0px" y="0px" viewBox="0 0 100 19"
	 enable-background="new 0 0 100 19" xml:space="preserve">
<metadata>
	<sfw  xmlns="&ns_sfw;">
		<slices></slices>
		<sliceSourceBounds  width="98.2" height="12.5" y="-89" x="87.5" bottomLeftOrigin="true"></sliceSourceBounds>
	</sfw>
</metadata>
<g>
	<path d="M10.7,11.3c0,0.5-0.1,0.9-0.4,1.3c-0.3,0.4-0.6,0.7-1.1,1c-0.5,0.3-1,0.5-1.7,0.7c-0.7,0.2-1.4,0.2-2.2,0.2H0.9V2.2h4.4
		c0.7,0,1.4,0.1,2,0.2c0.6,0.2,1.1,0.4,1.5,0.7c0.4,0.3,0.8,0.6,1,1.1c0.2,0.4,0.4,0.8,0.4,1.3c0,0.6-0.2,1.2-0.6,1.7
		c-0.4,0.5-1,0.9-1.7,1.1C8.8,8.6,9.5,9,10,9.5S10.7,10.6,10.7,11.3z M6.6,5.5c0-0.4,0-0.7-0.1-1C6.4,4.2,6.3,3.9,6.2,3.7
		C6.1,3.5,6,3.3,5.8,3.2S5.5,3,5.3,3H4.6v5h0.7C5.5,8,5.7,8,5.8,7.8C6,7.7,6.1,7.5,6.2,7.3c0.1-0.2,0.2-0.5,0.2-0.8S6.6,5.9,6.6,5.5
		z M7.1,11.3c0-0.7-0.2-1.3-0.5-1.8C6.3,9,5.8,8.8,5.3,8.8H4.6v5h0.7c0.5,0,1-0.2,1.3-0.7C6.9,12.6,7.1,12,7.1,11.3z"/>
	<path d="M18.5,14.5v-0.8c-0.3,0.3-0.7,0.5-1.1,0.7c-0.4,0.2-0.9,0.2-1.5,0.2c-0.5,0-1-0.1-1.5-0.2s-0.8-0.4-1.1-0.7
		c-0.3-0.3-0.6-0.6-0.7-1.1c-0.2-0.4-0.3-0.9-0.3-1.4V5.7h3.6v5.7c0,0.8,0.1,1.5,0.4,1.9c0.2,0.5,0.5,0.7,0.9,0.7s0.7-0.2,0.9-0.7
		c0.2-0.5,0.4-1.1,0.4-1.9V5.7h3.6v8.9H18.5z"/>
	<path d="M30.1,14.5l-2.5-3.7v3.7H24V2.2h3.6v8.7l5.5-5.2h1.1L30.7,9l3.7,5.6H30.1z"/>
	<path d="M41.3,14.5v-0.8c-0.3,0.3-0.7,0.5-1.1,0.7c-0.4,0.2-0.9,0.2-1.5,0.2c-0.5,0-1-0.1-1.5-0.2s-0.8-0.4-1.1-0.7
		c-0.3-0.3-0.6-0.6-0.7-1.1c-0.2-0.4-0.3-0.9-0.3-1.4V5.7h3.6v5.7c0,0.8,0.1,1.5,0.4,1.9c0.2,0.5,0.5,0.7,0.9,0.7s0.7-0.2,0.9-0.7
		c0.2-0.5,0.4-1.1,0.4-1.9V5.7H45v8.9H41.3z"/>
	<path d="M59.2,3v11.6h-3.6V3h-3.8V2.2H63V3H59.2z"/>
	<path d="M65.8,14.5v-0.3c-0.1,0.1-0.3,0.1-0.5,0.2s-0.5,0.1-0.8,0.1c-0.3,0-0.5,0.1-0.8,0.1c-0.3,0-0.5,0-0.6,0
		c-0.4,0-0.8,0-1.3-0.1c-0.4-0.1-0.8-0.2-1.2-0.4c-0.3-0.2-0.6-0.5-0.9-0.8s-0.3-0.7-0.3-1.2c0-0.3,0.1-0.6,0.3-0.9
		c0.2-0.3,0.4-0.5,0.7-0.7s0.6-0.3,0.9-0.5c0.4-0.1,0.7-0.2,1.1-0.3c0.4-0.1,0.7-0.1,1.1-0.1c0.3,0,0.7,0,0.9,0
		c0.3,0,0.5-0.1,0.6-0.2c0.2-0.1,0.3-0.3,0.4-0.4c0.1-0.2,0.2-0.4,0.2-0.6c0-0.2,0.1-0.4,0.1-0.6c0-0.2,0-0.3-0.1-0.5
		c0-0.2-0.1-0.4-0.2-0.6c-0.1-0.2-0.2-0.3-0.4-0.4c-0.1-0.1-0.3-0.2-0.6-0.2c-0.2,0-0.4,0.1-0.6,0.2c-0.1,0.1-0.3,0.3-0.4,0.4
		c-0.1,0.2-0.2,0.4-0.2,0.6S63.5,7.8,63.5,8h-3.6c0-0.5,0.2-0.9,0.5-1.3s0.8-0.6,1.3-0.8s1-0.3,1.6-0.4c0.5-0.1,1-0.1,1.4-0.1
		s0.9,0,1.4,0.1c0.6,0.1,1.1,0.2,1.6,0.4s0.9,0.4,1.3,0.8c0.3,0.3,0.5,0.7,0.5,1.3v6.5H65.8z M65.8,10.3c-0.2,0.1-0.4,0.1-0.6,0.1
		s-0.5,0-0.7,0c-0.2,0-0.4,0.1-0.6,0.2c-0.2,0.1-0.3,0.3-0.4,0.4s-0.2,0.4-0.2,0.6s-0.1,0.4-0.1,0.6s0,0.4,0.1,0.6
		c0,0.2,0.1,0.4,0.2,0.6c0.1,0.2,0.2,0.3,0.4,0.4c0.2,0.1,0.4,0.2,0.6,0.2c0.3,0,0.5-0.1,0.6-0.2c0.2-0.1,0.3-0.2,0.4-0.4
		c0.1-0.2,0.2-0.4,0.2-0.6c0-0.2,0.1-0.4,0.1-0.6V10.3z"/>
	<path d="M83.7,14.5V8.9c0-0.8-0.1-1.5-0.4-1.9c-0.2-0.5-0.5-0.7-0.9-0.7c-0.4,0-0.7,0.2-0.9,0.7c-0.2,0.5-0.4,1.1-0.4,1.9v5.7h-3.6
		V8.9c0-0.8-0.1-1.5-0.4-1.9c-0.2-0.5-0.5-0.7-0.9-0.7S75.5,6.5,75.3,7c-0.2,0.5-0.4,1.1-0.4,1.9v5.7h-3.6V5.7h3.6v0.8
		c0.6-0.6,1.5-1,2.6-1c0.7,0,1.3,0.1,1.9,0.4c0.5,0.3,1,0.6,1.2,1.1c0.3-0.5,0.7-0.9,1.2-1.1c0.5-0.3,1.2-0.4,1.8-0.4
		c0.5,0,1,0.1,1.5,0.2c0.4,0.1,0.8,0.4,1.1,0.7c0.3,0.3,0.6,0.6,0.7,1.1s0.3,0.9,0.3,1.4v5.7H83.7z"/>
	<path d="M95.4,14.5v-0.8c-0.3,0.3-0.7,0.5-1.1,0.7c-0.4,0.2-0.9,0.2-1.5,0.2c-0.5,0-1-0.1-1.5-0.2s-0.8-0.4-1.1-0.7
		c-0.3-0.3-0.6-0.6-0.7-1.1c-0.2-0.4-0.3-0.9-0.3-1.4V5.7h3.6v5.7c0,0.8,0.1,1.5,0.4,1.9c0.2,0.5,0.5,0.7,0.9,0.7s0.7-0.2,0.9-0.7
		c0.2-0.5,0.4-1.1,0.4-1.9V5.7h3.6v8.9H95.4z"/>
</g>
</svg>
