<?xml version="1.0" encoding="utf-8"?>
<!-- Generator: Adobe Illustrator 17.1.0, SVG Export Plug-In . SVG Version: 6.00 Build 0)  -->
<!DOCTYPE svg PUBLIC "-//W3C//DTD SVG 1.1//EN" "http://www.w3.org/Graphics/SVG/1.1/DTD/svg11.dtd" []>
<svg xmlns="http://www.w3.org/2000/svg" xmlns:xlink="http://www.w3.org/1999/xlink" x="0px" y="0px" viewBox="0 0 78.8 17.6"
	 enable-background="new 0 0 78.8 17.6" xml:space="preserve">
<metadata>
	<sfw>
		<slices></slices>
		<sliceSourceBounds  width="78.8" height="17.6" y="-289.3" x="441.6" bottomLeftOrigin="true"></sliceSourceBounds>
	</sfw>
</metadata>
<g>
	<g>
		<path fill="#99CC33" d="M39,9.3L39,9.3c0.7,0,1.2-0.2,1.5-0.8L40.7,8c0.2-0.5,0.1-0.9-0.2-1.2c-0.3-0.4-0.7-0.5-1.2-0.5h-0.1
			c0.1-1,0.1-0.7,0.1-1c0-0.5-0.1-1-0.3-1.5c-0.2-0.4-0.5-0.9-0.9-1.3c-0.4-0.4-0.9-0.7-1.4-1c-0.5-0.2-1.1-0.4-1.6-0.4
			c-0.1,0-0.2,0-0.3,0c-0.4,0-0.9,0.1-1.3,0.2c-0.5,0.1-1,0.4-1.5,0.7c-0.4,0.3-0.8,0.7-1.2,1.1c-0.4,0.5-0.7,1-0.8,1.5
			c-0.2,0.5-0.2,1-0.2,1.5c0,0.3,0.1,0.7,0.2,1c0,0-0.1,0.1-0.1,0.1c-0.5,0.4-1,0.9-1.3,1.5c0,0.1-0.1,0.2-0.1,0.3
			c-0.1-0.1-0.2-0.3-0.4-0.4c-0.2-0.2-0.5-0.2-0.8-0.3c0-0.2,0-0.4,0-0.5c0-0.9-0.5-1.5-1.3-1.8c-0.2-0.1-0.5-0.1-0.7-0.1
			c-0.4,0-0.8,0.1-1.2,0.3c-0.1,0-0.2,0.2-0.2,0.3c-0.2-0.1-0.5-0.1-0.8-0.1h-1.4c-0.6,0-1.1,0.2-1.3,0.7c0,0,0-0.1,0-0.1
			c-0.5-0.5-1.1-0.8-1.9-0.8c-0.7,0-1.4,0.1-2,0.5c-0.2-0.2-0.5-0.4-0.8-0.5c0,0-0.1,0-0.1,0C15.3,6,15.1,6,15,6
			c-0.2,0-0.4,0-0.7,0.1c0.1-0.3,0.2-0.7,0.2-1c0-0.6-0.1-1.2-0.3-1.8c-0.2-0.6-0.6-1.1-1-1.6c-0.5-0.5-1-0.9-1.7-1.2
			c-0.6-0.3-1.3-0.5-2-0.5C9.3,0,9.2,0,9.1,0C8.5,0,8,0.1,7.5,0.2C6.8,0.4,6.2,0.7,5.7,1.1C5.1,1.4,4.6,1.9,4.1,2.4c0,0,0,0,0,0
			c-0.4,0.5-0.8,1.1-1,1.7C2.9,4.7,2.7,5.3,2.7,5.9c0,0.6,0,1.1,0.2,1.7C2.7,7.7,2.5,7.9,2.3,8C1.6,8.6,1.1,9.2,0.7,9.9
			c-0.4,0.7-0.6,1.4-0.7,2.2c-0.1,0.8,0,1.6,0.2,2.3c0.3,0.7,0.7,1.4,1.3,2c0.6,0.6,1.4,1,2.3,1.2c0,0,0,0,0,0
			c0.3,0.1,0.7,0.1,1,0.1c0.2,0,0.4,0,0.7,0c0.6-0.1,1.1-0.2,1.7-0.4c0.5-0.2,1-0.4,1.5-0.7c0.5-0.3,1-0.7,1.4-1.1
			c0.3-0.3,0.6-0.7,0.8-1c0.1-0.1,0.2-0.3,0.2-0.4c0.3,0.1,0.7,0.2,1.1,0.2c0.5,0,1-0.1,1.4-0.3c0.3-0.2,0.7-0.4,0.9-0.7
			c0,0,0.1-0.1,0.1-0.1c0,0.1,0.1,0.1,0.1,0.2c0.5,0.5,1.2,0.9,1.9,0.9c0.1,0,0.2,0,0.3,0c0.5,0,1-0.1,1.5-0.4c0,0,0.1,0.1,0.1,0.1
			c0.3,0.3,0.6,0.5,1,0.5h1.2c0.5,0,0.9-0.3,1.1-0.6c0.3,0.3,0.8,0.5,1.5,0.5c0.7,0,1.4-0.2,2-0.6c0.5-0.3,0.9-0.6,1.3-1
			c0.3-0.3,0.6-0.6,0.9-1c0,0.3,0.1,0.6,0.2,0.8c0.2,0.6,0.6,1.2,1.2,1.6c0.5,0.5,1.2,0.8,2,1c0.4,0.1,0.8,0.1,1.1,0.1
			c0.5,0,0.9-0.1,1.4-0.2c0.4-0.2,0.8-0.4,1.2-0.8c0.1,0,0.1,0,0.2,0c0.4,0,0.8-0.1,1.2-0.2c0.3-0.1,0.6-0.3,0.9-0.5
			c0.3-0.2,0.5-0.4,0.7-0.6c0.2-0.2,0.6-0.4,0.8-0.5c0.3-0.3,0.6-0.7,0.6-1.1v-0.9C39.4,10.1,39.1,9.3,39,9.3z M10.4,8
			c0,0.1,0,0.1-0.1,0.2C10.3,8,10.2,7.7,10,7.5C9.8,7.3,9.4,6.9,8.7,6.8C8.4,6.7,8.1,6.6,7.8,6.6c0,0,0,0,0,0c0-0.1,0-0.3,0.1-0.5
			C7.9,5.9,8,5.7,8.2,5.5c0,0,0,0,0-0.1C8.4,5.3,8.5,5,8.7,4.8C8.8,4.7,8.9,4.7,9,4.6C9,4.8,9,5.1,9,5.3c0,0.8,0.4,1.4,0.9,1.9
			c0.2,0.2,0.4,0.3,0.7,0.4C10.5,7.8,10.5,7.9,10.4,8z M6.5,12.4c0,0.3,0.1,0.5,0.2,0.8c-0.1,0.1-0.2,0.1-0.3,0.2
			c-0.2,0.1-0.4,0.2-0.6,0.2c0,0-0.1,0-0.1,0c0,0-0.1,0-0.1,0c0,0,0,0,0,0c-0.1-0.2-0.1-0.3-0.1-0.6c0-0.3,0.1-0.6,0.2-0.9
			c0.1-0.3,0.3-0.6,0.5-0.8c0.2-0.2,0.5-0.4,0.8-0.5c0,0,0,0,0.1,0C6.6,11.2,6.4,11.8,6.5,12.4z M34.5,6.1h-0.2c0-0.1,0-0.2,0.1-0.2
			C34.5,6,34.5,6,34.5,6.1z M32.7,11.1c0-0.1,0-0.3,0.1-0.5c0.1-0.2,0.1-0.3,0.3-0.5c0.1-0.1,0.2-0.2,0.3-0.2c0,0.1,0,0.1-0.1,0.2
			c-0.2,0.3-0.3,0.6-0.4,0.8C32.8,11.1,32.8,11.1,32.7,11.1z"/>
		<path fill="#99CC33" d="M78.1,8.5c-0.1-0.1-0.3-0.2-0.5-0.2c0-0.2-0.1-0.4-0.2-0.6c-0.2-0.5-0.5-0.9-1-1.2C76,6.2,75.5,6,74.9,6
			c-0.6,0-1.1,0.1-1.6,0.3c-0.3,0.1-0.6,0.3-0.9,0.5c-0.2-0.5-0.6-0.8-1.1-1c0,0,0,0,0,0c-0.2-0.1-0.5-0.1-0.7-0.1
			c-0.2,0-0.5,0-0.7,0.1c-0.2,0-0.3,0.1-0.4,0.2C69.3,6,69.2,6,69.2,6c0,0-0.1,0-0.1,0c-0.2-0.1-0.5-0.1-0.8-0.1
			c-0.4,0-0.8,0.1-1.1,0.3c-0.1,0-0.1,0.2-0.2,0.3c-0.2-0.1-0.4,0-0.7,0h-1.4c-0.6,0-1.1,0.2-1.3,0.7c0,0,0-0.1,0,0
			c-0.1-0.1-0.2-0.3-0.4-0.4c-0.4-0.3-1-0.5-1.6-0.5c-0.6,0-1.1,0.1-1.6,0.3c-0.4,0.2-0.8,0.4-1.2,0.7c-0.1-0.2-0.3-0.4-0.5-0.5
			c-0.2-0.2-0.5-0.3-0.8-0.3c0,0,0,0,0,0c-0.3-0.5-0.7-0.8-1.2-1c-0.1,0-0.2,0-0.4-0.1c-0.1-0.6-0.2-1.2-0.5-1.7
			c-0.4-0.7-0.9-1.3-1.5-1.8c-0.6-0.5-1.3-0.8-2.1-1.1c-0.8-0.3-1.6-0.4-2.4-0.4c-1.1,0-2.2,0.2-3.2,0.7c-1,0.5-1.8,1.2-2.4,2
			c-0.2,0.3-0.3,0.5-0.4,0.8c-0.1,0.2-0.2,0.4-0.2,0.6c-0.1,0.5-0.1,1,0.1,1.5c0.2,0.5,0.4,0.9,0.8,1.2c0.4,0.3,0.8,0.5,1.3,0.6
			c-0.2,0.6-0.4,1.3-0.6,2.1c-0.2,0.8-0.4,1.5-0.5,2c0,0,0,0-0.1,0c-0.5-0.4-1.1-0.7-1.8-0.7c-0.1,0-0.1,0-0.2,0
			c-0.7,0.1-1.4,0.4-1.9,0.9c0,0,0,0-0.1,0.1c-0.4,0.5-0.7,1-0.7,1.6c0,0-0.1,0.1-0.1,0.1v0.1c0,0.3,0.1,0.6,0.2,1
			c0.1,0.5,0.4,0.9,0.8,1.3c0.3,0.4,0.8,0.8,1.4,1c0.6,0.3,1.3,0.4,2.1,0.4c1,0,1.8-0.3,2.6-0.9c0.6-0.5,1.1-1.1,1.6-1.8
			c0.4-0.7,0.7-1.4,1-2.2c0.1-0.2,0.1-0.4,0.2-0.6c0.1,0,0.2,0,0.3,0c0.2,0,0.4,0,0.6,0c0.7,0,1.4-0.1,2.1-0.4
			c0.2-0.1,0.4-0.2,0.6-0.3c0.1,0.2,0.2,0.3,0.4,0.4c0.2,0.1,0.4,0.2,0.6,0.3c0,0,0,0,0,0.1c0.1,0.5,0.4,1,0.7,1.3
			c0.3,0.3,0.8,0.5,1.3,0.6c0.1,0,0.3,0,0.4,0c0.3,0,0.6-0.1,0.9-0.1c0.4-0.1,0.7-0.3,1.1-0.6c0.1,0.1,0.2,0.2,0.4,0.3
			c0.5,0.3,1,0.4,1.5,0.4c0.7,0,1.4-0.1,2-0.5c0.3,0.4,0.7,0.8,1.2,0.8h1.2c0.2,0,0.5-0.1,0.7-0.1c0.2,0.1,0.4,0.1,0.7,0.1H67
			c0.4,0,0.7-0.2,1-0.5c0.3,0.2,0.7,0.3,1.3,0.3c0.7,0,1.4-0.2,2-0.6c0.1,0,0.1-0.1,0.2-0.1c0.1,0.1,0.3,0.2,0.4,0.3
			c0.5,0.3,1,0.4,1.5,0.4c0.8,0,1.6-0.3,2.2-0.8c0.3-0.2,0.6-0.5,0.8-0.8c0.2,0,0.5-0.1,0.7-0.2c0.6-0.2,1-0.6,1.3-1
			c0.3-0.4,0.4-0.8,0.4-1.2C78.8,9.4,78.6,8.9,78.1,8.5z"/>
	</g>
	<g>
		<path fill="#FFFFFF" d="M8.3,9.2C7.5,9,6.9,9.1,6.3,9.3c-0.6,0.2-1,0.5-1.4,0.9c-0.4,0.4-0.6,0.8-0.8,1.3c-0.2,0.5-0.3,1-0.3,1.4
			c0,0.5,0.1,0.9,0.3,1.3c0.2,0.4,0.5,0.6,0.8,0.8c0.3,0.1,0.6,0.1,0.9,0.1c0.4,0,0.7-0.1,1.1-0.3c0.4-0.2,0.7-0.4,1-0.6
			c0.3-0.2,0.6-0.5,0.7-0.8c0,0-0.1-0.1-0.1-0.1c-0.1,0-0.1-0.1-0.1-0.1C8.1,12.9,8,12.7,8,12.3c0-0.3,0.1-0.6,0.3-0.9
			C8.5,11.2,8.8,11,9.1,11c0.3,0,0.6,0.1,0.9,0.3c0.2,0.2,0.3,0.4,0.3,0.6c0,0.2,0,0.5-0.1,0.7c-0.1,0.3-0.2,0.5-0.4,0.8
			c-0.2,0.3-0.4,0.6-0.7,0.8c-0.3,0.3-0.7,0.6-1.1,0.9c-0.4,0.3-0.8,0.5-1.3,0.6c-0.4,0.2-0.9,0.3-1.3,0.3c-0.4,0.1-0.8,0-1.2,0
			c-0.7-0.2-1.2-0.4-1.7-0.8s-0.7-0.8-0.9-1.3c-0.2-0.5-0.2-1-0.2-1.6c0.1-0.6,0.2-1.1,0.5-1.6c0.3-0.5,0.7-1,1.2-1.4
			C3.7,8.8,4.3,8.5,5,8.3C4.7,8,4.5,7.7,4.4,7.3C4.2,6.9,4.2,6.5,4.2,6c0-0.4,0.1-0.9,0.3-1.3c0.2-0.4,0.4-0.9,0.8-1.3
			C5.6,3,6,2.6,6.5,2.3C6.9,2,7.4,1.8,7.9,1.7c0.5-0.1,1-0.2,1.5-0.2c0.5,0,1,0.2,1.5,0.4c0.5,0.3,0.9,0.6,1.3,0.9
			c0.3,0.4,0.6,0.7,0.7,1.1C12.9,4.3,13,4.7,13,5c0,0.4-0.1,0.7-0.3,0.9c-0.2,0.3-0.5,0.4-0.8,0.4c-0.4,0-0.7-0.1-0.9-0.3
			c-0.3-0.2-0.4-0.5-0.4-0.9c0-0.3,0.1-0.6,0.3-0.9C10.9,4.2,11,4.1,11.1,4c0.1-0.1,0.3-0.1,0.4-0.1c-0.2-0.4-0.5-0.7-0.8-0.9
			c-0.3-0.2-0.7-0.3-1-0.3c-0.4,0-0.7,0.1-1,0.3C8.3,3.2,8,3.5,7.7,3.7C7.4,4,7.1,4.3,6.9,4.7C6.7,5,6.5,5.3,6.4,5.7
			C6.3,6,6.3,6.4,6.3,6.7c0,0.3,0.1,0.6,0.2,0.8c0.1,0.2,0.4,0.4,0.6,0.6c0.4,0,0.8,0.1,1.2,0.2c0.2,0,0.3,0.1,0.4,0.2
			C8.9,8.6,9,8.7,9,8.8C9,8.9,8.9,9,8.8,9.1C8.7,9.2,8.5,9.2,8.3,9.2z"/>
		<path fill="#FFFFFF" d="M11.6,9.2c0.1-0.3,0.2-0.5,0.3-0.7C12,8.3,12,8.2,12.1,8c0.1-0.2,0.1-0.3,0.2-0.5h1.4
			c-0.1,0.2-0.1,0.3-0.2,0.5c-0.1,0.1-0.1,0.3-0.2,0.5c-0.1,0.2-0.1,0.3-0.2,0.5c-0.3,1-0.5,1.7-0.6,2.1c0,0.4,0.1,0.6,0.4,0.6
			c0.2,0,0.4-0.1,0.6-0.3c0.2-0.2,0.3-0.5,0.5-0.8c0,0-0.1-0.1-0.1-0.1c0,0-0.1-0.1-0.1-0.1c-0.1-0.2-0.2-0.4-0.2-0.8
			c0-0.3,0.1-0.6,0.2-1C14,8.2,14.2,8,14.4,7.8c0.2-0.2,0.4-0.3,0.7-0.2c0.2,0.1,0.3,0.2,0.4,0.4c0,0.2,0,0.4,0,0.7
			c-0.1,0.3-0.1,0.6-0.2,0.8c-0.1,0.3-0.2,0.5-0.3,0.7c0.1,0.1,0.2,0.1,0.4,0.1c0.1,0,0.3-0.1,0.5-0.3c0.1-0.2,0.3-0.2,0.4-0.3
			c0.1,0,0.2,0,0.2,0c0.1,0,0.1,0.1,0.1,0.2c0,0.1,0,0.2-0.1,0.3c-0.2,0.2-0.4,0.4-0.7,0.5c-0.3,0.1-0.6,0.1-0.9,0
			c-0.1,0.2-0.2,0.4-0.4,0.6c-0.1,0.2-0.3,0.4-0.5,0.5c-0.2,0.2-0.4,0.3-0.6,0.4c-0.2,0.1-0.4,0.2-0.7,0.2c-0.4,0-0.7-0.1-0.9-0.3
			c-0.2-0.2-0.3-0.4-0.4-0.7c-0.1-0.3-0.1-0.7,0-1.1C11.3,10.1,11.4,9.7,11.6,9.2z"/>
		<path fill="#FFFFFF" d="M20,10.1c0.1-0.1,0.2-0.2,0.3-0.2c0.1,0,0.2-0.1,0.3,0c0.1,0,0.1,0.1,0.1,0.2c0,0.1,0,0.2-0.1,0.4
			c-0.1,0.2-0.3,0.4-0.5,0.6c-0.2,0.3-0.5,0.5-0.8,0.8c-0.3,0.3-0.6,0.5-1,0.7c-0.4,0.2-0.7,0.2-1.1,0.2c-0.4,0-0.7-0.2-0.9-0.4
			c-0.2-0.3-0.4-0.6-0.5-0.9c-0.1-0.4-0.1-0.8,0-1.2c0.1-0.4,0.2-0.8,0.4-1.2C16.4,8.5,16.6,8.2,17,8c0.4-0.2,0.8-0.4,1.3-0.4
			c0.5,0,0.8,0.2,1,0.5c0.2,0.3,0.3,0.6,0.2,1c-0.1,0.4-0.2,0.7-0.5,1c-0.3,0.3-0.7,0.5-1.3,0.5c-0.1,0-0.2,0-0.2,0
			c-0.1,0-0.1,0-0.2-0.1c-0.1,0-0.1-0.1-0.2-0.1c0,0.1,0,0.3,0,0.4c0,0.1,0.1,0.3,0.1,0.4c0.1,0.1,0.2,0.2,0.3,0.3
			c0.1,0.1,0.2,0.1,0.4,0.1c0.2,0,0.4,0,0.6-0.1c0.2-0.1,0.4-0.2,0.6-0.3c0.2-0.1,0.4-0.3,0.5-0.5C19.7,10.4,19.9,10.2,20,10.1z
			 M18.5,8.4c-0.2-0.1-0.3-0.1-0.5-0.1c-0.2,0.1-0.3,0.2-0.4,0.4c-0.1,0.2-0.2,0.4-0.3,0.6c-0.1,0.2-0.1,0.4-0.2,0.5
			c0.2,0.1,0.4,0.1,0.6,0c0.2-0.1,0.4-0.2,0.6-0.4c0.2-0.2,0.3-0.4,0.3-0.5C18.7,8.6,18.7,8.5,18.5,8.4z"/>
		<path fill="#FFFFFF" d="M20,10.1c0.2-0.3,0.4-0.5,0.6-0.8c0.2-0.3,0.4-0.6,0.5-0.8c0.2-0.3,0.3-0.6,0.5-0.9H23
			c-0.1,0.2-0.2,0.6-0.3,1.1c-0.2,0.5-0.4,1-0.6,1.6c0.3-0.4,0.5-0.7,0.8-1.1c0.3-0.4,0.6-0.7,0.9-1c0.3-0.3,0.6-0.5,0.9-0.6
			c0.3-0.1,0.5-0.2,0.8-0.1c0.2,0.1,0.2,0.2,0.2,0.4c0,0.2,0,0.5-0.1,0.8c-0.1,0.3-0.2,0.6-0.3,0.9c-0.1,0.3-0.2,0.6-0.3,0.9
			c-0.1,0.3-0.2,0.5-0.2,0.7c0,0.2,0,0.3,0,0.3c0.1,0,0.2,0,0.4-0.1c0.1-0.1,0.3-0.2,0.4-0.3c0.1-0.1,0.3-0.3,0.4-0.4
			c0.2-0.2,0.3-0.3,0.5-0.4c0.2-0.1,0.3-0.2,0.4-0.3c0.1,0,0.2,0,0.2,0c0.1,0,0.1,0.1,0.1,0.2c0,0.1-0.1,0.2-0.1,0.3
			c-0.3,0.4-0.7,0.8-1,1.1c-0.3,0.3-0.6,0.6-1,0.8c-0.4,0.2-0.8,0.4-1.2,0.4c-0.3,0-0.5-0.1-0.6-0.2c-0.1-0.2-0.2-0.4-0.1-0.6
			c0-0.2,0.1-0.5,0.2-0.8c0.1-0.3,0.2-0.6,0.3-0.8c0.1-0.2,0.2-0.5,0.2-0.6c0.1-0.2,0.1-0.2,0-0.2c-0.1,0-0.2,0.1-0.3,0.2
			C23.3,9.6,23.2,9.8,23,10c-0.2,0.2-0.4,0.5-0.6,0.8c-0.2,0.3-0.4,0.5-0.6,0.8c-0.2,0.2-0.3,0.5-0.4,0.6c-0.1,0.2-0.2,0.3-0.2,0.3
			v0H20c0.1-0.3,0.3-0.7,0.5-1.3c0.2-0.5,0.3-1,0.5-1.6l-0.4,0.5c-0.1,0.2-0.3,0.3-0.4,0.3c-0.1,0-0.2,0-0.3,0
			c-0.1,0-0.1-0.1-0.1-0.2C19.9,10.3,19.9,10.2,20,10.1z"/>
		<path fill="#FFFFFF" d="M37.6,11.2c-0.2,0.2-0.3,0.3-0.5,0.5c-0.2,0.2-0.4,0.3-0.6,0.5c-0.2,0.1-0.4,0.3-0.6,0.3
			c-0.2,0.1-0.4,0.1-0.6,0.1c-0.3,0-0.5-0.1-0.6-0.3c-0.4,0.6-0.9,1-1.3,1.2c-0.4,0.2-1,0.2-1.6,0c-0.5-0.1-1-0.3-1.3-0.6
			c-0.3-0.3-0.6-0.6-0.7-1c-0.2-0.4-0.2-0.8-0.2-1.2c0-0.4,0.1-0.8,0.4-1.2c0.2-0.4,0.5-0.7,0.9-1c0.4-0.3,0.8-0.5,1.4-0.6
			c-0.3-0.2-0.5-0.5-0.6-0.7c-0.1-0.3-0.2-0.6-0.2-0.9c0-0.3,0-0.7,0.2-1c0.1-0.4,0.3-0.7,0.5-1c0.3-0.3,0.5-0.6,0.9-0.8
			c0.3-0.2,0.7-0.4,1-0.5c0.4-0.1,0.7-0.1,1.1-0.1c0.4,0,0.7,0.1,1.1,0.3c0.4,0.2,0.7,0.4,1,0.7c0.3,0.3,0.5,0.5,0.6,0.8
			c0.1,0.3,0.2,0.6,0.2,0.8c0,0.3-0.1,0.5-0.2,0.7c-0.1,0.2-0.3,0.3-0.6,0.3c-0.3,0-0.5-0.1-0.7-0.2c-0.2-0.2-0.3-0.4-0.4-0.6
			c0-0.3,0-0.5,0.2-0.7c0.1-0.2,0.3-0.3,0.6-0.3c-0.1-0.2-0.2-0.3-0.3-0.4c-0.1-0.1-0.2-0.2-0.4-0.3c-0.3-0.1-0.5-0.2-0.8-0.2
			c-0.3,0-0.5,0.1-0.8,0.2c-0.2,0.1-0.5,0.3-0.7,0.5c-0.2,0.2-0.4,0.4-0.5,0.7c-0.2,0.3-0.3,0.6-0.4,0.9c-0.1,0.3-0.1,0.6,0,0.8
			C32.9,7,33,7.2,33.2,7.4c0.2,0.2,0.4,0.3,0.8,0.3h5.3L39,8.2h-2l-0.7,1.9c-0.1,0.3-0.2,0.6-0.3,0.8c-0.1,0.2-0.1,0.4,0,0.4
			c0.2,0,0.4-0.1,0.7-0.3c0.3-0.2,0.5-0.5,0.8-0.7V11.2z M32.1,12.6c0.3,0.1,0.5,0.1,0.8,0.1c0.2,0,0.4-0.1,0.6-0.3
			c0.2-0.2,0.4-0.4,0.6-0.7c0.2-0.3,0.4-0.6,0.6-1.1c0.1-0.2,0.1-0.3,0.2-0.5c0.2-0.5,0.3-0.9,0.5-1.2c0.1-0.3,0.2-0.6,0.3-0.7h-1.2
			c-0.6,0-1.1,0.1-1.5,0.3c-0.4,0.2-0.8,0.4-1,0.7c-0.3,0.3-0.5,0.6-0.6,1c-0.1,0.4-0.2,0.7-0.2,1c0,0.3,0.1,0.6,0.2,0.9
			C31.6,12.4,31.9,12.6,32.1,12.6z"/>
		<path fill="#FFFFFF" d="M49.4,1.7c0.7,0,1.3,0.1,2,0.3C52,2.2,52.5,2.5,53,2.9c0.5,0.4,0.8,0.8,1.1,1.3c0.3,0.5,0.4,1.1,0.4,1.7
			c0,0.6-0.1,1.2-0.4,1.8c-0.2,0.6-0.6,1.1-1,1.5c-0.4,0.4-0.9,0.8-1.5,1c-0.6,0.2-1.2,0.3-1.9,0.3c-0.3,0-0.5-0.1-0.8-0.2
			c-0.3-0.1-0.5-0.2-0.7-0.3v0.1c-0.1,0.7-0.3,1.3-0.5,2c-0.2,0.7-0.5,1.3-0.8,1.9c-0.3,0.6-0.7,1-1.2,1.4c-0.5,0.4-1,0.6-1.6,0.6
			c-0.6,0-1.1-0.1-1.5-0.3c-0.4-0.2-0.7-0.4-0.9-0.6c-0.2-0.2-0.3-0.5-0.4-0.7c-0.1-0.3-0.1-0.5-0.1-0.6v-0.1c0-0.3,0.1-0.5,0.3-0.8
			c0.2-0.3,0.5-0.4,0.9-0.4c0.3,0,0.6,0.1,0.9,0.3c0.3,0.2,0.4,0.5,0.4,0.9c0,0.3-0.1,0.7-0.3,0.9c-0.1,0.1-0.2,0.2-0.3,0.2
			c0.1,0.1,0.2,0.1,0.3,0.1c0.1,0,0.2,0,0.3,0c0.3,0,0.5-0.1,0.7-0.3c0.2-0.2,0.5-0.5,0.7-0.8c0.2-0.4,0.4-0.9,0.6-1.5
			c0.2-0.6,0.4-1.4,0.6-2.3c0.3-1.6,0.9-2.9,1.6-3.7c0.7-0.9,1.7-1.5,2.8-1.8c0.1,0,0.2,0,0.3,0c0.1,0,0.1,0.1,0.2,0.2
			c0,0.1,0,0.2,0,0.3c-0.1,0.1-0.2,0.2-0.3,0.3c-0.7,0.3-1.2,0.8-1.5,1.5c-0.3,0.7-0.6,1.6-0.9,2.7c0.2,0.1,0.4,0.1,0.6,0.1
			c0.7,0,1.4-0.2,1.8-0.6c0.5-0.4,0.9-1,1.2-1.7c0.2-0.5,0.3-0.9,0.3-1.4c0-0.4,0-0.9-0.2-1.3c-0.1-0.4-0.3-0.7-0.6-1
			S50.9,3.1,50.4,3c-0.8-0.2-1.5-0.2-2.2,0c-0.7,0.2-1.3,0.5-1.7,0.9c0.1,0,0.2,0.1,0.3,0.2c0.3,0.2,0.4,0.5,0.4,0.9
			c0,0.3-0.1,0.6-0.3,0.9C46.6,6,46.4,6.2,46,6.2s-0.6-0.1-0.9-0.3c-0.2-0.2-0.3-0.4-0.4-0.6c-0.1-0.2-0.1-0.4,0-0.6
			c0-0.1,0.1-0.2,0.1-0.4C44.9,4.2,45,4,45.1,3.8c0.4-0.6,1-1.2,1.8-1.5C47.7,1.9,48.5,1.7,49.4,1.7z"/>
		<path fill="#FFFFFF" d="M54.2,10.1c0.2-0.3,0.4-0.6,0.6-0.8C54.9,9,55,8.8,55.1,8.6c-0.2-0.1-0.3-0.3-0.4-0.5
			c-0.1-0.2,0-0.4,0.2-0.7c0.1-0.3,0.3-0.4,0.5-0.6c0.2-0.1,0.4-0.2,0.5-0.1c0.1,0,0.2,0.1,0.3,0.3c0.1,0.2,0,0.4-0.1,0.8
			c0.2,0,0.4,0,0.5,0s0.2-0.1,0.4-0.1c0.1,0,0.1,0,0.2,0c0.1,0,0.2,0.1,0.2,0.1C57.5,7.9,57.6,8,57.6,8c0,0.1,0,0.2,0,0.3
			c-0.1,0.2-0.3,0.5-0.4,0.9c-0.1,0.4-0.3,0.7-0.4,1.1c-0.1,0.3-0.2,0.6-0.2,0.9c0,0.3,0,0.4,0.1,0.4c0.1,0,0.2-0.1,0.4-0.2
			c0.2-0.1,0.3-0.2,0.5-0.4c0.2-0.2,0.3-0.3,0.5-0.5c0.2-0.2,0.3-0.3,0.5-0.5c0.1-0.1,0.3-0.2,0.4-0.3c0.1,0,0.2,0,0.3,0
			c0.1,0,0.1,0.1,0.1,0.2c0,0.1-0.1,0.2-0.1,0.3c-0.3,0.3-0.5,0.7-0.8,0.9c-0.3,0.3-0.5,0.5-0.8,0.7c-0.3,0.2-0.6,0.4-1,0.5
			c-0.2,0.1-0.4,0.1-0.6,0c-0.2,0-0.4-0.1-0.5-0.2c-0.1-0.1-0.2-0.3-0.3-0.5c-0.1-0.2,0-0.5,0.1-0.8c0.1-0.3,0.2-0.5,0.3-0.8
			c0.1-0.3,0.2-0.5,0.4-0.7c0.1-0.2,0.2-0.4,0.3-0.5c0.1-0.1,0.1-0.2,0-0.2c-0.2,0.1-0.4,0.1-0.6,0.1c-0.1,0.2-0.3,0.5-0.4,0.8
			c-0.2,0.3-0.3,0.5-0.5,0.8c-0.1,0.2-0.3,0.3-0.4,0.3c-0.1,0-0.2,0-0.2,0c-0.1,0-0.1-0.1-0.1-0.2C54,10.3,54.1,10.2,54.2,10.1z"/>
		<path fill="#FFFFFF" d="M61.6,7.6c0.3,0,0.5,0.1,0.7,0.2c0.2,0.1,0.3,0.3,0.4,0.5c0.1,0.2,0.1,0.5,0.1,0.8c0,0.3-0.1,0.6-0.2,1
			l-0.1,0.3c0.3,0.1,0.6,0,0.8-0.3c0.1-0.1,0.3-0.2,0.4-0.3c0.1,0,0.2,0,0.2,0C64,9.8,64,9.9,64,10c0,0.1,0,0.2-0.1,0.3
			c-0.2,0.2-0.4,0.4-0.7,0.5c-0.3,0.1-0.6,0.2-0.9,0.1c-0.3,0.5-0.6,0.9-0.9,1.2c-0.4,0.3-0.8,0.5-1.2,0.5c-0.3,0-0.5-0.1-0.8-0.2
			c-0.2-0.1-0.4-0.3-0.5-0.5c-0.1-0.2-0.2-0.5-0.2-0.8c0-0.3,0-0.6,0.1-1c0.1-0.3,0.2-0.7,0.4-1c0.2-0.3,0.4-0.6,0.7-0.8
			c0.3-0.2,0.5-0.4,0.9-0.5C60.9,7.6,61.2,7.6,61.6,7.6z M61.4,10.5c-0.1-0.1-0.2-0.3-0.2-0.5c0-0.2,0-0.4,0.1-0.5
			c0.1-0.2,0.2-0.3,0.3-0.4c0.1-0.1,0.3-0.1,0.5-0.1c0-0.4-0.1-0.6-0.4-0.7c-0.2-0.1-0.5,0.1-0.8,0.4c-0.3,0.3-0.6,0.8-0.8,1.4
			c-0.2,0.4-0.3,0.8-0.3,1.2c0,0.3,0.1,0.6,0.2,0.6c0.3,0.1,0.5,0,0.8-0.2c0.3-0.3,0.5-0.6,0.7-1L61.4,10.5z"/>
		<path fill="#FFFFFF" d="M66.7,10.1c0.1-0.2,0.2-0.4,0.2-0.6c0.1-0.2,0.1-0.2,0-0.2c-0.1,0-0.2,0.1-0.3,0.2
			c-0.1,0.2-0.3,0.3-0.5,0.6c-0.2,0.2-0.4,0.5-0.5,0.8c-0.2,0.3-0.4,0.5-0.5,0.8c-0.2,0.2-0.3,0.5-0.4,0.6c-0.1,0.2-0.2,0.3-0.2,0.3
			v0h-1.2c0.2-0.3,0.3-0.8,0.5-1.3c0.2-0.5,0.3-1.1,0.5-1.6c-0.1,0.1-0.1,0.2-0.2,0.3c-0.1,0.1-0.1,0.2-0.2,0.3
			c-0.1,0.2-0.3,0.3-0.4,0.3c-0.1,0-0.2,0-0.3,0c-0.1,0-0.1-0.1-0.1-0.2c0-0.1,0.1-0.2,0.1-0.3c0.2-0.3,0.4-0.5,0.6-0.8
			c0.2-0.3,0.4-0.6,0.5-0.8c0.2-0.3,0.3-0.6,0.5-0.9h1.4c0,0.1-0.1,0.2-0.1,0.4c-0.1,0.2-0.1,0.4-0.2,0.6c-0.1,0.2-0.2,0.4-0.2,0.7
			c-0.1,0.3-0.2,0.5-0.3,0.8c0.2-0.4,0.5-0.7,0.8-1.1c0.3-0.3,0.5-0.7,0.8-0.9c0.3-0.3,0.5-0.5,0.8-0.6c0.3-0.1,0.5-0.2,0.7-0.1
			c0.2,0.1,0.3,0.3,0.2,0.6c0,0.3-0.1,0.6-0.2,1c0.2-0.3,0.4-0.5,0.6-0.7c0.2-0.2,0.4-0.4,0.6-0.6c0.2-0.2,0.4-0.3,0.6-0.3
			c0.2-0.1,0.4-0.1,0.5,0c0.2,0.1,0.2,0.2,0.2,0.4c0,0.2,0,0.5-0.1,0.8c-0.1,0.3-0.2,0.6-0.3,0.9c-0.1,0.3-0.2,0.6-0.3,0.9
			c-0.1,0.3-0.2,0.5-0.2,0.7c0,0.2,0,0.3,0,0.3c0.1,0,0.2,0,0.4-0.1c0.1-0.1,0.3-0.2,0.4-0.3c0.2-0.1,0.3-0.3,0.5-0.4
			c0.2-0.2,0.3-0.3,0.5-0.4c0.1-0.1,0.3-0.2,0.4-0.3c0.1,0,0.2,0,0.3,0c0.1,0,0.1,0.1,0.1,0.2c0,0.1-0.1,0.2-0.1,0.3
			c-0.3,0.4-0.7,0.8-1,1.1c-0.3,0.3-0.6,0.6-1,0.8c-0.4,0.2-0.8,0.4-1.2,0.4c-0.3,0-0.5-0.1-0.6-0.2c-0.1-0.2-0.1-0.4-0.1-0.6
			c0-0.2,0.1-0.5,0.2-0.8c0.1-0.3,0.2-0.6,0.3-0.8c0.1-0.2,0.2-0.5,0.2-0.6c0.1-0.2,0.1-0.2,0-0.2c0,0-0.1,0-0.2,0.1
			c-0.1,0.1-0.2,0.2-0.3,0.4c-0.1,0.2-0.2,0.3-0.4,0.5c-0.1,0.2-0.3,0.4-0.4,0.6c-0.3,0.5-0.7,1-1,1.7h-1.2c0.1-0.4,0.3-0.8,0.4-1.1
			c0.1-0.3,0.2-0.6,0.3-0.8C66.6,10.4,66.7,10.2,66.7,10.1z"/>
		<path fill="#FFFFFF" d="M74.9,7.6c0.3,0,0.5,0.1,0.7,0.2c0.2,0.1,0.3,0.3,0.4,0.5c0.1,0.2,0.1,0.5,0.1,0.8c0,0.3-0.1,0.6-0.2,1
			l-0.1,0.3c0.3,0.1,0.6,0,0.8-0.3c0.1-0.1,0.3-0.2,0.4-0.3c0.1,0,0.2,0,0.2,0c0.1,0,0.1,0.1,0.1,0.2c0,0.1,0,0.2-0.1,0.3
			c-0.2,0.2-0.4,0.4-0.7,0.5c-0.3,0.1-0.6,0.2-0.9,0.1c-0.3,0.5-0.6,0.9-0.9,1.2c-0.4,0.3-0.8,0.5-1.2,0.5c-0.3,0-0.5-0.1-0.8-0.2
			c-0.2-0.1-0.4-0.3-0.5-0.5c-0.1-0.2-0.2-0.5-0.2-0.8c0-0.3,0-0.6,0.1-1c0.1-0.3,0.2-0.7,0.4-1c0.2-0.3,0.4-0.6,0.7-0.8
			c0.3-0.2,0.5-0.4,0.9-0.5C74.2,7.6,74.5,7.6,74.9,7.6z M74.7,10.5c-0.1-0.1-0.2-0.3-0.2-0.5c0-0.2,0-0.4,0.1-0.5
			c0.1-0.2,0.2-0.3,0.3-0.4c0.1-0.1,0.3-0.1,0.5-0.1c0-0.4-0.1-0.6-0.4-0.7c-0.2-0.1-0.5,0.1-0.8,0.4c-0.3,0.3-0.6,0.8-0.8,1.4
			c-0.2,0.4-0.3,0.8-0.3,1.2c0,0.3,0.1,0.6,0.2,0.6c0.3,0.1,0.5,0,0.8-0.2c0.3-0.3,0.5-0.6,0.7-1L74.7,10.5z"/>
	</g>
</g>
</svg>
