<?xml version="1.0" encoding="utf-8"?>
<!-- Generator: Adobe Illustrator 17.1.0, SVG Export Plug-In . SVG Version: 6.00 Build 0)  -->
<!DOCTYPE svg PUBLIC "-//W3C//DTD SVG 1.1//EN" "http://www.w3.org/Graphics/SVG/1.1/DTD/svg11.dtd" []>
<svg xmlns="http://www.w3.org/2000/svg" xmlns:xlink="http://www.w3.org/1999/xlink" x="0px" y="0px" viewBox="0 0 46.1 21.5"
	 enable-background="new 0 0 46.1 21.5" xml:space="preserve">
<metadata>
	<sfw>
		<slices></slices>
		<sliceSourceBounds  width="46.1" height="21.5" y="-290.8" x="457.6" bottomLeftOrigin="true"></sliceSourceBounds>
	</sfw>
</metadata>
<g>
	<g>
		<g>
			<path fill="#99CC33" d="M45.6,9.9c-0.2-0.1-0.4-0.2-0.7-0.2c-0.2,0-0.4,0-0.6,0.1c-0.2,0.1-0.5,0.2-0.7,0.5L44,8.9
				c0-0.1,0-0.2,0-0.3c0.1-0.1,0.1-0.1,0.2-0.2c0.4-0.4,0.6-1,0.6-1.6c0-0.6-0.3-1.1-0.7-1.5c-0.4-0.4-0.9-0.6-1.5-0.6l-0.1,0
				C42,4.8,41.4,5,41,5.4c-0.4,0.4-0.6,1-0.6,1.6c0,0.2,0,0.4,0.1,0.6c0,0,0,0.1-0.1,0.1c-0.1,0.2-0.2,0.6-0.4,1.1
				c-0.2,0.5-0.4,1.1-0.6,1.8c-0.1,0.1-0.2,0.2-0.3,0.3c0.1-0.2,0.1-0.3,0.2-0.5c0.2-0.4,0.3-0.8,0.4-1c0,0,0,0,0-0.1
				C40,8.9,40,8.6,39.9,8.3c-0.1-0.3-0.3-0.6-0.6-0.8c-0.2-0.1-0.4-0.2-0.7-0.3c-0.1,0-0.2,0-0.3,0c-0.1,0-0.2,0-0.3,0
				c0-0.1,0-0.1,0-0.2c-0.3-0.8-0.8-1-1.1-1.1c-0.1,0-0.2,0-0.3,0c-0.4,0-0.7,0.1-1.1,0.4c-0.4,0.3-0.7,0.6-1,1.1
				c-0.1,0.3-0.2,0.5-0.3,0.7c-0.3-0.4-0.9-0.9-2-0.9c0,0-0.1,0-0.1,0c-0.5,0-1,0.1-1.4,0.3c0.1-0.2,0.3-0.5,0.4-0.7
				c0.3-0.7,0.4-1.3,0.4-1.9c-0.1-0.7-0.5-1.3-1.2-1.6c-0.4-0.2-0.8-0.3-1.2-0.3c-0.5,0-1.1,0.2-1.6,0.5C27.3,3.7,27.2,3.8,27,4
				c-0.2-0.2-0.4-0.3-0.6-0.5c-0.4-0.2-0.8-0.3-1.2-0.3c-0.5,0-1.1,0.2-1.6,0.5C23,4.3,22.4,5.1,22,6.3c-0.2,0.4-0.3,0.9-0.5,1.4
				c-0.1,0.2-0.1,0.5-0.2,0.7c0-0.1-0.1-0.2-0.2-0.3c-0.2-0.2-0.5-0.4-0.8-0.4c0,0-1.8,0.1-1.8,0.1c-0.2,0-0.3,0-0.4,0.1
				c-0.3-0.1-0.6-0.2-0.9-0.2c-0.1,0-0.1,0-0.2,0c-0.4,0-0.8,0.1-1.1,0.2C15.4,8,15,8.3,14.7,8.5c0-0.2,0-0.4-0.1-0.6
				c-0.1-0.3-0.4-0.6-0.7-0.8C13.6,7.1,13.3,7,13.1,7c-0.1,0-0.2,0-0.3,0c0,0,0,0-0.1,0c-0.8,0.2-1.4,0.5-2,0.9
				c-0.5,0.4-1,0.9-1.4,1.5c-0.4,0.6-0.8,1.2-1.1,1.9c-0.2,0.5-0.4,0.9-0.6,1.4c0,0-0.1,0-0.1,0c-0.2,0-0.3,0-0.5-0.1
				c-0.4-0.1-0.5-0.3-0.5-0.4C6.4,12,6.3,11.5,6.3,11c0.1-0.6,0.2-1.2,0.5-1.8c0.3-0.7,0.6-1.3,0.9-2C8.1,6.7,8.5,6.1,9,5.5
				c0.5-0.6,1-1.1,1.6-1.5c0.5-0.4,1.1-0.7,1.7-0.8c0.2-0.1,0.4-0.1,0.6-0.1c-0.1,0.4-0.2,0.7-0.1,1.1C12.8,5,13.1,5.6,13.6,6
				c0.5,0.4,1,0.6,1.6,0.6c0.1,0,0.2,0,0.3,0c0.7-0.1,1.3-0.4,1.8-1C18.1,4.8,18,4,17.9,3.5c-0.2-0.6-0.5-1.1-0.9-1.6
				c-0.4-0.4-0.9-0.7-1.4-1c-0.5-0.3-0.9-0.5-1.4-0.6C13.5,0.1,12.8,0,12.1,0c-0.4,0-0.9,0-1.4,0.1C9.6,0.3,8.6,0.7,7.6,1.3
				c-1,0.5-1.9,1.2-2.7,2C4.1,4,3.5,4.8,3,5.6c-0.5,0.9-1,1.8-1.3,2.8c-0.3,1-0.5,2.1-0.4,3c0.1,1.1,0.5,2,1.2,2.8
				c0.7,0.8,1.8,1.3,3.2,1.6c0.2,0,0.4,0.1,0.5,0.1c0,0,0,0,0,0c-0.2,0.4-0.4,0.8-0.7,1.2c-0.1,0.1-0.2,0.3-0.3,0.4c0,0,0-0.1,0-0.1
				c-0.1-0.7-0.4-1.3-1-1.8c-0.5-0.4-1-0.6-1.6-0.6c-0.1,0-0.2,0-0.3,0c-0.7,0.1-1.3,0.4-1.8,0.9C0.2,16.4,0,17,0,17.6
				c0,0.3,0.1,0.7,0.2,1.1c0.1,0.5,0.4,1,0.8,1.4c0.4,0.4,0.9,0.8,1.6,1.1c0.6,0.2,1.3,0.4,2.1,0.4c0.1,0,0.2,0,0.3,0
				c1.3,0,2.5-0.4,3.3-1.1c0.8-0.6,1.5-1.4,2-2.3c0.5-0.9,0.9-1.8,1.2-2.8c0.2-0.9,0.5-1.7,0.7-2.6c-0.1,0.5-0.1,0.9,0,1.3
				c0.1,0.5,0.2,1,0.5,1.4c0.3,0.4,0.7,0.7,1.1,0.9c0.3,0.1,0.5,0.1,0.8,0.1c0.4,0,0.9-0.1,1.4-0.4c0.1-0.1,0.3-0.2,0.4-0.2
				c0.3,0.3,0.7,0.5,1.4,0.5c0,0,0.1,0,0.1,0c0.7,0,1.4-0.3,2-0.7c0,0,0.1-0.1,0.1-0.1c0.2,0.3,0.7,0.7,1.5,0.7c0,0,0.1,0,0.1,0
				c0.7,0,1.4-0.3,2-0.7c0,0,0.1-0.1,0.1-0.1c0.2,0.3,0.7,0.7,1.5,0.7c0,0,0.1,0,0.1,0c0.7,0,1.4-0.3,2-0.7c0.3-0.2,0.7-0.5,1-0.7
				c0.1,0.1,0.2,0.3,0.3,0.4c0.5,0.5,1.1,0.8,1.9,0.8c0.1,0,0.2,0,0.2,0c0.6,0,1.1-0.2,1.7-0.5c0.5-0.3,1-0.6,1.5-1.1
				c0.3-0.3,0.5-0.5,0.8-0.8c0,0.1,0,0.3,0.1,0.4c0.1,0.5,0.4,0.9,0.7,1.2c0.3,0.3,0.7,0.4,1.2,0.5c0.1,0,0.2,0,0.3,0
				c0.3,0,0.6-0.1,0.9-0.2c0.4-0.2,0.8-0.4,1.1-0.6c0.2,0.3,0.7,0.6,1.5,0.6c0,0,0.1,0,0.1,0c0.7,0,1.4-0.3,2.1-0.7
				c0.5-0.4,1-0.8,1.5-1.2c0.5-0.5,1-1.1,1.4-1.7c0.2-0.3,0.3-0.6,0.4-1C46.2,10.5,45.9,10.1,45.6,9.9z M13.1,10.3
				c0,0.1-0.1,0.1-0.1,0.2C13.1,10.4,13.1,10.4,13.1,10.3z"/>
			<path fill="#FFFFFF" d="M13.9,1.3c0.3,0.1,0.7,0.3,1.2,0.5C15.6,2,16,2.3,16.3,2.6c0.3,0.3,0.5,0.7,0.7,1.1
				c0.1,0.4,0,0.8-0.4,1.3c-0.3,0.3-0.7,0.5-1.1,0.6c-0.5,0.1-0.9-0.1-1.2-0.4c-0.3-0.3-0.5-0.7-0.6-1.1C13.6,3.7,13.7,3.3,14,3
				c0.1-0.1,0.3-0.3,0.5-0.4l-0.4-0.2c-0.7-0.3-1.4-0.3-2.1-0.1c-0.7,0.2-1.4,0.5-2,1c-0.6,0.5-1.2,1-1.7,1.6
				c-0.5,0.6-1,1.2-1.3,1.8c-0.4,0.7-0.7,1.4-1,2.1C5.6,9.6,5.4,10.3,5.3,11c-0.1,0.7,0,1.2,0.2,1.7c0.2,0.5,0.6,0.8,1.2,1
				c0.4,0.1,0.9,0.1,1.5,0c0.3-0.6,0.5-1.3,0.8-1.9c0.3-0.6,0.6-1.2,1-1.7c0.4-0.5,0.8-1,1.2-1.3c0.5-0.4,1-0.6,1.6-0.7
				c0.2,0,0.3,0,0.4,0.1c0.1,0.1,0.2,0.1,0.3,0.3c0,0.1,0,0.2,0,0.4c-0.1,0.1-0.2,0.2-0.4,0.3c-0.5,0.2-0.9,0.6-1.1,1.2
				c-0.3,0.6-0.5,1.4-0.8,2.2c-0.2,0.8-0.5,1.7-0.7,2.7c-0.3,0.9-0.6,1.8-1.1,2.6c-0.4,0.8-1,1.4-1.7,2C7,20.1,6.1,20.4,5,20.5
				c-0.8,0-1.5-0.1-2-0.3C2.4,20,2,19.7,1.8,19.4c-0.3-0.3-0.5-0.6-0.6-1C1.1,18,1,17.8,1,17.5c0-0.4,0.1-0.7,0.4-1
				C1.7,16.2,2,16,2.5,15.9c0.4,0,0.8,0.1,1.2,0.4c0.4,0.3,0.6,0.7,0.6,1.1c0,0.4-0.1,0.9-0.4,1.2c-0.1,0.1-0.2,0.2-0.4,0.3
				C3.8,19,4.1,19.1,4.4,19c0.4-0.1,0.8-0.2,1.1-0.5c0.3-0.3,0.7-0.6,0.9-1c0.3-0.4,0.5-0.8,0.8-1.3c0.2-0.5,0.5-1,0.7-1.6
				c-0.3,0-0.7,0.1-1,0.1c-0.3,0-0.6,0-0.9-0.1c-1.2-0.2-2.1-0.6-2.6-1.2c-0.5-0.6-0.9-1.4-0.9-2.2c-0.1-0.8,0-1.7,0.3-2.6
				C3,7.7,3.4,6.9,3.9,6.1c0.4-0.7,1-1.5,1.8-2.2c0.7-0.7,1.5-1.3,2.4-1.8c0.9-0.5,1.9-0.8,2.9-1C11.9,0.9,12.9,1,13.9,1.3z"/>
			<path fill="#FFFFFF" d="M17,8.7c0.6,0,1,0.3,1.3,0.7c0-0.1,0.1-0.2,0.1-0.3c0-0.1,0-0.1,0.1-0.2l0.1-0.2l1.8-0.1
				c-0.1,0.5-0.3,1-0.4,1.4c-0.1,0.4-0.2,0.8-0.3,1.2c-0.1,0.4-0.2,0.7-0.3,0.9c-0.1,0.4-0.2,0.8-0.3,1.1c-0.1,0.3-0.1,0.5,0,0.5
				c0.2,0,0.3-0.1,0.5-0.2c0.2-0.1,0.4-0.2,0.5-0.4c0.2-0.2,0.4-0.4,0.6-0.6c0.2-0.2,0.4-0.4,0.6-0.6c0.2-0.2,0.4-0.3,0.5-0.4
				c0.1-0.1,0.3-0.1,0.3,0c0.1,0,0.1,0.1,0.1,0.2c0,0.1-0.1,0.3-0.2,0.4c-0.4,0.6-0.8,1.1-1.3,1.6c-0.4,0.4-0.8,0.8-1.3,1.1
				c-0.5,0.3-1,0.5-1.5,0.5c-0.5,0-0.7-0.1-0.9-0.4c-0.1-0.3-0.2-0.6-0.1-1c-0.4,0.5-0.9,0.9-1.4,1.2c-0.5,0.3-0.9,0.3-1.3,0.2
				c-0.3-0.1-0.5-0.3-0.7-0.5c-0.2-0.3-0.3-0.6-0.3-0.9c0-0.4,0-0.8,0.1-1.2c0.1-0.4,0.2-0.9,0.5-1.4c0.2-0.4,0.4-0.7,0.7-1.1
				c0.3-0.3,0.5-0.6,0.8-0.9c0.3-0.2,0.6-0.4,0.9-0.6C16.4,8.7,16.7,8.6,17,8.7z M17.5,11.5c0.3-0.6,0.3-1.1,0.2-1.4
				c-0.1-0.3-0.4-0.5-0.7-0.4c-0.3,0-0.6,0.2-0.8,0.6c-0.3,0.3-0.5,0.7-0.7,1.3c-0.1,0.3-0.2,0.6-0.3,0.9C15.1,12.7,15,13,15,13.3
				c0,0.3-0.1,0.5-0.1,0.6c0,0.2,0.1,0.3,0.2,0.3c0.2,0.1,0.4,0,0.6-0.1c0.2-0.2,0.5-0.4,0.7-0.7c0.2-0.3,0.4-0.6,0.6-0.9
				C17.3,12.1,17.4,11.8,17.5,11.5z"/>
			<path fill="#FFFFFF" d="M23.1,12c-0.1,0.4-0.2,0.8-0.3,1.1c-0.1,0.3-0.1,0.5,0,0.5c0.1,0,0.3-0.1,0.5-0.2
				c0.2-0.1,0.4-0.2,0.6-0.4c0.2-0.2,0.4-0.4,0.6-0.6c0.2-0.2,0.4-0.4,0.6-0.6c0.2-0.2,0.4-0.3,0.5-0.4c0.1-0.1,0.3-0.1,0.3,0
				c0.1,0,0.1,0.1,0.1,0.2c0,0.1-0.1,0.3-0.2,0.4c-0.4,0.6-0.8,1.1-1.3,1.6c-0.4,0.4-0.8,0.8-1.3,1.1c-0.5,0.3-1,0.5-1.5,0.5
				c-0.4,0-0.6-0.1-0.8-0.3c-0.1-0.2-0.2-0.5-0.2-0.8c0-0.3,0.1-0.6,0.2-1c0.1-0.4,0.2-0.7,0.3-1.1c0.1-0.4,0.2-0.8,0.4-1.3
				c0.1-0.5,0.3-0.9,0.4-1.4c0.2-0.5,0.3-1,0.5-1.4c0.1-0.5,0.3-0.9,0.5-1.4c0.3-1,0.8-1.6,1.4-2c0.6-0.4,1.1-0.4,1.7-0.2
				c0.4,0.2,0.6,0.5,0.6,0.8c0,0.4,0,0.8-0.3,1.4c-0.2,0.5-0.6,1.1-1.1,1.8c-0.5,0.7-1.1,1.5-1.8,2.3c-0.1,0.2-0.1,0.5-0.2,0.7
				C23.2,11.7,23.2,11.8,23.1,12z M25.6,5.5c-0.1-0.1-0.2,0-0.4,0.1c-0.1,0.1-0.2,0.3-0.4,0.6c-0.1,0.3-0.2,0.6-0.4,1
				c-0.1,0.4-0.3,0.9-0.4,1.3c0.2-0.4,0.5-0.7,0.7-1.1c0.2-0.4,0.4-0.7,0.6-1c0.1-0.3,0.3-0.5,0.3-0.7C25.8,5.6,25.7,5.5,25.6,5.5z"
				/>
			<path fill="#FFFFFF" d="M26.9,11.8c-0.1,0.4-0.2,0.8-0.3,1.1c-0.1,0.3-0.1,0.5,0,0.5c0.2,0,0.3-0.1,0.5-0.2
				c0.2-0.1,0.4-0.2,0.6-0.4c0.2-0.2,0.4-0.4,0.6-0.6c0.2-0.2,0.4-0.4,0.6-0.6c0.2-0.2,0.4-0.3,0.5-0.4c0.1-0.1,0.3-0.1,0.3,0
				c0.1,0,0.1,0.1,0.1,0.2c0,0.1-0.1,0.3-0.2,0.4c-0.4,0.6-0.8,1.1-1.3,1.6c-0.4,0.4-0.8,0.8-1.3,1.1c-0.5,0.3-1,0.5-1.5,0.5
				c-0.4,0-0.6-0.1-0.8-0.3c-0.1-0.2-0.2-0.5-0.2-0.8c0-0.3,0.1-0.6,0.2-1c0.1-0.4,0.2-0.7,0.3-1.1c0.1-0.4,0.2-0.8,0.4-1.3
				c0.1-0.5,0.3-0.9,0.4-1.4c0.2-0.5,0.3-1,0.5-1.4c0.1-0.5,0.3-0.9,0.5-1.4c0.3-1,0.8-1.6,1.4-2C28.6,4,29.2,4,29.8,4.3
				c0.4,0.2,0.6,0.5,0.6,0.8c0,0.4,0,0.8-0.3,1.4C29.9,7,29.5,7.6,29,8.3C28.5,9,28,9.8,27.3,10.6c-0.1,0.2-0.1,0.5-0.2,0.7
				C27,11.5,27,11.7,26.9,11.8z M29.5,5.3c-0.1-0.1-0.2,0-0.4,0.1c-0.1,0.1-0.2,0.3-0.4,0.6c-0.1,0.3-0.2,0.6-0.4,1
				c-0.1,0.4-0.3,0.9-0.4,1.3c0.2-0.4,0.5-0.7,0.7-1.1c0.2-0.4,0.4-0.7,0.6-1c0.1-0.3,0.3-0.5,0.3-0.7C29.6,5.5,29.6,5.4,29.5,5.3z"
				/>
			<path fill="#FFFFFF" d="M34.5,11.5c0.1-0.2,0.3-0.3,0.4-0.3s0.3-0.1,0.4-0.1c0.1,0,0.1,0.1,0.2,0.2c0,0.1,0,0.3-0.2,0.5
				c-0.1,0.2-0.4,0.5-0.7,0.9c-0.3,0.4-0.7,0.7-1.1,1.1c-0.4,0.4-0.8,0.7-1.3,0.9c-0.5,0.3-0.9,0.4-1.4,0.3c-0.5,0-0.9-0.2-1.3-0.5
				c-0.3-0.3-0.5-0.7-0.7-1.2c-0.1-0.5-0.2-1-0.1-1.6c0.1-0.6,0.2-1.1,0.5-1.6c0.3-0.5,0.6-0.9,1.1-1.2c0.5-0.3,1-0.5,1.7-0.5
				c0.6,0,1,0.2,1.3,0.6c0.3,0.4,0.4,0.8,0.3,1.3c-0.1,0.5-0.3,0.9-0.7,1.3c-0.4,0.4-0.9,0.6-1.7,0.7c-0.1,0-0.2,0-0.3,0
				c-0.1,0-0.2,0-0.3-0.1c-0.1,0-0.2-0.1-0.3-0.1c0,0.2,0,0.3,0,0.5c0,0.2,0.1,0.3,0.2,0.5c0.1,0.1,0.2,0.3,0.4,0.3
				c0.2,0.1,0.3,0.1,0.5,0.1c0.3,0,0.5-0.1,0.8-0.2c0.3-0.1,0.5-0.3,0.7-0.5c0.2-0.2,0.5-0.4,0.7-0.6C34.1,11.9,34.3,11.7,34.5,11.5
				z M32.5,9.3c-0.2-0.2-0.5-0.2-0.7-0.1c-0.2,0.1-0.4,0.3-0.6,0.5c-0.2,0.2-0.3,0.5-0.4,0.8c-0.1,0.3-0.2,0.5-0.2,0.7
				c0.3,0.1,0.5,0.1,0.8-0.1c0.3-0.2,0.5-0.3,0.7-0.6c0.2-0.2,0.3-0.5,0.4-0.7C32.7,9.6,32.6,9.4,32.5,9.3z"/>
			<path fill="#FFFFFF" d="M34.5,11.5c0.3-0.4,0.5-0.8,0.7-1.1c0.2-0.3,0.3-0.6,0.5-0.9c-0.3-0.1-0.4-0.3-0.5-0.6
				c-0.1-0.3,0-0.6,0.2-1c0.2-0.3,0.4-0.6,0.6-0.7C36.2,7,36.4,7,36.6,7c0.2,0,0.3,0.2,0.4,0.4c0.1,0.2,0.1,0.6-0.1,1
				c0.3,0,0.5,0,0.7,0c0.2,0,0.3-0.1,0.5-0.2c0.1,0,0.2,0,0.3,0c0.1,0,0.2,0.1,0.3,0.1c0.1,0.1,0.2,0.1,0.2,0.3c0,0.1,0,0.2,0,0.4
				c-0.2,0.3-0.3,0.7-0.5,1.2c-0.2,0.5-0.3,1-0.4,1.4c-0.1,0.5-0.2,0.9-0.2,1.2c0,0.3,0,0.5,0.2,0.5c0.2,0,0.3-0.1,0.5-0.2
				c0.2-0.1,0.4-0.3,0.6-0.5c0.2-0.2,0.4-0.4,0.6-0.7c0.2-0.2,0.4-0.4,0.6-0.6c0.2-0.2,0.3-0.3,0.5-0.4c0.1-0.1,0.3-0.1,0.3,0
				c0.1,0,0.1,0.1,0.1,0.2c0,0.1-0.1,0.3-0.2,0.4c-0.3,0.5-0.7,0.9-1,1.3c-0.3,0.3-0.7,0.7-1.1,1c-0.4,0.3-0.8,0.6-1.2,0.8
				c-0.2,0.1-0.5,0.1-0.7,0.1c-0.3,0-0.5-0.1-0.6-0.3c-0.2-0.2-0.3-0.4-0.4-0.7c-0.1-0.3-0.1-0.7,0.1-1.1c0.1-0.4,0.2-0.7,0.4-1.1
				c0.2-0.4,0.3-0.7,0.4-1c0.1-0.3,0.2-0.6,0.3-0.7c0.1-0.2,0.1-0.3,0-0.3c-0.3,0.1-0.6,0.1-0.8,0.1c-0.1,0.3-0.3,0.6-0.5,1
				c-0.2,0.4-0.4,0.7-0.7,1c-0.2,0.2-0.3,0.4-0.5,0.5c-0.1,0.1-0.2,0.1-0.3,0c-0.1-0.1-0.1-0.2-0.1-0.3
				C34.3,11.8,34.4,11.6,34.5,11.5z"/>
			<path fill="#FFFFFF" d="M44.2,11.1c0.2-0.2,0.3-0.3,0.5-0.4c0.1-0.1,0.3-0.1,0.3,0c0.1,0,0.1,0.1,0.1,0.2c0,0.1-0.1,0.3-0.2,0.4
				c-0.4,0.6-0.8,1.1-1.3,1.6c-0.4,0.4-0.8,0.8-1.3,1.1c-0.5,0.3-1,0.5-1.5,0.5c-0.4,0-0.6-0.1-0.8-0.3c-0.1-0.2-0.2-0.5-0.2-0.8
				c0-0.3,0.1-0.6,0.2-1c0.1-0.4,0.2-0.7,0.3-1.1c0.3-0.9,0.5-1.6,0.7-2.2c0.2-0.5,0.3-0.9,0.4-1.1c0.3,0.4,0.7,0.5,1.3,0.5
				c0.2,0,0.3,0,0.4,0l-0.8,2.7c-0.1,0.4-0.2,0.8-0.3,1.1c-0.1,0.3-0.1,0.5,0.1,0.5c0.2,0,0.3-0.1,0.5-0.2c0.2-0.1,0.4-0.2,0.5-0.4
				c0.2-0.2,0.4-0.4,0.6-0.6C43.8,11.5,44,11.3,44.2,11.1z M43.8,6.9c0,0.3-0.1,0.6-0.3,0.9C43.3,8,43,8.1,42.7,8.1
				c-0.3,0-0.6-0.1-0.9-0.3c-0.2-0.2-0.4-0.5-0.4-0.8c0-0.3,0.1-0.6,0.3-0.9c0.2-0.2,0.5-0.4,0.8-0.4c0.3,0,0.6,0.1,0.9,0.3
				C43.7,6.3,43.8,6.6,43.8,6.9z"/>
		</g>
	</g>
	<g>
		<g>
			<path fill="#FFFFFF" d="M13.9,1.3c0.3,0.1,0.7,0.3,1.2,0.5C15.6,2,16,2.3,16.3,2.6c0.3,0.3,0.5,0.7,0.7,1.1
				c0.1,0.4,0,0.8-0.4,1.3c-0.3,0.3-0.7,0.5-1.1,0.6c-0.5,0.1-0.9-0.1-1.2-0.4c-0.3-0.3-0.5-0.7-0.6-1.1C13.6,3.7,13.7,3.3,14,3
				c0.1-0.1,0.3-0.3,0.5-0.4l-0.4-0.2c-0.7-0.3-1.4-0.3-2.1-0.1c-0.7,0.2-1.4,0.5-2,1c-0.6,0.5-1.2,1-1.7,1.6
				c-0.5,0.6-1,1.2-1.3,1.8c-0.4,0.7-0.7,1.4-1,2.1C5.6,9.6,5.4,10.3,5.3,11c-0.1,0.7,0,1.2,0.2,1.7c0.2,0.5,0.6,0.8,1.2,1
				c0.4,0.1,0.9,0.1,1.5,0c0.3-0.6,0.5-1.3,0.8-1.9c0.3-0.6,0.6-1.2,1-1.7c0.4-0.5,0.8-1,1.2-1.3c0.5-0.4,1-0.6,1.6-0.7
				c0.2,0,0.3,0,0.4,0.1c0.1,0.1,0.2,0.1,0.3,0.3c0,0.1,0,0.2,0,0.4c-0.1,0.1-0.2,0.2-0.4,0.3c-0.5,0.2-0.9,0.6-1.1,1.2
				c-0.3,0.6-0.5,1.4-0.8,2.2c-0.2,0.8-0.5,1.7-0.7,2.7c-0.3,0.9-0.6,1.8-1.1,2.6c-0.4,0.8-1,1.4-1.7,2C7,20.1,6.1,20.4,5,20.5
				c-0.8,0-1.5-0.1-2-0.3C2.4,20,2,19.7,1.8,19.4c-0.3-0.3-0.5-0.6-0.6-1C1.1,18,1,17.8,1,17.5c0-0.4,0.1-0.7,0.4-1
				C1.7,16.2,2,16,2.5,15.9c0.4,0,0.8,0.1,1.2,0.4c0.4,0.3,0.6,0.7,0.6,1.1c0,0.4-0.1,0.9-0.4,1.2c-0.1,0.1-0.2,0.2-0.4,0.3
				C3.8,19,4.1,19.1,4.4,19c0.4-0.1,0.8-0.2,1.1-0.5c0.3-0.3,0.7-0.6,0.9-1c0.3-0.4,0.5-0.8,0.8-1.3c0.2-0.5,0.5-1,0.7-1.6
				c-0.3,0-0.7,0.1-1,0.1c-0.3,0-0.6,0-0.9-0.1c-1.2-0.2-2.1-0.6-2.6-1.2c-0.5-0.6-0.9-1.4-0.9-2.2c-0.1-0.8,0-1.7,0.3-2.6
				C3,7.7,3.4,6.9,3.9,6.1c0.4-0.7,1-1.5,1.8-2.2c0.7-0.7,1.5-1.3,2.4-1.8c0.9-0.5,1.9-0.8,2.9-1C11.9,0.9,12.9,1,13.9,1.3z"/>
			<path fill="#FFFFFF" d="M17,8.7c0.6,0,1,0.3,1.3,0.7c0-0.1,0.1-0.2,0.1-0.3c0-0.1,0-0.1,0.1-0.2l0.1-0.2l1.8-0.1
				c-0.1,0.5-0.3,1-0.4,1.4c-0.1,0.4-0.2,0.8-0.3,1.2c-0.1,0.4-0.2,0.7-0.3,0.9c-0.1,0.4-0.2,0.8-0.3,1.1c-0.1,0.3-0.1,0.5,0,0.5
				c0.2,0,0.3-0.1,0.5-0.2c0.2-0.1,0.4-0.2,0.5-0.4c0.2-0.2,0.4-0.4,0.6-0.6c0.2-0.2,0.4-0.4,0.6-0.6c0.2-0.2,0.4-0.3,0.5-0.4
				c0.1-0.1,0.3-0.1,0.3,0c0.1,0,0.1,0.1,0.1,0.2c0,0.1-0.1,0.3-0.2,0.4c-0.4,0.6-0.8,1.1-1.3,1.6c-0.4,0.4-0.8,0.8-1.3,1.1
				c-0.5,0.3-1,0.5-1.5,0.5c-0.5,0-0.7-0.1-0.9-0.4c-0.1-0.3-0.2-0.6-0.1-1c-0.4,0.5-0.9,0.9-1.4,1.2c-0.5,0.3-0.9,0.3-1.3,0.2
				c-0.3-0.1-0.5-0.3-0.7-0.5c-0.2-0.3-0.3-0.6-0.3-0.9c0-0.4,0-0.8,0.1-1.2c0.1-0.4,0.2-0.9,0.5-1.4c0.2-0.4,0.4-0.7,0.7-1.1
				c0.3-0.3,0.5-0.6,0.8-0.9c0.3-0.2,0.6-0.4,0.9-0.6C16.4,8.7,16.7,8.6,17,8.7z M17.5,11.5c0.3-0.6,0.3-1.1,0.2-1.4
				c-0.1-0.3-0.4-0.5-0.7-0.4c-0.3,0-0.6,0.2-0.8,0.6c-0.3,0.3-0.5,0.7-0.7,1.3c-0.1,0.3-0.2,0.6-0.3,0.9C15.1,12.7,15,13,15,13.3
				c0,0.3-0.1,0.5-0.1,0.6c0,0.2,0.1,0.3,0.2,0.3c0.2,0.1,0.4,0,0.6-0.1c0.2-0.2,0.5-0.4,0.7-0.7c0.2-0.3,0.4-0.6,0.6-0.9
				C17.3,12.1,17.4,11.8,17.5,11.5z"/>
			<path fill="#FFFFFF" d="M23.1,12c-0.1,0.4-0.2,0.8-0.3,1.1c-0.1,0.3-0.1,0.5,0,0.5c0.1,0,0.3-0.1,0.5-0.2
				c0.2-0.1,0.4-0.2,0.6-0.4c0.2-0.2,0.4-0.4,0.6-0.6c0.2-0.2,0.4-0.4,0.6-0.6c0.2-0.2,0.4-0.3,0.5-0.4c0.1-0.1,0.3-0.1,0.3,0
				c0.1,0,0.1,0.1,0.1,0.2c0,0.1-0.1,0.3-0.2,0.4c-0.4,0.6-0.8,1.1-1.3,1.6c-0.4,0.4-0.8,0.8-1.3,1.1c-0.5,0.3-1,0.5-1.5,0.5
				c-0.4,0-0.6-0.1-0.8-0.3c-0.1-0.2-0.2-0.5-0.2-0.8c0-0.3,0.1-0.6,0.2-1c0.1-0.4,0.2-0.7,0.3-1.1c0.1-0.4,0.2-0.8,0.4-1.3
				c0.1-0.5,0.3-0.9,0.4-1.4c0.2-0.5,0.3-1,0.5-1.4c0.1-0.5,0.3-0.9,0.5-1.4c0.3-1,0.8-1.6,1.4-2c0.6-0.4,1.1-0.4,1.7-0.2
				c0.4,0.2,0.6,0.5,0.6,0.8c0,0.4,0,0.8-0.3,1.4c-0.2,0.5-0.6,1.1-1.1,1.8c-0.5,0.7-1.1,1.5-1.8,2.3c-0.1,0.2-0.1,0.5-0.2,0.7
				C23.2,11.7,23.2,11.8,23.1,12z M25.6,5.5c-0.1-0.1-0.2,0-0.4,0.1c-0.1,0.1-0.2,0.3-0.4,0.6c-0.1,0.3-0.2,0.6-0.4,1
				c-0.1,0.4-0.3,0.9-0.4,1.3c0.2-0.4,0.5-0.7,0.7-1.1c0.2-0.4,0.4-0.7,0.6-1c0.1-0.3,0.3-0.5,0.3-0.7C25.8,5.6,25.7,5.5,25.6,5.5z"
				/>
			<path fill="#FFFFFF" d="M26.9,11.8c-0.1,0.4-0.2,0.8-0.3,1.1c-0.1,0.3-0.1,0.5,0,0.5c0.2,0,0.3-0.1,0.5-0.2
				c0.2-0.1,0.4-0.2,0.6-0.4c0.2-0.2,0.4-0.4,0.6-0.6c0.2-0.2,0.4-0.4,0.6-0.6c0.2-0.2,0.4-0.3,0.5-0.4c0.1-0.1,0.3-0.1,0.3,0
				c0.1,0,0.1,0.1,0.1,0.2c0,0.1-0.1,0.3-0.2,0.4c-0.4,0.6-0.8,1.1-1.3,1.6c-0.4,0.4-0.8,0.8-1.3,1.1c-0.5,0.3-1,0.5-1.5,0.5
				c-0.4,0-0.6-0.1-0.8-0.3c-0.1-0.2-0.2-0.5-0.2-0.8c0-0.3,0.1-0.6,0.2-1c0.1-0.4,0.2-0.7,0.3-1.1c0.1-0.4,0.2-0.8,0.4-1.3
				c0.1-0.5,0.3-0.9,0.4-1.4c0.2-0.5,0.3-1,0.5-1.4c0.1-0.5,0.3-0.9,0.5-1.4c0.3-1,0.8-1.6,1.4-2C28.6,4,29.2,4,29.8,4.3
				c0.4,0.2,0.6,0.5,0.6,0.8c0,0.4,0,0.8-0.3,1.4C29.9,7,29.5,7.6,29,8.3C28.5,9,28,9.8,27.3,10.6c-0.1,0.2-0.1,0.5-0.2,0.7
				C27,11.5,27,11.7,26.9,11.8z M29.5,5.3c-0.1-0.1-0.2,0-0.4,0.1c-0.1,0.1-0.2,0.3-0.4,0.6c-0.1,0.3-0.2,0.6-0.4,1
				c-0.1,0.4-0.3,0.9-0.4,1.3c0.2-0.4,0.5-0.7,0.7-1.1c0.2-0.4,0.4-0.7,0.6-1c0.1-0.3,0.3-0.5,0.3-0.7C29.6,5.5,29.6,5.4,29.5,5.3z"
				/>
			<path fill="#FFFFFF" d="M34.5,11.5c0.1-0.2,0.3-0.3,0.4-0.3s0.3-0.1,0.4-0.1c0.1,0,0.1,0.1,0.2,0.2c0,0.1,0,0.3-0.2,0.5
				c-0.1,0.2-0.4,0.5-0.7,0.9c-0.3,0.4-0.7,0.7-1.1,1.1c-0.4,0.4-0.8,0.7-1.3,0.9c-0.5,0.3-0.9,0.4-1.4,0.3c-0.5,0-0.9-0.2-1.3-0.5
				c-0.3-0.3-0.5-0.7-0.7-1.2c-0.1-0.5-0.2-1-0.1-1.6c0.1-0.6,0.2-1.1,0.5-1.6c0.3-0.5,0.6-0.9,1.1-1.2c0.5-0.3,1-0.5,1.7-0.5
				c0.6,0,1,0.2,1.3,0.6c0.3,0.4,0.4,0.8,0.3,1.3c-0.1,0.5-0.3,0.9-0.7,1.3c-0.4,0.4-0.9,0.6-1.7,0.7c-0.1,0-0.2,0-0.3,0
				c-0.1,0-0.2,0-0.3-0.1c-0.1,0-0.2-0.1-0.3-0.1c0,0.2,0,0.3,0,0.5c0,0.2,0.1,0.3,0.2,0.5c0.1,0.1,0.2,0.3,0.4,0.3
				c0.2,0.1,0.3,0.1,0.5,0.1c0.3,0,0.5-0.1,0.8-0.2c0.3-0.1,0.5-0.3,0.7-0.5c0.2-0.2,0.5-0.4,0.7-0.6C34.1,11.9,34.3,11.7,34.5,11.5
				z M32.5,9.3c-0.2-0.2-0.5-0.2-0.7-0.1c-0.2,0.1-0.4,0.3-0.6,0.5c-0.2,0.2-0.3,0.5-0.4,0.8c-0.1,0.3-0.2,0.5-0.2,0.7
				c0.3,0.1,0.5,0.1,0.8-0.1c0.3-0.2,0.5-0.3,0.7-0.6c0.2-0.2,0.3-0.5,0.4-0.7C32.7,9.6,32.6,9.4,32.5,9.3z"/>
			<path fill="#FFFFFF" d="M34.5,11.5c0.3-0.4,0.5-0.8,0.7-1.1c0.2-0.3,0.3-0.6,0.5-0.9c-0.3-0.1-0.4-0.3-0.5-0.6
				c-0.1-0.3,0-0.6,0.2-1c0.2-0.3,0.4-0.6,0.6-0.7C36.2,7,36.4,7,36.6,7c0.2,0,0.3,0.2,0.4,0.4c0.1,0.2,0.1,0.6-0.1,1
				c0.3,0,0.5,0,0.7,0c0.2,0,0.3-0.1,0.5-0.2c0.1,0,0.2,0,0.3,0c0.1,0,0.2,0.1,0.3,0.1c0.1,0.1,0.2,0.1,0.2,0.3c0,0.1,0,0.2,0,0.4
				c-0.2,0.3-0.3,0.7-0.5,1.2c-0.2,0.5-0.3,1-0.4,1.4c-0.1,0.5-0.2,0.9-0.2,1.2c0,0.3,0,0.5,0.2,0.5c0.2,0,0.3-0.1,0.5-0.2
				c0.2-0.1,0.4-0.3,0.6-0.5c0.2-0.2,0.4-0.4,0.6-0.7c0.2-0.2,0.4-0.4,0.6-0.6c0.2-0.2,0.3-0.3,0.5-0.4c0.1-0.1,0.3-0.1,0.3,0
				c0.1,0,0.1,0.1,0.1,0.2c0,0.1-0.1,0.3-0.2,0.4c-0.3,0.5-0.7,0.9-1,1.3c-0.3,0.3-0.7,0.7-1.1,1c-0.4,0.3-0.8,0.6-1.2,0.8
				c-0.2,0.1-0.5,0.1-0.7,0.1c-0.3,0-0.5-0.1-0.6-0.3c-0.2-0.2-0.3-0.4-0.4-0.7c-0.1-0.3-0.1-0.7,0.1-1.1c0.1-0.4,0.2-0.7,0.4-1.1
				c0.2-0.4,0.3-0.7,0.4-1c0.1-0.3,0.2-0.6,0.3-0.7c0.1-0.2,0.1-0.3,0-0.3c-0.3,0.1-0.6,0.1-0.8,0.1c-0.1,0.3-0.3,0.6-0.5,1
				c-0.2,0.4-0.4,0.7-0.7,1c-0.2,0.2-0.3,0.4-0.5,0.5c-0.1,0.1-0.2,0.1-0.3,0c-0.1-0.1-0.1-0.2-0.1-0.3
				C34.3,11.8,34.4,11.6,34.5,11.5z"/>
			<path fill="#FFFFFF" d="M44.2,11.1c0.2-0.2,0.3-0.3,0.5-0.4c0.1-0.1,0.3-0.1,0.3,0c0.1,0,0.1,0.1,0.1,0.2c0,0.1-0.1,0.3-0.2,0.4
				c-0.4,0.6-0.8,1.1-1.3,1.6c-0.4,0.4-0.8,0.8-1.3,1.1c-0.5,0.3-1,0.5-1.5,0.5c-0.4,0-0.6-0.1-0.8-0.3c-0.1-0.2-0.2-0.5-0.2-0.8
				c0-0.3,0.1-0.6,0.2-1c0.1-0.4,0.2-0.7,0.3-1.1c0.3-0.9,0.5-1.6,0.7-2.2c0.2-0.5,0.3-0.9,0.4-1.1c0.3,0.4,0.7,0.5,1.3,0.5
				c0.2,0,0.3,0,0.4,0l-0.8,2.7c-0.1,0.4-0.2,0.8-0.3,1.1c-0.1,0.3-0.1,0.5,0.1,0.5c0.2,0,0.3-0.1,0.5-0.2c0.2-0.1,0.4-0.2,0.5-0.4
				c0.2-0.2,0.4-0.4,0.6-0.6C43.8,11.5,44,11.3,44.2,11.1z M43.8,6.9c0,0.3-0.1,0.6-0.3,0.9C43.3,8,43,8.1,42.7,8.1
				c-0.3,0-0.6-0.1-0.9-0.3c-0.2-0.2-0.4-0.5-0.4-0.8c0-0.3,0.1-0.6,0.3-0.9c0.2-0.2,0.5-0.4,0.8-0.4c0.3,0,0.6,0.1,0.9,0.3
				C43.7,6.3,43.8,6.6,43.8,6.9z"/>
		</g>
	</g>
</g>
</svg>
