<?xml version="1.0" encoding="utf-8"?>
<!-- Generator: Adobe Illustrator 17.1.0, SVG Export Plug-In . SVG Version: 6.00 Build 0)  -->
<!DOCTYPE svg PUBLIC "-//W3C//DTD SVG 1.1//EN" "http://www.w3.org/Graphics/SVG/1.1/DTD/svg11.dtd" []>
<svg xmlns="http://www.w3.org/2000/svg" xmlns:xlink="http://www.w3.org/1999/xlink" x="0px" y="0px" viewBox="0 0 36.5 15.5"
	 enable-background="new 0 0 36.5 15.5" xml:space="preserve">
<metadata>
	<sfw>
		<slices></slices>
		<sliceSourceBounds  width="36.5" height="15.5" y="-287.6" x="462.5" bottomLeftOrigin="true"></sliceSourceBounds>
	</sfw>
</metadata>
<g>
	<path fill="#99CC33" d="M36,6.5c-0.2-0.1-0.4-0.2-0.6-0.2c-0.1,0-0.2,0-0.3,0c0.1-0.2,0.2-0.4,0.3-0.7c0.1-0.3,0-0.4-0.2-0.7
		c-0.2-0.2-0.5-0.1-0.8-0.1c0,0,0,0,0,0l-0.6-0.2l0.4-1.6c0.1-0.3,0-0.6-0.2-0.9c-0.2-0.2-0.5-0.4-0.8-0.4c0,0,0,0,0,0l-1.2,0
		c-0.4,0-0.8,0.3-0.9,0.7l-0.2,0.8c-0.1,0.3-0.2,0.5-0.3,0.9c-0.1,0.3-0.2,0.6-0.3,1c0,0,0,0,0,0c0-0.1-0.1,0-0.1-0.1
		c-0.2-0.2-0.5-0.2-0.8-0.2c0,0,0,0,0,0L28,4.8c-0.1,0-0.2,0-0.3,0c-0.2-0.1-0.4-0.1-0.6-0.1c0,0-0.1,0-0.1,0c-0.2,0-0.3,0-0.5,0.1
		l0-0.1c0.1-0.3,0-0.6-0.2-0.9c-0.1-0.2-0.3-0.3-0.5-0.3c0.1-0.3,0-0.7-0.2-0.9c-0.2-0.2-0.5-0.5-0.8-0.5c0,0,0,0,0,0l-1.2,0.2
		c-0.4,0-0.8,0.4-0.9,0.8c0,0.1-0.1,0.2-0.1,0.3c0,0.1-0.1,0.2-0.1,0.2l-2.2,0.1c-0.4,0-0.8,0.3-0.9,0.7L19.1,5c0,0,0,0,0,0
		c-0.1,0-0.1-0.1-0.2-0.1c0,0,0,0,0,0l-1.3,0.1c-0.4,0-0.7,0.3-0.9,0.6c-0.1,0.2-0.2,0.3-0.2,0.5c-0.2-0.2-0.4-0.4-0.6-0.6
		c-0.3-0.2-0.7-0.3-1.1-0.3c0,0-0.1,0-0.1,0c-0.4,0-0.9,0.1-1.3,0.3c0,0,0,0,0,0c0.2-0.2,0.4-0.5,0.6-0.7c0.4-0.5,0.7-0.9,1-1.2
		c0.3-0.3,0.5-0.6,0.8-0.8c0,0,0.1,0,0.1,0c0.1,0,0.2,0,0.3,0c0.3,0,0.5-0.1,0.7-0.2c0.4-0.2,0.6-0.7,0.6-1.1c0-0.3-0.1-0.6-0.5-1
		c-0.2-0.2-0.6-0.4-0.9-0.4C15.8,0,15.4,0,15.1,0c-0.5,0-1,0.1-1.5,0.3c-0.7,0.3-1.2,0.6-1.8,1.1c0,0,0,0-0.1,0.1c0,0,0-0.1,0-0.1
		c-0.1-0.3-0.2-0.5-0.5-0.7c-0.2-0.2-0.5-0.3-0.8-0.3c-0.2,0-0.3,0-0.5,0c-1.3,0-2.7,0.4-4.1,1.3C5.3,2,4.6,2.5,4,3.2
		c-0.6,0.6-1.2,1.3-1.6,2C2,5.9,1.7,6.6,1.6,7.3c-0.1,0.8,0,1.6,0.4,2.3c0.1,0.2,0.3,0.5,0.5,0.7c-0.1,0-0.3,0-0.4,0
		c-0.1,0-0.2,0-0.3,0c-0.6,0.1-1,0.3-1.4,0.8c0,0,0,0,0,0.1C0.1,11.5,0,12,0,12.5c0,0,0,0,0,0c0,0.3,0.1,0.5,0.2,0.8
		c0.1,0.3,0.4,0.6,0.7,0.9C1.2,14.6,1.6,14.9,2,15c0.4,0.2,0.9,0.2,1.4,0.2c0.1,0,0.2,0,0.3,0c0.8,0,1.6-0.3,2.2-0.9
		c0.5-0.5,1-1.1,1.3-1.9c0.3-0.6,0.6-1.4,0.8-2.2c0.1,0.3,0.1,0.7,0.2,1.1c0.1,0.6,0.3,1.2,0.5,1.7c0.2,0.6,0.6,1.1,1.1,1.5
		c0.5,0.5,1.2,0.8,2,0.9c0.1,0,0.2,0,0.4,0c0.5,0,0.9-0.1,1.4-0.3c0.5-0.3,0.9-0.6,1.2-1c0.4-0.4,0.6-0.9,0.6-1.5
		c0.1-0.5-0.1-1-0.4-1.5c0.1-0.1,0.2-0.1,0.3-0.2c0.1,0,0.1-0.1,0.2-0.2c0,0.1,0.1,0.4,0.2,0.5c0.2,0.3,0.5,0.6,0.8,0.6c0,0,0,0,0,0
		l1-0.2c0.3,0,0.5-0.2,0.7-0.4c0.1-0.1,0.1-0.2,0.2-0.3c0,0,0.1-0.1,0.1-0.2c0,0,0,0,0,0c0.2,0.2,0.6,0.6,1.3,0.6c0,0,0.1,0,0.1,0
		c0.5,0,1-0.2,1.4-0.4c0.2,0.2,0.5,0.3,1,0.3c0,0,0.1,0,0.1,0c0.5,0,1.1-0.2,1.5-0.5c0.1,0,0.1-0.1,0.2-0.1c0.2,0.2,0.4,0.3,0.7,0.4
		c0.2,0.1,0.4,0.1,0.6,0.1c0.4,0,0.7-0.1,1.1-0.3c0,0,0,0,0.1,0c0.2,0.2,0.5,0.3,1,0.3c0,0,0.1,0,0.1,0c0.5,0,0.9-0.2,1.3-0.5
		c0.2,0.2,0.4,0.2,0.7,0.2c0,0,0,0,0,0l1.3,0c0.3,0,0.5-0.1,0.7-0.3c0.3,0.2,0.6,0.3,1,0.3c0,0,0.1,0,0.1,0c0.5,0,1-0.2,1.5-0.5
		c0.4-0.3,0.7-0.6,1-0.9c0.3-0.3,0.6-0.7,0.9-1.2c0.2-0.3,0.3-0.5,0.3-0.8C36.5,7.1,36.3,6.7,36,6.5z M11.7,7.2
		c-0.2,0.3-0.3,0.7-0.4,1.1C11.1,8.1,11,8,10.9,7.8c0,0,0-0.1-0.1-0.1c0.1-0.1,0.2-0.1,0.3-0.2c0.2-0.1,0.4-0.3,0.6-0.4
		C11.7,7.1,11.7,7.2,11.7,7.2z"/>
	<g>
		<g>
			<path fill="#FFFFFF" d="M16,1.8c-0.3-0.1-0.5,0-0.8,0.3c-0.3,0.2-0.6,0.5-0.9,0.9c-0.3,0.4-0.7,0.8-1,1.3
				c-0.4,0.5-0.8,0.9-1.2,1.3c-0.4,0.4-0.9,0.8-1.4,1.1C10.1,7,9.5,7.2,9,7.3C9.4,7.6,9.8,8,10.1,8.4c0.3,0.4,0.5,0.8,0.7,1.3
				c0.2,0.4,0.3,0.9,0.4,1.3c0.1,0.4,0.2,0.8,0.3,1.2c0.1,0.4,0.2,0.7,0.3,0.9c0.1,0.2,0.3,0.4,0.5,0.4c0.2,0,0.4,0,0.6-0.1
				c-0.1,0-0.2-0.1-0.3-0.2c-0.2-0.2-0.3-0.5-0.3-0.8c0-0.3,0.1-0.6,0.3-0.8c0.2-0.2,0.5-0.3,0.8-0.3c0.3,0,0.6,0.1,0.8,0.3
				c0.3,0.3,0.4,0.6,0.3,0.9c0,0.3-0.2,0.7-0.4,1c-0.2,0.3-0.5,0.5-0.9,0.7c-0.4,0.2-0.8,0.3-1.1,0.2c-0.6-0.1-1.1-0.3-1.4-0.6
				c-0.3-0.3-0.6-0.7-0.8-1.2c-0.2-0.5-0.3-1-0.4-1.5C9.1,10.7,9,10.2,8.9,9.7C8.8,9.2,8.7,8.7,8.5,8.3C8.3,7.9,8.1,7.6,7.8,7.5
				C7.5,8.3,7.3,9.1,7.1,9.9c-0.2,0.8-0.5,1.5-0.8,2.2c-0.3,0.6-0.7,1.2-1.1,1.6c-0.4,0.4-0.9,0.6-1.5,0.6c-0.5,0-0.9,0-1.3-0.2
				c-0.3-0.1-0.6-0.3-0.8-0.5c-0.2-0.2-0.3-0.4-0.4-0.6C1.1,12.8,1,12.6,1,12.5c0-0.3,0.1-0.6,0.2-0.8c0.2-0.2,0.4-0.4,0.7-0.4
				c0.3,0,0.6,0,0.8,0.2c0.2,0.2,0.4,0.4,0.4,0.7c0,0.3,0,0.6-0.2,0.8c0,0.1-0.1,0.1-0.1,0.1c0,0-0.1,0.1-0.1,0.1
				c0.2,0.1,0.4,0.1,0.5,0.1c0.2,0,0.4-0.1,0.5-0.3c0.2-0.2,0.3-0.4,0.5-0.6c0.1-0.3,0.3-0.6,0.4-0.9c0.1-0.4,0.3-0.7,0.4-1.1
				c-0.4,0-0.8-0.1-1.2-0.3C3.5,9.8,3.2,9.5,2.9,9.1c-0.3-0.5-0.4-1-0.3-1.6c0.1-0.6,0.3-1.2,0.7-1.8C3.6,5,4.1,4.4,4.7,3.9
				c0.6-0.6,1.2-1.1,1.9-1.5c1.4-0.8,2.7-1.2,3.9-1.1c0.1,0,0.2,0,0.2,0.1c0.1,0,0.1,0.1,0.1,0.2c0,0.1,0,0.1-0.1,0.2
				c0,0.1-0.1,0.1-0.3,0.2C10.2,2,9.9,2.3,9.7,2.5C9.4,2.8,9.2,3.2,9,3.6C8.8,4,8.6,4.5,8.5,5C8.3,5.6,8.1,6.1,8,6.7
				c0.5,0,0.9-0.2,1.3-0.5C9.6,5.8,10,5.5,10.3,5c0.4-0.5,0.7-1,1.1-1.5c0.4-0.5,0.8-1,1.2-1.4s0.9-0.7,1.5-0.9
				c0.5-0.2,1.2-0.3,1.9-0.1c0.2,0,0.4,0.1,0.5,0.2c0.1,0.1,0.2,0.2,0.2,0.3c0,0.1,0,0.2-0.1,0.2C16.3,1.8,16.2,1.9,16,1.8z
				 M5.3,9.5c0.2-0.7,0.4-1.3,0.6-2.1C6.1,6.7,6.4,6,6.7,5.3c0.3-0.7,0.6-1.3,1-1.9C8,2.9,8.4,2.4,8.9,2c-0.5,0.1-1,0.3-1.4,0.6
				C7,2.9,6.5,3.3,6.1,3.7C5.7,4.2,5.3,4.7,5,5.2C4.8,5.8,4.6,6.3,4.5,6.8c-0.1,0.5-0.1,1,0.1,1.5C4.7,8.7,4.9,9.1,5.3,9.5
				C5.3,9.4,5.3,9.4,5.3,9.5C5.3,9.4,5.3,9.4,5.3,9.5z"/>
			<path fill="#FFFFFF" d="M14.7,6.3c0.3,0,0.5,0,0.6,0.1c0.2,0.1,0.3,0.3,0.4,0.5c0.1,0.2,0.1,0.4,0.1,0.7c0,0.3-0.1,0.6-0.2,0.9
				l-0.1,0.2c0.3,0.1,0.5,0,0.7-0.3c0.1-0.1,0.2-0.2,0.3-0.2c0.1,0,0.2,0,0.2,0c0.1,0,0.1,0.1,0.1,0.2c0,0.1,0,0.2-0.1,0.3
				c-0.1,0.2-0.4,0.4-0.6,0.5c-0.3,0.1-0.5,0.2-0.8,0.1c-0.2,0.4-0.5,0.8-0.8,1.1c-0.3,0.3-0.7,0.4-1.1,0.4c-0.3,0-0.5,0-0.7-0.1
				c-0.2-0.1-0.4-0.3-0.5-0.5c-0.1-0.2-0.2-0.4-0.2-0.7c0-0.3,0-0.6,0.1-0.9c0.1-0.3,0.2-0.6,0.3-0.9c0.2-0.3,0.3-0.5,0.6-0.7
				c0.2-0.2,0.5-0.4,0.7-0.5C14.1,6.4,14.4,6.3,14.7,6.3z M14.7,8.9c-0.1-0.1-0.2-0.3-0.2-0.4c0-0.2,0-0.3,0.1-0.5
				c0.1-0.1,0.2-0.3,0.3-0.4c0.1-0.1,0.3-0.1,0.4-0.1c0-0.3-0.1-0.5-0.4-0.6c-0.2,0-0.4,0.1-0.7,0.4C14,7.5,13.8,8,13.6,8.5
				c-0.1,0.4-0.2,0.7-0.2,1.1c0,0.3,0.1,0.5,0.2,0.5c0.2,0.1,0.4,0,0.7-0.2c0.2-0.2,0.4-0.5,0.6-0.9L14.7,8.9z"/>
			<path fill="#FFFFFF" d="M16.3,8.4c0.2-0.2,0.3-0.5,0.5-0.8c0.2-0.3,0.3-0.5,0.4-0.7c0.1-0.3,0.3-0.5,0.4-0.8l1.3-0.1
				c0,0.2-0.1,0.5-0.3,0.9c-0.1,0.4-0.3,0.9-0.5,1.4c0.2-0.3,0.5-0.7,0.7-1c0.2-0.3,0.5-0.6,0.7-0.9c0.3-0.3,0.5-0.5,0.7-0.6
				c0.2-0.1,0.5-0.2,0.7-0.1c0.1,0,0.2,0.2,0.2,0.4c0,0.2,0,0.4-0.1,0.7C21.1,7.1,21,7.4,21,7.7c-0.1,0.3-0.2,0.6-0.3,0.8
				c-0.1,0.2-0.1,0.4-0.2,0.6c0,0.2,0,0.2,0.1,0.2c0.1,0,0.2,0,0.3-0.1C21,9.2,21.2,9.1,21.3,9c0.1-0.1,0.2-0.2,0.4-0.4
				c0.1-0.1,0.3-0.3,0.4-0.4C22.2,8,22.3,8,22.4,7.9c0.1,0,0.2,0,0.2,0c0.1,0,0.1,0.1,0.1,0.2c0,0.1,0,0.2-0.1,0.3
				c-0.3,0.4-0.6,0.7-0.8,1c-0.3,0.3-0.5,0.5-0.9,0.7c-0.3,0.2-0.7,0.3-1,0.4c-0.3,0-0.5-0.1-0.6-0.2c-0.1-0.1-0.2-0.3-0.1-0.5
				c0-0.2,0-0.5,0.1-0.7c0.1-0.3,0.1-0.5,0.2-0.7c0.1-0.2,0.1-0.4,0.2-0.6c0-0.1,0-0.2,0-0.2c-0.1,0-0.1,0.1-0.3,0.2
				c-0.1,0.1-0.3,0.3-0.4,0.5c-0.2,0.2-0.3,0.4-0.5,0.7c-0.2,0.3-0.3,0.5-0.5,0.7c-0.1,0.2-0.3,0.4-0.4,0.6
				c-0.1,0.2-0.2,0.3-0.2,0.3l0,0l-1,0c0.1-0.3,0.2-0.7,0.4-1.1C16.9,9,17,8.6,17.2,8.1l-0.3,0.5c-0.1,0.2-0.2,0.3-0.3,0.3
				c-0.1,0-0.2,0-0.2,0c-0.1,0-0.1-0.1-0.1-0.2C16.2,8.6,16.3,8.5,16.3,8.4z"/>
			<path fill="#FFFFFF" d="M25.3,5.1l-1.1,0l-0.9,3c-0.1,0.3-0.1,0.5-0.2,0.7c-0.1,0.2-0.1,0.3,0,0.3c0.1,0,0.2,0,0.3-0.1
				c0.1-0.1,0.2-0.2,0.4-0.3c0.1-0.1,0.3-0.2,0.4-0.4c0.1-0.1,0.3-0.3,0.4-0.4c0.1-0.1,0.2-0.2,0.3-0.2c0.1,0,0.2,0,0.2,0
				c0.1,0,0.1,0.1,0.1,0.2c0,0.1,0,0.2-0.1,0.3c-0.3,0.4-0.6,0.7-0.8,1C24,9.5,23.7,9.8,23.4,10c-0.3,0.2-0.7,0.3-1,0.4
				c-0.3,0-0.4-0.1-0.5-0.2c-0.1-0.1-0.2-0.3-0.1-0.5c0-0.2,0-0.4,0.1-0.7c0.1-0.2,0.1-0.5,0.2-0.7c0.1-0.4,0.3-0.9,0.4-1.4
				c0.2-0.6,0.3-1.1,0.5-1.7L20,5.3l0.3-0.8l2.9-0.1c0-0.2,0.1-0.3,0.1-0.5c0-0.1,0.1-0.3,0.1-0.4c0-0.1,0.1-0.2,0.1-0.3l1.2-0.1
				c0,0.1-0.1,0.2-0.1,0.4c-0.1,0.2-0.1,0.5-0.2,0.9l1.1,0L25.3,5.1z"/>
			<path fill="#FFFFFF" d="M27,5.6c0.4,0,0.7,0.2,0.9,0.5c0-0.1,0-0.1,0.1-0.2c0-0.1,0-0.1,0.1-0.1l0-0.1l1.2-0.1
				c-0.1,0.3-0.2,0.7-0.3,1c-0.1,0.3-0.2,0.5-0.2,0.8c-0.1,0.3-0.1,0.5-0.2,0.6c-0.1,0.3-0.1,0.5-0.2,0.7c-0.1,0.2-0.1,0.3,0,0.3
				c0.1,0,0.2,0,0.3-0.1c0.1-0.1,0.2-0.2,0.4-0.3c0.1-0.1,0.2-0.2,0.4-0.4c0.1-0.1,0.3-0.3,0.4-0.4c0.1-0.1,0.2-0.2,0.3-0.2
				c0.1,0,0.2,0,0.2,0c0.1,0,0.1,0.1,0.1,0.2c0,0.1,0,0.2-0.1,0.3c-0.3,0.4-0.6,0.7-0.8,1c-0.3,0.3-0.5,0.5-0.9,0.7
				c-0.3,0.2-0.7,0.3-1,0.4c-0.3,0-0.5-0.1-0.6-0.2c-0.1-0.2-0.1-0.4-0.1-0.6C26.7,9.6,26.3,9.9,26,10c-0.3,0.2-0.6,0.2-0.9,0.1
				c-0.2-0.1-0.3-0.2-0.5-0.4c-0.1-0.2-0.2-0.4-0.2-0.6c0-0.2,0-0.5,0-0.8c0.1-0.3,0.2-0.6,0.3-1c0.1-0.3,0.3-0.5,0.4-0.7
				c0.2-0.2,0.4-0.4,0.6-0.6C26,6,26.2,5.8,26.4,5.7C26.6,5.7,26.8,5.6,27,5.6z M27.4,7.5c0.2-0.4,0.2-0.7,0.1-0.9
				c-0.1-0.2-0.2-0.3-0.5-0.3c-0.2,0-0.4,0.2-0.5,0.4S26.2,7.2,26,7.6C26,7.8,25.9,8,25.8,8.2c-0.1,0.2-0.1,0.4-0.1,0.6s0,0.3,0,0.4
				c0,0.1,0,0.2,0.1,0.2c0.1,0.1,0.3,0,0.4-0.1c0.2-0.1,0.3-0.3,0.5-0.4c0.1-0.2,0.3-0.4,0.4-0.6C27.2,8,27.3,7.7,27.4,7.5z"/>
			<path fill="#FFFFFF" d="M34.9,7.6c0.1-0.1,0.2-0.2,0.3-0.2c0.1,0,0.2,0,0.2,0c0.1,0,0.1,0.1,0.1,0.2c0,0.1,0,0.2-0.1,0.3
				c-0.2,0.4-0.5,0.7-0.8,1c-0.2,0.3-0.5,0.5-0.8,0.7c-0.3,0.2-0.6,0.3-0.9,0.4c-0.3,0-0.5,0-0.6-0.1c-0.1-0.1-0.2-0.2-0.2-0.4
				c0-0.1,0-0.3,0-0.5c0-0.2,0.1-0.4,0.2-0.6c0.1-0.2,0.1-0.3,0-0.4c0-0.1-0.1-0.1-0.2-0.1c-0.1,0-0.2,0.1-0.3,0.2
				c-0.1,0.1-0.2,0.2-0.3,0.3L31,10L29.7,10c0.1-0.2,0.2-0.5,0.3-0.9c0.1-0.4,0.2-0.8,0.4-1.2c0,0,0,0,0,0c-0.1,0.2-0.2,0.3-0.3,0.3
				c-0.1,0-0.2,0-0.2,0c-0.1,0-0.1-0.1-0.1-0.2c0-0.1,0-0.2,0.1-0.3c0.2-0.2,0.3-0.5,0.4-0.7c0.1-0.3,0.3-0.5,0.4-0.7
				C30.8,6.2,30.9,6,31,5.9c0.1-0.2,0.1-0.2,0.1-0.3c0.1-0.4,0.2-0.7,0.3-1.1c0.1-0.3,0.2-0.6,0.3-0.9c0.1-0.3,0.2-0.6,0.2-0.8
				l1.2-0.1c-0.2,0.5-0.3,1.1-0.5,1.6c-0.1,0.5-0.3,1-0.4,1.6c-0.2,0.6-0.3,1.1-0.5,1.6c0.2-0.2,0.4-0.4,0.6-0.7
				c0.2-0.3,0.4-0.8,0.6-1.4l1.4-0.1c-0.1,0.2-0.1,0.4-0.3,0.6c-0.1,0.2-0.2,0.4-0.4,0.6C33.5,6.8,33.3,7,33,7.2
				c0.3,0,0.5,0.1,0.5,0.3c0.1,0.2,0.1,0.4,0,0.7c-0.1,0.4-0.1,0.6,0,0.6c0.1,0,0.1,0,0.2-0.1c0.1-0.1,0.2-0.2,0.3-0.3
				c0.1-0.1,0.2-0.2,0.3-0.4C34.7,7.9,34.8,7.7,34.9,7.6z"/>
		</g>
	</g>
</g>
</svg>
