<?xml version="1.0" encoding="utf-8"?>
<!-- Generator: Adobe Illustrator 17.1.0, SVG Export Plug-In . SVG Version: 6.00 Build 0)  -->
<!DOCTYPE svg PUBLIC "-//W3C//DTD SVG 1.1//EN" "http://www.w3.org/Graphics/SVG/1.1/DTD/svg11.dtd" []>
<svg xmlns="http://www.w3.org/2000/svg" xmlns:xlink="http://www.w3.org/1999/xlink" x="0px" y="0px" viewBox="0 0 67.6 16.4"
	 enable-background="new 0 0 67.6 16.4" xml:space="preserve">
<metadata>
	<sfw>
		<slices></slices>
		<sliceSourceBounds  width="67.6" height="16.4" y="-288.4" x="447.1" bottomLeftOrigin="true"></sliceSourceBounds>
	</sfw>
</metadata>
<g>
	<g>
		<path fill="#99CC33" d="M37.7,8.1C37.5,8,37.4,8,37.2,8C37.1,8,37,8,36.8,8c0,0,0,0-0.1,0c0.1-0.4,0.2-0.7,0.4-1.2
			c0.1-0.2,0-0.4-0.1-0.6C36.9,6.1,36.7,6,36.5,6c0,0-1.2,0.1-1.2,0.1c-0.1,0-0.2,0-0.3,0.1C34.8,6.1,34.5,6,34.3,6c0,0-0.1,0-0.1,0
			c-0.3,0-0.5,0.1-0.8,0.2c-0.3,0.1-0.5,0.3-0.8,0.5c-0.2,0.2-0.5,0.4-0.7,0.7c-0.1,0.2-0.2,0.3-0.3,0.5c0.1-0.3,0.1-0.6,0.1-0.8
			c0-0.5-0.3-0.8-0.7-1c-0.1,0-0.2-0.1-0.4-0.1c-0.3,0-0.5,0.1-0.8,0.2c-0.2,0.1-0.4,0.2-0.6,0.4c0,0,0-0.1-0.1-0.1
			c-0.1-0.2-0.3-0.2-0.5-0.2c0,0-1.3,0.1-1.3,0.1c-0.2,0-0.5,0.2-0.6,0.4c-0.1,0.3-0.3,0.5-0.4,0.8C26.2,7.8,26.1,8,26,8.3
			c-0.1,0.1-0.1,0.2-0.2,0.3c0-0.1,0.1-0.2,0.1-0.3c0.1-0.3,0.2-0.6,0.3-1c0.1-0.2,0-0.4-0.1-0.6c-0.1-0.2-0.3-0.2-0.5-0.2
			c0,0-1.2,0.1-1.2,0.1c-0.1,0-0.2,0-0.3,0.1c-0.2-0.1-0.4-0.1-0.6-0.1c0,0-0.1,0-0.1,0c-0.3,0-0.5,0.1-0.8,0.2
			c-0.1,0-0.2,0.1-0.2,0.1L22.3,6c0.1-0.2,0-0.4-0.1-0.6c-0.1-0.2-0.3-0.3-0.5-0.3c0,0-0.2,0-0.2,0c0-0.1,0.1-0.2,0.1-0.4
			c0.1-0.2,0-0.4-0.1-0.6C21.4,4.1,21.2,4,21,4C21,4,19.7,4,19.7,4c-0.3,0-0.5,0.2-0.6,0.5c0,0.1-0.1,0.2-0.1,0.3
			c0,0.1-0.1,0.2-0.1,0.4c0,0,0,0,0,0.1l-2.5,0.1c-0.3,0-0.5,0.2-0.6,0.5l-0.3,0.8c-0.1,0.2,0,0.4,0.1,0.6c0,0,0,0-0.1,0
			c0,0,0-0.1-0.1-0.1C15.4,7.1,15.2,7,15,7C15,7,13.7,7,13.7,7c-0.2,0-0.5,0.2-0.6,0.4c-0.1,0.3-0.3,0.5-0.4,0.8
			c-0.1,0.1-0.1,0.2-0.2,0.3c-0.1-0.2-0.2-0.5-0.3-0.7c-0.2-0.3-0.6-0.7-1.4-0.7c0,0-0.1,0-0.1,0c-0.6,0-1.1,0.2-1.5,0.5
			c-0.4,0.3-0.7,0.6-0.9,1c0,0,0,0.1-0.1,0.1c0.1-0.5,0.3-1,0.5-1.4C9,7,9.2,6.7,9.4,6.4c0.2-0.2,0.3-0.3,0.5-0.3
			c0.6-0.1,1.2-0.3,1.7-0.7c0.5-0.4,0.9-1,1.1-1.9c0.1-0.2,0.1-0.5,0-0.7c-0.1-0.3-0.3-0.5-0.4-0.6c-0.1-0.1-0.3-0.1-0.5-0.1
			c-0.1,0-0.2,0-0.3,0c-0.3,0.1-0.5,0.3-0.6,0.6C10.8,2.9,10.7,3,10.6,3c-0.2,0.1-0.4,0.1-0.6,0.1c-0.1,0-0.2,0-0.3,0
			C9.3,3.1,8.9,3,8.4,2.9c-0.5-0.1-1-0.2-1.6-0.4C6.3,2.4,5.7,2.3,5.1,2.2C4.8,2.2,4.4,2.1,4.1,2.1c-0.2,0-0.4,0-0.6,0
			C2.9,2.2,2.4,2.4,1.9,2.7C1.4,2.9,1,3.4,0.8,3.9C0.6,4.3,0.5,4.6,0.6,5c0.1,0.4,0.2,0.7,0.5,1c0.3,0.3,0.8,0.5,1.3,0.5
			c0.5,0,0.9-0.2,1.2-0.5c0.3-0.3,0.5-0.7,0.6-1.2c0-0.1,0-0.1,0-0.2C4.5,4.7,4.9,4.8,5.3,5c0.5,0.2,1,0.3,1.4,0.5
			c0.1,0,0.2,0.1,0.3,0.1C6.7,5.8,6.5,6.1,6.3,6.3C5.9,7,5.5,7.7,5.2,8.4c-0.3,0.7-0.6,1.4-0.8,2.1c-0.2,0.7-0.4,1.3-0.6,1.9
			c-0.1,0.3-0.2,0.6-0.4,0.9c-0.1-0.4-0.3-0.7-0.6-0.9C2.6,12.1,2.2,12,1.8,12c-0.1,0-0.1,0-0.2,0c-0.5,0.1-0.9,0.3-1.2,0.6
			c0,0,0,0,0,0C0.1,13.1-0.1,13.5,0,14c0,0.2,0.1,0.5,0.2,0.7c0.1,0.3,0.3,0.6,0.6,0.8c0.3,0.3,0.6,0.5,1,0.6
			c0.4,0.1,0.8,0.2,1.3,0.2c0.1,0,0.2,0,0.3,0c0.7,0,1.3-0.2,1.8-0.6C5.6,15.4,6,15,6.3,14.4c0.3-0.5,0.6-1.1,0.8-1.7
			c0.2-0.6,0.4-1.2,0.6-1.9C7.8,10.6,7.9,10.3,8,10c0,0.4,0,0.9,0.1,1.3c0.1,0.4,0.3,0.8,0.6,1.1C9,12.8,9.5,13,10,13
			c0,0,0.1,0,0.1,0c0.4,0,0.8-0.1,1.2-0.3c0.2-0.1,0.4-0.2,0.6-0.4c0,0.1,0.1,0.2,0.1,0.3c0.1,0.2,0.3,0.3,0.5,0.3c0,0,1.1,0,1.1,0
			c0.3,0,0.5-0.2,0.6-0.4c0,0,0.1-0.1,0.2-0.2c0.1-0.1,0.2-0.3,0.3-0.5c0,0.2,0.1,0.4,0.2,0.5c0.2,0.2,0.5,0.5,1,0.5
			c0,0,0.1,0,0.1,0c0.5,0,0.9-0.2,1.4-0.5c0,0,0.1,0,0.1-0.1c0.2,0.2,0.5,0.4,1,0.4c0,0,0.1,0,0.1,0c0.5,0,0.9-0.2,1.4-0.5
			c0.1-0.1,0.3-0.2,0.4-0.3c0.2,0.3,0.4,0.5,0.7,0.6c0.2,0.1,0.3,0.1,0.5,0.1c0.3,0,0.6-0.1,0.9-0.3c0.1-0.1,0.2-0.1,0.3-0.2
			c0.2,0.2,0.5,0.4,0.9,0.4c0,0,0.1,0,0.1,0c0.5,0,0.9-0.2,1.4-0.5c0.1-0.1,0.2-0.1,0.3-0.2c0,0.1,0.1,0.2,0.1,0.3
			c0.1,0.2,0.3,0.3,0.5,0.3c0,0,1.1,0,1.1,0c0.3,0,0.5-0.2,0.6-0.4c0,0,0.1-0.1,0.2-0.2c0.1-0.1,0.2-0.3,0.3-0.5
			c0,0.2,0.1,0.4,0.2,0.5c0.2,0.2,0.5,0.5,1,0.5c0,0,0.1,0,0.1,0c0.5,0,1-0.2,1.4-0.5c0.1-0.1,0.3-0.2,0.4-0.3c0,0,0,0,0,0
			c-0.3,0.2-0.4,0.5-0.5,0.8c-0.2,0.5-0.1,0.9,0.2,1.3c0.2,0.3,0.6,0.6,1.2,0.7c0.1,0,0.3,0,0.4,0c0.3,0,0.7-0.1,1-0.2
			c0.4-0.2,0.7-0.4,1-0.7c0.2-0.3,0.5-0.6,0.6-1c0.1-0.3,0.2-0.5,0.4-0.8c0.3-0.2,0.6-0.4,0.9-0.6c0.4-0.3,0.8-0.8,1.3-1.4
			c0.2-0.2,0.2-0.4,0.2-0.7C38.1,8.5,37.9,8.2,37.7,8.1z M20.9,7.9c-0.1,0.1-0.2,0.3-0.3,0.4l0.3-0.9l0.5,0
			C21.2,7.5,21.1,7.7,20.9,7.9z M18.2,7.4c0,0.1-0.1,0.3-0.1,0.4c0-0.1,0-0.1,0-0.2c0-0.1,0-0.1,0-0.2C18.1,7.5,18.2,7.4,18.2,7.4z"
			/>
		<path fill="#99CC33" d="M67.2,6.8c-0.1-0.1-0.3-0.1-0.4-0.1c-0.1,0-0.2,0-0.4,0.1c-0.2,0.1-0.3,0.2-0.5,0.3l0.3-0.9
			c0-0.1,0-0.1,0-0.2c0,0,0.1-0.1,0.1-0.1c0.3-0.3,0.4-0.7,0.4-1.1c0-0.4-0.2-0.8-0.5-1c-0.3-0.3-0.6-0.4-1-0.4c0,0,0,0-0.1,0
			c-0.4,0-0.8,0.2-1,0.5c-0.3,0.3-0.4,0.7-0.4,1.1c0,0.1,0,0.3,0.1,0.4c0,0,0,0.1,0,0.1c0,0.1-0.1,0.4-0.2,0.7c0-0.2,0-0.3,0-0.4
			c0-0.5-0.3-0.8-0.7-0.9c-0.1,0-0.2,0-0.4,0c-0.2,0-0.3,0-0.5,0.1c-0.2,0.1-0.4,0.2-0.7,0.4C61.2,5,61,4.9,60.9,4.8c0,0,0,0,0,0
			c-0.1,0-0.3-0.1-0.4-0.1c-0.3,0-0.5,0.1-0.8,0.2c-0.2,0.1-0.3,0.2-0.5,0.4c0,0,0,0,0,0c-0.1-0.2-0.3-0.2-0.5-0.2
			c0,0-1.3,0.1-1.3,0.1c-0.2,0-0.5,0.2-0.6,0.4c-0.1,0.2-0.3,0.5-0.4,0.8C56.3,6.5,56.2,6.7,56,7c-0.1,0.1-0.2,0.2-0.2,0.4
			c0-0.1,0.1-0.2,0.1-0.3c0.1-0.3,0.2-0.6,0.3-1c0.1-0.2,0-0.4-0.1-0.6c-0.1-0.2-0.3-0.2-0.5-0.2c0,0-1.2,0.1-1.2,0.1
			c-0.1,0-0.2,0-0.3,0.1c-0.2-0.1-0.4-0.1-0.6-0.1c0,0-0.1,0-0.1,0c-0.3,0-0.5,0.1-0.8,0.2c-0.3,0.1-0.5,0.3-0.8,0.5
			c-0.2,0.2-0.5,0.4-0.7,0.7c-0.2,0.3-0.4,0.5-0.5,0.8c0,0,0,0,0,0c-0.2,0.4-0.3,0.8-0.4,1.1C50,8.8,50,9,50,9.2c0,0,0,0,0-0.1
			c-0.2-0.5-0.4-1-0.8-1.4c-0.1-0.1-0.2-0.3-0.3-0.4c0.2-0.1,0.4-0.2,0.6-0.4c0.5-0.4,1.1-0.8,1.5-1.2c0.5-0.4,0.9-0.9,1.3-1.4
			c0.4-0.5,0.7-0.9,1-1.2c0.3-0.3,0.6-0.7,0.8-0.9C54.3,2.1,54.4,2,54.5,2c0,0,0,0,0,0c0.1,0,0.2,0.1,0.3,0.1c0.2,0,0.4,0,0.6-0.1
			c0.3-0.2,0.5-0.5,0.5-0.8c0-0.2-0.1-0.5-0.4-0.7c-0.2-0.2-0.5-0.3-0.8-0.4C54.4,0,54.1,0,53.8,0c-0.5,0-0.9,0.1-1.4,0.3
			c-0.6,0.3-1.2,0.6-1.7,1.1c-0.5,0.4-0.9,0.9-1.3,1.5c-0.4,0.5-0.7,1-1.1,1.5c-0.3,0.3-0.5,0.6-0.8,0.9c0-0.1,0-0.1,0.1-0.2
			C47.9,4.5,48,4,48.2,3.6c0.2-0.4,0.4-0.7,0.6-0.9c0.2-0.2,0.4-0.4,0.6-0.4C49.7,2.1,49.8,2,50,1.8c0.2-0.2,0.2-0.5,0.2-0.7
			c0-0.2-0.2-0.4-0.3-0.6c-0.2-0.1-0.4-0.2-0.6-0.2c-0.2,0-0.3,0-0.5,0c-1.3,0-2.6,0.4-3.9,1.2c-0.7,0.5-1.4,1-2,1.6
			c-0.6,0.6-1.1,1.3-1.5,1.9c-0.4,0.7-0.6,1.4-0.7,2.1c-0.1,0.8,0,1.5,0.4,2.1c0.3,0.5,0.7,0.9,1.2,1.2c0.2,0.1,0.4,0.2,0.6,0.2
			c0,0.1-0.1,0.3-0.1,0.4c-0.1,0.2-0.1,0.4-0.2,0.5c-0.1-0.3-0.3-0.6-0.6-0.8c-0.3-0.3-0.7-0.4-1.1-0.4c-0.1,0-0.1,0-0.2,0
			c-0.5,0.1-0.9,0.3-1.2,0.6c0,0,0,0,0,0c-0.3,0.4-0.4,0.8-0.4,1.3c0,0,0,0,0,0c0,0.2,0.1,0.5,0.2,0.8c0.1,0.3,0.3,0.6,0.6,0.8
			c0.3,0.3,0.6,0.5,1,0.6c0.4,0.1,0.8,0.2,1.3,0.2c0.1,0,0.2,0,0.3,0c0.8,0,1.4-0.3,2-0.8c0.5-0.5,0.9-1.1,1.2-1.8
			c0.3-0.7,0.6-1.4,0.8-2.3c0.1-0.4,0.2-0.7,0.3-1.1c0.1,0.2,0.1,0.5,0.2,0.8c0.1,0.5,0.2,1,0.3,1.5c0.1,0.6,0.3,1.1,0.5,1.7
			c0.2,0.6,0.6,1,1,1.4c0.5,0.4,1.1,0.7,1.8,0.8c0.1,0,0.2,0,0.3,0c0.4,0,0.8-0.1,1.2-0.3c0.5-0.2,0.8-0.5,1.1-0.9
			c0.3-0.4,0.5-0.8,0.6-1.3c0.1-0.6-0.1-1.1-0.5-1.5c0,0,0,0,0,0c0.2,0.1,0.4,0.1,0.6,0.1c0,0,0.1,0,0.1,0c0.5,0,0.9-0.2,1.4-0.5
			c0.1-0.1,0.2-0.1,0.3-0.2c0,0.1,0.1,0.2,0.1,0.3c0.1,0.2,0.3,0.3,0.6,0.3c0,0,1.1,0,1.1,0c0.2,0,0.5-0.2,0.6-0.4c0,0,0,0,0,0.1
			c0.1,0.2,0.3,0.3,0.5,0.3c0,0,1.1,0,1.1,0c0.2,0,0.5-0.1,0.6-0.4c0.1-0.1,0.2-0.3,0.2-0.4c0,0.1,0.1,0.1,0.1,0.2
			c0.2,0.2,0.5,0.5,1,0.5c0,0,0.1,0,0.1,0c0.5,0,0.9-0.2,1.4-0.5c0,0,0.1-0.1,0.1-0.1c0.2,0.2,0.5,0.4,1,0.4c0,0,0.1,0,0.1,0
			c0.5,0,0.9-0.2,1.4-0.5c0.4-0.2,0.7-0.5,1-0.8c0.3-0.3,0.6-0.7,0.9-1.1c0.2-0.2,0.2-0.4,0.2-0.6C67.7,7.2,67.5,7,67.2,6.8z
			 M50.7,10.9C50.7,10.9,50.7,10.9,50.7,10.9C50.6,11,50.6,11,50.5,11c0-0.2-0.1-0.3-0.1-0.5c0,0,0,0,0,0
			C50.5,10.6,50.6,10.8,50.7,10.9z M43.8,6.9c0,0.1-0.1,0.3-0.1,0.4c0-0.2,0-0.4,0-0.7c0.1-0.4,0.2-0.9,0.5-1.4
			c0.2-0.3,0.4-0.6,0.6-0.9c-0.1,0.1-0.1,0.3-0.2,0.4C44.3,5.4,44.1,6.2,43.8,6.9z"/>
	</g>
	<g>
		<path fill="#FFFFFF" d="M1.4,4.3c0.2-0.5,0.5-0.8,0.9-1C2.6,3,3.1,2.9,3.5,2.8c0.5,0,1,0,1.5,0C5.6,3,6.1,3.1,6.7,3.2
			c0.5,0.1,1.1,0.2,1.6,0.4c0.5,0.1,1,0.2,1.4,0.2c0.4,0,0.8,0,1.1-0.1c0.3-0.1,0.6-0.3,0.7-0.6c0.1-0.1,0.1-0.2,0.2-0.2
			c0.1,0,0.2,0,0.2,0C12,2.9,12,2.9,12.1,3c0,0.1,0,0.2,0,0.3c-0.2,0.7-0.5,1.2-0.9,1.6c-0.4,0.3-0.8,0.5-1.3,0.5
			C9.5,5.5,9.2,5.6,8.9,6C8.6,6.3,8.4,6.7,8.2,7.2C8,7.7,7.8,8.2,7.6,8.8C7.4,9.4,7.3,10,7.1,10.7c-0.2,0.6-0.4,1.2-0.6,1.8
			c-0.2,0.6-0.5,1.1-0.7,1.6c-0.3,0.5-0.6,0.9-1,1.1c-0.4,0.3-0.9,0.5-1.4,0.5c-0.5,0-0.9,0-1.3-0.2c-0.3-0.1-0.6-0.3-0.8-0.5
			c-0.2-0.2-0.3-0.4-0.4-0.6c-0.1-0.2-0.1-0.4-0.2-0.6c0-0.3,0-0.6,0.2-0.9c0.2-0.2,0.4-0.4,0.8-0.4c0.3,0,0.6,0,0.8,0.2
			c0.2,0.2,0.4,0.4,0.4,0.7c0,0.3,0,0.6-0.2,0.8c0,0.1-0.1,0.1-0.1,0.1c0,0-0.1,0.1-0.1,0.1c0.2,0.1,0.4,0.1,0.6,0.1
			c0.4-0.1,0.7-0.3,0.9-0.7c0.2-0.4,0.5-0.9,0.7-1.4c0.2-0.6,0.4-1.2,0.6-1.9C5.3,10,5.6,9.3,5.9,8.6c0.3-0.7,0.6-1.3,1-1.9
			c0.4-0.6,0.9-1.1,1.5-1.5C7.9,5.2,7.4,5,6.9,4.8C6.4,4.7,6,4.5,5.5,4.3C5,4.2,4.6,4,4.1,3.9C3.7,3.8,3.3,3.8,3,3.9
			C3.1,3.9,3.1,4,3.1,4c0.2,0.2,0.3,0.5,0.3,0.8c0,0.3-0.1,0.5-0.3,0.7C2.9,5.7,2.6,5.8,2.3,5.8C2,5.8,1.8,5.7,1.5,5.5
			C1.4,5.3,1.3,5.1,1.2,4.9C1.2,4.7,1.2,4.5,1.4,4.3z"/>
		<path fill="#FFFFFF" d="M12.5,10c0.1-0.1,0.2-0.2,0.3-0.2c0.1,0,0.2-0.1,0.2,0c0.1,0,0.1,0.1,0.1,0.1c0,0.1,0,0.2-0.1,0.3
			c-0.1,0.1-0.2,0.3-0.4,0.6c-0.2,0.2-0.4,0.5-0.7,0.7c-0.3,0.2-0.6,0.4-0.9,0.6c-0.3,0.2-0.6,0.2-0.9,0.2c-0.4,0-0.6-0.1-0.9-0.4
			c-0.2-0.2-0.4-0.5-0.5-0.8c-0.1-0.3-0.1-0.7-0.1-1.1C8.7,9.7,8.8,9.4,9,9c0.2-0.3,0.4-0.6,0.7-0.8C10,8,10.4,7.9,10.8,7.9
			c0.4,0,0.7,0.1,0.9,0.4C11.9,8.5,12,8.8,12,9.1c0,0.3-0.2,0.6-0.4,0.9c-0.3,0.3-0.6,0.4-1.1,0.5c-0.1,0-0.1,0-0.2,0
			c-0.1,0-0.1,0-0.2,0c-0.1,0-0.1,0-0.2-0.1c0,0.1,0,0.2,0,0.3c0,0.1,0.1,0.2,0.1,0.3c0.1,0.1,0.2,0.2,0.3,0.2
			c0.1,0.1,0.2,0.1,0.4,0.1c0.2,0,0.4-0.1,0.5-0.1c0.2-0.1,0.3-0.2,0.5-0.3c0.2-0.1,0.3-0.3,0.4-0.4C12.2,10.2,12.3,10.1,12.5,10z
			 M11.1,8.5c-0.2-0.1-0.3-0.1-0.5,0c-0.1,0.1-0.3,0.2-0.4,0.4C10.2,9,10.1,9.2,10,9.4C9.9,9.6,9.9,9.7,9.9,9.9
			c0.2,0.1,0.4,0,0.6-0.1c0.2-0.1,0.4-0.2,0.5-0.4c0.1-0.2,0.2-0.3,0.3-0.5C11.2,8.7,11.2,8.6,11.1,8.5z"/>
		<path fill="#FFFFFF" d="M12.5,10c0.2-0.2,0.3-0.5,0.5-0.8c0.2-0.3,0.3-0.5,0.4-0.7c0.1-0.3,0.3-0.5,0.4-0.8L15,7.6
			c0,0.2-0.1,0.5-0.3,0.9C14.6,9,14.5,9.5,14.3,10c0.2-0.3,0.5-0.7,0.7-1c0.2-0.3,0.5-0.6,0.8-0.9c0.3-0.3,0.5-0.5,0.7-0.6
			c0.2-0.1,0.5-0.2,0.7-0.1c0.1,0,0.2,0.2,0.2,0.4c0,0.2,0,0.4-0.1,0.7c-0.1,0.3-0.1,0.5-0.2,0.8c-0.1,0.3-0.2,0.6-0.3,0.8
			c-0.1,0.2-0.1,0.5-0.2,0.6s0,0.2,0.1,0.2c0.1,0,0.2,0,0.3-0.1c0.1-0.1,0.2-0.2,0.4-0.3c0.1-0.1,0.3-0.2,0.4-0.4
			c0.1-0.1,0.3-0.3,0.4-0.4c0.1-0.1,0.2-0.2,0.3-0.3c0.1,0,0.2,0,0.2,0c0.1,0,0.1,0.1,0.1,0.2c0,0.1,0,0.2-0.1,0.3
			c-0.3,0.4-0.6,0.7-0.8,1.1c-0.3,0.3-0.5,0.5-0.9,0.7c-0.3,0.2-0.7,0.3-1,0.4c-0.3,0-0.5-0.1-0.6-0.2c-0.1-0.1-0.2-0.3-0.2-0.5
			c0-0.2,0-0.5,0.1-0.7c0.1-0.3,0.1-0.5,0.2-0.7c0.1-0.2,0.1-0.4,0.2-0.6c0-0.1,0-0.2,0-0.2c-0.1,0-0.1,0.1-0.3,0.2
			c-0.1,0.1-0.3,0.3-0.4,0.5c-0.2,0.2-0.3,0.5-0.5,0.7c-0.2,0.3-0.3,0.5-0.5,0.7c-0.1,0.2-0.3,0.4-0.4,0.6c-0.1,0.2-0.2,0.3-0.2,0.3
			l0,0l-1,0c0.1-0.3,0.2-0.7,0.4-1.1c0.1-0.5,0.3-0.9,0.4-1.4L13,10.2c-0.1,0.2-0.2,0.3-0.3,0.3c-0.1,0-0.2,0-0.2,0
			c-0.1,0-0.1-0.1-0.1-0.2C12.3,10.2,12.4,10.1,12.5,10z"/>
		<path fill="#FFFFFF" d="M21.5,6.6l-1.1,0l-0.9,3.1c-0.1,0.3-0.1,0.5-0.2,0.7c-0.1,0.2-0.1,0.3,0,0.3c0.1,0,0.2,0,0.3-0.1
			c0.1-0.1,0.2-0.2,0.4-0.3c0.1-0.1,0.3-0.2,0.4-0.4c0.1-0.1,0.3-0.3,0.4-0.4c0.1-0.1,0.2-0.2,0.3-0.3c0.1,0,0.2,0,0.2,0
			c0.1,0,0.1,0.1,0.1,0.2c0,0.1,0,0.2-0.1,0.3c-0.3,0.4-0.6,0.7-0.8,1.1c-0.3,0.3-0.5,0.5-0.9,0.7c-0.3,0.2-0.7,0.3-1,0.4
			c-0.3,0-0.4-0.1-0.5-0.2c-0.1-0.1-0.2-0.3-0.1-0.5c0-0.2,0-0.4,0.1-0.7c0.1-0.3,0.1-0.5,0.2-0.7c0.1-0.4,0.3-0.9,0.4-1.4
			c0.2-0.6,0.4-1.1,0.5-1.7l-2.9,0.1l0.3-0.8l2.9-0.1c0-0.2,0.1-0.3,0.1-0.5c0-0.1,0.1-0.3,0.1-0.4c0-0.1,0.1-0.2,0.1-0.3L21,4.6
			c0,0.1-0.1,0.2-0.1,0.4c-0.1,0.2-0.1,0.5-0.2,0.9l1.1,0L21.5,6.6z"/>
		<path fill="#FFFFFF" d="M23.2,7.2c0.4,0,0.7,0.2,0.9,0.5c0-0.1,0-0.1,0.1-0.2c0-0.1,0-0.1,0.1-0.1l0-0.1l1.2-0.1
			c-0.1,0.3-0.2,0.7-0.3,1C25.1,8.4,25,8.7,25,8.9c-0.1,0.3-0.1,0.5-0.2,0.6c-0.1,0.3-0.1,0.5-0.2,0.7c-0.1,0.2-0.1,0.3,0,0.3
			c0.1,0,0.2,0,0.3-0.1c0.1-0.1,0.2-0.2,0.4-0.3c0.1-0.1,0.3-0.2,0.4-0.4c0.1-0.1,0.3-0.3,0.4-0.4c0.1-0.1,0.2-0.2,0.3-0.3
			c0.1,0,0.2,0,0.2,0c0.1,0,0.1,0.1,0.1,0.2c0,0.1,0,0.2-0.1,0.3c-0.3,0.4-0.6,0.7-0.8,1.1c-0.3,0.3-0.5,0.5-0.9,0.7
			c-0.3,0.2-0.7,0.3-1,0.4c-0.3,0-0.5-0.1-0.6-0.2c-0.1-0.2-0.1-0.4-0.1-0.6c-0.3,0.3-0.6,0.6-0.9,0.8c-0.3,0.2-0.6,0.2-0.9,0.1
			c-0.2-0.1-0.3-0.2-0.5-0.4c-0.1-0.2-0.2-0.4-0.2-0.6c0-0.2,0-0.5,0-0.8c0.1-0.3,0.2-0.6,0.3-1c0.1-0.3,0.3-0.5,0.4-0.7
			C21.6,8,21.8,7.8,22,7.7c0.2-0.2,0.4-0.3,0.6-0.4C22.8,7.2,23,7.2,23.2,7.2z M23.6,9.1c0.2-0.4,0.2-0.7,0.1-0.9
			c-0.1-0.2-0.2-0.3-0.5-0.3c-0.2,0-0.4,0.2-0.5,0.4c-0.2,0.2-0.3,0.5-0.5,0.8c-0.1,0.2-0.2,0.4-0.2,0.6c-0.1,0.2-0.1,0.4-0.1,0.6
			c0,0.2,0,0.3,0,0.4c0,0.1,0,0.2,0.1,0.2c0.1,0.1,0.3,0,0.4-0.1c0.2-0.1,0.3-0.3,0.5-0.4c0.1-0.2,0.3-0.4,0.4-0.6
			C23.4,9.5,23.5,9.3,23.6,9.1z"/>
		<path fill="#FFFFFF" d="M26.1,9.4c0.2-0.2,0.3-0.5,0.5-0.8c0.2-0.3,0.3-0.5,0.4-0.7c0.1-0.3,0.3-0.5,0.4-0.8L28.6,7
			c0,0.2-0.1,0.5-0.3,0.9c-0.1,0.5-0.3,0.9-0.5,1.4c0.2-0.3,0.5-0.7,0.7-1c0.2-0.3,0.5-0.6,0.8-0.9c0.3-0.3,0.5-0.5,0.7-0.6
			c0.2-0.1,0.5-0.2,0.7-0.1c0.1,0,0.2,0.2,0.2,0.4c0,0.2,0,0.4-0.1,0.7c-0.1,0.3-0.1,0.5-0.2,0.8c-0.1,0.3-0.2,0.6-0.3,0.8
			c-0.1,0.2-0.1,0.5-0.2,0.6c0,0.2,0,0.2,0.1,0.2c0.1,0,0.2,0,0.3-0.1c0.1-0.1,0.2-0.2,0.4-0.3c0.1-0.1,0.3-0.2,0.4-0.4
			c0.1-0.1,0.3-0.3,0.4-0.4C31.9,9,32,8.9,32.1,8.9c0.1,0,0.2,0,0.2,0c0.1,0,0.1,0.1,0.1,0.2c0,0.1,0,0.2-0.1,0.3
			c-0.3,0.4-0.6,0.7-0.8,1.1c-0.3,0.3-0.5,0.5-0.9,0.7c-0.3,0.2-0.7,0.3-1,0.4c-0.3,0-0.5-0.1-0.6-0.2c-0.1-0.1-0.2-0.3-0.2-0.5
			c0-0.2,0-0.5,0.1-0.7c0.1-0.3,0.1-0.5,0.2-0.7c0.1-0.2,0.1-0.4,0.2-0.6c0-0.1,0-0.2,0-0.2s-0.1,0.1-0.3,0.2
			C29,8.9,28.8,9,28.7,9.2c-0.2,0.2-0.3,0.5-0.5,0.7c-0.2,0.3-0.3,0.5-0.5,0.7c-0.1,0.2-0.3,0.4-0.4,0.6c-0.1,0.2-0.2,0.3-0.2,0.3
			l0,0l-1,0c0.1-0.3,0.2-0.7,0.4-1.1c0.1-0.5,0.3-0.9,0.4-1.4l-0.3,0.5c-0.1,0.2-0.2,0.3-0.3,0.3c-0.1,0-0.2,0-0.2,0
			c-0.1,0-0.1-0.1-0.1-0.2C25.9,9.6,26,9.5,26.1,9.4z"/>
		<path fill="#FFFFFF" d="M34.3,6.7c0.2,0,0.4,0.1,0.5,0.1c0.1,0.1,0.3,0.2,0.4,0.3c0-0.1,0-0.1,0-0.2c0-0.1,0-0.1,0-0.1
			c0,0,0-0.1,0-0.1l1.2-0.1c-0.2,0.5-0.3,1-0.5,1.5c-0.1,0.4-0.2,0.8-0.4,1.2c-0.1,0.4-0.2,0.7-0.3,0.8c0.2-0.2,0.5-0.4,0.7-0.6
			c0.2-0.2,0.5-0.5,0.7-0.7c0.1-0.1,0.2-0.2,0.3-0.3c0.1,0,0.2,0,0.2,0c0.1,0,0.1,0.1,0.1,0.2c0,0.1,0,0.2-0.1,0.3
			c-0.4,0.5-0.8,0.9-1.1,1.2c-0.4,0.3-0.7,0.5-1,0.7c-0.1,0.3-0.3,0.6-0.4,0.9c-0.2,0.3-0.3,0.6-0.5,0.8c-0.2,0.2-0.5,0.4-0.7,0.5
			c-0.3,0.1-0.6,0.2-1,0.1c-0.4,0-0.6-0.2-0.8-0.4c-0.2-0.2-0.2-0.5-0.1-0.7c0.1-0.3,0.3-0.5,0.6-0.7c0.3-0.2,0.8-0.3,1.5-0.4
			l0.3-0.8c-0.3,0.3-0.5,0.5-0.8,0.6c-0.3,0.1-0.5,0.2-0.8,0.1c-0.2-0.1-0.3-0.2-0.5-0.4c-0.1-0.2-0.2-0.4-0.2-0.6
			c0-0.2,0-0.5,0-0.8c0.1-0.3,0.2-0.6,0.3-1c0.1-0.3,0.3-0.5,0.4-0.7c0.2-0.2,0.4-0.4,0.6-0.6c0.2-0.2,0.4-0.3,0.6-0.4
			C33.9,6.7,34.1,6.7,34.3,6.7z M32.4,12.9c0.2,0.1,0.4,0,0.5-0.1c0.2-0.2,0.3-0.4,0.5-0.8c-0.3,0-0.5,0.1-0.7,0.2
			c-0.2,0.1-0.3,0.2-0.4,0.3c-0.1,0.1-0.1,0.2-0.1,0.3C32.2,12.8,32.3,12.8,32.4,12.9z M34.6,8.6c0.2-0.4,0.2-0.7,0.1-0.9
			c-0.1-0.2-0.2-0.3-0.5-0.3c-0.2,0-0.4,0.2-0.6,0.4c-0.2,0.2-0.4,0.5-0.5,0.8c-0.1,0.2-0.2,0.4-0.2,0.6c-0.1,0.2-0.1,0.4-0.1,0.6
			c0,0.2,0,0.3,0,0.4c0,0.1,0,0.2,0.1,0.2c0.1,0.1,0.3,0,0.4-0.1c0.2-0.1,0.3-0.3,0.5-0.4c0.2-0.2,0.3-0.4,0.4-0.6
			C34.4,9.1,34.5,8.8,34.6,8.6z"/>
		<path fill="#FFFFFF" d="M54.6,1.5c-0.3-0.1-0.5,0-0.8,0.3c-0.3,0.2-0.6,0.5-0.9,0.9c-0.3,0.4-0.7,0.8-1.1,1.3
			c-0.4,0.5-0.8,0.9-1.2,1.3c-0.4,0.4-0.9,0.8-1.4,1.1c-0.5,0.3-1.1,0.5-1.6,0.6c0.5,0.3,0.8,0.7,1.1,1.1c0.3,0.4,0.5,0.8,0.7,1.3
			c0.2,0.4,0.3,0.9,0.4,1.3c0.1,0.4,0.2,0.9,0.3,1.2c0.1,0.4,0.2,0.7,0.3,0.9c0.1,0.2,0.3,0.4,0.5,0.4c0.2,0,0.4,0,0.6-0.1
			c-0.1,0-0.2-0.1-0.3-0.2c-0.2-0.2-0.3-0.5-0.3-0.8c0-0.3,0.1-0.6,0.3-0.8c0.2-0.2,0.5-0.3,0.8-0.3c0.3,0,0.6,0.1,0.8,0.3
			c0.3,0.3,0.4,0.6,0.3,0.9c0,0.4-0.2,0.7-0.4,1c-0.2,0.3-0.5,0.5-0.9,0.7c-0.4,0.2-0.8,0.3-1.2,0.2c-0.6-0.1-1.1-0.3-1.4-0.6
			c-0.4-0.3-0.6-0.7-0.8-1.2c-0.2-0.5-0.3-1-0.4-1.5c-0.1-0.5-0.2-1.1-0.3-1.6c-0.1-0.5-0.2-1-0.4-1.4c-0.2-0.4-0.4-0.7-0.7-0.8
			c-0.2,0.8-0.5,1.6-0.7,2.4c-0.2,0.8-0.5,1.5-0.8,2.2c-0.3,0.6-0.7,1.2-1.1,1.6c-0.4,0.4-0.9,0.6-1.5,0.6c-0.5,0-0.9,0-1.3-0.2
			c-0.3-0.1-0.6-0.3-0.8-0.5c-0.2-0.2-0.3-0.4-0.4-0.6c-0.1-0.2-0.1-0.4-0.2-0.6c0-0.3,0.1-0.6,0.2-0.9c0.2-0.2,0.4-0.4,0.8-0.4
			c0.3,0,0.6,0,0.8,0.2c0.2,0.2,0.4,0.4,0.4,0.7c0,0.3,0,0.6-0.2,0.8c0,0.1-0.1,0.1-0.1,0.1c0,0-0.1,0.1-0.1,0.1
			c0.2,0.1,0.4,0.1,0.5,0.1c0.2,0,0.4-0.1,0.5-0.3c0.2-0.2,0.3-0.4,0.5-0.6c0.1-0.3,0.3-0.6,0.4-0.9c0.1-0.4,0.3-0.7,0.4-1.1
			c-0.4,0-0.8-0.1-1.2-0.3c-0.4-0.2-0.7-0.5-1-0.9c-0.3-0.5-0.4-1-0.3-1.6c0.1-0.6,0.3-1.2,0.7-1.8c0.4-0.6,0.8-1.2,1.4-1.8
			c0.6-0.6,1.2-1.1,1.9-1.5c1.4-0.8,2.7-1.2,4-1.1c0.1,0,0.2,0,0.2,0.1c0.1,0,0.1,0.1,0.1,0.2c0,0.1,0,0.1-0.1,0.2
			c0,0.1-0.1,0.1-0.3,0.2c-0.3,0.1-0.6,0.3-0.9,0.6c-0.3,0.3-0.5,0.7-0.7,1.1c-0.2,0.4-0.4,0.9-0.6,1.4c-0.2,0.5-0.3,1.1-0.5,1.6
			c0.5,0,0.9-0.2,1.3-0.5c0.4-0.3,0.7-0.7,1.1-1.2c0.4-0.5,0.7-1,1.1-1.5c0.4-0.5,0.8-1,1.2-1.4c0.4-0.4,0.9-0.7,1.5-0.9
			c0.5-0.2,1.2-0.3,1.9-0.1c0.2,0,0.4,0.1,0.5,0.2c0.1,0.1,0.2,0.2,0.2,0.3c0,0.1,0,0.2-0.1,0.2C55,1.5,54.8,1.5,54.6,1.5z
			 M43.9,9.2c0.2-0.7,0.4-1.4,0.6-2.1c0.2-0.7,0.5-1.4,0.8-2.1c0.3-0.7,0.6-1.3,1-1.9c0.4-0.6,0.8-1.1,1.3-1.4C47,1.8,46.5,2,46,2.3
			c-0.5,0.3-0.9,0.7-1.4,1.1c-0.5,0.5-0.8,1-1.1,1.5c-0.3,0.5-0.4,1.1-0.5,1.6C43,7,43,7.5,43.2,8C43.3,8.4,43.5,8.8,43.9,9.2
			C43.8,9.2,43.8,9.2,43.9,9.2C43.9,9.2,43.9,9.2,43.9,9.2z"/>
		<path fill="#FFFFFF" d="M53.3,5.9c0.4,0,0.7,0.2,0.9,0.5c0-0.1,0-0.1,0.1-0.2c0-0.1,0-0.1,0.1-0.1l0-0.1l1.2-0.1
			c-0.1,0.3-0.2,0.7-0.3,1c-0.1,0.3-0.2,0.5-0.2,0.8c-0.1,0.3-0.1,0.5-0.2,0.6c-0.1,0.3-0.1,0.5-0.2,0.7c-0.1,0.2-0.1,0.3,0,0.3
			c0.1,0,0.2,0,0.3-0.1c0.1-0.1,0.2-0.2,0.4-0.3c0.1-0.1,0.3-0.2,0.4-0.4s0.3-0.3,0.4-0.4c0.1-0.1,0.2-0.2,0.3-0.3
			c0.1,0,0.2,0,0.2,0c0.1,0,0.1,0.1,0.1,0.2c0,0.1,0,0.2-0.1,0.3C56.3,8.7,56,9,55.8,9.3c-0.3,0.3-0.5,0.5-0.9,0.7
			c-0.3,0.2-0.7,0.3-1,0.4c-0.3,0-0.5-0.1-0.6-0.2c-0.1-0.2-0.1-0.4-0.1-0.6c-0.3,0.3-0.6,0.6-0.9,0.8c-0.3,0.2-0.6,0.2-0.9,0.1
			c-0.2-0.1-0.3-0.2-0.5-0.4c-0.1-0.2-0.2-0.4-0.2-0.6c0-0.2,0-0.5,0-0.8c0.1-0.3,0.2-0.6,0.3-1c0.1-0.3,0.3-0.5,0.4-0.7
			c0.2-0.2,0.4-0.4,0.6-0.6c0.2-0.2,0.4-0.3,0.6-0.4C52.9,5.9,53.1,5.9,53.3,5.9z M53.6,7.8c0.2-0.4,0.2-0.7,0.1-0.9
			c-0.1-0.2-0.2-0.3-0.5-0.3c-0.2,0-0.4,0.2-0.5,0.4c-0.2,0.2-0.3,0.5-0.5,0.8C52.2,8,52.1,8.2,52,8.4C52,8.6,51.9,8.8,51.9,9
			c0,0.2,0,0.3,0,0.4c0,0.1,0,0.2,0.1,0.2c0.1,0.1,0.3,0,0.4-0.1c0.2-0.1,0.3-0.3,0.5-0.4c0.1-0.2,0.3-0.4,0.4-0.6
			C53.4,8.2,53.5,8,53.6,7.8z"/>
		<path fill="#FFFFFF" d="M59.1,8c0.1-0.2,0.1-0.4,0.2-0.5c0-0.1,0-0.2,0-0.2c-0.1,0-0.1,0.1-0.3,0.2c-0.1,0.1-0.2,0.3-0.4,0.5
			c-0.1,0.2-0.3,0.4-0.5,0.7c-0.2,0.2-0.3,0.5-0.4,0.7c-0.1,0.2-0.3,0.4-0.3,0.6c-0.1,0.2-0.2,0.3-0.2,0.3l0,0l-1,0
			c0.1-0.3,0.3-0.7,0.4-1.2c0.1-0.5,0.3-0.9,0.4-1.4c-0.1,0.1-0.1,0.2-0.2,0.3c-0.1,0.1-0.1,0.2-0.2,0.2c-0.1,0.2-0.2,0.3-0.3,0.3
			c-0.1,0-0.2,0-0.2,0C56,8.5,56,8.5,56,8.4c0-0.1,0-0.2,0.1-0.3c0.2-0.2,0.3-0.5,0.5-0.8c0.2-0.3,0.3-0.5,0.4-0.7
			c0.1-0.3,0.3-0.5,0.4-0.8l1.3-0.1c0,0.1,0,0.2-0.1,0.3c0,0.1-0.1,0.3-0.1,0.5c-0.1,0.2-0.1,0.4-0.2,0.6c-0.1,0.2-0.1,0.5-0.2,0.7
			c0.2-0.3,0.4-0.6,0.6-1c0.2-0.3,0.5-0.6,0.7-0.8c0.2-0.2,0.5-0.4,0.7-0.5c0.2-0.1,0.4-0.2,0.6-0.1c0.2,0.1,0.2,0.2,0.2,0.5
			c0,0.3-0.1,0.6-0.1,0.9c0.2-0.2,0.3-0.5,0.5-0.7c0.2-0.2,0.3-0.4,0.5-0.5c0.2-0.1,0.3-0.2,0.5-0.3c0.2-0.1,0.3-0.1,0.5,0
			c0.1,0,0.2,0.2,0.2,0.4c0,0.2,0,0.4-0.1,0.7c-0.1,0.3-0.1,0.5-0.2,0.8c-0.1,0.3-0.2,0.6-0.3,0.8c-0.1,0.2-0.1,0.5-0.2,0.6
			s0,0.2,0.1,0.2c0.1,0,0.2,0,0.3-0.1c0.1-0.1,0.2-0.2,0.4-0.3c0.1-0.1,0.3-0.2,0.4-0.4c0.1-0.1,0.3-0.3,0.4-0.4
			c0.1-0.1,0.2-0.2,0.3-0.3c0.1,0,0.2,0,0.2,0c0.1,0,0.1,0.1,0.1,0.2c0,0.1,0,0.2-0.1,0.3C64,8.3,63.7,8.7,63.4,9
			c-0.3,0.3-0.6,0.5-0.9,0.7c-0.3,0.2-0.7,0.3-1,0.4c-0.3,0-0.5-0.1-0.5-0.2c-0.1-0.1-0.1-0.3-0.1-0.5c0-0.2,0-0.5,0.1-0.7
			c0.1-0.3,0.2-0.5,0.2-0.7c0.1-0.2,0.1-0.4,0.2-0.6c0-0.1,0-0.2,0-0.2c0,0-0.1,0-0.2,0.1c-0.1,0.1-0.2,0.2-0.3,0.3
			c-0.1,0.1-0.2,0.3-0.3,0.5c-0.1,0.2-0.2,0.4-0.3,0.6c-0.3,0.5-0.5,1-0.8,1.5l-1,0c0.1-0.4,0.2-0.7,0.3-1c0.1-0.3,0.2-0.5,0.2-0.8
			C59,8.2,59.1,8.1,59.1,8z"/>
		<path fill="#FFFFFF" d="M66.3,7.6c0.1-0.1,0.2-0.2,0.3-0.3c0.1,0,0.2,0,0.2,0c0.1,0,0.1,0.1,0.1,0.2c0,0.1,0,0.2-0.1,0.3
			c-0.3,0.4-0.6,0.7-0.9,1.1c-0.3,0.3-0.6,0.5-0.9,0.7c-0.3,0.2-0.7,0.3-1,0.4c-0.3,0-0.4-0.1-0.5-0.2c-0.1-0.1-0.2-0.3-0.1-0.5
			c0-0.2,0-0.4,0.1-0.7c0.1-0.3,0.1-0.5,0.2-0.7c0.2-0.6,0.4-1.1,0.5-1.5c0.1-0.4,0.2-0.6,0.3-0.8C64.7,5.9,65,6,65.3,6
			c0.1,0,0.2,0,0.3,0L65,7.8C65,8,64.9,8.3,64.8,8.5c-0.1,0.2-0.1,0.3,0,0.3c0.1,0,0.2,0,0.3-0.1c0.1-0.1,0.2-0.2,0.4-0.3
			C65.7,8.3,65.8,8.2,66,8C66.1,7.9,66.2,7.8,66.3,7.6z M66.1,4.8c0,0.2-0.1,0.4-0.2,0.6c-0.2,0.2-0.3,0.3-0.6,0.3
			c-0.2,0-0.4-0.1-0.6-0.2c-0.2-0.2-0.3-0.3-0.3-0.6c0-0.2,0.1-0.4,0.2-0.6C64.8,4.1,65,4,65.2,4c0.2,0,0.4,0.1,0.6,0.2
			C66,4.4,66.1,4.6,66.1,4.8z"/>
	</g>
</g>
</svg>
