<?xml version="1.0" encoding="utf-8"?>
<!-- Generator: Adobe Illustrator 17.1.0, SVG Export Plug-In . SVG Version: 6.00 Build 0)  -->
<!DOCTYPE svg PUBLIC "-//W3C//DTD SVG 1.1//EN" "http://www.w3.org/Graphics/SVG/1.1/DTD/svg11.dtd" [
	<!ENTITY ns_extend "http://ns.adobe.com/Extensibility/1.0/">
	<!ENTITY ns_ai "http://ns.adobe.com/AdobeIllustrator/10.0/">
	<!ENTITY ns_graphs "http://ns.adobe.com/Graphs/1.0/">
	<!ENTITY ns_vars "http://ns.adobe.com/Variables/1.0/">
	<!ENTITY ns_imrep "http://ns.adobe.com/ImageReplacement/1.0/">
	<!ENTITY ns_sfw "http://ns.adobe.com/SaveForWeb/1.0/">
	<!ENTITY ns_custom "http://ns.adobe.com/GenericCustomNamespace/1.0/">
	<!ENTITY ns_adobe_xpath "http://ns.adobe.com/XPath/1.0/">
]>
<svg version="1.1" id="Layer_1" xmlns:x="&ns_extend;" xmlns:i="&ns_ai;" xmlns:graph="&ns_graphs;"
	 xmlns="http://www.w3.org/2000/svg" xmlns:xlink="http://www.w3.org/1999/xlink" x="0px" y="0px" viewBox="0 0 72.5 16.2"
	 enable-background="new 0 0 72.5 16.2" xml:space="preserve">
<metadata>
	<sfw  xmlns="&ns_sfw;">
		<slices></slices>
		<sliceSourceBounds  width="729.3" height="21.6" y="157.2" x="-263.1" bottomLeftOrigin="true"></sliceSourceBounds>
	</sfw>
</metadata>
<g>
	<path fill="#FFFFFF" d="M9.3,15.9L3.5,8.4v7.5H0V0h3.5v8.4L12.1,0h1.1L6.5,6.5l7,9.4H9.3z"/>
	<path fill="#FFFFFF" d="M24.8,10.2c0,0.9-0.1,1.7-0.4,2.4c-0.3,0.7-0.7,1.4-1.2,1.9c-0.5,0.5-1.1,0.9-1.9,1.2
		c-0.7,0.3-1.6,0.4-2.4,0.4c-0.9,0-1.7-0.1-2.4-0.4c-0.7-0.3-1.4-0.7-1.9-1.2c-0.5-0.5-0.9-1.2-1.2-1.9c-0.3-0.7-0.4-1.5-0.4-2.4
		c0-0.9,0.1-1.7,0.4-2.4C13.6,7,14,6.4,14.5,5.9C15,5.4,15.6,5,16.4,4.7s1.5-0.4,2.4-0.4c0.9,0,1.7,0.1,2.4,0.4
		C22,5,22.6,5.4,23.1,5.9c0.5,0.5,0.9,1.1,1.2,1.9C24.6,8.5,24.8,9.3,24.8,10.2z M21.3,10.2c0-0.4,0-0.9-0.1-1.5
		C21,8.2,20.9,7.6,20.7,7c-0.2-0.6-0.4-1-0.8-1.4C19.6,5.2,19.3,5,18.8,5c-0.5,0-0.8,0.2-1.2,0.6C17.4,6,17.1,6.5,16.9,7
		c-0.2,0.6-0.3,1.1-0.4,1.7c-0.1,0.6-0.1,1.1-0.1,1.5c0,0.4,0,0.9,0.1,1.5c0.1,0.6,0.2,1.2,0.4,1.7c0.2,0.6,0.4,1,0.8,1.4
		c0.3,0.4,0.7,0.6,1.2,0.6c0.4,0,0.8-0.2,1.1-0.6c0.3-0.4,0.6-0.9,0.8-1.4c0.2-0.6,0.3-1.1,0.4-1.7C21.2,11.1,21.3,10.6,21.3,10.2z"
		/>
	<path fill="#FFFFFF" d="M34.8,15.9V8.5c0-1.1-0.2-1.9-0.6-2.6c-0.4-0.6-0.9-1-1.6-1c-0.7,0-1.3,0.3-1.6,1c-0.4,0.6-0.6,1.5-0.6,2.6
		v7.4h-3.5V4.5h3.5v1.4c0.4-0.5,0.8-0.9,1.4-1.2c0.6-0.3,1.3-0.4,2.1-0.4c0.7,0,1.3,0.1,1.8,0.3c0.6,0.2,1,0.5,1.4,0.9
		c0.4,0.4,0.7,0.8,0.9,1.4c0.2,0.5,0.3,1.1,0.3,1.8v7.4H34.8z"/>
	<path fill="#FFFFFF" d="M44.2,5.2V13c0,0.6,0.1,1.2,0.2,1.6c0.1,0.4,0.3,0.6,0.6,0.6c0.1,0,0.2,0,0.4,0c0.2,0,0.3-0.1,0.4-0.2v0.8
		c-0.5,0.3-1.1,0.4-1.7,0.4c-0.6,0-1.2-0.1-1.6-0.2c-0.4-0.1-0.8-0.3-1-0.6c-0.3-0.3-0.4-0.6-0.6-1c-0.1-0.4-0.2-0.9-0.2-1.4V5.2
		h-1.2V4.5h1.2V2.5l3.5-0.6v2.5H46v0.8H44.2z"/>
	<path fill="#FFFFFF" d="M55,15.9v-0.6c-0.1,0.1-0.3,0.2-0.6,0.3c-0.3,0.1-0.6,0.2-0.9,0.3c-0.3,0.1-0.7,0.1-1.1,0.2
		c-0.4,0-0.7,0.1-0.9,0.1c-0.6,0-1.2-0.1-1.7-0.2c-0.6-0.1-1-0.3-1.5-0.6c-0.4-0.3-0.8-0.6-1-1c-0.3-0.4-0.4-0.9-0.4-1.4
		c0-0.6,0.2-1.1,0.6-1.5c0.4-0.4,0.9-0.7,1.5-1c0.6-0.2,1.2-0.4,1.9-0.5c0.7-0.1,1.3-0.2,1.9-0.2c0.4,0,0.8-0.1,1.1-0.2
		C54,9.4,54.2,9.3,54.4,9c0.2-0.2,0.3-0.5,0.4-0.8C54.9,7.9,55,7.7,55,7.4c0-0.2,0-0.5-0.1-0.8c-0.1-0.3-0.2-0.5-0.4-0.8
		c-0.2-0.2-0.4-0.4-0.6-0.6c-0.3-0.2-0.6-0.2-1-0.2c-0.4,0-0.7,0.1-0.9,0.2c-0.3,0.2-0.5,0.4-0.6,0.6C51.2,6.1,51,6.3,51,6.6
		c-0.1,0.3-0.1,0.5-0.1,0.8h-3.5c0-0.6,0.2-1.1,0.6-1.5s0.8-0.7,1.4-1c0.6-0.3,1.2-0.4,1.8-0.5c0.6-0.1,1.3-0.2,1.8-0.2
		c0.6,0,1.2,0.1,1.8,0.2C55.4,4.5,56,4.7,56.5,5c0.6,0.3,1,0.6,1.4,1s0.6,0.9,0.6,1.5v8.5H55z M55,10c-0.3,0.2-0.6,0.3-1,0.4
		c-0.4,0.1-0.8,0.2-1.3,0.2c-0.4,0-0.8,0.1-1.1,0.2c-0.3,0.1-0.5,0.3-0.7,0.6c-0.2,0.2-0.3,0.5-0.4,0.8c-0.1,0.3-0.1,0.6-0.1,0.8
		c0,0.3,0,0.5,0.1,0.8c0.1,0.3,0.2,0.5,0.4,0.8c0.2,0.2,0.4,0.4,0.7,0.6c0.3,0.1,0.6,0.2,1.1,0.2c0.4,0,0.7-0.1,1-0.2
		c0.3-0.1,0.5-0.3,0.7-0.6c0.2-0.2,0.3-0.5,0.4-0.8c0.1-0.3,0.1-0.6,0.1-0.8V10z"/>
	<path fill="#FFFFFF" d="M68.3,15.9l-3.8-5.4v5.4h-3.5V0h3.5v10.6L71,4.5h1.1l-4.7,4.3l5,7.2H68.3z"/>
</g>
</svg>
