<?xml version="1.0" encoding="utf-8"?>
<!-- Generator: Adobe Illustrator 17.1.0, SVG Export Plug-In . SVG Version: 6.00 Build 0)  -->
<!DOCTYPE svg PUBLIC "-//W3C//DTD SVG 1.1//EN" "http://www.w3.org/Graphics/SVG/1.1/DTD/svg11.dtd" [
	<!ENTITY ns_extend "http://ns.adobe.com/Extensibility/1.0/">
	<!ENTITY ns_ai "http://ns.adobe.com/AdobeIllustrator/10.0/">
	<!ENTITY ns_graphs "http://ns.adobe.com/Graphs/1.0/">
	<!ENTITY ns_vars "http://ns.adobe.com/Variables/1.0/">
	<!ENTITY ns_imrep "http://ns.adobe.com/ImageReplacement/1.0/">
	<!ENTITY ns_sfw "http://ns.adobe.com/SaveForWeb/1.0/">
	<!ENTITY ns_custom "http://ns.adobe.com/GenericCustomNamespace/1.0/">
	<!ENTITY ns_adobe_xpath "http://ns.adobe.com/XPath/1.0/">
]>
<svg version="1.1" id="Layer_1" xmlns:x="&ns_extend;" xmlns:i="&ns_ai;" xmlns:graph="&ns_graphs;"
	 xmlns="http://www.w3.org/2000/svg" xmlns:xlink="http://www.w3.org/1999/xlink" x="0px" y="0px" viewBox="0 0 70.2 16.2"
	 enable-background="new 0 0 70.2 16.2" xml:space="preserve">
<metadata>
	<sfw  xmlns="&ns_sfw;">
		<slices></slices>
		<sliceSourceBounds  width="729.3" height="21.6" y="157.2" x="-263.1" bottomLeftOrigin="true"></sliceSourceBounds>
	</sfw>
</metadata>
<g>
	<path fill="#FFFFFF" d="M14.5,11.8c-0.3,0.7-0.6,1.3-1.1,1.8c-0.4,0.5-1,1-1.5,1.4c-0.6,0.4-1.2,0.7-2,0.9
		c-0.7,0.2-1.5,0.3-2.3,0.3c-1.2,0-2.2-0.2-3.2-0.6c-0.9-0.4-1.7-1-2.4-1.7s-1.2-1.6-1.5-2.6C0.2,10.3,0,9.2,0,8.1
		C0,7,0.2,5.9,0.5,4.9c0.4-1,0.9-1.9,1.5-2.6C2.7,1.6,3.5,1,4.4,0.6C5.4,0.2,6.4,0,7.6,0C8.5,0,9.2,0.1,10,0.3
		c0.7,0.2,1.4,0.5,2,0.9c0.6,0.4,1.1,0.9,1.5,1.4c0.4,0.5,0.8,1.2,1.1,1.8h-3.2C11.2,4,11,3.5,10.8,3c-0.2-0.4-0.5-0.8-0.8-1.2
		c-0.3-0.3-0.6-0.6-1-0.8C8.5,0.9,8.1,0.8,7.6,0.8c-0.5,0-1,0.1-1.4,0.4c-0.4,0.2-0.8,0.6-1.1,1C4.8,2.5,4.6,3,4.4,3.5
		C4.2,4,4,4.5,3.9,5.1C3.7,5.6,3.6,6.1,3.6,6.7c-0.1,0.5-0.1,1-0.1,1.4c0,0.4,0,0.9,0.1,1.4c0.1,0.5,0.2,1.1,0.3,1.6
		c0.1,0.5,0.3,1.1,0.5,1.6c0.2,0.5,0.5,1,0.8,1.4c0.3,0.4,0.7,0.7,1.1,1c0.4,0.2,0.9,0.4,1.4,0.4c0.5,0,0.9-0.1,1.3-0.3
		c0.4-0.2,0.7-0.5,1-0.8c0.3-0.3,0.6-0.7,0.8-1.2c0.2-0.4,0.4-0.9,0.5-1.4V9.4H7.6V8.6h6.9V11.8z"/>
	<path fill="#FFFFFF" d="M24.5,16v-0.6c-0.1,0.1-0.3,0.2-0.6,0.3s-0.6,0.2-0.9,0.3c-0.3,0.1-0.7,0.1-1,0.2c-0.4,0-0.7,0.1-0.9,0.1
		c-0.6,0-1.2-0.1-1.7-0.2c-0.5-0.1-1-0.3-1.5-0.6c-0.4-0.2-0.8-0.6-1-1c-0.3-0.4-0.4-0.9-0.4-1.4c0-0.6,0.2-1.1,0.6-1.5
		c0.4-0.4,0.9-0.7,1.4-1c0.6-0.2,1.2-0.4,1.9-0.5c0.7-0.1,1.3-0.2,1.9-0.2c0.4,0,0.8-0.1,1-0.2c0.3-0.1,0.5-0.3,0.7-0.6
		c0.2-0.2,0.3-0.5,0.4-0.8c0.1-0.3,0.1-0.6,0.1-0.8c0-0.2,0-0.5-0.1-0.8C24.3,6.5,24.2,6.2,24,6c-0.2-0.2-0.4-0.4-0.6-0.6
		c-0.3-0.2-0.6-0.2-0.9-0.2c-0.4,0-0.7,0.1-0.9,0.2C21.2,5.6,21,5.8,20.9,6c-0.2,0.2-0.3,0.5-0.4,0.8c-0.1,0.3-0.1,0.5-0.1,0.8h-3.5
		c0-0.6,0.2-1.1,0.6-1.5c0.4-0.4,0.8-0.7,1.4-1c0.5-0.2,1.1-0.4,1.8-0.5c0.6-0.1,1.2-0.2,1.8-0.2c0.6,0,1.2,0.1,1.8,0.2
		c0.6,0.1,1.2,0.3,1.8,0.5c0.6,0.2,1,0.6,1.4,1C27.8,6.5,28,7,28,7.6V16H24.5z M24.5,10.1c-0.3,0.2-0.6,0.3-1,0.4
		c-0.4,0.1-0.8,0.2-1.3,0.2c-0.4,0-0.8,0.1-1.1,0.2c-0.3,0.1-0.5,0.3-0.7,0.6c-0.2,0.2-0.3,0.5-0.4,0.8c-0.1,0.3-0.1,0.6-0.1,0.8
		s0,0.5,0.1,0.8c0.1,0.3,0.2,0.5,0.4,0.8c0.2,0.2,0.4,0.4,0.7,0.6c0.3,0.1,0.6,0.2,1.1,0.2c0.4,0,0.7-0.1,1-0.2
		c0.3-0.1,0.5-0.3,0.7-0.6c0.2-0.2,0.3-0.5,0.4-0.8c0.1-0.3,0.1-0.6,0.1-0.8V10.1z"/>
	<path fill="#FFFFFF" d="M33.6,16.1c-0.6,0-1.2-0.1-1.6-0.2c-0.4-0.1-0.8-0.3-1-0.6c-0.3-0.3-0.4-0.6-0.5-1
		c-0.1-0.4-0.2-0.9-0.2-1.4V0.2h3.5V14c0,0.3,0,0.6,0.1,0.8c0.1,0.3,0.2,0.4,0.5,0.4c0.2,0,0.5,0,0.6-0.1c0.2-0.1,0.3-0.2,0.4-0.3
		v0.9C34.9,16,34.3,16.1,33.6,16.1z"/>
	<path fill="#FFFFFF" d="M39.5,16.1c-0.6,0-1.2-0.1-1.6-0.2c-0.4-0.1-0.8-0.3-1-0.6c-0.3-0.3-0.4-0.6-0.5-1
		c-0.1-0.4-0.2-0.9-0.2-1.4V0.2h3.5V14c0,0.3,0,0.6,0.1,0.8c0.1,0.3,0.2,0.4,0.5,0.4c0.2,0,0.5,0,0.6-0.1c0.2-0.1,0.3-0.2,0.4-0.3
		v0.9C40.7,16,40.2,16.1,39.5,16.1z"/>
	<path fill="#FFFFFF" d="M45.1,10.3c0,0.4,0,0.9,0.1,1.4c0.1,0.6,0.2,1.1,0.4,1.7c0.2,0.5,0.4,1,0.7,1.4c0.3,0.4,0.7,0.6,1.1,0.6
		c0.3,0,0.5-0.1,0.7-0.2c0.2-0.1,0.4-0.3,0.6-0.6c0.2-0.2,0.3-0.5,0.5-0.8c0.1-0.3,0.2-0.6,0.3-1H53c-0.4,1.1-1.1,1.9-2,2.5
		c-0.9,0.6-2.1,0.9-3.4,0.9c-0.9,0-1.7-0.1-2.4-0.4c-0.7-0.3-1.3-0.7-1.9-1.2c-0.5-0.5-0.9-1.1-1.2-1.9c-0.3-0.7-0.4-1.5-0.4-2.4
		c0-0.9,0.1-1.7,0.4-2.4c0.3-0.7,0.7-1.3,1.2-1.9c0.5-0.5,1.1-0.9,1.9-1.2c0.7-0.3,1.5-0.4,2.4-0.4c0.9,0,1.7,0.1,2.4,0.4
		c0.7,0.3,1.4,0.7,1.9,1.2c0.5,0.5,0.9,1.1,1.2,1.9c0.3,0.7,0.4,1.5,0.4,2.4H45.1z M49.8,8c-0.1-0.5-0.3-1-0.4-1.4
		c-0.2-0.4-0.4-0.8-0.7-1c-0.3-0.3-0.6-0.4-1-0.4c-0.4,0-0.7,0.1-1,0.4c-0.3,0.3-0.5,0.6-0.7,1C45.6,7,45.4,7.5,45.3,8
		c-0.1,0.5-0.2,1-0.2,1.5h4.8C49.9,9.1,49.9,8.5,49.8,8z"/>
	<path fill="#FFFFFF" d="M61.8,5.8c-0.2-0.4-0.4-0.7-0.7-0.7c-0.7,0-1.2,0.3-1.6,1c-0.4,0.6-0.6,1.5-0.6,2.5V16h-3.5V4.6h3.5V6
		c0.4-0.5,0.8-0.8,1.4-1.1c0.6-0.3,1.2-0.4,2-0.4c0.3,0,0.5,0,0.8,0.1L61.8,5.8z"/>
	<path fill="#FFFFFF" d="M68.8,1.5c0,0.2-0.1,0.5-0.2,0.6c-0.1,0.2-0.3,0.3-0.5,0.4c-0.2,0.1-0.4,0.2-0.6,0.3
		C67.3,2.9,67.1,3,66.9,3c-0.2,0-0.4,0-0.7-0.1c-0.2-0.1-0.4-0.2-0.6-0.3c-0.2-0.1-0.4-0.3-0.5-0.4C65,2,64.9,1.7,64.9,1.5
		c0-0.2,0.1-0.5,0.2-0.6c0.1-0.2,0.3-0.3,0.5-0.5c0.2-0.1,0.4-0.2,0.6-0.3C66.4,0,66.7,0,66.9,0c0.2,0,0.4,0,0.7,0.1
		c0.2,0.1,0.4,0.2,0.6,0.3c0.2,0.1,0.4,0.3,0.5,0.5C68.8,1,68.8,1.2,68.8,1.5z M68.4,16.1c-0.6,0-1.2-0.1-1.6-0.2
		c-0.4-0.1-0.8-0.3-1-0.6c-0.3-0.3-0.4-0.6-0.5-1c-0.1-0.4-0.2-0.9-0.2-1.4V4.6h3.5V14c0,0.3,0,0.6,0.1,0.8c0.1,0.3,0.2,0.4,0.5,0.4
		c0.2,0,0.5,0,0.6-0.1c0.2-0.1,0.3-0.2,0.4-0.3v0.9C69.7,16,69.1,16.1,68.4,16.1z"/>
</g>
</svg>
