<?xml version="1.0" encoding="utf-8"?>
<!-- Generator: Adobe Illustrator 17.1.0, SVG Export Plug-In . SVG Version: 6.00 Build 0)  -->
<!DOCTYPE svg PUBLIC "-//W3C//DTD SVG 1.1//EN" "http://www.w3.org/Graphics/SVG/1.1/DTD/svg11.dtd" [
	<!ENTITY ns_extend "http://ns.adobe.com/Extensibility/1.0/">
	<!ENTITY ns_ai "http://ns.adobe.com/AdobeIllustrator/10.0/">
	<!ENTITY ns_graphs "http://ns.adobe.com/Graphs/1.0/">
	<!ENTITY ns_vars "http://ns.adobe.com/Variables/1.0/">
	<!ENTITY ns_imrep "http://ns.adobe.com/ImageReplacement/1.0/">
	<!ENTITY ns_sfw "http://ns.adobe.com/SaveForWeb/1.0/">
	<!ENTITY ns_custom "http://ns.adobe.com/GenericCustomNamespace/1.0/">
	<!ENTITY ns_adobe_xpath "http://ns.adobe.com/XPath/1.0/">
]>
<svg version="1.1" id="Layer_1" xmlns:x="&ns_extend;" xmlns:i="&ns_ai;" xmlns:graph="&ns_graphs;"
	 xmlns="http://www.w3.org/2000/svg" xmlns:xlink="http://www.w3.org/1999/xlink" x="0px" y="0px" viewBox="0 0 146.7 21.6"
	 enable-background="new 0 0 146.7 21.6" xml:space="preserve">
<metadata>
	<sfw  xmlns="&ns_sfw;">
		<slices></slices>
		<sliceSourceBounds  width="729.3" height="21.6" y="157.2" x="-263.1" bottomLeftOrigin="true"></sliceSourceBounds>
	</sfw>
</metadata>
<g>
	<path fill="#FFFFFF" d="M8.8,1v15.2H5.3V1H0V0.2h14.1V1H8.8z"/>
	<path fill="#FFFFFF" d="M13.4,10.5c0,0.4,0,0.9,0.1,1.5c0.1,0.6,0.2,1.2,0.4,1.7c0.2,0.6,0.4,1,0.8,1.4c0.3,0.4,0.7,0.6,1.2,0.6
		c0.3,0,0.5-0.1,0.8-0.2c0.2-0.1,0.4-0.3,0.6-0.6c0.2-0.2,0.3-0.5,0.5-0.8c0.1-0.3,0.2-0.6,0.3-1h3.3c-0.4,1.1-1.1,1.9-2.1,2.5
		c-1,0.6-2.1,0.9-3.4,0.9c-0.9,0-1.7-0.1-2.5-0.4c-0.7-0.3-1.4-0.7-1.9-1.2c-0.5-0.5-0.9-1.2-1.2-1.9c-0.3-0.7-0.4-1.6-0.4-2.5
		c0-0.9,0.1-1.7,0.4-2.5c0.3-0.7,0.7-1.4,1.2-1.9c0.5-0.5,1.2-0.9,1.9-1.2c0.7-0.3,1.6-0.4,2.5-0.4c0.9,0,1.7,0.1,2.4,0.4
		c0.7,0.3,1.4,0.7,1.9,1.2c0.5,0.5,0.9,1.1,1.2,1.9c0.3,0.7,0.4,1.6,0.4,2.5H13.4z M18.1,8.1c-0.1-0.5-0.3-1-0.5-1.4
		c-0.2-0.4-0.4-0.8-0.7-1c-0.3-0.3-0.6-0.4-1-0.4c-0.4,0-0.7,0.1-1,0.4c-0.3,0.3-0.5,0.6-0.7,1c-0.2,0.4-0.4,0.9-0.5,1.4
		c-0.1,0.5-0.2,1-0.2,1.5h4.8C18.3,9.2,18.2,8.7,18.1,8.1z"/>
	<path fill="#FFFFFF" d="M31.9,16.2V8.8c0-1.1-0.2-1.9-0.6-2.6c-0.4-0.6-0.9-1-1.7-1c-0.7,0-1.3,0.3-1.7,1c-0.4,0.6-0.6,1.5-0.6,2.6
		v7.4h-3.5V4.7h3.5v1.4c0.4-0.5,0.8-0.9,1.4-1.2c0.6-0.3,1.3-0.4,2.1-0.4c0.7,0,1.3,0.1,1.9,0.3c0.6,0.2,1,0.5,1.4,0.9
		c0.4,0.4,0.7,0.8,0.9,1.4c0.2,0.5,0.3,1.1,0.3,1.8v7.4H31.9z"/>
	<path fill="#FFFFFF" d="M41.4,5.5v7.8c0,0.7,0.1,1.2,0.2,1.6c0.1,0.4,0.3,0.6,0.6,0.6c0.1,0,0.2,0,0.4,0c0.2,0,0.3-0.1,0.4-0.2V16
		c-0.5,0.3-1.1,0.4-1.8,0.4c-0.6,0-1.2-0.1-1.6-0.2c-0.4-0.1-0.8-0.3-1-0.6c-0.3-0.3-0.4-0.6-0.6-1c-0.1-0.4-0.2-0.9-0.2-1.4V5.5
		h-1.2V4.7h1.2v-2l3.5-0.6v2.5h1.8v0.8H41.4z"/>
	<path fill="#FFFFFF" d="M52.2,16.2v-0.6c-0.1,0.1-0.3,0.2-0.6,0.3c-0.3,0.1-0.6,0.2-0.9,0.3c-0.3,0.1-0.7,0.1-1.1,0.2
		c-0.4,0-0.7,0.1-0.9,0.1c-0.6,0-1.2-0.1-1.7-0.2c-0.6-0.1-1-0.3-1.5-0.6c-0.4-0.3-0.8-0.6-1-1c-0.3-0.4-0.4-0.9-0.4-1.4
		c0-0.6,0.2-1.1,0.6-1.5c0.4-0.4,0.9-0.7,1.5-1c0.6-0.2,1.2-0.4,1.9-0.5c0.7-0.1,1.3-0.2,1.9-0.2c0.4,0,0.8-0.1,1.1-0.2
		c0.3-0.1,0.5-0.3,0.7-0.6C51.8,9,51.9,8.8,52,8.5c0.1-0.3,0.1-0.6,0.1-0.8c0-0.3,0-0.5-0.1-0.8c-0.1-0.3-0.2-0.5-0.4-0.8
		c-0.2-0.2-0.4-0.4-0.6-0.6c-0.3-0.2-0.6-0.2-1-0.2c-0.4,0-0.7,0.1-0.9,0.2c-0.3,0.2-0.5,0.4-0.6,0.6c-0.2,0.2-0.3,0.5-0.4,0.8
		C48,7.1,48,7.4,48,7.7h-3.5c0-0.6,0.2-1.1,0.6-1.5c0.4-0.4,0.8-0.7,1.4-1c0.6-0.3,1.2-0.4,1.8-0.5c0.7-0.1,1.3-0.2,1.8-0.2
		c0.6,0,1.2,0.1,1.8,0.2c0.7,0.1,1.3,0.3,1.8,0.5c0.6,0.3,1,0.6,1.4,1c0.4,0.4,0.6,0.9,0.6,1.5v8.6H52.2z M52.2,10.2
		c-0.3,0.2-0.6,0.3-1,0.4c-0.4,0.1-0.8,0.2-1.3,0.2c-0.4,0-0.8,0.1-1.1,0.2c-0.3,0.1-0.5,0.3-0.7,0.6c-0.2,0.2-0.3,0.5-0.4,0.8
		c-0.1,0.3-0.1,0.6-0.1,0.8s0,0.5,0.1,0.8c0.1,0.3,0.2,0.5,0.4,0.8c0.2,0.2,0.4,0.4,0.7,0.6c0.3,0.1,0.7,0.2,1.1,0.2
		c0.4,0,0.7-0.1,1-0.2c0.3-0.1,0.5-0.3,0.7-0.6c0.2-0.2,0.3-0.5,0.4-0.8c0.1-0.3,0.1-0.6,0.1-0.8V10.2z"/>
	<path fill="#FFFFFF" d="M66.1,16.2V8.8c0-1.1-0.2-1.9-0.6-2.6c-0.4-0.6-0.9-1-1.7-1c-0.7,0-1.3,0.3-1.7,1c-0.4,0.6-0.6,1.5-0.6,2.6
		v7.4h-3.5V4.7h3.5v1.4c0.4-0.5,0.8-0.9,1.4-1.2c0.6-0.3,1.3-0.4,2.1-0.4c0.7,0,1.3,0.1,1.9,0.3c0.6,0.2,1,0.5,1.4,0.9
		c0.4,0.4,0.7,0.8,0.9,1.4c0.2,0.5,0.3,1.1,0.3,1.8v7.4H66.1z"/>
	<path fill="#FFFFFF" d="M82.8,18.3c0,0.5-0.1,0.9-0.4,1.3c-0.3,0.4-0.7,0.7-1.2,1c-0.5,0.3-1.1,0.5-1.8,0.7
		c-0.7,0.2-1.5,0.2-2.4,0.2c-0.9,0-1.7-0.1-2.4-0.2c-0.7-0.2-1.3-0.4-1.8-0.7c-0.5-0.3-0.9-0.6-1.2-1c-0.3-0.4-0.4-0.8-0.4-1.3h3.5
		c0,0.7,0.2,1.3,0.6,1.8c0.4,0.5,1,0.7,1.7,0.7c0.7,0,1.3-0.2,1.7-0.7c0.4-0.5,0.6-1,0.6-1.8c0-0.7-0.2-1.3-0.6-1.8
		c-0.4-0.5-0.9-0.7-1.7-0.7c-0.7,0-1.4,0-1.9-0.1c-0.6-0.1-1.1-0.2-1.5-0.3c-0.4-0.1-0.7-0.3-1-0.5c-0.2-0.2-0.3-0.4-0.3-0.6
		c0-0.3,0.2-0.6,0.5-0.8c0.3-0.2,0.8-0.4,1.5-0.5c-0.8-0.3-1.5-0.9-1.9-1.6c-0.5-0.7-0.7-1.5-0.7-2.5c0-0.7,0.1-1.3,0.4-1.9
		c0.3-0.6,0.6-1,1.1-1.4c0.5-0.4,1-0.7,1.7-0.9c0.7-0.2,1.4-0.3,2.2-0.3h5.1v0.8h-1.9c0.7,0.4,1.2,0.9,1.6,1.5
		c0.4,0.7,0.5,1.4,0.5,2.2c0,0.7-0.1,1.3-0.4,1.9c-0.3,0.6-0.6,1-1.1,1.4c-0.5,0.4-1,0.7-1.7,0.9c-0.7,0.2-1.4,0.3-2.2,0.3
		c-0.4,0-0.7,0.1-0.9,0.2c-0.2,0.1-0.3,0.3-0.3,0.6c0,0.2,0.1,0.4,0.3,0.5c0.2,0.1,0.5,0.2,0.9,0.2c0.9,0,1.6,0.1,2.4,0.2
		c0.7,0.2,1.3,0.4,1.8,0.7c0.5,0.3,0.9,0.6,1.2,1C82.7,17.4,82.8,17.9,82.8,18.3z M78.8,9c0-0.3,0-0.6-0.1-1.1
		c-0.1-0.4-0.2-0.8-0.3-1.2c-0.1-0.4-0.3-0.7-0.6-1c-0.2-0.3-0.5-0.4-0.8-0.4c-0.3,0-0.6,0.1-0.9,0.4c-0.2,0.3-0.4,0.6-0.6,1
		c-0.1,0.4-0.3,0.8-0.3,1.2c-0.1,0.4-0.1,0.8-0.1,1.1c0,0.3,0,0.7,0.1,1.1c0.1,0.4,0.2,0.8,0.3,1.2c0.1,0.4,0.3,0.7,0.6,1
		c0.2,0.3,0.5,0.4,0.9,0.4c0.3,0,0.6-0.1,0.8-0.4c0.2-0.3,0.4-0.6,0.6-1c0.1-0.4,0.3-0.8,0.3-1.2C78.8,9.7,78.8,9.3,78.8,9z"/>
	<path fill="#FFFFFF" d="M100.7,16.2L95,8.7v7.5h-3.5v-16H95v8.5l8.6-8.5h1.1L98,6.8l7.1,9.5H100.7z"/>
	<path fill="#FFFFFF" d="M113.7,16.2v-0.6c-0.1,0.1-0.3,0.2-0.6,0.3c-0.3,0.1-0.6,0.2-0.9,0.3c-0.3,0.1-0.7,0.1-1.1,0.2
		c-0.4,0-0.7,0.1-0.9,0.1c-0.6,0-1.2-0.1-1.7-0.2c-0.6-0.1-1-0.3-1.5-0.6c-0.4-0.3-0.8-0.6-1-1c-0.3-0.4-0.4-0.9-0.4-1.4
		c0-0.6,0.2-1.1,0.6-1.5c0.4-0.4,0.9-0.7,1.5-1c0.6-0.2,1.2-0.4,1.9-0.5c0.7-0.1,1.3-0.2,1.9-0.2c0.4,0,0.8-0.1,1.1-0.2
		c0.3-0.1,0.5-0.3,0.7-0.6c0.2-0.2,0.3-0.5,0.4-0.8c0.1-0.3,0.1-0.6,0.1-0.8c0-0.3,0-0.5-0.1-0.8c-0.1-0.3-0.2-0.5-0.4-0.8
		c-0.2-0.2-0.4-0.4-0.6-0.6c-0.3-0.2-0.6-0.2-1-0.2c-0.4,0-0.7,0.1-0.9,0.2c-0.3,0.2-0.5,0.4-0.6,0.6c-0.2,0.2-0.3,0.5-0.4,0.8
		c-0.1,0.3-0.1,0.5-0.1,0.8H106c0-0.6,0.2-1.1,0.6-1.5c0.4-0.4,0.8-0.7,1.4-1c0.6-0.3,1.2-0.4,1.8-0.5c0.7-0.1,1.3-0.2,1.8-0.2
		c0.6,0,1.2,0.1,1.8,0.2c0.7,0.1,1.3,0.3,1.8,0.5c0.6,0.3,1,0.6,1.4,1c0.4,0.4,0.6,0.9,0.6,1.5v8.6H113.7z M113.7,10.2
		c-0.3,0.2-0.6,0.3-1,0.4c-0.4,0.1-0.8,0.2-1.3,0.2c-0.4,0-0.8,0.1-1.1,0.2c-0.3,0.1-0.5,0.3-0.7,0.6c-0.2,0.2-0.3,0.5-0.4,0.8
		c-0.1,0.3-0.1,0.6-0.1,0.8s0,0.5,0.1,0.8c0.1,0.3,0.2,0.5,0.4,0.8c0.2,0.2,0.4,0.4,0.7,0.6c0.3,0.1,0.7,0.2,1.1,0.2
		c0.4,0,0.7-0.1,1-0.2c0.3-0.1,0.5-0.3,0.7-0.6c0.2-0.2,0.3-0.5,0.4-0.8c0.1-0.3,0.1-0.6,0.1-0.8V10.2z"/>
	<path fill="#FFFFFF" d="M135.7,16.2V8.8c0-1.1-0.2-1.9-0.6-2.6c-0.4-0.6-0.9-1-1.7-1c-0.7,0-1.3,0.3-1.7,1
		c-0.4,0.6-0.6,1.5-0.6,2.6v7.4h-3.5V8.8c0-1.1-0.2-1.9-0.6-2.6c-0.4-0.6-0.9-1-1.7-1c-0.7,0-1.3,0.3-1.7,1
		c-0.4,0.6-0.6,1.5-0.6,2.6v7.4h-3.5V4.7h3.5v1.4c0.4-0.5,0.8-0.9,1.4-1.2c0.6-0.3,1.3-0.4,2.1-0.4c1,0,1.8,0.2,2.5,0.6
		c0.7,0.4,1.2,1,1.5,1.7c0.3-0.7,0.9-1.2,1.5-1.7c0.7-0.4,1.5-0.6,2.5-0.6c0.7,0,1.3,0.1,1.9,0.3c0.6,0.2,1,0.5,1.4,0.9
		c0.4,0.4,0.7,0.8,0.9,1.4c0.2,0.5,0.3,1.1,0.3,1.8v7.4H135.7z"/>
	<path fill="#FFFFFF" d="M145.4,1.5c0,0.3-0.1,0.5-0.2,0.7c-0.1,0.2-0.3,0.3-0.5,0.5c-0.2,0.1-0.4,0.2-0.6,0.3
		C143.8,3,143.6,3,143.4,3c-0.2,0-0.4,0-0.7-0.1c-0.2-0.1-0.4-0.2-0.6-0.3c-0.2-0.1-0.4-0.3-0.5-0.5c-0.1-0.2-0.2-0.4-0.2-0.7
		c0-0.3,0.1-0.5,0.2-0.7c0.1-0.2,0.3-0.3,0.5-0.5c0.2-0.1,0.4-0.2,0.6-0.3C143,0,143.2,0,143.4,0c0.2,0,0.4,0,0.7,0.1
		c0.2,0.1,0.4,0.2,0.6,0.3c0.2,0.1,0.4,0.3,0.5,0.5C145.3,1,145.4,1.3,145.4,1.5z M145,16.4c-0.6,0-1.2-0.1-1.6-0.2
		c-0.4-0.1-0.8-0.3-1-0.6c-0.3-0.3-0.4-0.6-0.6-1c-0.1-0.4-0.2-0.9-0.2-1.4V4.7h3.5v9.5c0,0.3,0,0.6,0.1,0.8
		c0.1,0.3,0.2,0.4,0.5,0.4c0.3,0,0.5,0,0.6-0.1c0.2-0.1,0.3-0.2,0.4-0.3v1C146.3,16.2,145.7,16.4,145,16.4z"/>
</g>
</svg>
