<?xml version="1.0" encoding="utf-8"?>
<!-- Generator: Adobe Illustrator 17.1.0, SVG Export Plug-In . SVG Version: 6.00 Build 0)  -->
<!DOCTYPE svg PUBLIC "-//W3C//DTD SVG 1.1//EN" "http://www.w3.org/Graphics/SVG/1.1/DTD/svg11.dtd" [
	<!ENTITY ns_extend "http://ns.adobe.com/Extensibility/1.0/">
	<!ENTITY ns_ai "http://ns.adobe.com/AdobeIllustrator/10.0/">
	<!ENTITY ns_graphs "http://ns.adobe.com/Graphs/1.0/">
	<!ENTITY ns_vars "http://ns.adobe.com/Variables/1.0/">
	<!ENTITY ns_imrep "http://ns.adobe.com/ImageReplacement/1.0/">
	<!ENTITY ns_sfw "http://ns.adobe.com/SaveForWeb/1.0/">
	<!ENTITY ns_custom "http://ns.adobe.com/GenericCustomNamespace/1.0/">
	<!ENTITY ns_adobe_xpath "http://ns.adobe.com/XPath/1.0/">
]>
<svg version="1.1" id="Layer_1" xmlns:x="&ns_extend;" xmlns:i="&ns_ai;" xmlns:graph="&ns_graphs;"
	 xmlns="http://www.w3.org/2000/svg" xmlns:xlink="http://www.w3.org/1999/xlink" x="0px" y="0px" viewBox="0 0 89.3 16.6"
	 enable-background="new 0 0 89.3 16.6" xml:space="preserve">
<metadata>
	<sfw  xmlns="&ns_sfw;">
		<slices></slices>
		<sliceSourceBounds  width="729.3" height="21.6" y="157.2" x="-263.1" bottomLeftOrigin="true"></sliceSourceBounds>
	</sfw>
</metadata>
<g>
	<path fill="#FFFFFF" d="M12.4,12.1c0,0.6-0.2,1.2-0.5,1.7c-0.3,0.5-0.8,1-1.3,1.4c-0.6,0.4-1.3,0.7-2.1,0.9
		c-0.8,0.2-1.7,0.3-2.8,0.3H0V0h5.8c0.9,0,1.8,0.1,2.5,0.3C9,0.6,9.7,0.9,10.2,1.2c0.5,0.4,0.9,0.8,1.2,1.4c0.3,0.5,0.4,1.1,0.4,1.7
		c0,0.9-0.3,1.6-0.8,2.3C10.4,7.2,9.7,7.7,8.6,8c1.2,0.3,2.2,0.8,2.8,1.5C12.1,10.3,12.4,11.1,12.4,12.1z M8.2,4.3
		c0-0.5-0.1-0.9-0.2-1.4C7.9,2.5,7.8,2.1,7.6,1.8C7.3,1.5,7.1,1.3,6.8,1.1c-0.3-0.2-0.6-0.3-1-0.3H3.6v6.9h2.2c0.4,0,0.7-0.1,1-0.3
		C7.1,7.3,7.3,7,7.6,6.7C7.8,6.4,7.9,6.1,8,5.6C8.1,5.2,8.2,4.8,8.2,4.3z M8.8,12.1c0-0.5-0.1-1-0.2-1.4C8.5,10.2,8.3,9.9,8,9.6
		C7.8,9.2,7.4,9,7.1,8.8C6.7,8.6,6.3,8.5,5.8,8.5H3.6v7.1h2.2c0.5,0,0.9-0.1,1.3-0.3c0.4-0.2,0.7-0.4,0.9-0.7
		c0.3-0.3,0.5-0.7,0.6-1.1C8.7,13,8.8,12.6,8.8,12.1z"/>
	<path fill="#FFFFFF" d="M17.7,10.5c0,0.4,0,0.9,0.1,1.5c0.1,0.6,0.2,1.2,0.4,1.8c0.2,0.6,0.5,1.1,0.8,1.5c0.3,0.4,0.7,0.6,1.2,0.6
		c0.3,0,0.5-0.1,0.8-0.2c0.2-0.1,0.4-0.3,0.6-0.6c0.2-0.2,0.3-0.5,0.5-0.8c0.1-0.3,0.3-0.7,0.3-1h3.4c-0.4,1.1-1.2,1.9-2.1,2.6
		c-1,0.6-2.1,0.9-3.5,0.9c-0.9,0-1.8-0.1-2.5-0.4c-0.8-0.3-1.4-0.7-1.9-1.2c-0.5-0.5-1-1.2-1.2-1.9c-0.3-0.8-0.4-1.6-0.4-2.5
		c0-0.9,0.1-1.8,0.4-2.5c0.3-0.8,0.7-1.4,1.2-1.9c0.5-0.5,1.2-0.9,1.9-1.2c0.8-0.3,1.6-0.4,2.5-0.4c0.9,0,1.7,0.1,2.5,0.4
		c0.8,0.3,1.4,0.7,1.9,1.2c0.5,0.5,0.9,1.2,1.2,1.9c0.3,0.8,0.4,1.6,0.4,2.5H17.7z M22.6,8.1c-0.1-0.5-0.3-1-0.5-1.5
		c-0.2-0.4-0.5-0.8-0.8-1.1c-0.3-0.3-0.7-0.4-1.1-0.4c-0.4,0-0.8,0.1-1.1,0.4c-0.3,0.3-0.6,0.6-0.8,1.1c-0.2,0.4-0.4,0.9-0.5,1.5
		c-0.1,0.5-0.2,1.1-0.2,1.6h5C22.7,9.2,22.7,8.7,22.6,8.1z"/>
	<path fill="#FFFFFF" d="M35.1,5.9c-0.2-0.5-0.4-0.7-0.7-0.7c-0.7,0-1.3,0.4-1.7,1c-0.4,0.7-0.6,1.5-0.6,2.6v7.6h-3.6V4.6h3.6V6
		c0.4-0.5,0.9-0.9,1.5-1.2c0.6-0.3,1.3-0.5,2.1-0.5c0.3,0,0.5,0,0.8,0.1L35.1,5.9z"/>
	<path fill="#FFFFFF" d="M43.3,16.4v-0.7c-0.1,0.1-0.4,0.2-0.6,0.4c-0.3,0.1-0.6,0.2-1,0.3c-0.3,0.1-0.7,0.1-1.1,0.2
		c-0.4,0-0.7,0.1-1,0.1c-0.6,0-1.2-0.1-1.8-0.2c-0.6-0.1-1.1-0.3-1.5-0.6c-0.4-0.3-0.8-0.6-1.1-1c-0.3-0.4-0.4-0.9-0.4-1.5
		c0-0.6,0.2-1.1,0.6-1.5c0.4-0.4,0.9-0.8,1.5-1c0.6-0.3,1.3-0.4,2-0.5c0.7-0.1,1.4-0.2,1.9-0.2c0.4,0,0.8-0.1,1.1-0.2
		c0.3-0.2,0.5-0.3,0.7-0.6c0.2-0.2,0.3-0.5,0.4-0.8c0.1-0.3,0.1-0.6,0.1-0.9c0-0.3,0-0.5-0.1-0.8c-0.1-0.3-0.2-0.6-0.4-0.8
		c-0.2-0.2-0.4-0.4-0.7-0.6c-0.3-0.2-0.6-0.2-1-0.2c-0.4,0-0.7,0.1-1,0.2c-0.3,0.2-0.5,0.4-0.7,0.6c-0.2,0.2-0.3,0.5-0.4,0.8
		C39.1,7.1,39,7.4,39,7.6h-3.6c0-0.6,0.2-1.1,0.6-1.5c0.4-0.4,0.9-0.7,1.4-1c0.6-0.3,1.2-0.4,1.9-0.6c0.7-0.1,1.3-0.2,1.9-0.2
		c0.6,0,1.2,0.1,1.9,0.2c0.7,0.1,1.3,0.3,1.9,0.6c0.6,0.3,1.1,0.6,1.4,1s0.6,0.9,0.6,1.5v8.8H43.3z M43.3,10.3
		c-0.3,0.2-0.6,0.3-1,0.5c-0.4,0.1-0.9,0.2-1.4,0.2c-0.4,0-0.8,0.1-1.1,0.2c-0.3,0.2-0.6,0.3-0.7,0.6c-0.2,0.2-0.3,0.5-0.4,0.8
		c-0.1,0.3-0.1,0.6-0.1,0.9c0,0.3,0,0.6,0.1,0.9c0.1,0.3,0.2,0.6,0.4,0.8c0.2,0.2,0.4,0.4,0.7,0.6c0.3,0.2,0.7,0.2,1.1,0.2
		c0.4,0,0.8-0.1,1.1-0.2c0.3-0.2,0.6-0.3,0.8-0.6c0.2-0.2,0.3-0.5,0.4-0.8c0.1-0.3,0.1-0.6,0.1-0.9V10.3z"/>
	<path fill="#FFFFFF" d="M57.6,16.4V8.8c0-1.1-0.2-2-0.6-2.6c-0.4-0.7-1-1-1.7-1c-0.7,0-1.3,0.3-1.7,1C53.2,6.8,53,7.7,53,8.8v7.6
		h-3.6V4.6H53V6c0.4-0.5,0.9-0.9,1.5-1.2c0.6-0.3,1.3-0.4,2.1-0.4c0.7,0,1.3,0.1,1.9,0.3c0.6,0.2,1.1,0.5,1.5,0.9
		C60.3,6,60.7,6.4,60.9,7c0.2,0.5,0.3,1.1,0.3,1.8v7.6H57.6z"/>
	<path fill="#FFFFFF" d="M71.6,16.4v-1.1c-0.3,0.4-0.6,0.8-1.1,1c-0.4,0.2-0.9,0.4-1.4,0.4c-0.9,0-1.7-0.1-2.4-0.4
		c-0.7-0.3-1.3-0.7-1.8-1.2c-0.5-0.5-0.9-1.2-1.2-1.9c-0.3-0.8-0.4-1.6-0.4-2.5c0-0.9,0.1-1.8,0.4-2.5s0.6-1.4,1.2-1.9
		c0.5-0.5,1.1-0.9,1.8-1.2c0.7-0.3,1.5-0.4,2.4-0.4c0.5,0,1,0.1,1.4,0.4c0.4,0.2,0.8,0.6,1.1,1V0h3.6v16.4H71.6z M71.6,7.8
		c-0.1-0.3-0.2-0.7-0.3-1C71.1,6.5,71,6.2,70.8,6c-0.2-0.2-0.4-0.4-0.6-0.6c-0.2-0.1-0.5-0.2-0.8-0.2c-0.5,0-0.9,0.2-1.2,0.6
		c-0.3,0.4-0.6,0.9-0.8,1.5C67.3,7.8,67.1,8.4,67,9c-0.1,0.6-0.1,1.1-0.1,1.5c0,0.4,0,0.9,0.1,1.5c0.1,0.6,0.2,1.2,0.4,1.8
		c0.2,0.6,0.5,1.1,0.8,1.5c0.3,0.4,0.7,0.6,1.2,0.6c0.3,0,0.5-0.1,0.8-0.2c0.2-0.1,0.4-0.3,0.6-0.6c0.2-0.2,0.3-0.5,0.5-0.8
		c0.1-0.3,0.3-0.7,0.3-1V7.8z"/>
	<path fill="#FFFFFF" d="M85.7,16.4v-0.7c-0.1,0.1-0.4,0.2-0.6,0.4c-0.3,0.1-0.6,0.2-1,0.3c-0.3,0.1-0.7,0.1-1.1,0.2
		c-0.4,0-0.7,0.1-1,0.1c-0.6,0-1.2-0.1-1.8-0.2c-0.6-0.1-1.1-0.3-1.5-0.6c-0.4-0.3-0.8-0.6-1.1-1c-0.3-0.4-0.4-0.9-0.4-1.5
		c0-0.6,0.2-1.1,0.6-1.5c0.4-0.4,0.9-0.8,1.5-1c0.6-0.3,1.3-0.4,2-0.5c0.7-0.1,1.4-0.2,1.9-0.2c0.4,0,0.8-0.1,1.1-0.2
		c0.3-0.2,0.5-0.3,0.7-0.6c0.2-0.2,0.3-0.5,0.4-0.8c0.1-0.3,0.1-0.6,0.1-0.9c0-0.3,0-0.5-0.1-0.8c-0.1-0.3-0.2-0.6-0.4-0.8
		c-0.2-0.2-0.4-0.4-0.7-0.6c-0.3-0.2-0.6-0.2-1-0.2c-0.4,0-0.7,0.1-1,0.2c-0.3,0.2-0.5,0.4-0.7,0.6c-0.2,0.2-0.3,0.5-0.4,0.8
		c-0.1,0.3-0.1,0.6-0.1,0.8h-3.6c0-0.6,0.2-1.1,0.6-1.5s0.9-0.7,1.4-1c0.6-0.3,1.2-0.4,1.9-0.6c0.7-0.1,1.3-0.2,1.9-0.2
		c0.6,0,1.2,0.1,1.9,0.2c0.7,0.1,1.3,0.3,1.9,0.6c0.6,0.3,1.1,0.6,1.4,1s0.6,0.9,0.6,1.5v8.8H85.7z M85.7,10.3
		c-0.3,0.2-0.6,0.3-1,0.5c-0.4,0.1-0.9,0.2-1.4,0.2c-0.4,0-0.8,0.1-1.1,0.2c-0.3,0.2-0.6,0.3-0.7,0.6c-0.2,0.2-0.3,0.5-0.4,0.8
		c-0.1,0.3-0.1,0.6-0.1,0.9c0,0.3,0,0.6,0.1,0.9c0.1,0.3,0.2,0.6,0.4,0.8c0.2,0.2,0.4,0.4,0.7,0.6c0.3,0.2,0.7,0.2,1.1,0.2
		c0.4,0,0.8-0.1,1.1-0.2c0.3-0.2,0.6-0.3,0.8-0.6c0.2-0.2,0.3-0.5,0.4-0.8c0.1-0.3,0.1-0.6,0.1-0.9V10.3z"/>
</g>
</svg>
