<?xml version="1.0" encoding="utf-8"?>
<!-- Generator: Adobe Illustrator 17.1.0, SVG Export Plug-In . SVG Version: 6.00 Build 0)  -->
<!DOCTYPE svg PUBLIC "-//W3C//DTD SVG 1.1//EN" "http://www.w3.org/Graphics/SVG/1.1/DTD/svg11.dtd" [
	<!ENTITY ns_extend "http://ns.adobe.com/Extensibility/1.0/">
	<!ENTITY ns_ai "http://ns.adobe.com/AdobeIllustrator/10.0/">
	<!ENTITY ns_graphs "http://ns.adobe.com/Graphs/1.0/">
	<!ENTITY ns_vars "http://ns.adobe.com/Variables/1.0/">
	<!ENTITY ns_imrep "http://ns.adobe.com/ImageReplacement/1.0/">
	<!ENTITY ns_sfw "http://ns.adobe.com/SaveForWeb/1.0/">
	<!ENTITY ns_custom "http://ns.adobe.com/GenericCustomNamespace/1.0/">
	<!ENTITY ns_adobe_xpath "http://ns.adobe.com/XPath/1.0/">
]>
<svg version="1.1" id="Layer_1" xmlns:x="&ns_extend;" xmlns:i="&ns_ai;" xmlns:graph="&ns_graphs;"
	 xmlns="http://www.w3.org/2000/svg" xmlns:xlink="http://www.w3.org/1999/xlink" x="0px" y="0px" viewBox="0 0 150.5 16.5"
	 enable-background="new 0 0 150.5 16.5" xml:space="preserve">
<metadata>
	<sfw  xmlns="&ns_sfw;">
		<slices></slices>
		<sliceSourceBounds  width="729.3" height="21.6" y="157.2" x="-263.1" bottomLeftOrigin="true"></sliceSourceBounds>
	</sfw>
</metadata>
<g>
	<path fill="#FFFFFF" d="M0,16.2v-16h11.2V1H3.5v6.5h5.2v0.8H3.5v7.2h7.9v0.8H0z"/>
	<path fill="#FFFFFF" d="M16,16.2h-3.5L8.6,4.7h3.7l3.4,9.9l3.4-9.9h0.8L16,16.2z"/>
	<path fill="#FFFFFF" d="M24.2,10.5c0,0.4,0,0.9,0.1,1.5c0.1,0.6,0.2,1.2,0.4,1.7c0.2,0.6,0.4,1,0.8,1.4c0.3,0.4,0.7,0.6,1.2,0.6
		c0.3,0,0.5-0.1,0.8-0.2c0.2-0.1,0.4-0.3,0.6-0.6c0.2-0.2,0.3-0.5,0.5-0.8c0.1-0.3,0.2-0.6,0.3-1h3.3c-0.4,1.1-1.1,1.9-2.1,2.5
		c-1,0.6-2.1,0.9-3.4,0.9c-0.9,0-1.7-0.1-2.5-0.4c-0.7-0.3-1.4-0.7-1.9-1.2c-0.5-0.5-0.9-1.2-1.2-1.9c-0.3-0.7-0.4-1.6-0.4-2.5
		c0-0.9,0.1-1.7,0.4-2.5c0.3-0.7,0.7-1.4,1.2-1.9c0.5-0.5,1.2-0.9,1.9-1.2c0.7-0.3,1.6-0.4,2.5-0.4c0.9,0,1.7,0.1,2.4,0.4
		c0.7,0.3,1.4,0.7,1.9,1.2C31.5,6.7,32,7.3,32.2,8c0.3,0.7,0.4,1.6,0.4,2.5H24.2z M28.9,8.2c-0.1-0.5-0.3-1-0.5-1.4
		c-0.2-0.4-0.4-0.8-0.7-1c-0.3-0.3-0.6-0.4-1-0.4c-0.4,0-0.7,0.1-1,0.4c-0.3,0.3-0.5,0.6-0.7,1c-0.2,0.4-0.4,0.9-0.5,1.4
		c-0.1,0.5-0.2,1-0.2,1.5h4.8C29.1,9.2,29,8.7,28.9,8.2z"/>
	<path fill="#FFFFFF" d="M42.7,16.2V8.8c0-1.1-0.2-1.9-0.6-2.6c-0.4-0.6-0.9-1-1.7-1c-0.7,0-1.3,0.3-1.7,1c-0.4,0.6-0.6,1.5-0.6,2.6
		v7.4h-3.5V4.7h3.5v1.4c0.4-0.5,0.8-0.9,1.4-1.2c0.6-0.3,1.3-0.4,2.1-0.4c0.7,0,1.3,0.1,1.9,0.3c0.6,0.2,1,0.5,1.4,0.9
		c0.4,0.4,0.7,0.8,0.9,1.4c0.2,0.5,0.3,1.1,0.3,1.8v7.4H42.7z"/>
	<path fill="#FFFFFF" d="M73.3,6c-0.2,0.4-0.6,0.7-1,0.9c-0.4,0.2-0.9,0.4-1.5,0.6c-0.6,0.1-1.3,0.2-2.1,0.3c0.4,0,0.9,0.1,1.4,0.4
		c0.5,0.2,1,0.5,1.4,0.9c0.4,0.4,0.8,0.8,1.1,1.3c0.3,0.5,0.4,1,0.4,1.5c0,0.6-0.2,1.2-0.5,1.7c-0.3,0.6-0.8,1-1.5,1.5
		c-0.7,0.4-1.6,0.8-2.7,1c-1.1,0.2-2.3,0.4-3.8,0.4c-2.9,0-5.2-0.4-6.8-1.1c-1.6-0.7-2.4-1.7-2.4-2.9c0-1,0.3-1.9,1-2.7
		c0.7-0.7,1.7-1.3,3-1.6c-1.1-0.3-2-0.8-2.6-1.5C56.3,6,56,5.2,56,4.3c0-0.6,0.1-1.2,0.4-1.7c0.3-0.5,0.7-1,1.2-1.4
		c0.5-0.4,1.2-0.7,2-0.9C60.4,0.1,61.3,0,62.2,0c1,0,1.8,0.1,2.6,0.3c0.8,0.2,1.4,0.5,2,0.9c0.5,0.4,1,0.8,1.2,1.4
		c0.3,0.5,0.4,1.1,0.4,1.7h-3.5c0-0.5-0.1-1-0.2-1.4c-0.1-0.4-0.3-0.8-0.5-1.1C64,1.5,63.7,1.2,63.4,1c-0.3-0.2-0.7-0.3-1.1-0.3
		c-0.4,0-0.8,0.1-1.2,0.3c-0.3,0.2-0.6,0.4-0.9,0.7c-0.2,0.3-0.4,0.7-0.5,1.1c-0.1,0.4-0.2,0.9-0.2,1.4c0,0.5,0.1,0.9,0.2,1.4
		c0.1,0.4,0.3,0.8,0.5,1.1c0.2,0.3,0.5,0.6,0.9,0.8c0.3,0.2,0.7,0.3,1.2,0.3v0.8c-0.5,0-1,0.1-1.4,0.3c-0.4,0.2-0.8,0.4-1,0.7
		c-0.3,0.3-0.5,0.7-0.6,1.1c-0.1,0.4-0.2,0.9-0.2,1.4c0,0.5,0.1,1,0.4,1.4c0.2,0.4,0.6,0.8,1.1,1.1c0.5,0.3,1.1,0.6,1.8,0.7
		c0.7,0.2,1.5,0.3,2.5,0.3c0.8,0,1.5-0.1,2.1-0.3c0.6-0.2,1.1-0.5,1.5-0.9c0.4-0.4,0.7-0.8,1-1.3c0.2-0.5,0.4-1,0.4-1.5
		c0-0.5,0-1-0.2-1.5c-0.2-0.5-0.4-0.9-0.7-1.2c-0.3-0.3-0.6-0.6-1-0.7C67.3,8,67,8,66.7,8.1c-0.3,0.1-0.6,0.4-0.9,0.7
		c-0.3,0.4-0.5,1-0.6,1.7l-3.5-0.1c0.1-0.6,0.2-1.1,0.5-1.5c0.3-0.4,0.7-0.8,1.2-1c0.5-0.3,1.1-0.4,1.8-0.5c0.7-0.1,1.4,0,2.2,0.1
		c0.4,0.1,0.8,0,1.2-0.1c0.4-0.1,0.7-0.3,1-0.6c0.3-0.3,0.5-0.6,0.6-1c0.1-0.4,0.2-0.8,0.1-1.3l3.5,0.1C73.7,5.2,73.5,5.6,73.3,6z"
		/>
	<path fill="#FFFFFF" d="M94.7,5.4c0,0.7-0.1,1.4-0.4,2.1c-0.3,0.6-0.7,1.2-1.2,1.6c-0.5,0.5-1.1,0.8-1.8,1.1
		c-0.7,0.3-1.5,0.4-2.4,0.4h-2.1v5.6h-3.5v-16h5.7c0.9,0,1.7,0.1,2.4,0.4c0.7,0.3,1.3,0.6,1.8,1.1c0.5,0.5,0.9,1,1.2,1.6
		C94.5,4,94.7,4.7,94.7,5.4z M91.1,5.4c0-0.6-0.1-1.2-0.2-1.7c-0.1-0.5-0.3-1-0.5-1.4c-0.2-0.4-0.4-0.7-0.7-0.9
		c-0.3-0.2-0.6-0.3-1-0.3h-2.1v8.9h2.1c0.4,0,0.7-0.1,1-0.3c0.3-0.2,0.5-0.5,0.7-0.9c0.2-0.4,0.4-0.9,0.5-1.4
		C91.1,6.6,91.1,6.1,91.1,5.4z"/>
	<path fill="#FFFFFF" d="M103.1,5.9c-0.2-0.4-0.4-0.7-0.7-0.7c-0.7,0-1.2,0.3-1.6,1c-0.4,0.6-0.6,1.5-0.6,2.5v7.4h-3.5V4.7h3.5v1.4
		c0.4-0.5,0.8-0.9,1.4-1.1c0.6-0.3,1.3-0.4,2-0.5c0.3,0,0.5,0,0.8,0.1L103.1,5.9z"/>
	<path fill="#FFFFFF" d="M114.9,10.5c0,0.9-0.1,1.7-0.4,2.5c-0.3,0.7-0.7,1.4-1.2,1.9c-0.5,0.5-1.1,0.9-1.9,1.2
		c-0.7,0.3-1.6,0.4-2.4,0.4c-0.9,0-1.7-0.1-2.5-0.4c-0.7-0.3-1.4-0.7-1.9-1.2c-0.5-0.5-0.9-1.2-1.2-1.9c-0.3-0.7-0.4-1.6-0.4-2.5
		c0-0.9,0.1-1.7,0.4-2.5c0.3-0.7,0.7-1.4,1.2-1.9c0.5-0.5,1.2-0.9,1.9-1.2c0.7-0.3,1.6-0.4,2.5-0.4c0.9,0,1.7,0.1,2.4,0.4
		c0.7,0.3,1.4,0.7,1.9,1.2c0.5,0.5,0.9,1.1,1.2,1.9C114.8,8.8,114.9,9.6,114.9,10.5z M111.4,10.5c0-0.4,0-0.9-0.1-1.5
		c-0.1-0.6-0.2-1.2-0.4-1.7c-0.2-0.6-0.4-1-0.8-1.4c-0.3-0.4-0.7-0.6-1.1-0.6c-0.5,0-0.8,0.2-1.2,0.6c-0.3,0.4-0.6,0.9-0.8,1.4
		c-0.2,0.6-0.3,1.1-0.4,1.7c-0.1,0.6-0.1,1.1-0.1,1.5c0,0.4,0,0.9,0.1,1.5c0.1,0.6,0.2,1.2,0.4,1.7c0.2,0.6,0.4,1,0.8,1.4
		c0.3,0.4,0.7,0.6,1.2,0.6c0.4,0,0.8-0.2,1.1-0.6c0.3-0.4,0.6-0.9,0.8-1.4c0.2-0.6,0.3-1.1,0.4-1.7
		C111.3,11.4,111.4,10.9,111.4,10.5z"/>
	<path fill="#FFFFFF" d="M133,16.2V8.8c0-1.1-0.2-1.9-0.6-2.6c-0.4-0.6-0.9-1-1.7-1c-0.7,0-1.3,0.3-1.7,1c-0.4,0.6-0.6,1.5-0.6,2.6
		v7.4H125V8.8c0-1.1-0.2-1.9-0.6-2.6c-0.4-0.6-0.9-1-1.7-1c-0.7,0-1.3,0.3-1.7,1c-0.4,0.6-0.6,1.5-0.6,2.6v7.4h-3.5V4.7h3.5v1.4
		c0.4-0.5,0.8-0.9,1.4-1.2c0.6-0.3,1.3-0.4,2.1-0.4c1,0,1.8,0.2,2.5,0.6c0.7,0.4,1.2,1,1.5,1.7c0.3-0.7,0.9-1.2,1.5-1.7
		c0.7-0.4,1.5-0.6,2.5-0.6c0.7,0,1.3,0.1,1.9,0.3c0.6,0.2,1,0.5,1.4,0.9c0.4,0.4,0.7,0.8,0.9,1.4c0.2,0.5,0.3,1.1,0.3,1.8v7.4H133z"
		/>
	<path fill="#FFFFFF" d="M150.5,10.5c0,0.9-0.1,1.7-0.4,2.5c-0.3,0.7-0.7,1.4-1.2,1.9c-0.5,0.5-1.1,0.9-1.9,1.2
		c-0.7,0.3-1.6,0.4-2.4,0.4c-0.9,0-1.7-0.1-2.5-0.4c-0.7-0.3-1.4-0.7-1.9-1.2c-0.5-0.5-0.9-1.2-1.2-1.9c-0.3-0.7-0.4-1.6-0.4-2.5
		c0-0.9,0.1-1.7,0.4-2.5c0.3-0.7,0.7-1.4,1.2-1.9c0.5-0.5,1.2-0.9,1.9-1.2c0.7-0.3,1.6-0.4,2.5-0.4c0.9,0,1.7,0.1,2.4,0.4
		c0.7,0.3,1.4,0.7,1.9,1.2c0.5,0.5,0.9,1.1,1.2,1.9C150.4,8.8,150.5,9.6,150.5,10.5z M147,10.5c0-0.4,0-0.9-0.1-1.5
		c-0.1-0.6-0.2-1.2-0.4-1.7c-0.2-0.6-0.4-1-0.8-1.4c-0.3-0.4-0.7-0.6-1.1-0.6c-0.5,0-0.8,0.2-1.2,0.6c-0.3,0.4-0.6,0.9-0.8,1.4
		c-0.2,0.6-0.3,1.1-0.4,1.7c-0.1,0.6-0.1,1.1-0.1,1.5c0,0.4,0,0.9,0.1,1.5c0.1,0.6,0.2,1.2,0.4,1.7c0.2,0.6,0.4,1,0.8,1.4
		c0.3,0.4,0.7,0.6,1.2,0.6c0.4,0,0.8-0.2,1.1-0.6c0.3-0.4,0.6-0.9,0.8-1.4c0.2-0.6,0.3-1.1,0.4-1.7C146.9,11.4,147,10.9,147,10.5z"
		/>
</g>
</svg>
